<?xml version="1.0" encoding="UTF-8"?>
<svg id="Layer_1" xmlns="http://www.w3.org/2000/svg" version="1.1" viewBox="0 0 612 612">
  <!-- Generator: Adobe Illustrator 30.2.1, SVG Export Plug-In . SVG Version: 2.1.1 Build 1)  -->
  <defs>
    <style>
      .st0 {
        fill: #70757c;
      }

      .st1 {
        fill: #a3a2a2;
      }

      .st2 {
        fill: #4d5258;
      }
    </style>
  </defs>
  <path class="st1" d="M220.33,328.3c-7.3,14.24-9.73,25.54-6.71,32.32-6.08,3.29-12.65,5.76-19.58,7.3-4.84-10.19-5.95-21.32-8.41-32.12-.25-7.1.29-13.93,6.55-18.76,6.76-3.32,13.5-3.63,20.76-1.13,7.73,2.65,9.26,4.55,7.39,12.39Z"/>
  <path class="st1" d="M165.4,351.9c-1.13,5.37-3.08,10.58-6.08,15.57-6.46-1.6-12.59-4.04-18.27-7.17.01-.15.01-.29.01-.44-.01-1.29.24-2.88-.4-3.82-3.37-4.91-2.34-10.22-1.89-15.54.24-2.77.28-5.54-.77-8.24-.19-.48-.32-.94-.41-1.38-.26-1.27-.13-2.4.3-3.41.12-.26.25-.51.4-.76.15-.24.33-.48.52-.71.1-.11.2-.22.31-.33.63-.67,1.42-1.25,2.33-1.77,5.59-3.21,11.5-5.19,18.07-4.37,1.33.62,2.39,1.37,3.24,2.23.13.12.24.25.36.37.23.26.44.52.63.79,2.14,2.97,2.45,6.85,2.72,10.67.43,6.27.18,12.39-1.07,18.31Z"/>
  <path class="st0" d="M247.6,323.04h0c-4.81,11.56-12.39,21.65-21.91,29.47-.45-2.42-1.97-4.43-3.45-6.23-2.97-3.67-3.49-7.16-.88-11.09,1.77-1.64,2.03-5.01,5.45-4.78,1.75-.39,1.95-1.75,2-3.21.06-.38.12-.75.19-1.13.6-3.85-.77-6.96-3.11-10.02-4.05-5.3-9.02-9.04-15.29-11.31-1.06-.38-1.87-.73-2.45-1.09-.16-.11-.31-.21-.44-.31-.06-.05-.12-.1-.17-.16-.11-.11-.2-.21-.28-.32-.01-.01,0-.01,0-.01-.19-.3-.25-.63-.18-1.01,0-.05.01-.09.03-.14.02-.08.05-.16.08-.25.14-.36.38-.77.71-1.22.34-.46.77-.97,1.3-1.56l.33-.36c.9-1.02,1.61-2,1.27-3.49-.01-.04-.04-.07-.05-.12,1.18-.43,2.19-.63,3.05-.62,1.4,1.97,3.04,3.66,5.04,4.93.17.42.34.86.51,1.34.35.98.73,1.96,1.14,2.92.41.96.85,1.9,1.32,2.82.72,1.38,1.51,2.71,2.41,3.95,2.71,3.73,6.35,6.7,11.49,8.12-2.59-3.36-5.18-6.71-7.77-10.06-.27-2.5-.93-4.76-2.66-6.36-.13-.12-.27-.24-.42-.36-.29-.23-.61-.44-.96-.64,2.29-1.57,3.22-5.77,7.34-3.73h.01c.73.49,1.42.99,2.07,1.51.42.35.83.71,1.21,1.09,2.26,2.26,3.63,5.02,3.4,8.74-.13,2.18,1.67,3.06,2.93,4.28.12.18.23.37.34.55.21.38.41.76.59,1.15.09.2.18.39.27.59.44.99.84,2,1.33,2.96.49.97,1.06,1.89,1.84,2.7.31.33.66.64,1.05.92.52.39.89,1.04,1.32,1.54Z"/>
  <path class="st0" d="M132.79,322.06c-.25.23-.55.47-.9.72-4.62,3.28-8.81,7.49-15.28,4.31-1.07-.53-2.59-.29-3.87-.14-.95.11-2.22-.01-3.25.15-1.47-3.01-2.75-6.13-3.81-9.36.22-.07.43-.13.65-.18,1.79-.49,3.58-.99,5.4-1.33,6.66-1.25,13.29-1.79,19.62,1.4,2.5,1.25,3.46,2.57,1.44,4.43Z"/>
  <path class="st0" d="M132.46,349.92c-.38,1.23-1.1,2.45-1.45,3.74-4.03-3.14-7.72-6.69-11.03-10.57.09-.23.17-.45.26-.64,1-2.18,2.37-4.03,3.91-5.75.39-.42.79-.84,1.19-1.25,1.21-1.25,2.49-2.42,3.76-3.62,3.04-2.89,4.19-1.54,5.04,1.73,1.49,5.7-.02,11-1.68,16.36Z"/>
  <path class="st2" d="M243.39,317.88c.48.97,1.06,1.89,1.84,2.7-.78-.81-1.35-1.73-1.84-2.7ZM224.22,310.04c-.9-1.24-1.69-2.57-2.41-3.95.71,1.38,1.51,2.71,2.41,3.95ZM221.81,306.09c-.47-.92-.91-1.86-1.32-2.82.4.96.84,1.9,1.32,2.82ZM207.9,300.23c.35-.46.78-.98,1.31-1.56.11-.12.22-.24.32-.36l-.33.36c-.53.59-.96,1.1-1.3,1.56Z"/>
  <path class="st2" d="M251.86,297.09c-4.76.66-9.19-.7-13.64-1.91-2.21-.61-4.71-1.79-4.43-4.31.42-3.61,2.73-6.47,5.9-8.34,2.37-1.4,3.75.47,5.13,1.99,1.89,2.11,3.96,3.94,6.83,4.53.55.11,1.11.12,1.58-.04-.06-1.11-.16-2.21-.28-3.31-.94-.51-1.95-.95-2.78-1.61-1.24-1-3.27-1.62-3.01-3.62.23-1.8,2.17-1.78,3.5-2.25.33-.12.68-.22,1.03-.34-.29-1.37-.62-2.73-.99-4.07-.44.04-.9.13-1.33.22-8.59,1.81-15.71,5.7-19.41,14.14-1.05,2.41-2.03,3.33-4.91,2.35-4.29-1.47-8.76-1.19-12.98.81-1.93-.17-3.62.61-5.31,1.4-5.38.05-3.13-2.72-1.56-4.73,7.36-9.46,16.86-16.56,26.42-23.58,2-1.47,3.33-.62,4.94.44,3.44,2.27,7.18,2.91,11.09,1.43.16-.06.31-.13.47-.2-.52-1.31-1.07-2.59-1.65-3.85-3.21.76-6.18.48-8.62-2.06,1.76-1.31,3.61-2.5,5.22-3.96.06-.06.13-.11.19-.18-.57-.98-1.16-1.95-1.77-2.91-.24.22-.45.5-.63.78-1.56,2.4-4.03,3.65-6.23,5.24-2.5,1.05-5,2.1-7.5,3.15.2-6.69,3.18-12.29,6.87-17.62.16-.23.38-.46.62-.68-.72-.82-1.45-1.62-2.2-2.4-.4.32-.78.72-1.1,1.11-4.31,5.08-7.86,10.57-9.12,17.28-1.67,2.25-.78,5.81-3.18,7.48-8.96,6.18-15.37,14.82-22.51,22.75-3.78-1.46-3.53-4.5-2.67-7.49.75-2.62,1.65-5.18,1.76-7.93.93-3.06,2.49-5.59,5.7-6.72,4.74-1.63,8.25-4.73,10.65-9.07.69-1.24,1.57-2.94.16-4.04-1.62-1.28-2.7.44-3.57,1.5-3.06,3.72-6.5,6.99-10.73,9.37-2.27-.25-4.66,2.23-6.68.2-1.53-1.54,1.08-2.75,1.22-4.29.69-1.25,1.4-2.5,2.1-3.76,1.89-5.5,4.48-8.72,11.47-9.41,7.69-.75,13.19-6.99,17.11-13.85.19-.34.37-.71.51-1.08-1.03-.79-2.08-1.55-3.15-2.28-.17.21-.34.42-.49.6-1.17,1.43-2.38,2.88-3.22,4.51-1.69,3.35-3.28,2.91-5.04.15-.86-3.55-1.73-7.11-2.56-10.67-.07-.34-.13-.72-.22-1.08-.95-.44-1.91-.84-2.88-1.24-.6.59-.65,1.65-.73,2.53-.45,4.89.89,9.44,2.71,13.89.09-.13.17-.25.25-.39-.06.16-.13.3-.25.39.26,4.46-3.29,5.51-6.33,5.91-2.47.33-2.76-2.27-2.52-4.4-.01-.05-.02-.09-.03-.14,2.71-6.69,3.82-13.38.52-20.03-.89-.27-1.77-.52-2.67-.76-.55.62-.58,1.68-.68,2.68-.52,4.82-1.31,5.04-5.52,2.3-2.65-1.73-3.96-4.52-5.65-7.1-1.01-.1-2.02-.17-3.04-.23-.35,5.51,3.27,10.45,10.13,12.87,3.71,1.31,5.05,3.02,4.48,6.65-1.82,4.86-3.63,9.73-5.45,14.6-2.34,3.67-4.7,3.85-7.99.76-3.85-3.63-4.38-7.02-.94-11.07,2.58-3.03,4.47-6.33,3.58-12.08-1.79,2.89-2.72,4.44-3.7,5.95-1.11,1.71-2.15,3.88-4.46,3.7-2.35-.18-2.99-2.53-3.68-4.42-1.65-4.55-2.54-9.27-3.29-14.05-.12-.77-.15-1.81-.38-2.69-1.23.12-2.45.26-3.66.44-.05.84.04,1.79-.01,2.55-.06.73.05,1.49.21,2.21,2.97,13.58,7.5,26.4,17.76,36.41-1.84,4.17-2.71,9.74-7.79,10.72-5.49,1.04-7.65-4.17-10.17-8.01-.59-.89-1.02-2.23-2.44-1.47-1.14.61-1.15,1.97-.93,2.99,1.08,4.94,4.34,8.55,8.86,9.93,4.9,1.49,4.77,3.94,3.2,7.62-.51,1.18-.71,2.5-1.22,3.68-1.09,2.43-2.39,4.7-5.53,4.76-3.21.07-5.85-1.77-6.34-4.48-1.74-9.58-6.9-19.1-1.39-29.04,6.44-11.45,5.32-22.75-.71-33.92-.39-.72-.81-1.65-1.32-2.39-1.34.33-2.67.71-3.98,1.12.12,1.1.78,2.32,1.34,3.26,5.46,9.08,5.89,18.53,2.35,28.33-1.34,1.13-2.63,4.03-4.13.13-2.58-6.65-7.06-11.91-12.23-16.66-.27-3.18,2.42-5.24,3.04-8.07.24-1.05.28-2.25-.06-3.18-1.48.7-2.92,1.44-4.34,2.23-.73,2.86-.71,6-3.28,8.13-1.72-.67-3.21-2-4.86-2.89-1.15.84-2.28,1.72-3.38,2.64,1.93,2.32,4.7,3.74,7.28,5.36,1.4.89,3.2,1.51,3.09,3.5-.13,2.5-2.48,2.52-4.14,2.91-3.81.9-7.68.99-11.49-.21-1.29-.36-2.56-1.82-3.72-2.79-.85.98-1.68,1.99-2.48,3.02,1.06,1.29,3.06,2.34,4.72,3.08,4.24,3.01,8.8,1.58,13.42,1.39,3.47-.15,6.89-4.69,10.05-1.1,2.52,2.87,2.97,7.12,3.68,10.97.21,1.09.35,2.19.57,3.29q2.44,12.04-9.98,10.93c-10.03-.89-10.5-1.43-9.12-11.08.4-2.79,2.43-7.05-1.28-7.5-2.47-.3-1,4.58-1.34,7.1-.26,2.03.2,4.22-1.98,5.42-2.33,1.26-4.27.21-6.12-1.25-3.39-2.68-6.89-5.24-10.45-8.95-.52,1.03-1.02,2.08-1.5,3.13.97,2.41,2.65,4.01,4.51,5.5,10.02,8.02,21.38,12.64,34.29,12.88,4.26.08,6.69,1.61,6.95,6.05.2,3.43,2.18,5.77,4.83,7.76,1.9,1.43,4.3,3.02,2.94,5.86-1.37,2.88-4.23,2.03-6.43,1.35-10.87-3.32-22.65-4.64-30.93-13.87-1.18-1.31-3.11-1.99-4.78-2.79-2.61-1.24-4.42-3.11-5.94-5.62-1.81-2.99-4.15-5.69-6.45-8.34-.49-.57-1.06-1.34-1.7-1.9-.44,1.3-.84,2.61-1.21,3.94.16.18.31.35.44.52.76,1.04,1.74,1.93,2.5,2.98,1.03,1.44,2.99,2.95,1.46,4.82-1.23,1.49-3.08.34-4.65-.21-.44-.15-.94-.36-1.44-.55-.26,1.56-.48,3.14-.65,4.73.44.12.9.22,1.33.31,3.25.7,6.65.85,9.65,2.52,1.63.9,2.73,2.15,1.8,4.05-.85,1.74-2.52,2.34-4.24,1.52-1.65-.77-3.09-1.99-4.63-3.01-1.34-.89-2.65-1.93-4.19-2-.08,1.37-.13,2.74-.14,4.12.71.15,1.41.29,1.93.7,1.45,1.14,6.56,1.14,2.33,5.05-1.1.09-2.26,0-3.29.31-.24.07-.49.12-.76.16.08,1.14.2,2.28.33,3.41.21-.01.41-.02.6-.02,3.53-.05,7.03-.4,9.95-2.74,1.3-1.02,2.95-1.8,3.83-3.1,2.74-4.06,5.5-3.87,8.38-.39,4.62,5.6,10.39,7.9,17.68,7.33,3.53-.29,7.32.79,8.78,4.65,1.49,3.94-1.75,6.02-4.15,8.29-4.72,2.09-8.36,1.58-13-1.82-9.16-6.68-19.67-5.06-29.81-1.51-.06.02-.12.04-.17.06.36,1.35.76,2.67,1.19,3.97.22-.07.43-.13.65-.18,1.79-.49,3.58-.99,5.4-1.33,6.66-1.25,13.29-1.79,19.62,1.4,2.5,1.25,3.46,2.57,1.44,4.43-.25.23-.55.47-.9.72-4.62,3.28-8.81,7.49-15.28,4.31-1.07-.53-2.59-.29-3.87-.14-.95.11-2.22-.01-3.25.15.55,1.15,1.14,2.28,1.76,3.39.51-.1,1-.17,1.4-.14,6.68.52,7.39,1.47,4.94,7.5-.2.5-.42,1.01-.61,1.5.96,1.28,1.96,2.53,3,3.74.09-.23.17-.45.26-.64,1-2.18,2.37-4.03,3.91-5.75.39-.43.79-.85,1.19-1.25,1.21-1.25,2.49-2.42,3.76-3.62,3.04-2.89,4.19-1.54,5.04,1.73,1.49,5.7-.02,11-1.68,16.36-.38,1.23-1.1,2.45-1.45,3.74.95.75,1.91,1.46,2.9,2.16,1.8-.85,2.32-.4,2.97,2,1.36.87,2.75,1.7,4.17,2.48.01-.15.01-.29.01-.44-.01-1.29.24-2.88-.4-3.82-3.37-4.91-2.34-10.22-1.89-15.54.24-2.77.28-5.54-.77-8.24-.19-.48-.32-.94-.41-1.38-.26-1.27-.14-2.4.3-3.41.11-.26.24-.51.4-.76.15-.24.33-.48.52-.71.1-.11.2-.23.31-.33.63-.67,1.42-1.25,2.33-1.77,5.59-3.21,11.5-5.19,18.07-4.37,1.33.62,2.39,1.37,3.24,2.23.13.11.25.24.36.37.23.26.44.52.63.79,2.14,2.97,2.45,6.85,2.72,10.67.44,6.26.18,12.39-1.07,18.31-1.13,5.37-3.08,10.58-6.08,15.57,5.86,1.45,12,2.23,18.31,2.23,5.63,0,11.12-.62,16.41-1.78-4.84-10.19-5.95-21.32-8.41-32.12-.25-7.1.29-13.93,6.55-18.76,6.76-3.32,13.5-3.63,20.76-1.13,7.73,2.65,9.26,4.55,7.39,12.39.06.18.07.36.08.55-.03-.19-.05-.37-.08-.55-7.3,14.24-9.73,25.54-6.71,32.32.7-.38,1.4-.78,2.09-1.17.11-4.12-.46-8.26,1.61-12.27,2.54,2.41,4.67,4.39,5.03,7.58.01.1.03.19.05.3,1.12-.82,2.22-1.67,3.29-2.55-.45-2.42-1.97-4.43-3.45-6.23-2.97-3.67-3.49-7.16-.88-11.09,1.77-1.64,2.03-5.01,5.45-4.78,1.75-.39,1.95-1.75,2-3.21.06-.38.12-.75.19-1.13.6-3.85-.77-6.96-3.11-10.02-4.05-5.3-9.02-9.04-15.29-11.31-1.06-.38-1.87-.73-2.45-1.09-.17-.1-.32-.2-.44-.31-.06-.05-.12-.1-.17-.16-.12-.1-.21-.21-.28-.32-.01-.01,0-.01,0-.01-.2-.31-.26-.64-.18-1.01,0-.05.01-.09.03-.14.01-.08.04-.16.08-.25.14-.36.38-.77.71-1.22.34-.46.77-.97,1.3-1.56l.33-.36c.9-1.02,1.61-2,1.27-3.49-.01-.04-.04-.07-.05-.12,1.18-.43,2.19-.63,3.05-.62,1.4,1.97,3.04,3.66,5.04,4.93.17.42.34.86.51,1.34.35.98.73,1.96,1.14,2.92.41.96.85,1.9,1.32,2.82.72,1.38,1.51,2.71,2.41,3.95,2.71,3.73,6.35,6.7,11.49,8.12-2.59-3.36-5.18-6.71-7.77-10.06-.27-2.5-.93-4.76-2.66-6.36-.14-.13-.28-.25-.42-.36-.29-.23-.61-.44-.96-.64,2.29-1.57,3.22-5.77,7.34-3.73h.01c.73.49,1.42.99,2.07,1.51.42.35.83.71,1.21,1.09,2.26,2.26,3.63,5.02,3.4,8.74-.13,2.18,1.67,3.06,2.93,4.28.12.18.23.37.34.55.21.38.41.76.59,1.15.09.2.18.39.27.59.44.99.84,2,1.33,2.96.49.97,1.06,1.89,1.84,2.7.31.33.66.64,1.05.92.52.39.89,1.04,1.32,1.54.66-1.58,1.27-3.19,1.82-4.83-2.17-2.21-3.94-4.7-5.1-7.6-3.1-7.75-2.33-8.88,5.67-8.24.74.05,1.53.13,2.22-.06.23-.07.49-.11.74-.16.19-1.71.32-3.44.39-5.19-.51.01-1.01.06-1.48.13ZM189.81,293.19c-2.13.47-4.42,2.67-6.16-.89-2.4-4.94,1.48-14.37,6.8-17.61-2.9,4.92-3.32,12.88-.64,18.5Z"/>
  <path class="st0" d="M289.98,253.72v-18.26h4.59v18.07c0,7.11,3.26,10.32,9.04,10.32s9.08-3.21,9.08-10.32v-18.07h4.45v18.26c0,9.31-5.09,14.22-13.58,14.22s-13.58-4.91-13.58-14.22h0Z"/>
  <rect class="st0" x="325.89" y="233.54" width="4.4" height="34.03"/>
  <path class="st0" d="M352.95,266.15c-1.33,1.15-3.35,1.7-5.32,1.7-4.91,0-7.71-2.71-7.71-7.61v-13.35h-4.13v-3.62h4.13v-5.32h4.4v5.32h6.97v3.62h-6.97v13.16c0,2.62,1.38,4.08,3.81,4.08,1.28,0,2.52-.41,3.44-1.15l1.38,3.17Z"/>
  <path class="st0" d="M357.49,235.74c0-1.61,1.28-2.89,2.98-2.89s2.98,1.24,2.98,2.8c0,1.65-1.24,2.94-2.98,2.94s-2.98-1.24-2.98-2.84h0ZM358.27,243.26h4.4v24.31h-4.4v-24.31Z"/>
  <path class="st0" d="M411.43,253.58v13.99h-4.4v-13.49c0-4.77-2.29-7.11-6.28-7.11-4.4,0-7.29,2.8-7.29,8.07v12.52h-4.4v-13.49c0-4.77-2.29-7.11-6.28-7.11-4.4,0-7.29,2.8-7.29,8.07v12.52h-4.4v-24.31h4.22v3.62c1.74-2.48,4.72-3.85,8.39-3.85s6.83,1.47,8.44,4.5c1.84-2.75,5.23-4.5,9.36-4.5,5.92,0,9.95,3.39,9.95,10.55h0Z"/>
  <path class="st0" d="M438.81,252.9v14.68h-4.17v-3.21c-1.47,2.2-4.17,3.49-7.98,3.49-5.5,0-8.99-2.94-8.99-7.16,0-3.9,2.52-7.11,9.77-7.11h6.97v-.87c0-3.72-2.16-5.87-6.51-5.87-2.89,0-5.83,1.01-7.71,2.61l-1.83-3.3c2.52-2.02,6.15-3.12,10.05-3.12,6.65,0,10.41,3.21,10.41,9.86h0ZM434.41,260.14v-3.39h-6.79c-4.36,0-5.6,1.7-5.6,3.76,0,2.43,2.02,3.94,5.37,3.94s5.92-1.51,7.02-4.31h0Z"/>
  <path class="st0" d="M460.64,266.15c-1.33,1.15-3.35,1.7-5.32,1.7-4.91,0-7.71-2.71-7.71-7.61v-13.35h-4.13v-3.62h4.13v-5.32h4.4v5.32h6.97v3.62h-6.97v13.16c0,2.62,1.38,4.08,3.81,4.08,1.29,0,2.52-.41,3.44-1.15l1.38,3.17Z"/>
  <path class="st0" d="M487.02,256.89h-19.72c.55,4.27,3.99,7.11,8.81,7.11,2.84,0,5.23-.96,7.02-2.94l2.43,2.84c-2.2,2.57-5.55,3.94-9.59,3.94-7.84,0-13.07-5.18-13.07-12.43s5.18-12.39,12.2-12.39,12.02,5.05,12.02,12.52c0,.37-.05.92-.09,1.33h0ZM467.29,253.72h15.6c-.46-4.08-3.53-6.97-7.8-6.97s-7.34,2.84-7.8,6.97h0Z"/>
  <polygon class="st2" points="296.68 282.48 296.68 290.97 311.54 290.97 311.54 296.93 296.68 296.93 296.68 308.62 289.25 308.62 289.25 276.52 313.51 276.52 313.51 282.48 296.68 282.48"/>
  <path class="st2" d="M315.57,296.29c0-7.43,5.73-12.71,13.58-12.71s13.53,5.27,13.53,12.71-5.69,12.71-13.53,12.71-13.58-5.28-13.58-12.71h0ZM335.43,296.29c0-4.27-2.71-6.83-6.29-6.83s-6.33,2.57-6.33,6.83,2.75,6.83,6.33,6.83,6.29-2.57,6.29-6.83h0Z"/>
  <path class="st2" d="M362.77,283.58v6.61c-.6-.05-1.05-.09-1.61-.09-3.94,0-6.56,2.16-6.56,6.88v11.65h-7.16v-24.68h6.83v3.26c1.74-2.39,4.68-3.62,8.49-3.62h0Z"/>
  <path class="st2" d="M390.84,298.3h-18.67c.69,3.07,3.3,4.95,7.06,4.95,2.62,0,4.5-.78,6.19-2.39l3.81,4.13c-2.29,2.61-5.73,3.99-10.18,3.99-8.53,0-14.08-5.37-14.08-12.71s5.64-12.71,13.16-12.71,12.84,4.86,12.84,12.8c0,.55-.09,1.33-.14,1.93h0ZM372.08,294.13h12.16c-.51-3.12-2.84-5.14-6.06-5.14s-5.6,1.97-6.1,5.14h0Z"/>
  <path class="st2" d="M393.36,306.33l2.38-5.14c2.2,1.42,5.55,2.39,8.58,2.39,3.3,0,4.54-.87,4.54-2.25,0-4.04-14.91.09-14.91-9.77,0-4.68,4.22-7.98,11.42-7.98,3.39,0,7.16.78,9.49,2.16l-2.39,5.09c-2.43-1.38-4.86-1.83-7.11-1.83-3.21,0-4.59,1.01-4.59,2.29,0,4.22,14.91.14,14.91,9.86,0,4.59-4.27,7.84-11.65,7.84-4.17,0-8.39-1.15-10.69-2.66h0Z"/>
  <path class="st2" d="M436.02,307.43c-1.47,1.05-3.62,1.56-5.82,1.56-5.83,0-9.22-2.98-9.22-8.85v-10.14h-3.81v-5.5h3.81v-6.01h7.16v6.01h6.15v5.5h-6.15v10.04c0,2.11,1.15,3.26,3.07,3.26,1.06,0,2.11-.32,2.89-.92l1.93,5.05Z"/>
  <path class="st2" d="M437.67,306.33l2.38-5.14c2.2,1.42,5.55,2.39,8.58,2.39,3.3,0,4.54-.87,4.54-2.25,0-4.04-14.91.09-14.91-9.77,0-4.68,4.22-7.98,11.42-7.98,3.39,0,7.16.78,9.49,2.16l-2.39,5.09c-2.43-1.38-4.86-1.83-7.11-1.83-3.21,0-4.59,1.01-4.59,2.29,0,4.22,14.91.14,14.91,9.86,0,4.59-4.27,7.84-11.65,7.84-4.17,0-8.39-1.15-10.69-2.66h0Z"/>
  <path class="st0" d="M287.64,333.62c0-9.49,7.25-16.42,17.02-16.42,4.95,0,9.27,1.7,12.2,5l-2.98,2.89c-2.48-2.62-5.5-3.81-9.04-3.81-7.25,0-12.61,5.23-12.61,12.34s5.37,12.34,12.61,12.34c3.53,0,6.56-1.24,9.04-3.85l2.98,2.89c-2.93,3.3-7.25,5.05-12.25,5.05-9.72,0-16.97-6.93-16.97-16.42h0Z"/>
  <path class="st0" d="M319.52,337.52c0-7.25,5.37-12.39,12.66-12.39s12.61,5.14,12.61,12.39-5.32,12.43-12.61,12.43-12.66-5.18-12.66-12.43h0ZM340.34,337.52c0-5.18-3.49-8.53-8.16-8.53s-8.21,3.35-8.21,8.53,3.53,8.58,8.21,8.58,8.16-3.39,8.16-8.58h0Z"/>
  <path class="st0" d="M391.26,335.68v13.99h-4.4v-13.48c0-4.77-2.29-7.11-6.28-7.11-4.4,0-7.29,2.8-7.29,8.07v12.52h-4.4v-13.48c0-4.77-2.29-7.11-6.28-7.11-4.4,0-7.29,2.8-7.29,8.07v12.52h-4.4v-24.31h4.22v3.62c1.74-2.48,4.72-3.85,8.39-3.85s6.83,1.47,8.44,4.5c1.84-2.75,5.23-4.5,9.36-4.5,5.92,0,9.95,3.4,9.95,10.55h0Z"/>
  <path class="st0" d="M424.55,337.52c0,7.48-5.18,12.43-12.29,12.43-3.44,0-6.47-1.33-8.49-3.94v12.57h-4.4v-33.21h4.22v3.85c1.97-2.71,5.09-4.08,8.67-4.08,7.11,0,12.29,4.95,12.29,12.39h0ZM420.1,337.52c0-5.14-3.53-8.53-8.21-8.53s-8.16,3.39-8.16,8.53,3.53,8.58,8.16,8.58,8.21-3.39,8.21-8.58h0Z"/>
  <path class="st0" d="M449.69,335v14.68h-4.17v-3.21c-1.47,2.2-4.17,3.49-7.98,3.49-5.5,0-8.99-2.94-8.99-7.16,0-3.9,2.52-7.11,9.77-7.11h6.97v-.87c0-3.72-2.16-5.87-6.51-5.87-2.89,0-5.83,1.01-7.71,2.61l-1.83-3.3c2.52-2.02,6.15-3.12,10.05-3.12,6.65,0,10.41,3.21,10.41,9.86h0ZM445.28,342.24v-3.39h-6.79c-4.36,0-5.6,1.7-5.6,3.76,0,2.43,2.02,3.94,5.37,3.94s5.92-1.51,7.02-4.31h0Z"/>
  <path class="st0" d="M480.92,335.68v13.99h-4.4v-13.48c0-4.77-2.38-7.11-6.56-7.11-4.68,0-7.71,2.8-7.71,8.07v12.52h-4.4v-24.31h4.22v3.67c1.79-2.48,4.91-3.9,8.76-3.9,5.92,0,10.09,3.4,10.09,10.55h0Z"/>
  <path class="st0" d="M510.14,325.36l-11.79,26.74c-2.16,5.14-4.95,6.74-8.67,6.74-2.34,0-4.72-.78-6.24-2.25l1.88-3.3c1.19,1.15,2.71,1.79,4.36,1.79,2.11,0,3.44-.96,4.63-3.76l.78-1.7-10.73-24.26h4.59l8.49,19.45,8.39-19.45h4.31Z"/>
  <g>
    <path class="st2" d="M107.57,379.87l-1.31,2.87c.4.24.64.68.64,1.2,0,.98-.74,1.64-1.6,1.64-.81,0-1.42-.59-1.42-1.44,0-.44.17-.81.52-1.4l1.69-2.87h1.47ZM110.81,383.94c0,.98-.74,1.64-1.6,1.64-.81,0-1.42-.59-1.42-1.44,0-.44.17-.81.52-1.4l1.69-2.87h1.47l-1.31,2.87c.4.24.64.68.64,1.2Z"/>
    <path class="st2" d="M127.11,389.13l-.88,4.4h-2.37l.9-4.56-3.37-8.32h2.37l2.54,6.29,5.08-6.29h2.5l-6.77,8.48Z"/>
    <path class="st2" d="M133.74,389.33c0-3.29,2.43-5.74,5.83-5.74,2.91,0,4.78,1.69,4.78,4.31,0,3.29-2.45,5.76-5.85,5.76-2.89,0-4.77-1.73-4.77-4.33ZM142.04,388c0-1.53-.94-2.47-2.59-2.47-1.95,0-3.39,1.51-3.39,3.68,0,1.53.94,2.47,2.59,2.47,1.95,0,3.39-1.51,3.39-3.68Z"/>
    <path class="st2" d="M159.12,383.7l-1.97,9.83h-2.19l.22-1.09c-.9.83-2.06,1.21-3.33,1.21-2.12,0-3.55-1.18-3.55-3.33,0-.37.04-.76.13-1.18l1.09-5.45h2.3l-1.09,5.39c-.06.28-.07.52-.07.76,0,1.14.64,1.79,1.95,1.79,1.64,0,2.8-.92,3.18-2.83l1.03-5.1h2.3Z"/>
    <path class="st2" d="M169.95,383.59l-.42,2.19c-.2-.04-.35-.06-.57-.06-1.8,0-3,.92-3.4,2.96l-.98,4.84h-2.3l1.95-9.83h2.19l-.26,1.27c.9-1.03,2.13-1.38,3.79-1.38Z"/>
    <path class="st2" d="M178.77,392.2l1.01-1.88c1.07.87,2.63,1.4,4.2,1.4,1.88,0,3.09-.68,3.09-1.82,0-2.39-6.5-1.14-6.5-5.28,0-2.54,2.28-4.16,5.61-4.16,1.66,0,3.22.39,4.31,1.09l-.94,1.9c-.96-.64-2.21-.99-3.5-.99-1.95,0-3.11.79-3.11,1.91,0,2.41,6.5,1.23,6.5,5.17,0,2.56-2.3,4.18-5.69,4.18-2.02,0-3.98-.64-4.99-1.51Z"/>
    <path class="st2" d="M204.48,383.7l-1.97,9.83h-2.19l.22-1.09c-.9.83-2.06,1.21-3.33,1.21-2.12,0-3.55-1.18-3.55-3.33,0-.37.04-.76.13-1.18l1.09-5.45h2.3l-1.09,5.39c-.06.28-.07.52-.07.76,0,1.14.64,1.79,1.95,1.79,1.64,0,2.8-.92,3.18-2.83l1.03-5.1h2.3Z"/>
    <path class="st2" d="M206.86,392.59l.96-1.77c.79.57,2.12.96,3.42.96,1.51,0,2.23-.44,2.23-1.18,0-1.62-5.32-.37-5.32-3.7,0-2.06,1.88-3.31,4.67-3.31,1.33,0,2.71.31,3.53.85l-.85,1.77c-.87-.55-1.95-.75-2.91-.75-1.49,0-2.21.52-2.21,1.2,0,1.69,5.32.42,5.32,3.7,0,2.15-1.95,3.31-4.71,3.31-1.71,0-3.33-.46-4.14-1.07Z"/>
    <path class="st2" d="M222.47,390.23c-.02.15-.04.29-.04.42,0,.68.35,1.1,1.16,1.1.44,0,.9-.13,1.29-.39l.41,1.69c-.7.44-1.56.59-2.37.59-1.67,0-2.82-.98-2.82-2.63,0-.24.02-.5.07-.77l.94-4.64h-1.6l.37-1.84h1.6l.44-2.25h2.3l-.46,2.25h2.65l-.37,1.84h-2.65l-.92,4.62Z"/>
    <path class="st2" d="M240.38,383.7l-1.95,9.83h-2.19l.2-1.01c-.83.74-1.91,1.14-3.2,1.14-2.41,0-4.32-1.6-4.32-4.33,0-3.35,2.39-5.74,5.54-5.74,1.53,0,2.69.52,3.35,1.56l.28-1.45h2.3ZM237.21,388c0-1.53-.94-2.47-2.59-2.47-1.95,0-3.39,1.51-3.39,3.68,0,1.53.94,2.47,2.59,2.47,1.95,0,3.39-1.51,3.39-3.68Z"/>
    <path class="st2" d="M245.51,383.7h2.3l-1.95,9.83h-2.3l1.95-9.83ZM245.81,380.79c0-.83.63-1.47,1.56-1.47.83,0,1.38.55,1.38,1.23,0,.9-.63,1.53-1.56,1.53-.83,0-1.38-.59-1.38-1.29Z"/>
    <path class="st2" d="M261.89,386.9c0,.37-.06.76-.13,1.18l-1.09,5.45h-2.3l1.07-5.39c.06-.28.07-.53.07-.76,0-1.14-.63-1.79-1.97-1.79-1.67,0-2.83.92-3.22,2.83l-1.03,5.1h-2.3l1.95-9.83h2.19l-.22,1.09c.9-.81,2.08-1.2,3.39-1.2,2.17,0,3.59,1.16,3.59,3.31Z"/>
    <path class="st2" d="M277.28,383.7l-1.95,9.83h-2.19l.2-1.01c-.83.74-1.91,1.14-3.2,1.14-2.41,0-4.32-1.6-4.32-4.33,0-3.35,2.39-5.74,5.54-5.74,1.53,0,2.69.52,3.35,1.56l.28-1.45h2.3ZM274.12,388c0-1.53-.94-2.47-2.59-2.47-1.95,0-3.39,1.51-3.39,3.68,0,1.53.94,2.47,2.59,2.47,1.95,0,3.39-1.51,3.39-3.68Z"/>
    <path class="st2" d="M291.94,387.89c0,3.35-2.39,5.76-5.52,5.76-1.6,0-2.82-.57-3.44-1.69l-.31,1.56h-2.19l2.72-13.66h2.3l-.94,4.75c.81-.66,1.84-1.03,3.05-1.03,2.41,0,4.32,1.58,4.32,4.31ZM289.62,388c0-1.53-.94-2.47-2.59-2.47-1.95,0-3.39,1.51-3.39,3.68,0,1.53.94,2.47,2.59,2.47,1.95,0,3.39-1.51,3.39-3.68Z"/>
    <path class="st2" d="M297.94,379.87h2.3l-2.72,13.66h-2.3l2.72-13.66Z"/>
    <path class="st2" d="M312.79,389.29h-7.8c.04,1.56.94,2.41,2.83,2.41,1.12,0,2.15-.37,2.83-1.01l.96,1.6c-1.03.92-2.52,1.36-4.03,1.36-2.96,0-4.84-1.71-4.84-4.33,0-3.33,2.37-5.74,5.67-5.74,2.72,0,4.53,1.62,4.53,4.31,0,.5-.06.98-.15,1.4ZM305.19,387.76h5.63c.02-1.51-.99-2.34-2.52-2.34s-2.69.9-3.11,2.34Z"/>
    <path class="st2" d="M328.37,382.67h-4.27l.4-2.02h10.93l-.42,2.02h-4.27l-2.15,10.86h-2.39l2.17-10.86Z"/>
    <path class="st2" d="M338.51,383.7h2.3l-1.95,9.83h-2.3l1.95-9.83ZM338.8,380.79c0-.83.63-1.47,1.56-1.47.83,0,1.38.55,1.38,1.23,0,.9-.63,1.53-1.56,1.53-.83,0-1.38-.59-1.38-1.29Z"/>
    <path class="st2" d="M361.64,386.86c0,.37-.04.77-.13,1.21l-1.09,5.45h-2.3l1.09-5.39c.06-.28.07-.53.07-.77,0-1.14-.61-1.77-1.88-1.77-1.58,0-2.63.9-3.02,2.82l-1.03,5.12h-2.3l1.09-5.39c.06-.28.07-.53.07-.77,0-1.14-.61-1.77-1.88-1.77-1.58,0-2.63.9-3.02,2.83l-1.03,5.1h-2.3l1.95-9.83h2.19l-.2,1.07c.87-.81,1.99-1.18,3.22-1.18,1.42,0,2.52.55,3.05,1.62.99-1.07,2.3-1.62,3.88-1.62,2.17,0,3.55,1.14,3.55,3.28Z"/>
    <path class="st2" d="M376.94,387.89c0,3.35-2.39,5.76-5.52,5.76-1.6,0-2.82-.57-3.44-1.69l-.31,1.56h-2.19l2.72-13.66h2.3l-.94,4.75c.81-.66,1.84-1.03,3.06-1.03,2.41,0,4.33,1.58,4.33,4.31ZM374.62,388c0-1.53-.94-2.47-2.59-2.47-1.95,0-3.39,1.51-3.39,3.68,0,1.53.94,2.47,2.59,2.47,1.95,0,3.39-1.51,3.39-3.68Z"/>
    <path class="st2" d="M390.36,389.29h-7.8c.04,1.56.94,2.41,2.83,2.41,1.12,0,2.15-.37,2.83-1.01l.96,1.6c-1.03.92-2.52,1.36-4.03,1.36-2.96,0-4.84-1.71-4.84-4.33,0-3.33,2.37-5.74,5.67-5.74,2.72,0,4.53,1.62,4.53,4.31,0,.5-.06.98-.15,1.4ZM382.76,387.76h5.63c.02-1.51-.99-2.34-2.52-2.34s-2.69.9-3.11,2.34Z"/>
    <path class="st2" d="M401.41,383.59l-.42,2.19c-.2-.04-.35-.06-.57-.06-1.8,0-3,.92-3.4,2.96l-.98,4.84h-2.3l1.95-9.83h2.19l-.26,1.27c.9-1.03,2.14-1.38,3.79-1.38Z"/>
    <path class="st2" d="M423.44,384.53c0,3.29-2.36,5.28-6.15,5.28h-3.15l-.75,3.72h-2.39l2.58-12.88h4.97c3.11,0,4.9,1.44,4.9,3.88ZM421.03,384.75c0-1.4-.99-2.08-2.74-2.08h-2.72l-1.01,5.12h2.83c2.32,0,3.64-1.05,3.64-3.04Z"/>
    <path class="st2" d="M437.6,383.7l-1.95,9.83h-2.19l.2-1.01c-.83.74-1.91,1.14-3.2,1.14-2.41,0-4.32-1.6-4.32-4.33,0-3.35,2.39-5.74,5.54-5.74,1.53,0,2.69.52,3.35,1.56l.28-1.45h2.3ZM434.43,388c0-1.53-.94-2.47-2.59-2.47-1.95,0-3.39,1.51-3.39,3.68,0,1.53.94,2.47,2.6,2.47,1.95,0,3.39-1.51,3.39-3.68Z"/>
    <path class="st2" d="M448.46,383.59l-.42,2.19c-.2-.04-.35-.06-.57-.06-1.8,0-3,.92-3.4,2.96l-.98,4.84h-2.3l1.95-9.83h2.19l-.26,1.27c.9-1.03,2.14-1.38,3.79-1.38Z"/>
    <path class="st2" d="M454.13,390.23c-.02.15-.04.29-.04.42,0,.68.35,1.1,1.16,1.1.44,0,.9-.13,1.29-.39l.4,1.69c-.7.44-1.56.59-2.37.59-1.67,0-2.82-.98-2.82-2.63,0-.24.02-.5.07-.77l.94-4.64h-1.6l.37-1.84h1.6l.44-2.25h2.3l-.46,2.25h2.65l-.37,1.84h-2.65l-.92,4.62Z"/>
    <path class="st2" d="M471.71,386.9c0,.37-.06.76-.13,1.18l-1.09,5.45h-2.3l1.07-5.39c.06-.28.07-.53.07-.76,0-1.14-.63-1.79-1.97-1.79-1.67,0-2.83.92-3.22,2.83l-1.03,5.1h-2.3l1.95-9.83h2.19l-.22,1.09c.9-.81,2.08-1.2,3.39-1.2,2.17,0,3.59,1.16,3.59,3.31Z"/>
    <path class="st2" d="M485.68,389.29h-7.8c.04,1.56.94,2.41,2.83,2.41,1.12,0,2.15-.37,2.83-1.01l.96,1.6c-1.03.92-2.52,1.36-4.03,1.36-2.96,0-4.84-1.71-4.84-4.33,0-3.33,2.37-5.74,5.67-5.74,2.72,0,4.53,1.62,4.53,4.31,0,.5-.06.98-.15,1.4ZM478.08,387.76h5.63c.02-1.51-.99-2.34-2.52-2.34s-2.69.9-3.11,2.34Z"/>
    <path class="st2" d="M496.72,383.59l-.42,2.19c-.2-.04-.35-.06-.57-.06-1.8,0-3,.92-3.4,2.96l-.98,4.84h-2.3l1.95-9.83h2.19l-.26,1.27c.9-1.03,2.14-1.38,3.79-1.38Z"/>
    <path class="st2" d="M504.22,381.18c0,.44-.15.81-.5,1.42l-1.69,2.85h-1.47l1.31-2.87c-.4-.24-.66-.68-.66-1.21,0-.98.76-1.62,1.62-1.62.81,0,1.4.59,1.4,1.44ZM508.12,381.18c0,.44-.15.81-.5,1.42l-1.69,2.85h-1.47l1.31-2.87c-.4-.24-.66-.68-.66-1.21,0-.98.75-1.62,1.62-1.62.81,0,1.4.59,1.4,1.44Z"/>
  </g>
</svg>