<?xml version="1.0" encoding="UTF-8"?>
<svg id="Layer_1" xmlns="http://www.w3.org/2000/svg" version="1.1" viewBox="0 0 612 612">
  <!-- Generator: Adobe Illustrator 30.2.1, SVG Export Plug-In . SVG Version: 2.1.1 Build 1)  -->
  <defs>
    <style>
      .st0 {
        fill: #70757c;
      }

      .st1 {
        fill: #4d5258;
      }
    </style>
  </defs>
  <path class="st1" d="M347.1,350.79c-1.41,3.02-3.36,5.55-5.88,7.59-2.51,2.05-5.5,3.61-9,4.69-3.48,1.08-7.34,1.62-11.59,1.62-5.95,0-11.79-1.02-17.51-3.07-5.73-2.04-10.94-5.19-15.62-9.43l10.15-12.17c3.57,2.9,7.23,5.21,11,6.92,3.76,1.71,7.86,2.57,12.33,2.57,3.57,0,6.34-.65,8.31-1.95,1.97-1.31,2.96-3.11,2.96-5.42v-.22c0-1.11-.2-2.1-.61-2.96-.42-.85-1.2-1.65-2.35-2.4-1.16-.74-2.76-1.49-4.82-2.24-2.04-.74-4.72-1.52-7.99-2.34-3.96-.97-7.54-2.04-10.74-3.23-3.22-1.19-5.94-2.66-8.16-4.41-2.24-1.75-3.98-3.92-5.21-6.53-1.23-2.61-1.85-5.84-1.85-9.71v-.22c0-3.57.67-6.79,2-9.65,1.34-2.87,3.2-5.34,5.6-7.42,2.4-2.08,5.27-3.68,8.6-4.8,3.34-1.12,7.01-1.68,11.02-1.68,5.74,0,11,.85,15.8,2.56,4.8,1.71,9.2,4.17,13.23,7.37l-8.93,12.94c-3.5-2.38-6.92-4.26-10.27-5.64-3.35-1.37-6.7-2.06-10.05-2.06s-5.86.65-7.53,1.95c-1.68,1.3-2.52,2.92-2.52,4.86v.22c0,1.27.25,2.37.73,3.29.49.94,1.36,1.76,2.63,2.51,1.26.75,3,1.45,5.2,2.12,2.2.67,4.98,1.45,8.34,2.35,3.95,1.04,7.48,2.22,10.58,3.51,3.09,1.3,5.71,2.87,7.83,4.68,2.12,1.83,3.73,3.97,4.81,6.42,1.08,2.45,1.62,5.39,1.62,8.82v.22c0,3.88-.7,7.3-2.11,10.32"/>
  <path class="st1" d="M391.98,363.57v-33.28c0-4.01-.89-7.03-2.68-9.07-1.78-2.04-4.31-3.06-7.59-3.06s-5.86,1.02-7.75,3.06c-1.9,2.04-2.85,5.07-2.85,9.07v33.28h-16.96v-81.46h16.96v30.2c.97-1.28,2.03-2.49,3.18-3.65,1.15-1.16,2.44-2.2,3.85-3.09s2.97-1.61,4.69-2.13c1.71-.53,3.64-.79,5.8-.79,6.47,0,11.47,1.97,15.01,5.91,3.53,3.95,5.3,9.38,5.3,16.29v38.73h-16.97Z"/>
  <path class="st1" d="M413.07,282.1h17.85v15.06h-17.85v-15.06ZM413.51,303.75h16.97v59.81h-16.97v-59.81Z"/>
  <path class="st1" d="M469.36,296c-1.19-.25-2.53-.39-4.01-.39-4.09,0-6.14,2.16-6.14,6.47v2.35h13.72v13.82h-13.51v45.31h-16.96v-45.31h-7.03v-13.94h7.03v-3.8c0-6.62,1.58-11.47,4.74-14.55,3.16-3.09,7.76-4.64,13.78-4.64,2.68,0,4.96.15,6.87.45,1.9.3,3.63.71,5.19,1.23v14.06c-1.27-.44-2.49-.79-3.69-1.06"/>
  <g>
    <path class="st0" d="M378.85,393.66l1.55-3.48c1.48.98,3.57,1.65,5.51,1.65s2.72-.55,2.72-1.36c0-2.65-9.49-.71-9.49-6.91,0-2.98,2.43-5.41,7.39-5.41,2.17,0,4.41.5,6.06,1.45l-1.46,3.51c-1.59-.86-3.17-1.29-4.63-1.29-1.98,0-2.69.67-2.69,1.5,0,2.55,9.47.64,9.47,6.8,0,2.91-2.43,5.39-7.39,5.39-2.75,0-5.46-.74-7.03-1.83Z"/>
    <path class="st0" d="M395.6,388.68c0-3.89,3.08-6.65,7.3-6.65s7.3,2.77,7.3,6.65-3.03,6.7-7.3,6.7-7.3-2.79-7.3-6.7ZM405.61,388.68c0-1.96-1.17-3.05-2.72-3.05s-2.72,1.09-2.72,3.05,1.19,3.1,2.72,3.1,2.72-1.12,2.72-3.1Z"/>
    <path class="st0" d="M413.46,377.47h4.53v17.69h-4.53v-17.69Z"/>
    <path class="st0" d="M435.7,382.24v12.92h-4.31v-1.38c-.98,1.07-2.36,1.6-3.84,1.6-3.17,0-5.49-1.82-5.49-5.91v-7.22h4.53v6.48c0,2,.79,2.79,2.15,2.79s2.43-.88,2.43-3.05v-6.22h4.53Z"/>
    <path class="st0" d="M448.7,394.64c-.79.5-1.96.74-3.15.74-3.31,0-5.24-1.62-5.24-4.94v-4.34h-1.88v-3.38h1.88v-3.36h4.53v3.36h2.96v3.38h-2.96v4.29c0,.95.55,1.48,1.36,1.48.5,0,1-.14,1.38-.41l1.12,3.17Z"/>
    <path class="st0" d="M451.12,378.4c0-1.36,1.1-2.41,2.77-2.41s2.77.98,2.77,2.34c0,1.43-1.1,2.48-2.77,2.48s-2.77-1.05-2.77-2.41ZM451.62,382.24h4.53v12.92h-4.53v-12.92Z"/>
    <path class="st0" d="M459.46,388.68c0-3.89,3.07-6.65,7.29-6.65s7.3,2.77,7.3,6.65-3.03,6.7-7.3,6.7-7.29-2.79-7.29-6.7ZM469.47,388.68c0-1.96-1.17-3.05-2.72-3.05s-2.71,1.09-2.71,3.05,1.19,3.1,2.71,3.1,2.72-1.12,2.72-3.1Z"/>
    <path class="st0" d="M491.08,387.77v7.39h-4.53v-6.65c0-1.86-.81-2.65-2.12-2.65-1.46,0-2.58.91-2.58,3.05v6.25h-4.53v-12.92h4.32v1.4c1.02-1.07,2.48-1.62,4.1-1.62,3.03,0,5.34,1.74,5.34,5.74Z"/>
    <path class="st0" d="M494.07,394.04l1.36-3.1c1.19.74,2.93,1.19,4.5,1.19s2.03-.34,2.03-.89c0-1.74-7.63.24-7.63-4.93,0-2.43,2.24-4.29,6.29-4.29,1.82,0,3.82.38,5.11,1.1l-1.36,3.07c-1.29-.71-2.57-.96-3.72-.96-1.53,0-2.08.43-2.08.91,0,1.79,7.6-.14,7.6,4.98,0,2.38-2.19,4.25-6.39,4.25-2.19,0-4.46-.55-5.72-1.34Z"/>
  </g>
  <path class="st1" d="M207.49,221.1h-.02.02c-8.95-2.98-18.52-4.6-28.47-4.6-30.15,0-56.84,14.82-73.2,37.55l27.21,14.33c-3.76,8-6.26,16.69-7.27,25.83l-12.3-2.29,17.31,28.31,26.36-20.16-12.17-2.27c.63-7.21,2.45-14.05,5.3-20.35,9.84-21.77,31.74-36.91,57.19-36.91s45.45,13.87,55.85,34.14c-9.55-25.23-30.12-45.05-55.82-53.6"/>
  <path class="st0" d="M166.04,388.72h.02-.02c8.79,3.44,18.26,5.54,28.19,6.06,30.12,1.56,57.53-11.84,75.04-33.71l-26.42-15.72c4.17-7.79,7.11-16.34,8.59-25.43l12.18,2.93-15.83-29.17-27.38,18.77,12.04,2.89c-.99,7.16-3.17,13.91-6.35,20.05-10.96,21.23-33.61,35.2-59.02,33.9-24.32-1.27-44.68-16.21-54.01-36.99,8.23,25.69,27.74,46.55,52.97,56.42"/>
</svg>