<?xml version="1.0" encoding="UTF-8"?>
<svg id="Layer_1" xmlns="http://www.w3.org/2000/svg" version="1.1" viewBox="0 0 612 612">
  <!-- Generator: Adobe Illustrator 30.2.1, SVG Export Plug-In . SVG Version: 2.1.1 Build 1)  -->
  <defs>
    <style>
      .st0 {
        fill: none;
      }

      .st1 {
        fill: #e5b232;
      }

      .st2 {
        fill: #354d4a;
      }
    </style>
  </defs>
  <g>
    <g>
      <path class="st2" d="M263.59,351.33v-10.47h2.44v10.31c0,.42.08.72.23.9.15.18.4.27.74.27h.83v2.11h-1.12c-.98,0-1.75-.27-2.29-.81-.54-.54-.82-1.31-.82-2.3Z"/>
      <path class="st2" d="M277.96,347.71v6.73h-2.36v-.89c-.34.35-.69.61-1.05.77-.36.16-.82.24-1.37.24-1.05,0-1.86-.28-2.44-.85-.58-.56-.87-1.35-.87-2.34,0-.92.31-1.64.92-2.18.62-.53,1.48-.8,2.58-.8h2.16v-.81c0-1.09-.54-1.63-1.63-1.63-.46,0-.82.11-1.09.34s-.4.53-.4.92v.06h-2.26v-.08c0-.96.34-1.72,1.02-2.27.68-.56,1.6-.84,2.76-.84,1.3,0,2.3.31,2.99.91.7.61,1.04,1.51,1.04,2.71ZM275.53,350.8v-.73h-1.77c-1.02,0-1.54.41-1.54,1.24s.5,1.28,1.5,1.28c.64,0,1.11-.15,1.39-.44.28-.3.42-.74.42-1.35Z"/>
      <path class="st2" d="M286.08,350.33v-2.03c0-1.42.31-2.47.93-3.17s1.43-1.04,2.43-1.04,1.82.39,2.38,1.16v-4.39h2.42v13.58h-2.38v-.94c-.56.71-1.36,1.06-2.4,1.06s-1.79-.35-2.43-1.05c-.64-.7-.95-1.76-.95-3.18ZM291.83,350.25v-1.85c0-.7-.15-1.23-.44-1.59s-.71-.55-1.23-.55c-1.09,0-1.63.72-1.63,2.15v1.85c0,1.43.52,2.15,1.57,2.15.55,0,.98-.18,1.28-.55s.45-.9.45-1.59Z"/>
      <path class="st2" d="M299.6,350.33c0,.76.17,1.31.51,1.63.34.33.83.49,1.46.49.49,0,.87-.1,1.14-.31.28-.2.43-.49.45-.86l.02-.06h2.32v.1c0,.97-.36,1.75-1.08,2.34s-1.71.89-2.95.89c-1.31,0-2.36-.38-3.13-1.13-.77-.75-1.16-1.92-1.16-3.49v-1.24c0-1.54.37-2.69,1.12-3.45.75-.77,1.78-1.15,3.09-1.15s2.31.39,3.06,1.16c.75.77,1.13,1.92,1.13,3.44v1.36h-5.98v.28ZM299.6,348.32v.06h3.54v-.26c0-1.3-.58-1.95-1.75-1.95-.58,0-1.02.16-1.33.49-.31.33-.46.88-.46,1.65Z"/>
      <path class="st2" d="M310.9,344.21v1.06c.25-.43.58-.75,1-.96.42-.21.89-.32,1.42-.32.3,0,.58.03.83.08v2.28c-.46-.14-.87-.22-1.22-.22-.59,0-1.07.19-1.43.56-.36.37-.54.91-.54,1.6v6.14h-2.44v-10.23h2.38Z"/>
      <path class="st2" d="M318.93,344.21v.92c.3-.34.67-.6,1.09-.78s.87-.27,1.33-.27c1.05,0,1.86.33,2.44.98.58.66.87,1.55.87,2.7v6.67h-2.44v-6.38c0-.58-.14-1.02-.43-1.34-.29-.32-.68-.47-1.16-.47s-.86.16-1.17.47c-.31.31-.46.76-.46,1.34v6.38h-2.44v-10.23h2.38Z"/>
      <path class="st2" d="M330.3,340.86v1.95h-2.48v-1.95h2.48ZM330.28,344.21v10.23h-2.42v-10.23h2.42Z"/>
      <path class="st2" d="M335.73,350.33c0,.76.17,1.31.51,1.63.34.33.83.49,1.46.49.49,0,.87-.1,1.14-.31.28-.2.43-.49.45-.86l.02-.06h2.32v.1c0,.97-.36,1.75-1.08,2.34s-1.71.89-2.95.89c-1.31,0-2.36-.38-3.13-1.13-.77-.75-1.16-1.92-1.16-3.49v-1.24c0-1.54.37-2.69,1.12-3.45.75-.77,1.78-1.15,3.09-1.15s2.31.39,3.06,1.16c.75.77,1.13,1.92,1.13,3.44v1.36h-5.98v.28ZM337.07,340.25l2.13,2.62h-2.11l-2.72-2.62h2.7ZM335.73,348.32v.06h3.54v-.26c0-1.3-.58-1.95-1.75-1.95-.58,0-1.02.16-1.33.49-.31.33-.46.88-.46,1.65Z"/>
      <path class="st2" d="M347.03,344.21v1.06c.25-.43.58-.75,1-.96.42-.21.89-.32,1.42-.32.3,0,.58.03.83.08v2.28c-.46-.14-.87-.22-1.22-.22-.59,0-1.07.19-1.43.56-.36.37-.54.91-.54,1.6v6.14h-2.44v-10.23h2.38Z"/>
      <path class="st2" d="M354.53,350.33c0,.76.17,1.31.51,1.63.34.33.83.49,1.46.49.49,0,.87-.1,1.14-.31.28-.2.43-.49.45-.86l.02-.06h2.32v.1c0,.97-.36,1.75-1.08,2.34s-1.71.89-2.95.89c-1.31,0-2.36-.38-3.13-1.13-.77-.75-1.16-1.92-1.16-3.49v-1.24c0-1.54.37-2.69,1.12-3.45.75-.77,1.78-1.15,3.09-1.15s2.31.39,3.06,1.16c.75.77,1.13,1.92,1.13,3.44v1.36h-5.98v.28ZM354.53,348.32v.06h3.54v-.26c0-1.3-.58-1.95-1.75-1.95-.58,0-1.02.16-1.33.49-.31.33-.46.88-.46,1.65Z"/>
      <path class="st2" d="M372,351.33c0,.7.33,1.04,1,1.04h.77v2.07h-1.16c-.93,0-1.67-.27-2.21-.8-.54-.53-.82-1.25-.82-2.16v-5.57h-1.42v-1.71h1.42v-2.01l2.42-.85v2.85h1.97v1.71h-1.97v5.41Z"/>
      <path class="st2" d="M376.17,350.27v-1.91c0-1.46.37-2.53,1.11-3.23s1.76-1.04,3.04-1.04,2.28.35,3.01,1.04,1.1,1.77,1.1,3.23v1.91c0,1.47-.37,2.55-1.1,3.25-.73.7-1.74,1.04-3.01,1.04s-2.3-.35-3.04-1.04c-.74-.7-1.11-1.78-1.11-3.25ZM382.02,348.4c0-1.43-.56-2.15-1.69-2.15s-1.73.72-1.73,2.15v1.85c0,1.43.58,2.15,1.73,2.15s1.69-.72,1.69-2.15v-1.85Z"/>
      <path class="st2" d="M387.37,344.21h2.44v5.98c0,.72.11,1.27.32,1.64.22.37.65.56,1.29.56s1.07-.18,1.29-.53c.22-.35.32-.91.32-1.67v-5.98h2.44v6.1c0,1.42-.33,2.48-1,3.19-.67.71-1.69,1.06-3.05,1.06-2.7,0-4.05-1.42-4.05-4.25v-6.1Z"/>
      <path class="st2" d="M398.41,350.27v-1.91c0-1.46.37-2.53,1.11-3.23s1.76-1.04,3.04-1.04,2.24.32,2.95.96c.71.64,1.06,1.54,1.06,2.68v.2h-2.32v-.12c0-.49-.15-.87-.44-1.14s-.7-.41-1.21-.41c-1.18,0-1.77.72-1.77,2.15v1.85c0,.77.15,1.33.46,1.65.31.33.74.49,1.31.49.51,0,.91-.13,1.21-.39.3-.26.44-.63.44-1.1v-.12h2.32v.14c0,1.13-.35,2.02-1.06,2.67-.71.65-1.69.97-2.95.97s-2.3-.35-3.04-1.04c-.74-.7-1.11-1.78-1.11-3.25Z"/>
      <path class="st2" d="M411.95,340.86v4.25c.3-.34.66-.6,1.06-.77.41-.17.84-.26,1.3-.26,1.05,0,1.86.32,2.44.97.58.65.87,1.55.87,2.71v6.67h-2.44v-6.38c0-.59-.14-1.04-.43-1.35-.29-.31-.68-.46-1.16-.46s-.86.16-1.17.47c-.31.31-.46.76-.46,1.34v6.38h-2.44v-13.58h2.44Z"/>
      <path class="st2" d="M422.97,350.33c0,.76.17,1.31.51,1.63.34.33.83.49,1.46.49.49,0,.87-.1,1.14-.31.28-.2.43-.49.45-.86l.02-.06h2.32v.1c0,.97-.36,1.75-1.08,2.34s-1.71.89-2.95.89c-1.31,0-2.36-.38-3.13-1.13-.77-.75-1.16-1.92-1.16-3.49v-1.24c0-1.54.37-2.69,1.12-3.45.75-.77,1.78-1.15,3.09-1.15s2.31.39,3.06,1.16c.75.77,1.13,1.92,1.13,3.44v1.36h-5.98v.28ZM422.97,348.32v.06h3.54v-.26c0-1.3-.58-1.95-1.75-1.95-.58,0-1.02.16-1.33.49-.31.33-.46.88-.46,1.65Z"/>
    </g>
    <g>
      <path class="st0" d="M271.58,296.02c4.53-4.02,8.76-8.35,12.92-12.74,3.41-3.6,6.86-7.19,9.38-11.51.67-1.14,2.17-2.78,1.11-3.63-1.32-1.05-2.5.89-3.58,1.76-1.15.93-2.2,2.01-3.21,3.09-7,7.45-13.05,15.66-19.07,23.91,1.18.65,1.71-.22,2.46-.89Z"/>
      <path class="st0" d="M263.36,261.75c-18.76,13.61-35.51,29.62-53.62,44.87,6.28,1.85,12.05,3.15,17.88,4.21.52.09,1.32.28,1.32.28,0,0,.87-1.46,1.3-2.13,3.81-6.04,7.52-12.14,11.5-18.06,6.74-10.03,14.41-19.37,21.62-29.17Z"/>
      <path class="st0" d="M299.59,308.83c-3.29,1.37-5.2,4.13-6.61,7.21-.64,1.41.12,2.04,1.65,1.53,2.79-.93,5-2.68,6.95-4.82.59-.65,1.15-1.33,1.63-1.88.12-1.3-2.26-2.61-3.62-2.04Z"/>
      <path class="st0" d="M359.17,298.58c8.88-8.49,17.75-16.99,23.76-27.91.37-.68.73-2.14.73-2.14.06-.23-.06-.44-.28-.25-1.19,1.04-2.44,2.02-3.56,3.13-7.61,7.58-14.03,16.11-20.53,24.6-.57.74-1.64,2.57-1.42,2.9.51.45,1.07-.11,1.3-.33Z"/>
      <path class="st0" d="M271.1,311.28c3.02-2.12,2.22-2.02.4-2.12s-5.85,3.23-5.85,3.23c0,0,2.42,1.01,5.44-1.11Z"/>
      <path class="st0" d="M342.41,307.43c-4.44-.07-10.69,5.81-10.87,9.55-.09,1.76,1.03,1.08,1.73.83,3.75-1.37,7.02-3.54,10.13-6.01.96-.76,1.45-1.49.91-2.76-.51-1.19-1.38-1.59-1.89-1.6Z"/>
      <path class="st0" d="M378.27,311.81c-2.44,2.91-4.09,5.81-4.86,9.64,3.03-2.77,4.51-5.71,4.86-9.64Z"/>
      <path class="st0" d="M457.2,313.28c-1.93,2.27-3.46,4.73-3.71,7.81,2.16-2.15,3.77-4.58,3.71-7.81Z"/>
      <path class="st2" d="M463.91,313.26c6.16,1.48,11.95,0,17.57-2.5.82-.37,1.73-.9,1.23-1.99-.45-1-1.3-.93-2.27-.53-1.46.6-2.95,1.26-4.48,1.49-5.97.91-12.37,3.52-16.38-4.04-.7-1.32-2.6-1.4-4.08-.8-1.38.57-1.5,1.73-.88,2.97.36.72.03,1.01-.54,1.39-6.09,4.08-11.68,8.89-18.02,12.6-7.5,4.38-10.05,2.92-10.28-5.73-.12-4.43-1.55-5.25-5.44-3.1-.86.48-1.62,1.14-2.47,1.65-1,.6-1.73,1.83-3.48,1.66.92-2.27,1.77-4.25,2.51-6.27.71-1.93-.16-2.91-2.1-2.66-1.04.14-2.03.73-3,1.22-3.65,1.82-8.68,6.05-9.11,6.48-.4.36-1.49,1.77-2.06,1.07,0,0-.13-.66.44-1.56,1.04-1.94,2.47-3.59,3.93-5.22.97-1.08,1.01-2.12-.06-3.11-1.06-.99-2.19-1.08-3.01.22-1.36,2.15-3.53,2.93-5.77,3.26-5.87.84-12.22,3.48-16.18-3.96-.77-1.44-2.58-1.44-4.06-.96-1.37.45-1.72,1.5-1.09,2.86.43.94-.43,1.12-.97,1.5-5.42,3.84-10.81,7.73-16.27,11.51-3.09,2.14-6.15,4.38-9.76,5.64-1.83.64-3.38.42-3.21-1.9.37-5.13,1.72-10.08,5.79-13.5,10.29-8.64,19.82-18.04,28.41-28.36,3.22-3.87,6.25-8,7.92-12.86.5-1.47,1.01-3.24-.43-4.44-1.5-1.27-3.19-.62-4.72.23-.78.43-1.53.93-2.23,1.48-3.83,3.03-7.22,6.51-10.39,10.21-7.5,8.76-14.39,17.97-20.72,27.61-.31.48-.91,1.05-.99,1.07,0,0-.54-.08-.95-.42-3.09-2.56-6.59-2.17-9.8-.56-3.87,1.94-7.54,4.3-11.19,6.64-6.77,4.33-12.67,9.9-19.61,13.99-.96.56-2.35,1.87-3.46,1.01-1.18-.92-.27-2.54.06-3.77,1.24-4.57,3.75-8.51,6.39-12.36.7-1.02,1.43-1.99.34-3.17-.85-.92-1.87-1.21-2.89-.37-.76.62-1.23.28-1.8-.19-2.82-2.29-5.85-1.77-8.61-.18-3.42,1.98-6.87,3.95-10.01,6.41-4.22,3.31-8.43,6.64-12.85,9.66-6.66,4.55-8.16,3.8-9.75-4.15-.32-1.6.04-2.08,1.67-2.12,3.31-.09,6.59-.62,9.32-2.62,1.72-1.25,3.8-2.7,2.65-5.32-1.2-2.75-3.62-2.74-6.1-2.1-2.94.75-5.42,2.42-7.91,4.04-.82.53-1.57,1.43-2.73.78.14-1.02.9-1.23,1.41-1.65,9.71-7.91,18.82-16.46,27.3-25.66,3.5-3.8,6.8-7.78,8.95-12.54.87-1.93,1.4-4.15-.49-5.77-1.75-1.5-3.72-.78-5.54.24-2.9,1.61-5.29,3.86-7.58,6.21-10.34,10.55-18.62,22.67-26.46,35.1-1.05,1.66-2.34,2.55-4.03,3.2-5.43,2.1-11.09,1.78-16.75,1.75-1.26,0-2.48-.02-2.48-.02,0,0,.71-1.65,1.2-2.51,4.84-8.68,10.43-16.87,16.26-24.9,6.3-8.68,12.94-17.1,20.36-24.86.89-.93,2.22-2.11,1.34-3.3-1.33-1.8-.08-2.02,1.02-2.58.8-.4,1.64-.76,2.35-1.29,1.13-.84,4.11-.43,3.12-2.58-.95-2.07-3.2-.44-4.72.23-7.81,3.41-14.4,8.73-21.04,13.91-16.12,12.59-31.27,26.33-46.62,39.82-1.52,1.33-2.83,1.65-4.8,1.1-13.62-3.83-27.14-8.06-41.08-10.69-9.96-1.88-19.95-3.52-30.13-3.1-9.91.41-19.49,2.25-28.14,7.5-.97.59-2.07,1.26-1.36,2.53.79,1.43,1.88.47,2.77-.07,13.05-7.8,27.37-7.48,41.66-6.02,16.02,1.64,31.37,6.58,46.88,10.67,2.8.74,5.56,1.66,8.83,2.64-3.96,3.43-7.44,6.5-10.98,9.5-13.27,11.21-26.64,22.29-41.81,30.93-1.01.57-2.16,1.26-1.49,2.46.76,1.36,2.09.65,3.09.03,3.8-2.33,7.64-4.63,11.35-7.1,14.98-9.98,28.75-21.51,42.31-33.3.88-.77,1.57-1.67,3.06-1.2,6.33,1.97,12.8,3.4,19.56,4.57-3,6.02-5.61,11.99-7.62,18.21-3.52,10.89-5.29,21.96-3.22,33.4.28,1.54.79,2.87,2.58,2.49,1.91-.41,1.25-2,.88-3.16-1.06-3.4-1.06-6.86-.7-10.32,1.4-13.63,6.44-26.1,12.31-38.3.31-.64.77-1.42.77-1.42,0,0,1.29-.08,2.01,0,4.95.59,9.91.52,14.83-.47,1.19-.24,2.34-1,3.62-.54.15,1.12-.57,1.77-.98,2.53-1.42,2.62-2.73,5.28-3.48,8.18-.25.98-.51,2.03.6,2.65,1.14.64,1.9-.23,2.56-.93,1.16-1.22,2.17-2.58,3.33-3.81,1.34-1.42,2.6-3.85,4.34-3.66,1.46.16,1.15,3.02,1.74,4.64,1.73,4.74,4.74,6.13,9.32,4.09,2.64-1.18,4.97-2.86,7.29-4.59,3.72-2.79,6.89-6.2,10.91-8.6.13-.22.52-.5.64-.29.09.15,0,.52,0,.8.41,5.79,2.38,6.74,9.64,4.57.12.92-.46,2.48-.53,3.74-.37,5.93,2.44,7.96,7.76,5.41,3.49-1.68,6.57-4.01,9.62-6.38,3.64-2.83,7.17-5.8,11.25-8.22-.54,6.84,2.63,8.94,8.98,6.1,1.53-.68,2.86-1.38,4.37-2.11.51-.19.71-.59.77-.5.1.15.19.58.13.96-.51,3.49-1.85,7.25,1.61,9.93,3.39,2.62,6.6.4,9.68-1.07,5.51-2.64,10.08-6.67,14.95-10.26,1.03-.76,2.13-1.4,3.58-2.34-.56,2.05-1.03,3.45-1.3,4.88-.33,1.73-.22,3.45,1.49,4.49,1.85,1.12,3.43.24,4.88-.94,2.12-1.74,3.87-3.84,4.51-6.5.76-3.14,1.9-4.73,5.5-3.34,1.56.6,3.54.04,5.32.11,1.8.07,3.49-1.16,5.54-.56-2.29,3.79-4.79,7.26-6.3,11.27-.41,1.1-1.28,2.27-.05,3.25,1.46,1.15,2.31-.34,3.28-1.07.63-.48,1.16-1.08,1.77-1.59,4.32-3.65,9.04-7.25,13.14-10.62.27-.25.67-.56,1.1-.17.42.37.17.91.03,1.23-.84,1.89-1.98,5.02-2.06,7.82-.03,1.05-.37,2.32.86,2.9,1.26.59,2.02-.45,2.72-1.27,2.33-2.73,5.06-5.02,7.81-7.3,1.42-1.17,2.2-1.78,2.55.95,1.12,8.77,6.03,11.17,13.96,7.09,1.06-.54,2.12-1.1,3.09-1.78,3.57-2.48,7.1-5.02,10.64-7.53.23-.11.59-.37.68-.3.35.28-.44,2.3-.59,2.98-.45,2.1-.76,4.31,1.57,5.48,2.28,1.15,3.94-.3,5.46-1.83,2.14-2.16,3.76-4.72,4.43-7.62.48-2.06,1.21-2.24,3-1.81ZM359.29,296.01c6.5-8.49,12.93-17.02,20.53-24.6,1.12-1.11,2.37-2.09,3.56-3.13.22-.19.34.02.28.25,0,0-.36,1.46-.73,2.14-6.01,10.92-14.88,19.42-23.76,27.91-.23.22-.79.78-1.3.33-.23-.33.85-2.16,1.42-2.9ZM271.5,309.17c1.81.1,2.62,0-.4,2.12-3.02,2.12-5.44,1.11-5.44,1.11,0,0,4.03-3.33,5.85-3.23ZM288.2,273c1.02-1.08,2.06-2.16,3.21-3.09,1.08-.87,2.26-2.82,3.58-1.76,1.06.85-.44,2.49-1.11,3.63-2.52,4.32-5.98,7.91-9.38,11.51-4.16,4.39-8.38,8.72-12.92,12.74-.75.67-1.28,1.54-2.46.89,6.03-8.25,12.07-16.46,19.07-23.91ZM230.23,308.98c-.43.68-1.3,2.13-1.3,2.13,0,0-.8-.18-1.32-.28-5.83-1.07-11.6-2.36-17.88-4.21,18.11-15.26,34.86-31.26,53.62-44.87-7.2,9.8-14.88,19.14-21.62,29.17-3.98,5.92-7.69,12.03-11.5,18.06ZM294.63,317.57c-1.53.51-2.29-.12-1.65-1.53,1.4-3.08,3.32-5.83,6.61-7.21,1.37-.57,3.74.74,3.62,2.04-.48.56-1.04,1.24-1.63,1.88-1.95,2.13-4.16,3.89-6.95,4.82ZM343.39,311.79c-3.1,2.47-6.38,4.64-10.13,6.01-.7.26-1.82.94-1.73-.83.18-3.74,6.43-9.62,10.87-9.55.51.02,1.38.42,1.89,1.6.54,1.27.05,2-.91,2.76ZM373.41,321.44c.77-3.82,2.43-6.72,4.86-9.64-.35,3.92-1.84,6.87-4.86,9.64ZM453.49,321.09c.25-3.09,1.77-5.55,3.71-7.81.06,3.24-1.55,5.66-3.71,7.81Z"/>
    </g>
  </g>
  <circle class="st1" cx="444.32" cy="349.61" r="7.26" transform="translate(-86.66 543.77) rotate(-58.28)"/>
  <polygon class="st1" points="510.14 285.75 509.91 353.57 459.36 353.53 459.36 348.4 504.91 348.53 505.12 288.07 459.88 250.06 414.23 289.05 410.93 285.28 459.85 243.49 510.14 285.75"/>
</svg>