<?xml version="1.0" encoding="UTF-8"?>
<svg id="Layer_1" xmlns="http://www.w3.org/2000/svg" version="1.1" viewBox="0 0 612 612">
  <!-- Generator: Adobe Illustrator 30.2.1, SVG Export Plug-In . SVG Version: 2.1.1 Build 1)  -->
  <defs>
    <style>
      .st0 {
        fill: #2a5f83;
      }

      .st1 {
        fill: #7a9e7e;
      }
    </style>
  </defs>
  <g>
    <path class="st0" d="M105.01,337.91h5.35l10.08,20.76,10.1-20.76h5.33v29.18h-4.56v-20.91l-9.26,18.84h-3.22l-9.26-18.84v20.91h-4.56v-29.18h0Z"/>
    <path class="st0" d="M143.11,336.93c1.55,0,2.64,1.08,2.64,2.62s-1.09,2.62-2.64,2.62-2.62-1.08-2.62-2.62,1.08-2.62,2.62-2.62ZM140.99,367.09v-20.62h4.25v20.62h-4.25Z"/>
    <path class="st0" d="M154.63,367.09h-4.25v-30.26h4.25v30.26Z"/>
    <path class="st0" d="M163.5,367.09h-4.25v-30.26h4.25v30.26Z"/>
    <path class="st0" d="M178.78,346.04c6.02,0,9.93,4.47,9.93,9.99,0,.65-.04,1.31-.17,1.97h-16.01c.19,3.09,2.84,5.52,6.4,5.52,2.58,0,4.64-1.09,6.19-3.52l3.13,2.28c-1.91,3.44-5.67,5.25-9.33,5.25-6.23,0-10.81-4.6-10.81-10.73s4.4-10.77,10.66-10.77h0ZM184.39,354.83c-.26-2.9-2.69-4.94-5.65-4.94-3.16,0-5.56,2.04-6.1,4.94h11.75Z"/>
    <path class="st0" d="M193.33,367.09v-20.62h4.28v2.6c.69-1.05,2.64-3.03,6.34-3.03,5.67,0,8.66,3.52,8.66,8.53v12.53h-4.25v-11.62c0-3.42-1.87-5.4-5.07-5.4s-5.69,1.97-5.69,5.4v11.62h-4.26Z"/>
    <path class="st0" d="M217.22,367.09v-20.62h4.28v2.6c.69-1.05,2.64-3.03,6.34-3.03,5.67,0,8.66,3.52,8.66,8.53v12.53h-4.25v-11.62c0-3.42-1.87-5.4-5.07-5.4s-5.69,1.97-5.69,5.4v11.62h-4.26Z"/>
    <path class="st0" d="M243.74,336.93c1.55,0,2.64,1.08,2.64,2.62s-1.09,2.62-2.64,2.62-2.62-1.08-2.62-2.62,1.08-2.62,2.62-2.62ZM241.61,367.09v-20.62h4.25v20.62h-4.25Z"/>
    <path class="st0" d="M260.11,354.69c2.47,0,4.25.51,5.2.97v-1.12c0-2.58-2.08-4.51-5.29-4.51-2.56,0-4.68,1.46-5.91,2.86l-2.69-2.66c1.59-2.02,4.9-4.19,8.66-4.19,5.8,0,9.47,3.13,9.47,8.14v12.92h-4.17v-2.66c-1.27,1.93-3.66,3.09-6.42,3.09-4.47,0-7.97-2.25-7.97-6.3s3.7-6.53,9.11-6.53h0ZM259.6,364.04c3.35,0,5.72-2.3,5.72-5.11-.88-.45-2.86-.99-5.09-.99-2.69,0-4.92.9-4.92,3.13,0,1.87,1.87,2.97,4.29,2.97h0Z"/>
    <path class="st0" d="M278.44,367.09h-4.25v-30.26h4.25v30.26Z"/>
    <path class="st0" d="M308.92,335.83c5.31,0,10.01,2.6,12.82,7.11l-3.5,2.45c-2.35-3.52-5.48-5.29-9.33-5.29-5.99,0-10.27,4.51-10.27,10.74s4.36,10.74,10.38,10.74c3.87,0,7.18-1.81,9.46-5.16l3.37,2.35c-2.75,4.47-7.48,7.09-12.83,7.09-8.46,0-15.1-6.49-15.1-15.02s6.56-15.02,15-15.02h0Z"/>
    <path class="st0" d="M326.48,355.12c0-6.03,4.68-10.74,10.96-10.74s10.96,4.71,10.96,10.74-4.68,10.74-10.96,10.74-10.96-4.71-10.96-10.74ZM337.43,361.87c3.89,0,6.71-2.94,6.71-6.75s-2.82-6.75-6.71-6.75-6.71,2.94-6.71,6.75,2.82,6.75,6.71,6.75Z"/>
    <path class="st0" d="M353.01,365.44v-20.62h4.28v2.6c.69-1.05,2.64-3.03,6.34-3.03,5.67,0,8.66,3.52,8.66,8.53v12.53h-4.25v-11.62c0-3.42-1.87-5.4-5.07-5.4s-5.69,1.97-5.69,5.4v11.62h-4.26Z"/>
    <path class="st0" d="M380.07,358.54c1.16,2.02,3.13,3.42,5.76,3.42,2.21,0,3.87-.88,3.87-2.28,0-1.53-1.27-2-4.29-2.69-4.43-.99-7.58-2.39-7.58-6.47,0-3.74,3.42-6.14,7.63-6.14,3.85,0,6.79,2,8.17,4.25l-2.86,2.45c-1.12-1.59-2.88-2.82-5.31-2.82-2.04,0-3.42.86-3.42,2.19,0,1.57,1.53,2,4.56,2.73,4.49,1.09,7.41,2.55,7.41,6.49s-3.78,6.19-8.17,6.19c-4.02,0-7.33-1.85-8.92-4.77l3.16-2.55h0Z"/>
    <path class="st0" d="M402.86,344.81v11.62c0,3.42,1.87,5.4,5.03,5.4s5.8-1.97,5.8-5.4v-11.62h4.25v20.62h-4.28v-2.6c-.69,1.05-2.64,3.03-6.45,3.03-5.63,0-8.61-3.52-8.61-8.53v-12.53h4.25Z"/>
    <path class="st0" d="M426.82,365.44h-4.25v-30.26h4.25v30.26Z"/>
    <path class="st0" d="M431.44,348.42v-3.61h3.74v-6.62h4.14v6.62h6.56v3.61h-6.52v10.31c0,2.19,1.27,3.29,3.37,3.29.99,0,2.34-.28,3.35-.71l.56,3.66c-1.03.54-2.86.9-4.51.9-4.32,0-7.03-2.43-7.03-6.62v-10.83h-3.67,0Z"/>
    <path class="st0" d="M453.89,335.27c1.55,0,2.64,1.08,2.64,2.62s-1.09,2.62-2.64,2.62-2.62-1.08-2.62-2.62,1.08-2.62,2.62-2.62ZM451.76,365.44v-20.62h4.25v20.62h-4.25Z"/>
    <path class="st0" d="M461.16,365.44v-20.62h4.28v2.6c.69-1.05,2.64-3.03,6.34-3.03,5.67,0,8.66,3.52,8.66,8.53v12.53h-4.25v-11.62c0-3.42-1.87-5.4-5.07-5.4s-5.69,1.97-5.69,5.4v11.62h-4.26Z"/>
    <path class="st0" d="M485.05,355.02c0-6.34,4.49-10.64,10.35-10.64,3.51,0,5.82,1.29,7.34,3.24v-2.82h4.25v19.02c0,6.49-4.4,10.64-11.35,10.64-3.78,0-7.29-1.59-9.65-4.43l2.79-2.77c1.96,2.13,4.17,3.33,6.94,3.33,4.24,0,7-2.47,7-6.23v-1.74c-1.44,1.87-3.85,3.24-7.34,3.24-5.87,0-10.35-4.51-10.35-10.85h0ZM489.31,355.02c0,3.8,2.64,7.03,6.62,7.03s6.81-3.22,6.81-7.03-2.86-6.81-6.81-6.81-6.62,3.01-6.62,6.81Z"/>
  </g>
  <g>
    <polygon class="st1" points="251.55 282.79 288.51 247.29 279.25 237.57 251.55 264.69 235.29 249.3 225.59 259.1 251.55 282.79"/>
    <polygon class="st1" points="309.56 272.46 267.36 316.01 353.31 316.01 309.56 272.46"/>
    <path class="st1" d="M346.28,257.99l10.12,10.12c3.54-9.96,13.05-17.12,24.21-17.12.94,0,1.88.05,2.8.16,5.04.55,9.64,2.56,13.38,5.6l9.52-9.52c-3.47-3.03-7.48-5.46-11.85-7.13-4.3-1.63-8.97-2.54-13.84-2.54-14.8,0-27.7,8.26-34.33,20.42h-.02Z"/>
    <polygon class="st1" points="309.51 237.54 309.48 237.57 309.52 237.57 309.51 237.54"/>
    <path class="st1" d="M215.2,265.18l-9.49,9.49,45.76,41.32,58.11-58.6,42.01,45.72c.79.85,1.6,1.67,2.46,2.46,2.06,1.87,4.31,3.52,6.72,4.92,2.41,1.4,5,2.55,7.7,3.42,3.75,1.2,7.73,1.85,11.88,1.85,4.87,0,9.52-.9,13.83-2.53,4.39-1.67,8.39-4.1,11.85-7.12l-9.51-9.52c-3.75,3.04-8.35,5.05-13.4,5.59-.91.1-1.84.16-2.78.16-6.9,0-13.19-2.73-17.81-7.16l-.44-.44-.77-.78-.33-.33-.79-.79-.45-.45-.48-.48-2.85-2.85c-3.89-3.9-8.85-8.85-11.99-11.99l-3.09-3.08-31.83-36.42h-.04l-58,59.87-36.28-32.25h0Z"/>
  </g>
</svg>