<?xml version="1.0" encoding="UTF-8"?>
<svg id="Layer_1" xmlns="http://www.w3.org/2000/svg" version="1.1" viewBox="0 0 612 612">
  <!-- Generator: Adobe Illustrator 30.2.1, SVG Export Plug-In . SVG Version: 2.1.1 Build 1)  -->
  <defs>
    <style>
      .st0 {
        fill: none;
      }

      .st1 {
        fill: #3baa8c;
      }

      .st2 {
        fill: #794494;
      }
    </style>
  </defs>
  <path class="st0" d="M432.43,265.04c-37.18,0-67.43,30.25-67.43,67.43s30.25,67.43,67.43,67.43,67.43-30.25,67.43-67.43-30.25-67.43-67.43-67.43Z"/>
  <polygon class="st2" points="144.57 325.52 138.38 335.06 112.7 374.65 112.7 295.48 112.7 276.4 112.7 255.22 102.31 255.22 102.31 260.4 102.31 409.74 112.7 393.73 144.57 344.6 186.83 409.74 199.21 409.74 150.76 335.06 236.93 202.26 224.55 202.26 144.57 325.52"/>
  <polygon class="st2" points="263.55 255.22 263.55 409.74 398.17 202.26 385.79 202.26 273.93 374.65 273.93 255.22 263.55 255.22"/>
  <rect class="st2" x="231.34" y="255.22" width="10.38" height="154.52"/>
  <path class="st1" d="M432.43,255.22c-42.6,0-77.26,34.66-77.26,77.26s34.66,77.26,77.26,77.26,77.26-34.66,77.26-77.26-34.66-77.26-77.26-77.26ZM432.43,399.9c-37.18,0-67.43-30.25-67.43-67.43s30.25-67.43,67.43-67.43,67.43,30.25,67.43,67.43-30.25,67.43-67.43,67.43Z"/>
</svg>