<?xml version="1.0" encoding="UTF-8"?>
<svg id="Layer_1" xmlns="http://www.w3.org/2000/svg" version="1.1" viewBox="0 0 612 612">
  <!-- Generator: Adobe Illustrator 30.2.1, SVG Export Plug-In . SVG Version: 2.1.1 Build 1)  -->
  <defs>
    <style>
      .st0 {
        fill: #942428;
      }

      .st1 {
        fill: #d1ba3b;
      }
    </style>
  </defs>
  <g>
    <path class="st0" d="M348.66,262.97c-1.21-4.86-5.61-8.46-10.85-8.46h-20s8.24,8.46,8.24,8.46l.29.29c1.57,1.61,3.73,2.52,5.99,2.52.52,0,1.01.08,1.49.21,2.24.64,3.88,2.7,3.88,5.15v5.88c0,1.49-1.21,2.69-2.7,2.69h-7.18c-3.84,0-7.53-1.52-10.25-4.24l-9.5-9.48-2.97-2.96-.07-.07-8.54-8.53s-.09-.08-.14-.12c-1.71-1.63-3.97-2.56-6.34-2.56h-30.51s-3,0-3,0h-27.72c-2.36,0-4.63.92-6.33,2.56-.04.04-.09.08-.14.12l-8.53,8.53-.07.07-2.96,2.96-9.48,9.48c-2.71,2.71-6.39,4.24-10.23,4.24h-7.17c-1.49,0-2.69-1.2-2.69-2.69v-5.88c0-2.44,1.64-4.5,3.88-5.15.47-.14.97-.21,1.48-.21,2.25,0,4.41-.91,5.98-2.52l.28-.29,8.23-8.45h0s-19.85,0-19.85,0h-.12c-5.23,0-9.62,3.6-10.83,8.46-.21.86-.33,1.77-.33,2.7v14.05h0v3.77c0,3.74,2.74,6.83,6.32,7.4.39.06.78.1,1.18.1h16.9c.63,0,1.26-.04,1.89-.1,4.04-.43,7.83-2.23,10.73-5.12l6.04-6.04h0s13.72-13.72,13.72-13.72l.61-.61c1.51-1.51,3.55-2.35,5.68-2.35h26.24s3.01,0,3.01,0h23.56c2.13,0,4.18.85,5.69,2.35l.61.61,13.75,13.72h0s6.06,6.05,6.06,6.05c2.91,2.9,6.71,4.69,10.76,5.12.62.07,1.26.1,1.89.1h16.93c.41,0,.8-.04,1.19-.1,3.59-.57,6.33-3.66,6.33-7.4v-3.77h0v-14.05c0-.93-.12-1.83-.33-2.7Z"/>
    <path class="st0" d="M345.8,305.8c-.06,0-.12,0-.19,0h-25.81c-3.74,0-7.33-1.48-9.97-4.12l-10.8-10.77h0s-8.73-8.72-8.73-8.72c-1.33-1.32-3.04-2.16-4.88-2.4v-.09h-25.92s-22.22,0-22.22,0h-3.91v.09c-1.83.25-3.55,1.08-4.87,2.4l-8.71,8.71h0s-10.78,10.78-10.78,10.78c-2.64,2.64-6.22,4.12-9.95,4.12h-25.75c-.06,0-.12,0-.19,0-1.78.1-3.19,1.57-3.19,3.37v4.52c0,1.75,1.33,3.19,3.03,3.36.11.01.23.02.35.02h28.42c.24,0,.48,0,.71-.02,4.76-.18,9.29-2.14,12.67-5.52l5.72-5.72h0s12.16-12.17,12.16-12.17c1.73-1.73,4.08-2.71,6.53-2.74.03,0,.07,0,.1,0h19.62s19.94,0,19.94,0c.03,0,.07,0,.1,0,2.45.03,4.8,1.01,6.54,2.74l12.18,12.16h0s5.73,5.73,5.73,5.73c3.39,3.38,7.92,5.35,12.69,5.52.24,0,.48.02.71.02h28.48c.12,0,.23,0,.35-.02,1.71-.17,3.04-1.61,3.04-3.36v-4.52c0-1.8-1.42-3.27-3.2-3.37Z"/>
    <path class="st0" d="M215.68,241.35l4.9-4.9c1.83-1.83,4.31-2.86,6.9-2.86h31.74s3.01,0,3.01,0h29.08c2.59,0,5.08,1.03,6.92,2.86l4.91,4.9h.01s15.98.01,15.98.01h-.01s-7.77-7.77-7.77-7.77l-.03-.03-8.17-8.15c-1.98-1.98-4.68-3.09-7.48-3.09h-36.16s-3,0-3,0h-33.35c-2.8,0-5.49,1.11-7.47,3.09l-8.15,8.15-.03.03-7.76,7.76h-.01s15.94.01,15.94.01h.01Z"/>
  </g>
  <g>
    <path class="st0" d="M448.86,330.04c.12-2.47-.02-4.99.41-7.41.65-3.66,3.09-5.7,6.85-5.56,3.88.14,5.63,2.51,6,6.3.37,3.71-1.81,8.7,1.27,10.83,3.05,2.1,6.91-1.8,10.54-2.67,16.44-3.93,32.89,6.41,35.77,22.71,2.98,16.85-9.66,33.76-26.35,35.28-17.74,1.61-32.63-10.5-34.22-27.87-.28-3.09-.35-6.15,2.31-8.45,3.99-3.45,9.51-1.39,10.7,4.33,1.19,5.7,2.49,11.08,7.4,14.97,6.5,5.14,14.25,5.13,20.96-.37,5.57-4.58,7.45-13.52,4.15-19.78-3.49-6.63-11.41-9.54-19.22-6.96-1.8.59-3.51,1.47-5.26,2.23-11.31,4.96-20.9-1.18-21.2-13.57-.03-1.33,0-2.67,0-4-.04,0-.07,0-.11,0Z"/>
    <path class="st1" d="M131.51,328.58c17.11.19,31.01,13.75,31.59,29.48.15,4.14-.67,7.87-5.57,8.52-5.04.66-7-2.35-7.88-6.95-2.11-11.08-7.6-16.77-16.05-17.15-7.09-.32-13.49,3.62-16.48,10.15-2.51,5.49-1.48,12.32,2.49,16.53,4.87,5.16,11.77,6.38,18.94,3.39,2.63-1.1,5.2-2.49,7.95-3.13,8.27-1.92,16.56,4.68,16.58,12.93,0,3.17-1.2,5.64-4.27,6.75-2.96,1.07-6.28.72-7.55-2.16-2.01-4.57-4.54-3.14-7.69-1.86-12.73,5.15-26.44,2.28-34.55-7.24-8-9.4-9.11-20.08-4.26-31.03,5.29-11.94,15.27-17.52,26.74-18.2Z"/>
    <path class="st0" d="M379.11,359.1c-.04-16.43,13.59-30.22,30.16-30.51,15.8-.28,30.12,13.28,30.89,29.25.21,4.44-.84,8.18-6.01,8.73-4.82.51-6.57-2.52-7.41-6.82-2.24-11.47-7.74-17.08-16.52-17.3-6.97-.17-13.8,4.23-16.29,10.5-2.35,5.91-.96,12.72,3.43,16.89,4.97,4.72,11.67,5.65,18.58,2.44,4.35-2.02,8.59-4.18,13.65-2.82,6.31,1.7,10.8,7.27,10.56,13.29-.12,3.2-1.56,5.54-4.65,6.48-2.75.83-5.94.52-7.08-2.16-2.32-5.44-5.46-2.88-8.69-1.62-19.89,7.75-40.56-5.67-40.61-26.35Z"/>
    <path class="st1" d="M318.08,389.69c-16.96-.07-30.55-13.66-30.55-30.54,0-16.84,13.7-30.53,30.59-30.58,16.76-.05,30.55,13.8,30.52,30.67-.03,16.98-13.63,30.53-30.57,30.45ZM334.73,359.39c.09-9.57-6.76-16.65-16.27-16.82-9.57-.17-17.3,7.29-17.25,16.64.05,9.16,7.47,16.87,16.51,17.14,9.25.28,16.93-7.37,17.01-16.96Z"/>
    <path class="st1" d="M231.47,363.71c-2.27,16.06-15.81,26.66-32.43,25.88-14.93-.7-27.36-13.18-28.17-28.77-.42-7.99-.14-16.02-.1-24.04.02-4.69,2.19-7.97,7.09-7.87,4.85.1,6.13,3.7,6.1,8.01-.05,6.49-.16,12.98.08,19.46.24,6.44,1.61,12.52,7.44,16.55,10.38,7.17,23.66,2.02,26.35-10.31,1.77-8.11.73-16.36.87-24.54.08-4.58.69-8.65,6.22-9.21,4.34-.44,6.9,3.05,7.01,9.12.07,3.62.25,20.87-.44,25.73Z"/>
    <path class="st1" d="M240.63,342.97c0-6.09-.07-12.19.02-18.28.07-4.37,2.04-7.51,6.72-7.6,4.92-.09,6.46,3.19,6.37,7.6-.03,1.52.1,3.05,0,4.57-.23,3.63,1.34,5.21,5.03,5.11,3.99-.11,8.01-.07,11.99.26,4.05.33,6.94,2.34,6.81,6.86-.13,4.43-2.96,6.44-7.07,6.65-4.18.21-8.38.14-12.57.13-2.83,0-3.94,1.31-4.21,4.15-1.28,13.59,4.41,21.5,17.69,24.04,4.21.8,6.59,2.97,6.15,7.37-.42,4.24-3.39,5.56-7.21,5.76-14.87.8-28.84-12.69-29.67-28.91-.3-5.89-.05-11.8-.05-17.71,0,0-.01,0-.02,0Z"/>
    <path class="st0" d="M356.19,325.79c0-4.71,1.47-8.61,6.86-8.68,5.78-.07,6.38,4.22,6.36,8.79-.05,18.28-.05,36.55,0,54.83.01,4.62-.7,8.79-6.47,8.7-5.49-.08-6.76-4.05-6.76-8.72,0-9.34,0-45.96,0-54.92Z"/>
  </g>
</svg>