<?xml version="1.0" encoding="UTF-8"?>
<svg id="Layer_1" xmlns="http://www.w3.org/2000/svg" version="1.1" viewBox="0 0 300 300">
  <!-- Generator: Adobe Illustrator 30.2.1, SVG Export Plug-In . SVG Version: 2.1.1 Build 1)  -->
  <defs>
    <style>
      .st0 {
        fill: #606060;
      }
    </style>
  </defs>
  <path class="st0" d="M219.62,55.35H80.71c-14,0-25.35,11.35-25.35,25.35v138.71c0,13.93,11.29,25.23,25.23,25.23h164.06V80.38c0-13.82-11.2-25.03-25.03-25.03ZM93.98,137.24c.43-4.16,2.57-7.37,5.83-9.85,4.13-3.14,8.94-4.47,14.08-4.97-4.07,2.4-5.59,6.29-6.74,10.5-.75,2.76-1.48,5.6-2.79,8.12-1.8,3.47-6.29,4.06-8.83,1.48-1.46-1.47-1.75-3.34-1.55-5.28ZM210.14,208.72h-36.89v-4.07c1.74-.15,3.42-.24,5.09-.46,3.42-.44,3.93-1.32,1.98-4.05-2.73-3.84-5.64-7.56-8.6-11.23-4.45-5.5-9.01-10.91-13.69-16.56-6.13,5.97-12.18,11.85-18.56,18.06v-30.06c-.55.02-.83-.03-1.05.06-8.39,3.25-16.71,6.67-23.8,12.35-2.42,1.94-4.55,4.35-6.38,6.87-2.29,3.14-2.86,6.89-2.19,10.71.82,4.62,3.68,7.58,8.08,9.03,3.91,1.28,7.84,1.13,12.09-.43-1.18,2.79-2.82,4.78-4.93,6.28-6.51,4.61-13.76,5.76-21.33,3.52-7.09-2.1-11.07-9.72-9.91-17.86.97-6.82,4.52-12.2,9.27-16.93,6.24-6.21,13.9-10.25,21.77-13.87,5.47-2.51,11.11-4.66,16.71-6.86,1.17-.46,1.6-.99,1.59-2.25-.12-13.37-.17-26.75-.3-40.12-.02-1.83-.21-3.67-.55-5.47-.65-3.38-2.29-4.84-5.72-5.21-2.4-.26-4.82-.34-7.4-.51v-4.21c8.83-1.74,17.74-3.49,26.92-5.3v79.31c1.04-.99,1.68-1.59,2.31-2.21,7.19-7.09,14.39-14.17,21.56-21.27.83-.83,1.61-1.73,2.26-2.71,1.24-1.85.93-3.36-1.18-4.06-2.33-.78-4.83-1.06-7.26-1.5-.75-.14-1.54-.09-2.42-.13v-4.16h36.58v3.87c-.11.09-.2.24-.3.24-7.15-.08-12.61,3.72-17.64,8.09-6.72,5.84-13.16,12.02-19.9,18.22,2.71,3.06,5.25,5.94,7.78,8.81,7.41,8.41,14.87,16.77,22.22,25.23,3.63,4.18,7.89,6.86,13.78,6.55v4.27Z"/>
  <path class="st0" d="M270.49,270.49H72.5c-23.7,0-42.99-19.28-42.99-42.99V72.5c0-23.7,19.28-42.99,42.99-42.99h155c23.7,0,42.99,19.28,42.99,42.99v197.99ZM72.5,32.05c-22.3,0-40.44,18.14-40.44,40.44v155c0,22.3,18.14,40.44,40.44,40.44h195.45V72.5c0-22.3-18.14-40.44-40.44-40.44H72.5Z"/>
</svg>