<?xml version="1.0" encoding="UTF-8"?>
<svg id="Layer_1" xmlns="http://www.w3.org/2000/svg" version="1.1" viewBox="0 0 311.39 300">
  <!-- Generator: Adobe Illustrator 30.2.1, SVG Export Plug-In . SVG Version: 2.1.1 Build 1)  -->
  <defs>
    <style>
      .st0 {
        fill: #606060;
      }
    </style>
  </defs>
  <path class="st0" d="M268.4,268.25H87.77c-25.62,0-46.47-20.84-46.47-46.47V87.61c0-25.62,20.84-46.47,46.47-46.47h134.17c25.62,0,46.47,20.84,46.47,46.47v180.63ZM87.77,45.93c-22.99,0-41.69,18.7-41.69,41.69v134.17c0,22.99,18.7,41.69,41.69,41.69h175.85V87.61c0-22.99-18.7-41.69-41.69-41.69H87.77Z"/>
  <g>
    <path class="st0" d="M177.64,212.24v-3.99c1.7-.15,3.35-.24,4.99-.45,3.35-.43,3.85-1.29,1.94-3.97-2.68-3.76-5.53-7.41-8.43-11-4.36-5.39-8.83-10.69-13.41-16.23-6.01,5.85-11.93,11.61-18.19,17.7v-29.45c-.54.02-.81-.03-1.03.05-8.22,3.18-16.38,6.54-23.33,12.1-2.37,1.9-4.46,4.27-6.25,6.73-2.25,3.08-2.8,6.75-2.14,10.5.8,4.53,3.6,7.43,7.92,8.85,3.84,1.26,7.69,1.11,11.84-.42-1.15,2.73-2.76,4.69-4.83,6.15-6.38,4.52-13.48,5.65-20.9,3.45-6.95-2.06-10.85-9.53-9.71-17.5.95-6.68,4.43-11.96,9.08-16.59,6.11-6.09,13.62-10.04,21.34-13.59,5.36-2.46,10.88-4.56,16.38-6.72,1.15-.45,1.57-.97,1.55-2.2-.12-13.11-.17-26.21-.29-39.32-.02-1.79-.2-3.6-.54-5.36-.64-3.31-2.24-4.74-5.61-5.1-2.35-.25-4.73-.33-7.25-.5v-4.12c8.66-1.7,17.38-3.42,26.38-5.19v77.72c1.02-.97,1.65-1.56,2.26-2.16,7.05-6.94,14.1-13.88,21.12-20.85.82-.81,1.58-1.7,2.22-2.65,1.21-1.81.91-3.29-1.16-3.98-2.28-.76-4.73-1.04-7.12-1.47-.74-.13-1.51-.09-2.37-.13v-4.08h35.85v3.79c-.1.09-.2.24-.29.24-7.01-.08-12.36,3.65-17.28,7.93-6.59,5.72-12.89,11.77-19.5,17.85,2.65,3,5.14,5.82,7.63,8.64,7.26,8.24,14.57,16.44,21.77,24.73,3.56,4.1,7.74,6.73,13.51,6.42v4.19h-36.15Z"/>
    <path class="st0" d="M119.47,127.67c-3.99,2.35-5.48,6.17-6.61,10.29-.74,2.71-1.45,5.49-2.73,7.96-1.76,3.4-6.17,3.97-8.66,1.45-1.43-1.44-1.72-3.27-1.52-5.18.42-4.08,2.52-7.22,5.72-9.65,4.05-3.07,8.76-4.38,13.8-4.87Z"/>
  </g>
</svg>