<?xml version="1.0" encoding="UTF-8"?>
<svg id="Layer_1" xmlns="http://www.w3.org/2000/svg" version="1.1" viewBox="0 0 890.67 400">
  <!-- Generator: Adobe Illustrator 30.2.1, SVG Export Plug-In . SVG Version: 2.1.1 Build 1)  -->
  <defs>
    <style>
      .st0 {
        fill: #606060;
      }
    </style>
  </defs>
  <g>
    <g>
      <path class="st0" d="M295.1,231.97c-1.45,0-2.84-.25-4.19-.74-1.34-.5-2.54-1.2-3.6-2.12-1.05-.92-1.89-2.03-2.5-3.32-.61-1.29-.91-2.72-.91-4.29s.32-2.9.96-4.19c.64-1.28,1.52-2.4,2.63-3.35,1.12-.95,2.39-1.69,3.83-2.22,1.44-.53,2.95-.79,4.54-.79.81,0,1.49.03,2.05.09.56.06,1.1.15,1.63.26s1.14.26,1.84.45c.31.08.53.21.67.37.13.17.21.39.23.68.04.48.09.99.15,1.54s.1,1.22.12,2.03c.02.14-.05.26-.2.36-.16.09-.32.12-.5.08-.18-.04-.29-.17-.36-.4-.21-.79-.44-1.46-.71-2.03-.27-.57-.67-1.04-1.21-1.41-.52-.35-1.14-.61-1.88-.79-.73-.18-1.52-.26-2.37-.26-1.2,0-2.31.24-3.33.73-1.02.49-1.9,1.15-2.64,1.98-.73.84-1.31,1.78-1.72,2.84s-.62,2.15-.62,3.29c0,1.26.2,2.5.6,3.72.4,1.22.98,2.32,1.74,3.3s1.65,1.77,2.7,2.36c1.04.59,2.21.88,3.49.88,1.49,0,2.72-.34,3.69-1.02.97-.68,1.8-1.63,2.48-2.85.14-.27.36-.4.64-.4s.42.17.42.5c0,.17-.04.43-.12.79-.08.36-.19.74-.33,1.15-.13.4-.26.76-.39,1.07-.14.29-.26.48-.36.56-.09.08-.31.18-.64.28-.77.31-1.68.54-2.74.68s-2.1.22-3.12.22Z"/>
      <path class="st0" d="M307.77,231.59c-.21,0-.36-.03-.46-.08-.1-.05-.16-.14-.16-.26,0-.17.06-.27.19-.33s.3-.11.53-.17c.39-.1.69-.25.88-.45.2-.2.29-.44.29-.73v-6.67c0-.56-.08-1.04-.25-1.46-.17-.41-.51-.67-1.02-.78-.08-.02-.16-.07-.22-.15-.06-.08-.09-.17-.09-.25,0-.21.09-.33.28-.37.54-.17,1.1-.41,1.69-.73.59-.32,1.05-.58,1.38-.79.12-.08.22-.14.29-.17.07-.03.13-.05.17-.05.1,0,.15.07.15.22,0,.06,0,.22-.02.46-.01.25-.02.54-.03.87-.01.33-.03.66-.05.99,0,.04.02.06.06.06.33-.41.7-.78,1.1-1.08.4-.31.82-.56,1.24-.74.42-.19.83-.28,1.22-.28.43,0,.79.09,1.07.28.28.19.42.42.42.71,0,.21-.06.43-.17.68-.11.25-.26.46-.45.65-.19.19-.38.28-.59.28-.12,0-.26-.03-.4-.08-.14-.05-.3-.12-.46-.2-.17-.06-.33-.12-.5-.19-.17-.06-.33-.09-.5-.09-.5,0-.98.18-1.44.53s-.7,1.04-.7,2.08v6.26c0,.27.14.49.43.67.29.18.69.35,1.21.51.23.06.4.12.53.19.12.06.19.17.19.31,0,.23-.21.34-.62.34-.62,0-1.09-.03-1.41-.08-.32-.05-.75-.08-1.29-.08-.35,0-.64,0-.85.03-.22.02-.44.05-.68.08-.24.03-.56.05-.98.05Z"/>
      <path class="st0" d="M324.98,231.97c-1.14,0-2.13-.28-2.98-.84-.85-.56-1.51-1.35-1.98-2.37-.48-1.02-.71-2.21-.71-3.55,0-1.2.27-2.29.82-3.27.55-.98,1.28-1.77,2.19-2.37.91-.6,1.9-.9,2.98-.9.83,0,1.56.17,2.2.5.64.33,1.14.79,1.5,1.38.36.59.54,1.27.54,2.03,0,.64-.31.96-.93.96h-6.54c-.29,0-.49.08-.6.23-.11.16-.17.46-.17.91,0,.99.22,1.9.65,2.71s1.01,1.47,1.74,1.95,1.52.73,2.39.73c.62,0,1.18-.12,1.69-.36s.96-.58,1.35-1.04c.08-.1.14-.17.19-.2.04-.03.09-.05.15-.05.17,0,.25.1.25.31,0,.39-.19.83-.56,1.3-.31.39-.68.73-1.12,1.02-.43.29-.91.51-1.43.67s-1.05.23-1.61.23ZM322.13,222.57h2.82c.5,0,.92-.01,1.27-.03s.69-.06,1.02-.12c.1-.02.17-.09.2-.2s.05-.27.05-.48c0-.6-.26-1.11-.79-1.54-.53-.42-1.15-.63-1.88-.63-.48,0-.95.14-1.43.42-.48.28-.87.62-1.18,1.04-.31.41-.47.83-.47,1.24,0,.21.12.31.37.31Z"/>
      <path class="st0" d="M335.86,231.93c-.37,0-.75-.14-1.13-.43-.38-.29-.7-.64-.96-1.05-.26-.41-.39-.81-.39-1.18,0-.66.17-1.18.53-1.55s.91-.71,1.67-1.02l3.16-1.3c.41-.17.66-.31.73-.43s.12-.39.14-.81l.06-1.98c.02-.54-.13-1-.45-1.39-.32-.39-.78-.59-1.38-.59-.31,0-.62.05-.93.16-.31.1-.57.24-.78.4-.12.08-.21.21-.25.37-.04.17-.06.34-.06.53,0,.08,0,.18.01.28.01.1.02.2.02.28,0,.1-.13.24-.39.42-.26.18-.55.33-.87.47-.32.13-.58.2-.79.2-.1,0-.19-.03-.25-.08-.06-.05-.09-.12-.09-.2,0-.33.11-.69.33-1.07.22-.38.52-.74.92-1.07.47-.43.99-.82,1.55-1.15.56-.33,1.11-.59,1.64-.77.54-.19,1.01-.28,1.43-.28.74,0,1.36.26,1.84.79.49.53.72,1.18.7,1.97l-.16,7.44c-.02.43.08.79.29,1.05.22.27.49.4.82.4.52,0,.9-.11,1.15-.34.1-.1.19-.16.25-.16.1,0,.19.03.25.09s.09.14.09.25c0,.23-.11.46-.34.68-.33.33-.69.59-1.07.79-.38.2-.74.29-1.07.29-.95,0-1.71-.54-2.26-1.61h-.09c-.68.56-1.33.97-1.95,1.22-.62.26-1.26.39-1.92.39ZM337.32,230.45c.41,0,.76-.07,1.05-.2.29-.13.55-.31.77-.54.1-.1.19-.24.26-.42.07-.17.12-.46.14-.85l.06-1.52c.02-.23.01-.39-.03-.5-.04-.1-.12-.16-.25-.16-.04,0-.11.01-.22.03s-.24.06-.4.12c-1.1.39-1.86.8-2.28,1.22-.42.42-.64.81-.64,1.16,0,.54.16.95.48,1.22.32.28.67.42,1.04.42Z"/>
      <path class="st0" d="M352.23,231.93c-1.01,0-1.8-.31-2.37-.93s-.85-1.54-.85-2.76v-7.19c0-.17-.06-.28-.19-.36-.12-.07-.39-.11-.81-.11h-.19c-.1,0-.19-.07-.26-.2-.07-.13-.11-.27-.11-.42,0-.04.03-.1.09-.19.06-.08.1-.13.12-.16.41-.29.79-.58,1.13-.87.34-.29.65-.57.93-.85.28-.28.51-.53.7-.76l.26-.26c.07-.07.16-.11.26-.11s.2.02.29.06c.09.04.13.13.11.28l-.16,1.39c-.02.23.03.38.16.46.12.08.32.12.59.12h3.53c.08,0,.16.07.22.2.06.13.09.29.09.48s-.03.37-.09.54c-.06.18-.13.26-.22.26h-3.07c-.52,0-.85.04-1.01.12-.16.08-.23.33-.23.74v6.11c0,.83.18,1.48.53,1.95.35.48.86.71,1.52.71.6,0,1.06-.05,1.4-.14.33-.09.63-.23.9-.42.04-.04.08-.06.12-.06.08,0,.14.05.17.14.03.09.05.19.05.29s-.17.31-.51.62c-.34.31-.79.6-1.33.87-.55.27-1.14.4-1.78.4Z"/>
      <path class="st0" d="M359.23,231.59c-.19,0-.34-.03-.45-.08-.11-.05-.17-.14-.17-.26,0-.17.08-.28.23-.34.15-.06.31-.11.48-.16.43-.1.76-.23.99-.39.23-.15.34-.42.34-.79v-6.73c0-.56-.1-1.05-.29-1.49-.2-.43-.56-.69-1.1-.78-.1-.02-.18-.06-.23-.12-.05-.06-.08-.16-.08-.28,0-.23.09-.35.28-.37.83-.19,1.51-.44,2.05-.76.54-.32.94-.58,1.21-.79.19-.14.33-.22.43-.22.12,0,.19.05.19.16,0,.17-.03.49-.08.98s-.1,1.02-.14,1.61c-.04.59-.06,1.12-.06,1.6v7.19c0,.35.12.61.36.77.24.17.56.3.98.4.17.04.33.09.48.16.16.06.23.18.23.34,0,.23-.21.34-.62.34s-.71-.02-.95-.05c-.24-.03-.46-.06-.68-.08-.22-.02-.51-.03-.88-.03-.35,0-.64,0-.87.03-.23.02-.46.05-.68.08-.23.03-.55.05-.96.05ZM361.71,215.5c-.43,0-.8-.15-1.1-.45s-.45-.67-.45-1.1.15-.83.45-1.13c.3-.3.67-.45,1.1-.45s.83.15,1.13.45c.3.3.45.68.45,1.13s-.15.8-.45,1.1c-.3.3-.68.45-1.13.45Z"/>
      <path class="st0" d="M373.86,232.15c-.08,0-.19-.16-.31-.48-.12-.32-.21-.55-.25-.7-.14-.35-.28-.72-.4-1.1-.12-.38-.25-.74-.37-1.07-.45-1.28-.95-2.54-1.47-3.77-.53-1.23-1.04-2.47-1.54-3.74-.14-.37-.37-.71-.67-1.01-.3-.3-.6-.49-.92-.57-.17-.06-.3-.12-.4-.19-.1-.06-.16-.17-.16-.31,0-.12.08-.2.23-.23.16-.03.28-.05.39-.05.41,0,.71.01.9.03.19.02.37.05.56.08.19.03.45.05.81.05.37,0,.65-.01.84-.05.19-.03.38-.06.59-.08.21-.02.51-.03.9-.03.1,0,.23.02.39.05.15.03.23.11.23.23,0,.15-.07.26-.22.34-.15.08-.31.15-.5.22-.21.08-.36.24-.46.48-.1.24-.16.5-.16.79,0,.15,0,.29.03.43.02.14.05.28.09.4l2.45,6.51s.04.03.05.03.03,0,.05-.03l2.36-6.04c.08-.21.14-.43.19-.67.04-.24.06-.44.06-.6,0-.41-.06-.71-.19-.88-.12-.17-.33-.31-.62-.42-.27-.1-.46-.19-.56-.25-.1-.06-.16-.17-.16-.31,0-.12.07-.2.2-.23.13-.03.27-.05.42-.05.23,0,.53.03.9.08s.83.08,1.36.08.9-.03,1.1-.08.44-.08.73-.08c.17,0,.31.02.43.05.12.03.19.11.19.23,0,.23-.24.41-.71.56-.31.08-.65.32-1.02.71s-.67.85-.9,1.36l-2.42,5.83c-.04.08-.12.29-.25.6-.12.32-.26.67-.4,1.05s-.32.85-.53,1.41c-.17.39-.3.7-.4.92-.1.22-.2.38-.28.48h-.19Z"/>
      <path class="st0" d="M388.4,231.97c-1.14,0-2.13-.28-2.98-.84-.85-.56-1.51-1.35-1.98-2.37-.48-1.02-.71-2.21-.71-3.55,0-1.2.27-2.29.82-3.27s1.28-1.77,2.19-2.37,1.9-.9,2.98-.9c.83,0,1.56.17,2.2.5.64.33,1.14.79,1.5,1.38.36.59.54,1.27.54,2.03,0,.64-.31.96-.93.96h-6.54c-.29,0-.49.08-.6.23s-.17.46-.17.91c0,.99.22,1.9.65,2.71.43.82,1.01,1.47,1.74,1.95s1.52.73,2.39.73c.62,0,1.18-.12,1.69-.36s.96-.58,1.35-1.04c.08-.1.14-.17.19-.2.04-.03.09-.05.15-.05.17,0,.25.1.25.31,0,.39-.19.83-.56,1.3-.31.39-.68.73-1.12,1.02-.43.29-.91.51-1.43.67s-1.05.23-1.61.23ZM385.55,222.57h2.82c.5,0,.92-.01,1.27-.03s.69-.06,1.02-.12c.1-.02.17-.09.2-.2s.05-.27.05-.48c0-.6-.26-1.11-.79-1.54-.53-.42-1.15-.63-1.88-.63-.48,0-.95.14-1.43.42s-.87.62-1.18,1.04c-.31.41-.46.83-.46,1.24,0,.21.12.31.37.31Z"/>
      <path class="st0" d="M405.11,231.66c-.27,0-.49-.03-.65-.08s-.25-.14-.25-.26c0-.25.34-.43,1.02-.56.79-.14,1.38-.38,1.8-.71.41-.33.62-.87.62-1.61v-13.95c0-.74-.16-1.29-.46-1.64-.31-.35-.85-.56-1.61-.62-.35-.04-.61-.12-.77-.23-.17-.11-.25-.24-.25-.39,0-.12.08-.21.25-.26.17-.05.38-.08.65-.08h1.3c.31,0,.6,0,.88.02.28.01.62.02,1.04.02.39,0,.73-.02,1.02-.05.29-.03.61-.06.98-.08.36-.02.84-.03,1.44-.03,2.42,0,4.22.35,5.41,1.04s1.78,1.89,1.78,3.58c0,.7-.12,1.32-.36,1.84-.24.53-.47.9-.7,1.13-.33.33-.63.58-.9.76-.27.18-.66.37-1.18.57-.08.02-.12.07-.12.14s.04.13.12.17c.47.14.97.33,1.47.56.51.23.98.52,1.43.88.44.36.81.84,1.08,1.43.28.59.42,1.34.42,2.25,0,1.14-.18,2.04-.54,2.7-.36.66-.79,1.17-1.29,1.52s-.96.64-1.39.87c-.64.33-1.38.59-2.23.77-.85.19-1.86.28-3.04.28-.27,0-.67-.02-1.21-.06-.54-.04-1.12-.06-1.74-.06-.54,0-.99,0-1.36.03-.37.02-.76.05-1.16.08-.4.03-.9.05-1.5.05ZM411.5,220c.56,0,1.16-.06,1.81-.19.65-.12,1.3-.36,1.94-.71.23-.12.52-.42.87-.9s.53-1.16.53-2.05c0-.6-.11-1.21-.34-1.84-.23-.63-.66-1.16-1.3-1.6-.64-.43-1.6-.65-2.88-.65-.85,0-1.4.11-1.66.34-.26.23-.39.58-.39,1.05v5.39c0,.54.18.86.53.98.35.11.65.17.9.17ZM412.52,230.35c.91,0,1.76-.21,2.54-.62.79-.41,1.42-.98,1.89-1.69.48-.71.71-1.51.71-2.4,0-.81-.13-1.47-.4-2-.27-.53-.58-.96-.93-1.29-.35-.33-.67-.57-.96-.71-.27-.17-.69-.33-1.27-.51-.58-.18-1.33-.26-2.26-.26-.66,0-1.12.13-1.38.4-.26.27-.39.51-.39.71v6.17c0,.87.21,1.45.64,1.75.42.3,1.03.45,1.81.45Z"/>
      <path class="st0" d="M425.11,231.59c-.21,0-.36-.03-.46-.08-.1-.05-.16-.14-.16-.26,0-.17.06-.27.19-.33s.3-.11.53-.17c.39-.1.69-.25.88-.45.2-.2.29-.44.29-.73v-6.67c0-.56-.08-1.04-.25-1.46-.17-.41-.51-.67-1.02-.78-.08-.02-.16-.07-.22-.15-.06-.08-.09-.17-.09-.25,0-.21.09-.33.28-.37.54-.17,1.1-.41,1.69-.73s1.05-.58,1.38-.79c.12-.08.22-.14.29-.17.07-.03.13-.05.17-.05.1,0,.15.07.15.22,0,.06,0,.22-.01.46-.01.25-.02.54-.03.87-.01.33-.03.66-.05.99,0,.04.02.06.06.06.33-.41.7-.78,1.1-1.08.4-.31.82-.56,1.24-.74.42-.19.83-.28,1.22-.28.43,0,.79.09,1.07.28.28.19.42.42.42.71,0,.21-.06.43-.17.68s-.26.46-.45.65-.38.28-.59.28c-.12,0-.26-.03-.4-.08-.14-.05-.3-.12-.46-.2-.17-.06-.33-.12-.5-.19-.17-.06-.33-.09-.5-.09-.5,0-.98.18-1.44.53s-.7,1.04-.7,2.08v6.26c0,.27.14.49.43.67.29.18.69.35,1.21.51.23.06.4.12.53.19.12.06.19.17.19.31,0,.23-.21.34-.62.34-.62,0-1.09-.03-1.41-.08-.32-.05-.75-.08-1.29-.08-.35,0-.64,0-.85.03-.22.02-.44.05-.68.08-.24.03-.56.05-.98.05Z"/>
      <path class="st0" d="M439.34,231.93c-.37,0-.75-.14-1.13-.43-.38-.29-.7-.64-.96-1.05-.26-.41-.39-.81-.39-1.18,0-.66.17-1.18.53-1.55s.91-.71,1.67-1.02l3.16-1.3c.41-.17.66-.31.73-.43s.12-.39.14-.81l.06-1.98c.02-.54-.13-1-.45-1.39s-.78-.59-1.38-.59c-.31,0-.62.05-.93.16-.31.1-.57.24-.77.4-.12.08-.21.21-.25.37-.04.17-.06.34-.06.53,0,.08,0,.18.01.28.01.1.02.2.02.28,0,.1-.13.24-.39.42-.26.18-.55.33-.87.47-.32.13-.58.2-.79.2-.1,0-.19-.03-.25-.08-.06-.05-.09-.12-.09-.2,0-.33.11-.69.33-1.07.22-.38.52-.74.92-1.07.47-.43.99-.82,1.55-1.15.56-.33,1.11-.59,1.64-.77.54-.19,1.01-.28,1.43-.28.74,0,1.36.26,1.84.79.49.53.72,1.18.7,1.97l-.15,7.44c-.02.43.08.79.29,1.05s.49.4.82.4c.52,0,.9-.11,1.15-.34.1-.1.19-.16.25-.16.1,0,.19.03.25.09.06.06.09.14.09.25,0,.23-.11.46-.34.68-.33.33-.69.59-1.07.79-.38.2-.74.29-1.07.29-.95,0-1.71-.54-2.26-1.61h-.09c-.68.56-1.33.97-1.95,1.22-.62.26-1.26.39-1.92.39ZM440.79,230.45c.41,0,.76-.07,1.05-.2.29-.13.55-.31.78-.54.1-.1.19-.24.26-.42.07-.17.12-.46.14-.85l.06-1.52c.02-.23,0-.39-.03-.5s-.12-.16-.25-.16c-.04,0-.11.01-.22.03s-.24.06-.4.12c-1.09.39-1.85.8-2.28,1.22-.42.42-.63.81-.63,1.16,0,.54.16.95.48,1.22.32.28.67.42,1.04.42Z"/>
      <path class="st0" d="M451.21,231.59c-.19,0-.34-.03-.45-.08-.11-.05-.17-.14-.17-.26,0-.17.06-.27.19-.33s.3-.11.53-.17c.31-.08.61-.2.9-.34.29-.14.43-.42.43-.84v-6.67c0-.56-.06-1.03-.17-1.43s-.44-.66-.98-.81c-.08-.04-.15-.09-.22-.14-.06-.05-.09-.14-.09-.26,0-.23.09-.35.28-.37.72-.19,1.31-.41,1.77-.68.45-.27.9-.57,1.33-.9.06-.04.12-.08.17-.11.05-.03.11-.05.17-.05.04,0,.08.02.11.06.03.04.05.09.05.15,0,.15-.03.44-.08.88-.05.44-.08.81-.08,1.1,0,.08,0,.16.02.23s.03.12.05.14c.72-.68,1.49-1.2,2.31-1.55.82-.35,1.71-.53,2.68-.53s1.85.41,2.51,1.24c.66.83.99,1.85.99,3.07v6.6c0,.41.14.69.43.82.29.13.59.25.9.36.17.06.33.13.48.2.15.07.23.19.23.36,0,.12-.07.2-.22.23-.15.03-.28.05-.4.05-.41,0-.73-.02-.96-.05-.23-.03-.45-.06-.65-.08-.21-.02-.5-.03-.87-.03-.35,0-.64,0-.87.03-.23.02-.46.05-.7.08-.24.03-.56.05-.98.05-.1,0-.23-.02-.39-.05-.16-.03-.23-.11-.23-.23,0-.17.08-.28.23-.36.15-.07.31-.14.48-.2.31-.1.61-.22.9-.36.29-.13.43-.41.43-.82v-6.51c0-.91-.25-1.62-.76-2.12-.51-.51-1.18-.77-2.03-.79-.74,0-1.4.12-1.95.36-.56.24-1.05.53-1.49.88-.08.08-.14.19-.19.33-.04.13-.06.26-.06.39v7.47c0,.41.14.69.43.84.29.14.59.26.9.34.48.12.71.29.71.5,0,.12-.05.21-.16.26-.1.05-.26.08-.46.08-.41,0-.74-.02-.98-.05-.24-.03-.46-.06-.67-.08-.21-.02-.5-.03-.87-.03-.35,0-.64,0-.85.03-.22.02-.44.05-.68.08-.24.03-.56.05-.98.05Z"/>
      <path class="st0" d="M479.05,232.09s-.11-.04-.2-.12c-.09-.08-.14-.14-.14-.19,0-.21.03-.5.08-.88.05-.38.08-.71.08-.98v-.19c-.31.48-.81.96-1.49,1.46-.68.5-1.54.74-2.57.74-1.18,0-2.2-.31-3.05-.93-.86-.62-1.52-1.42-1.98-2.39s-.7-1.97-.7-3.01c0-1.2.28-2.33.84-3.38.56-1.05,1.36-1.91,2.4-2.57s2.29-.99,3.74-.99c.41,0,.83.04,1.26.11s.75.15.98.23c.19.06.32.09.4.09.14,0,.22-.25.22-.74v-4.4c0-.85-.13-1.42-.4-1.71-.27-.29-.65-.48-1.15-.56-.19-.04-.28-.18-.28-.4,0-.19.08-.31.25-.37.91-.23,1.62-.44,2.14-.65.52-.21.92-.37,1.21-.5.08-.04.16-.07.23-.08.07,0,.13-.02.17-.02.12,0,.2.06.22.19,0,.12-.02.34-.05.63-.03.3-.07.74-.11,1.32-.04.58-.06,1.33-.06,2.26v14.01c0,.7.05,1.21.16,1.53.1.32.27.48.5.48.1,0,.28-.01.54-.03.26-.02.52-.04.79-.06.37-.02.56.07.56.28,0,.14-.05.27-.14.39s-.19.17-.29.17c-.58.08-1.15.2-1.71.36-.56.16-1.2.39-1.92.7-.17.08-.27.13-.33.15s-.11.03-.17.03ZM475.92,230.32c.54,0,1.06-.14,1.58-.42s.97-.65,1.36-1.1l.03-5.58c0-.56-.16-1.11-.48-1.64s-.76-.98-1.33-1.32-1.24-.51-2-.51c-.48,0-1.01.14-1.61.43-.6.29-1.12.8-1.55,1.54-.43.73-.65,1.79-.65,3.18,0,1.18.17,2.12.53,2.84.35.71.78,1.26,1.29,1.63.51.37,1.02.62,1.55.76.53.13.96.2,1.29.2Z"/>
      <path class="st0" d="M486.8,231.59c-.19,0-.34-.03-.45-.08-.11-.05-.17-.14-.17-.26,0-.17.08-.28.23-.34.16-.06.31-.11.48-.16.43-.1.76-.23.99-.39.23-.15.34-.42.34-.79v-6.73c0-.56-.1-1.05-.29-1.49-.2-.43-.56-.69-1.1-.78-.1-.02-.18-.06-.23-.12-.05-.06-.08-.16-.08-.28,0-.23.09-.35.28-.37.83-.19,1.51-.44,2.05-.76.54-.32.94-.58,1.21-.79.19-.14.33-.22.43-.22.12,0,.19.05.19.16,0,.17-.03.49-.08.98s-.1,1.02-.14,1.61c-.04.59-.06,1.12-.06,1.6v7.19c0,.35.12.61.36.77.24.17.56.3.98.4.17.04.33.09.48.16.16.06.23.18.23.34,0,.23-.21.34-.62.34s-.71-.02-.95-.05c-.24-.03-.46-.06-.68-.08-.22-.02-.51-.03-.88-.03-.35,0-.64,0-.87.03-.23.02-.46.05-.68.08-.23.03-.55.05-.96.05ZM489.28,215.5c-.43,0-.8-.15-1.1-.45s-.45-.67-.45-1.1.15-.83.45-1.13c.3-.3.67-.45,1.1-.45.46,0,.83.15,1.13.45.3.3.45.68.45,1.13s-.15.8-.45,1.1c-.3.3-.68.45-1.13.45Z"/>
      <path class="st0" d="M496.16,231.59c-.19,0-.34-.03-.45-.08-.11-.05-.17-.14-.17-.26,0-.17.06-.27.19-.33s.3-.11.53-.17c.31-.08.61-.2.9-.34.29-.14.43-.42.43-.84v-6.67c0-.56-.06-1.03-.17-1.43s-.44-.66-.98-.81c-.08-.04-.15-.09-.22-.14-.06-.05-.09-.14-.09-.26,0-.23.09-.35.28-.37.72-.19,1.31-.41,1.77-.68.45-.27.9-.57,1.33-.9.06-.04.12-.08.17-.11.05-.03.11-.05.17-.05.04,0,.08.02.11.06.03.04.05.09.05.15,0,.15-.03.44-.08.88-.05.44-.08.81-.08,1.1,0,.08,0,.16.02.23s.03.12.05.14c.72-.68,1.49-1.2,2.31-1.55.82-.35,1.71-.53,2.68-.53s1.85.41,2.51,1.24c.66.83.99,1.85.99,3.07v6.6c0,.41.14.69.43.82.29.13.59.25.9.36.17.06.33.13.48.2.15.07.23.19.23.36,0,.12-.07.2-.22.23-.15.03-.28.05-.4.05-.41,0-.73-.02-.96-.05-.23-.03-.45-.06-.65-.08-.21-.02-.5-.03-.87-.03-.35,0-.64,0-.87.03-.23.02-.46.05-.7.08-.24.03-.56.05-.98.05-.1,0-.23-.02-.39-.05-.16-.03-.23-.11-.23-.23,0-.17.08-.28.23-.36.15-.07.31-.14.48-.2.31-.1.61-.22.9-.36.29-.13.43-.41.43-.82v-6.51c0-.91-.25-1.62-.76-2.12-.51-.51-1.18-.77-2.03-.79-.74,0-1.4.12-1.95.36-.56.24-1.05.53-1.49.88-.08.08-.14.19-.19.33-.04.13-.06.26-.06.39v7.47c0,.41.14.69.43.84.29.14.59.26.9.34.48.12.71.29.71.5,0,.12-.05.21-.16.26-.1.05-.26.08-.46.08-.41,0-.74-.02-.98-.05-.24-.03-.46-.06-.67-.08-.21-.02-.5-.03-.87-.03-.35,0-.64,0-.85.03-.22.02-.44.05-.68.08-.24.03-.56.05-.98.05Z"/>
      <path class="st0" d="M518.97,240.49c-1.76,0-3.15-.34-4.17-1.01-1.02-.67-1.54-1.58-1.54-2.71,0-.54.08-.99.25-1.36s.42-.69.78-.96c.29-.25.68-.56,1.16-.95.49-.38.99-.78,1.5-1.19l1.3.06c-.99.64-1.68,1.25-2.08,1.83-.39.58-.59,1.28-.59,2.11s.37,1.52,1.1,2.09c.73.57,1.64.85,2.71.85,1.22,0,2.2-.28,2.95-.84.52-.39.92-.9,1.21-1.53.29-.63.43-1.3.43-2,0-.46-.16-.83-.48-1.13-.32-.3-.82-.54-1.5-.73-.68-.19-1.57-.31-2.67-.37-1.94-.15-3.29-.4-4.05-.78-.75-.37-1.13-.95-1.13-1.74,0-.21.06-.4.17-.57s.29-.37.54-.57c.47-.37.83-.65,1.05-.82s.4-.33.51-.45c.11-.12.22-.28.33-.46l1.05.53c-.46.17-.84.39-1.15.67-.31.28-.46.53-.46.76,0,.29.16.54.46.76.31.22.76.39,1.36.51.6.12,1.33.22,2.2.28,1.9.1,3.32.41,4.25.93.93.52,1.39,1.25,1.39,2.2,0,.81-.2,1.6-.6,2.37-.4.77-.94,1.48-1.6,2.12s-1.4,1.15-2.22,1.53c-.82.38-1.65.57-2.5.57ZM519.16,228.21c-.85,0-1.65-.22-2.42-.65-.77-.43-1.39-1.01-1.88-1.72s-.73-1.49-.73-2.34c0-.97.25-1.82.76-2.56.51-.73,1.17-1.31,2-1.72.83-.41,1.71-.62,2.63-.62.6,0,1.12.08,1.57.23.44.15.88.29,1.32.42.5.14.89.23,1.18.26.29.03.59.05.9.05.25,0,.56-.02.93-.05s.63-.05.77-.05c.27,0,.4.16.4.46,0,.19-.1.38-.31.59-.1.1-.19.15-.25.15h-.84c-.56,0-.87.08-.93.25-.02.08-.05.2-.08.36-.03.16-.06.33-.08.51-.02.19-.03.37-.03.56,0,1.05-.23,2.03-.68,2.91-.45.89-1.05,1.6-1.8,2.14s-1.56.81-2.45.81ZM519.35,227.13c.79,0,1.44-.4,1.95-1.19.52-.79.77-1.78.77-2.96,0-.6-.14-1.16-.42-1.69-.28-.53-.64-.95-1.08-1.27s-.92-.48-1.44-.48c-.48,0-.93.17-1.35.51-.42.34-.76.78-1.02,1.32-.26.54-.39,1.13-.39,1.77,0,.72.13,1.39.4,2s.63,1.1,1.08,1.46c.46.36.95.54,1.49.54Z"/>
      <path class="st0" d="M577.87,231.87c-.17,0-.28-.07-.34-.22-.08-.23-.19-.53-.31-.92-.12-.38-.24-.71-.34-.98l-5.67-15.22c-.21-.58-.49-1.06-.84-1.46-.35-.39-.8-.66-1.33-.81-.33-.1-.58-.21-.76-.31-.18-.1-.26-.23-.26-.37,0-.12.08-.21.25-.26.17-.05.38-.08.65-.08.33,0,.7.01,1.1.03.4.02.83.04,1.29.05.45,0,.92.01,1.39.01.41,0,.82,0,1.22-.01.4-.01.78-.02,1.12-.03s.61-.02.82-.02c.27,0,.49.03.65.08.17.05.25.14.25.26,0,.14-.08.27-.25.39-.17.11-.42.19-.78.23-.58.06-1.06.19-1.44.39s-.57.47-.57.82.05.66.14.91c.09.26.16.46.2.6l4.46,11.78c.04.08.09.13.16.16.06.02.12-.04.19-.19l4.25-11.16c.41-1.1.44-1.9.08-2.4-.36-.51-.87-.8-1.54-.88-.31-.04-.56-.12-.74-.23-.19-.11-.28-.24-.28-.39,0-.12.08-.21.25-.26.17-.05.38-.08.65-.08h.9c.33,0,.68,0,1.04.02.36,0,.74.01,1.13.01.6,0,1.24-.01,1.92-.05.68-.03,1.22-.05,1.61-.05.27,0,.49.03.65.08.17.05.25.14.25.26,0,.15-.08.26-.25.36-.17.09-.42.18-.77.26-.76.17-1.41.52-1.92,1.05-.52.54-.89,1.08-1.12,1.64l-5.83,14.14c-.04.1-.12.32-.23.64-.11.32-.23.67-.36,1.04s-.25.68-.37.93c-.02.06-.06.11-.12.15-.06.04-.12.06-.19.06Z"/>
      <path class="st0" d="M591.36,231.59c-.19,0-.34-.03-.45-.08-.11-.05-.17-.14-.17-.26,0-.17.08-.28.23-.34.16-.06.31-.11.48-.16.43-.1.76-.23.99-.39.23-.15.34-.42.34-.79v-6.73c0-.56-.1-1.05-.29-1.49-.2-.43-.56-.69-1.1-.78-.1-.02-.18-.06-.23-.12-.05-.06-.08-.16-.08-.28,0-.23.09-.35.28-.37.83-.19,1.51-.44,2.05-.76.54-.32.94-.58,1.21-.79.19-.14.33-.22.43-.22.12,0,.19.05.19.16,0,.17-.03.49-.08.98s-.1,1.02-.14,1.61c-.04.59-.06,1.12-.06,1.6v7.19c0,.35.12.61.36.77.24.17.56.3.98.4.17.04.33.09.48.16.16.06.23.18.23.34,0,.23-.21.34-.62.34s-.71-.02-.95-.05c-.24-.03-.46-.06-.68-.08-.22-.02-.51-.03-.88-.03-.35,0-.64,0-.87.03-.23.02-.46.05-.68.08-.23.03-.55.05-.96.05ZM593.84,215.5c-.43,0-.8-.15-1.1-.45s-.45-.67-.45-1.1.15-.83.45-1.13c.3-.3.67-.45,1.1-.45.46,0,.83.15,1.13.45.3.3.45.68.45,1.13s-.15.8-.45,1.1c-.3.3-.68.45-1.13.45Z"/>
      <path class="st0" d="M603.82,231.93c-.64,0-1.24-.1-1.8-.29s-1.03-.47-1.43-.82c-.1-.23-.18-.61-.23-1.15-.05-.54-.09-.98-.11-1.33,0-.19.13-.28.4-.28.08,0,.16.02.23.05s.12.09.14.17c.27,1.01.7,1.74,1.29,2.17.59.43,1.18.65,1.78.65s1.11-.2,1.53-.6c.42-.4.64-.9.64-1.5,0-.56-.19-1.04-.56-1.44-.37-.4-1.02-.89-1.95-1.47-.7-.43-1.27-.85-1.71-1.24-.43-.39-.75-.79-.95-1.21-.2-.41-.29-.88-.29-1.39,0-.66.16-1.26.46-1.8.31-.54.78-.97,1.4-1.29.62-.32,1.39-.48,2.32-.48.62,0,1.14.06,1.55.19.41.12.72.26.93.4.17.23.3.58.42,1.07.11.49.17.95.17,1.38,0,.14-.1.22-.31.22-.12,0-.24-.03-.36-.08-.11-.05-.19-.12-.23-.2-.27-.68-.6-1.2-1.01-1.57-.4-.36-.9-.54-1.5-.54-.52,0-.98.16-1.38.46-.4.31-.6.76-.6,1.36,0,.48.15.9.45,1.27.3.37.86.8,1.69,1.27,1.2.68,2.09,1.32,2.68,1.91s.88,1.37.88,2.34c0,1.12-.42,2.03-1.27,2.73s-1.94,1.05-3.29,1.05Z"/>
      <path class="st0" d="M622.48,232.09c-.14,0-.22-.08-.22-.25,0-.21.03-.51.08-.91.05-.4.08-.74.08-1.01v-.19c-.81.79-1.62,1.35-2.43,1.69-.82.34-1.71.51-2.68.51-.66,0-1.26-.14-1.8-.42-.54-.28-.96-.69-1.27-1.24-.31-.55-.46-1.22-.46-2.03v-6.29c0-.45-.1-.82-.31-1.08-.21-.27-.55-.5-1.02-.68-.1-.04-.2-.09-.28-.15-.08-.06-.12-.18-.12-.34,0-.19.05-.31.14-.37.09-.06.2-.1.33-.12.7-.04,1.24-.1,1.63-.17s.86-.18,1.44-.33c.06-.02.11-.03.14-.03h.11c.23,0,.33.14.31.43-.06.48-.11.87-.14,1.19s-.05.72-.05,1.19v6.04c0,.5.12.96.37,1.38.25.42.57.77.98,1.04.4.27.82.4,1.26.4.54,0,1.01-.03,1.41-.09.4-.06.8-.24,1.19-.53.23-.17.52-.43.87-.81s.53-.88.53-1.52v-5.67c0-.43-.13-.76-.39-.98-.26-.22-.55-.37-.88-.45-.33-.08-.6-.12-.81-.12-.19,0-.34-.04-.46-.11-.12-.07-.19-.21-.19-.42,0-.19.07-.31.2-.37.13-.06.28-.09.45-.09.64-.02,1.17-.05,1.6-.08.42-.03.81-.08,1.15-.15s.7-.16,1.07-.26c.04-.02.09-.04.16-.05.06,0,.11-.02.16-.02.27,0,.4.11.4.34,0,.02,0,.06-.02.11-.01.05-.03.11-.05.17-.02.06-.05.24-.08.53-.03.29-.06.59-.09.9-.03.31-.05.55-.05.71v7.16c0,.56.06.96.17,1.19.11.24.24.36.39.36.17,0,.41-.02.73-.05s.55-.05.7-.05c.1,0,.21.02.31.06s.16.15.16.34c0,.17-.04.27-.12.33-.08.05-.19.09-.31.11-.81.1-1.5.26-2.08.47-.58.21-1.1.4-1.55.59-.06.02-.16.06-.28.11-.12.05-.24.08-.34.08Z"/>
      <path class="st0" d="M632.87,231.93c-.37,0-.75-.14-1.13-.43-.38-.29-.7-.64-.96-1.05s-.39-.81-.39-1.18c0-.66.17-1.18.53-1.55s.91-.71,1.67-1.02l3.16-1.3c.41-.17.66-.31.73-.43s.12-.39.14-.81l.06-1.98c.02-.54-.13-1-.45-1.39s-.78-.59-1.38-.59c-.31,0-.62.05-.93.16-.31.1-.57.24-.77.4-.12.08-.21.21-.25.37-.04.17-.06.34-.06.53,0,.08,0,.18.02.28s.02.2.02.28c0,.1-.13.24-.39.42-.26.18-.55.33-.87.47-.32.13-.58.2-.79.2-.1,0-.19-.03-.25-.08-.06-.05-.09-.12-.09-.2,0-.33.11-.69.33-1.07.22-.38.52-.74.92-1.07.47-.43.99-.82,1.55-1.15.56-.33,1.11-.59,1.64-.77.54-.19,1.01-.28,1.43-.28.74,0,1.36.26,1.84.79.49.53.72,1.18.7,1.97l-.15,7.44c-.02.43.08.79.29,1.05s.49.4.82.4c.52,0,.9-.11,1.15-.34.1-.1.19-.16.25-.16.1,0,.19.03.25.09.06.06.09.14.09.25,0,.23-.11.46-.34.68-.33.33-.69.59-1.07.79-.38.2-.74.29-1.07.29-.95,0-1.71-.54-2.26-1.61h-.09c-.68.56-1.33.97-1.95,1.22-.62.26-1.26.39-1.92.39ZM634.32,230.45c.41,0,.76-.07,1.05-.2.29-.13.55-.31.78-.54.1-.1.19-.24.26-.42.07-.17.12-.46.14-.85l.06-1.52c.02-.23,0-.39-.03-.5s-.12-.16-.25-.16c-.04,0-.11.01-.22.03s-.24.06-.4.12c-1.09.39-1.85.8-2.28,1.22s-.63.81-.63,1.16c0,.54.16.95.48,1.22.32.28.67.42,1.04.42Z"/>
      <path class="st0" d="M644.58,231.59c-.1,0-.23-.02-.39-.05-.16-.03-.23-.11-.23-.23,0-.17.08-.28.23-.36.16-.07.32-.14.48-.2.31-.1.61-.22.9-.36.29-.13.43-.41.43-.82v-15.62c0-.6-.11-1.1-.33-1.5-.22-.4-.58-.66-1.1-.76-.17-.04-.25-.18-.25-.4,0-.21.07-.33.22-.37.54-.12,1-.25,1.4-.39.39-.13.76-.27,1.1-.42.34-.14.68-.28,1.01-.4.08-.04.14-.06.19-.06s.08.03.11.08.05.1.05.14c0,.19-.04.58-.11,1.19s-.11,1.62-.11,3.02v15.5c0,.41.14.69.43.82.29.13.59.25.9.36.17.06.33.13.48.2.16.07.23.19.23.36,0,.12-.08.2-.23.23-.15.03-.28.05-.39.05-.39,0-.71-.02-.95-.05-.24-.03-.46-.06-.68-.08-.22-.02-.51-.03-.88-.03-.35,0-.64,0-.87.03-.23.02-.45.05-.68.08-.23.03-.55.05-.96.05Z"/>
      <path class="st0" d="M666.87,232c-.87,0-1.67-.13-2.4-.39-.73-.26-1.39-.62-1.97-1.1-.08-.08-.16-.17-.23-.28-.07-.1-.13-.22-.17-.34-.1-.41-.17-.95-.2-1.61s-.07-1.21-.11-1.64c0-.14.06-.25.19-.33s.27-.11.43-.11c.1,0,.21.03.31.08.1.05.17.14.19.26.41,1.59,1.03,2.73,1.84,3.41.82.68,1.67,1.02,2.56,1.02.72,0,1.36-.15,1.92-.46.56-.31,1-.75,1.32-1.32s.48-1.23.48-2c0-.85-.14-1.54-.42-2.06-.28-.53-.68-.99-1.19-1.38s-1.15-.82-1.89-1.27c-.81-.52-1.6-1.04-2.39-1.57-.79-.53-1.44-1.14-1.95-1.83s-.77-1.54-.77-2.53c0-1.05.24-2,.71-2.85.47-.85,1.19-1.52,2.15-2.03s2.17-.76,3.61-.76c.74,0,1.39.08,1.94.23s.99.31,1.32.45c.17.06.3.17.42.31.11.14.19.3.23.46.12.43.26.93.4,1.49.14.56.22,1.08.22,1.58,0,.23-.16.34-.46.34-.19,0-.37-.04-.54-.12s-.28-.19-.33-.31c-.43-1.09-.94-1.93-1.52-2.51s-1.31-.87-2.2-.87c-.62,0-1.2.11-1.74.34-.54.23-.98.6-1.32,1.12-.34.52-.51,1.21-.51,2.08,0,.62.2,1.18.6,1.69.4.51.93.99,1.6,1.44.66.46,1.37.92,2.14,1.4.72.43,1.43.91,2.12,1.43.69.52,1.26,1.13,1.7,1.84s.67,1.59.67,2.62c0,1.22-.28,2.29-.84,3.21-.56.92-1.34,1.63-2.36,2.12s-2.2.74-3.56.74Z"/>
      <path class="st0" d="M682.59,231.93c-1.01,0-1.8-.31-2.37-.93s-.85-1.54-.85-2.76v-7.19c0-.17-.06-.28-.19-.36-.12-.07-.39-.11-.81-.11h-.19c-.1,0-.19-.07-.26-.2s-.11-.27-.11-.42c0-.04.03-.1.09-.19.06-.08.1-.13.12-.16.41-.29.79-.58,1.13-.87.34-.29.65-.57.93-.85.28-.28.51-.53.7-.76l.26-.26c.07-.07.16-.11.26-.11s.2.02.29.06c.09.04.13.13.11.28l-.16,1.39c-.02.23.03.38.16.46.12.08.32.12.59.12h3.53c.08,0,.15.07.22.2.06.13.09.29.09.48s-.03.37-.09.54c-.06.18-.13.26-.22.26h-3.07c-.52,0-.85.04-1.01.12-.15.08-.23.33-.23.74v6.11c0,.83.18,1.48.53,1.95.35.48.86.71,1.52.71.6,0,1.06-.05,1.4-.14.33-.09.63-.23.9-.42.04-.04.08-.06.12-.06.08,0,.14.05.17.14.03.09.05.19.05.29s-.17.31-.51.62c-.34.31-.79.6-1.33.87-.55.27-1.14.4-1.78.4Z"/>
      <path class="st0" d="M695.49,231.93c-1.16,0-2.2-.27-3.13-.81s-1.67-1.28-2.22-2.22c-.55-.94-.82-2.01-.82-3.21,0-.87.17-1.71.51-2.54.34-.83.82-1.58,1.44-2.26.62-.68,1.34-1.22,2.17-1.63.83-.4,1.71-.6,2.67-.6,1.2,0,2.28.29,3.24.87.96.58,1.73,1.34,2.29,2.28s.85,1.97.85,3.08c0,1.2-.26,2.33-.79,3.41-.53,1.08-1.31,1.95-2.34,2.62-1.03.67-2.33,1.01-3.88,1.01ZM696.14,231c.7,0,1.33-.13,1.89-.4.56-.27.99-.7,1.3-1.3.25-.47.41-1.05.5-1.74.08-.68.12-1.32.12-1.92,0-.99-.18-1.95-.54-2.87-.36-.92-.87-1.67-1.52-2.26-.65-.59-1.42-.88-2.31-.88-.56,0-1.06.09-1.5.26-.45.18-.85.5-1.22.98-.41.52-.68,1.15-.81,1.89-.12.74-.19,1.49-.19,2.23,0,1.01.19,1.98.56,2.9.37.92.88,1.67,1.52,2.25.64.58,1.37.87,2.2.87Z"/>
      <path class="st0" d="M706.86,231.59c-.21,0-.36-.03-.46-.08-.1-.05-.15-.14-.15-.26,0-.17.06-.27.19-.33s.3-.11.53-.17c.39-.1.69-.25.88-.45s.29-.44.29-.73v-6.67c0-.56-.08-1.04-.25-1.46-.17-.41-.51-.67-1.02-.78-.08-.02-.15-.07-.22-.15-.06-.08-.09-.17-.09-.25,0-.21.09-.33.28-.37.54-.17,1.1-.41,1.69-.73s1.05-.58,1.38-.79c.12-.08.22-.14.29-.17.07-.03.13-.05.17-.05.1,0,.15.07.15.22,0,.06,0,.22-.02.46s-.02.54-.03.87c-.01.33-.03.66-.05.99,0,.04.02.06.06.06.33-.41.7-.78,1.1-1.08.4-.31.82-.56,1.24-.74.42-.19.83-.28,1.22-.28.43,0,.79.09,1.07.28.28.19.42.42.42.71,0,.21-.06.43-.17.68s-.26.46-.45.65c-.19.19-.38.28-.59.28-.12,0-.26-.03-.4-.08-.14-.05-.3-.12-.46-.2-.17-.06-.33-.12-.5-.19-.17-.06-.33-.09-.5-.09-.5,0-.98.18-1.44.53s-.7,1.04-.7,2.08v6.26c0,.27.14.49.43.67.29.18.69.35,1.21.51.23.06.4.12.53.19.12.06.19.17.19.31,0,.23-.21.34-.62.34-.62,0-1.09-.03-1.41-.08-.32-.05-.75-.08-1.29-.08-.35,0-.64,0-.85.03-.22.02-.45.05-.68.08-.24.03-.56.05-.98.05Z"/>
      <path class="st0" d="M719.45,240.34c-.39,0-.75-.1-1.08-.29-.33-.2-.5-.52-.5-.98,0-.37.09-.7.26-.98.18-.28.43-.42.76-.42.23,0,.45.03.67.09.22.06.41.09.57.09.12,0,.23-.03.33-.08.09-.05.18-.14.26-.26.23-.37.49-.84.79-1.39.3-.56.61-1.19.93-1.89.32-.7.62-1.45.91-2.23.06-.19.09-.42.09-.71,0-.17-.01-.33-.03-.48-.02-.16-.05-.29-.09-.42l-3.6-9.08c-.14-.37-.34-.7-.57-.98-.24-.28-.51-.46-.82-.54-.17-.06-.33-.13-.48-.22-.16-.08-.23-.2-.23-.34,0-.12.08-.2.23-.23.16-.03.28-.05.39-.05.41,0,.72.01.91.03.2.02.38.05.56.08s.44.05.79.05c.37,0,.65-.01.84-.05s.38-.06.59-.08c.21-.02.52-.03.93-.03.12,0,.26.03.4.08s.22.14.22.26c0,.14-.11.28-.33.42-.22.13-.41.22-.57.26-.21.06-.36.17-.46.33-.1.15-.16.38-.16.67,0,.12.03.27.09.45.06.18.11.32.16.42l2.51,6.2c.04.12.1.19.19.19.06,0,.11-.06.15-.19l2.14-5.67c.06-.14.12-.34.17-.57.05-.24.08-.43.08-.57,0-.39-.06-.67-.17-.82-.11-.16-.26-.27-.45-.36-.17-.08-.36-.19-.57-.33-.22-.13-.33-.27-.33-.42,0-.12.08-.21.23-.26s.28-.08.39-.08c.29,0,.58.03.88.08.3.05.74.08,1.32.08.39,0,.68-.01.85-.05.17-.03.33-.06.45-.08.12-.02.3-.03.53-.03.1,0,.23.02.39.05.15.03.23.11.23.23,0,.15-.08.26-.23.34-.16.08-.32.15-.48.22-.31.08-.64.33-.99.73-.35.4-.63.85-.84,1.35l-4.22,10.04c-.02.06-.13.33-.33.81s-.44,1.06-.73,1.77c-.29.7-.6,1.46-.95,2.26-.34.81-.67,1.58-.98,2.33-.19.41-.46.73-.81.95-.35.22-.75.33-1.21.33Z"/>
      <path class="st0" d="M738.67,231.93c-1.01,0-1.8-.31-2.37-.93s-.85-1.54-.85-2.76v-7.19c0-.17-.06-.28-.19-.36-.12-.07-.39-.11-.81-.11h-.19c-.1,0-.19-.07-.26-.2s-.11-.27-.11-.42c0-.04.03-.1.09-.19.06-.08.1-.13.12-.16.41-.29.79-.58,1.13-.87.34-.29.65-.57.93-.85.28-.28.51-.53.7-.76l.26-.26c.07-.07.16-.11.26-.11s.2.02.29.06c.09.04.13.13.11.28l-.16,1.39c-.02.23.03.38.16.46.12.08.32.12.59.12h3.53c.08,0,.15.07.22.2.06.13.09.29.09.48s-.03.37-.09.54c-.06.18-.13.26-.22.26h-3.07c-.52,0-.85.04-1.01.12-.15.08-.23.33-.23.74v6.11c0,.83.18,1.48.53,1.95.35.48.86.71,1.52.71.6,0,1.06-.05,1.4-.14.33-.09.63-.23.9-.42.04-.04.08-.06.12-.06.08,0,.14.05.17.14.03.09.05.19.05.29s-.17.31-.51.62c-.34.31-.79.6-1.33.87-.55.27-1.14.4-1.78.4Z"/>
      <path class="st0" d="M750.91,231.97c-1.14,0-2.13-.28-2.98-.84s-1.51-1.35-1.98-2.37c-.48-1.02-.71-2.21-.71-3.55,0-1.2.27-2.29.82-3.27.55-.98,1.28-1.77,2.18-2.37s1.9-.9,2.98-.9c.83,0,1.56.17,2.2.5.64.33,1.14.79,1.5,1.38.36.59.54,1.27.54,2.03,0,.64-.31.96-.93.96h-6.54c-.29,0-.49.08-.6.23-.11.16-.17.46-.17.91,0,.99.22,1.9.65,2.71.43.82,1.01,1.47,1.74,1.95s1.52.73,2.39.73c.62,0,1.18-.12,1.69-.36.51-.24.96-.58,1.35-1.04.08-.1.14-.17.19-.2.04-.03.09-.05.16-.05.17,0,.25.1.25.31,0,.39-.19.83-.56,1.3-.31.39-.68.73-1.12,1.02-.43.29-.91.51-1.43.67s-1.05.23-1.61.23ZM748.06,222.57h2.82c.5,0,.92-.01,1.27-.03s.69-.06,1.02-.12c.1-.02.17-.09.2-.2s.05-.27.05-.48c0-.6-.26-1.11-.79-1.54-.53-.42-1.15-.63-1.88-.63-.48,0-.95.14-1.43.42-.48.28-.87.62-1.18,1.04-.31.41-.46.83-.46,1.24,0,.21.12.31.37.31Z"/>
      <path class="st0" d="M759.38,231.59c-.1,0-.23-.02-.39-.05-.16-.03-.23-.11-.23-.23,0-.17.08-.28.23-.36.16-.07.32-.14.48-.2.31-.1.61-.22.9-.36.29-.13.43-.41.43-.82v-15.62c0-.6-.11-1.1-.33-1.5-.22-.4-.58-.66-1.1-.76-.17-.04-.25-.18-.25-.4,0-.21.07-.33.22-.37.54-.12,1-.25,1.4-.39.39-.13.76-.27,1.1-.42.34-.14.68-.28,1.01-.4.08-.04.14-.06.19-.06s.08.03.11.08.05.1.05.14c0,.19-.04.58-.11,1.19s-.11,1.62-.11,3.02v15.5c0,.41.14.69.43.82.29.13.59.25.9.36.17.06.33.13.48.2.16.07.23.19.23.36,0,.12-.08.2-.23.23-.15.03-.28.05-.39.05-.39,0-.71-.02-.95-.05-.24-.03-.46-.06-.68-.08-.22-.02-.51-.03-.88-.03-.35,0-.64,0-.87.03-.23.02-.45.05-.68.08-.23.03-.55.05-.96.05Z"/>
      <path class="st0" d="M768.58,231.59c-.1,0-.23-.02-.39-.05-.16-.03-.23-.11-.23-.23,0-.17.08-.28.23-.36.16-.07.32-.14.48-.2.31-.1.61-.22.9-.36.29-.13.43-.41.43-.82v-15.62c0-.6-.11-1.1-.33-1.5-.22-.4-.58-.66-1.1-.76-.17-.04-.25-.18-.25-.4,0-.21.07-.33.22-.37.54-.12,1-.25,1.4-.39.39-.13.76-.27,1.1-.42.34-.14.68-.28,1.01-.4.08-.04.14-.06.19-.06s.08.03.11.08.05.1.05.14c0,.19-.04.58-.11,1.19s-.11,1.62-.11,3.02v15.5c0,.41.14.69.43.82.29.13.59.25.9.36.17.06.33.13.48.2.16.07.23.19.23.36,0,.12-.08.2-.23.23-.15.03-.28.05-.39.05-.39,0-.71-.02-.95-.05-.24-.03-.46-.06-.68-.08-.22-.02-.51-.03-.88-.03-.35,0-.64,0-.87.03-.23.02-.45.05-.68.08-.23.03-.55.05-.96.05Z"/>
      <path class="st0" d="M777.95,231.59c-.19,0-.34-.03-.45-.08-.11-.05-.17-.14-.17-.26,0-.17.08-.28.23-.34.16-.06.31-.11.48-.16.43-.1.76-.23.99-.39.23-.15.34-.42.34-.79v-6.73c0-.56-.1-1.05-.29-1.49-.2-.43-.56-.69-1.1-.78-.1-.02-.18-.06-.23-.12-.05-.06-.08-.16-.08-.28,0-.23.09-.35.28-.37.83-.19,1.51-.44,2.05-.76.54-.32.94-.58,1.21-.79.19-.14.33-.22.43-.22.12,0,.19.05.19.16,0,.17-.03.49-.08.98s-.1,1.02-.14,1.61c-.04.59-.06,1.12-.06,1.6v7.19c0,.35.12.61.36.77.24.17.56.3.98.4.17.04.33.09.48.16.16.06.23.18.23.34,0,.23-.21.34-.62.34s-.71-.02-.95-.05c-.24-.03-.46-.06-.68-.08-.22-.02-.51-.03-.88-.03-.35,0-.64,0-.87.03-.23.02-.46.05-.68.08-.23.03-.55.05-.96.05ZM780.42,215.5c-.43,0-.8-.15-1.1-.45s-.45-.67-.45-1.1.15-.83.45-1.13c.3-.3.67-.45,1.1-.45.46,0,.83.15,1.13.45.3.3.45.68.45,1.13s-.15.8-.45,1.1c-.3.3-.68.45-1.13.45Z"/>
      <path class="st0" d="M787.31,231.59c-.19,0-.34-.03-.45-.08-.11-.05-.17-.14-.17-.26,0-.17.06-.27.19-.33s.3-.11.53-.17c.31-.08.61-.2.9-.34.29-.14.43-.42.43-.84v-6.67c0-.56-.06-1.03-.17-1.43s-.44-.66-.98-.81c-.08-.04-.15-.09-.22-.14-.06-.05-.09-.14-.09-.26,0-.23.09-.35.28-.37.72-.19,1.31-.41,1.77-.68.45-.27.9-.57,1.33-.9.06-.04.12-.08.17-.11.05-.03.11-.05.17-.05.04,0,.08.02.11.06.03.04.05.09.05.15,0,.15-.03.44-.08.88-.05.44-.08.81-.08,1.1,0,.08,0,.16.02.23s.03.12.05.14c.72-.68,1.49-1.2,2.31-1.55.82-.35,1.71-.53,2.68-.53s1.85.41,2.51,1.24c.66.83.99,1.85.99,3.07v6.6c0,.41.14.69.43.82.29.13.59.25.9.36.17.06.33.13.48.2.15.07.23.19.23.36,0,.12-.07.2-.22.23-.15.03-.28.05-.4.05-.41,0-.73-.02-.96-.05-.23-.03-.45-.06-.65-.08-.21-.02-.5-.03-.87-.03-.35,0-.64,0-.87.03-.23.02-.46.05-.7.08-.24.03-.56.05-.98.05-.1,0-.23-.02-.39-.05-.16-.03-.23-.11-.23-.23,0-.17.08-.28.23-.36.15-.07.31-.14.48-.2.31-.1.61-.22.9-.36.29-.13.43-.41.43-.82v-6.51c0-.91-.25-1.62-.76-2.12-.51-.51-1.18-.77-2.03-.79-.74,0-1.4.12-1.95.36-.56.24-1.05.53-1.49.88-.08.08-.14.19-.19.33-.04.13-.06.26-.06.39v7.47c0,.41.14.69.43.84.29.14.59.26.9.34.48.12.71.29.71.5,0,.12-.05.21-.16.26-.1.05-.26.08-.46.08-.41,0-.74-.02-.98-.05-.24-.03-.46-.06-.67-.08-.21-.02-.5-.03-.87-.03-.35,0-.64,0-.85.03-.22.02-.44.05-.68.08-.24.03-.56.05-.98.05Z"/>
      <path class="st0" d="M810.12,240.49c-1.76,0-3.15-.34-4.17-1.01-1.02-.67-1.54-1.58-1.54-2.71,0-.54.08-.99.25-1.36s.42-.69.78-.96c.29-.25.68-.56,1.16-.95.49-.38.99-.78,1.5-1.19l1.3.06c-.99.64-1.68,1.25-2.08,1.83-.39.58-.59,1.28-.59,2.11s.37,1.52,1.1,2.09c.73.57,1.64.85,2.71.85,1.22,0,2.2-.28,2.95-.84.52-.39.92-.9,1.21-1.53.29-.63.43-1.3.43-2,0-.46-.16-.83-.48-1.13-.32-.3-.82-.54-1.5-.73-.68-.19-1.57-.31-2.67-.37-1.94-.15-3.29-.4-4.05-.78-.75-.37-1.13-.95-1.13-1.74,0-.21.06-.4.17-.57s.29-.37.54-.57c.47-.37.83-.65,1.05-.82s.4-.33.51-.45c.11-.12.22-.28.33-.46l1.05.53c-.46.17-.84.39-1.15.67-.31.28-.46.53-.46.76,0,.29.16.54.46.76.31.22.76.39,1.36.51.6.12,1.33.22,2.2.28,1.9.1,3.32.41,4.25.93.93.52,1.39,1.25,1.39,2.2,0,.81-.2,1.6-.6,2.37-.4.77-.94,1.48-1.6,2.12s-1.4,1.15-2.22,1.53c-.82.38-1.65.57-2.5.57ZM810.31,228.21c-.85,0-1.65-.22-2.42-.65-.77-.43-1.39-1.01-1.88-1.72s-.73-1.49-.73-2.34c0-.97.25-1.82.76-2.56.51-.73,1.17-1.31,2-1.72.83-.41,1.71-.62,2.63-.62.6,0,1.12.08,1.57.23.44.15.88.29,1.32.42.5.14.89.23,1.18.26.29.03.59.05.9.05.25,0,.56-.02.93-.05s.63-.05.77-.05c.27,0,.4.16.4.46,0,.19-.1.38-.31.59-.1.1-.19.15-.25.15h-.84c-.56,0-.87.08-.93.25-.02.08-.05.2-.08.36-.03.16-.06.33-.08.51-.02.19-.03.37-.03.56,0,1.05-.23,2.03-.68,2.91-.45.89-1.05,1.6-1.8,2.14s-1.56.81-2.45.81ZM810.5,227.13c.79,0,1.44-.4,1.95-1.19.52-.79.77-1.78.77-2.96,0-.6-.14-1.16-.42-1.69-.28-.53-.64-.95-1.08-1.27s-.92-.48-1.44-.48c-.48,0-.93.17-1.35.51-.42.34-.76.78-1.02,1.32-.26.54-.39,1.13-.39,1.77,0,.72.13,1.39.4,2s.63,1.1,1.08,1.46c.46.36.95.54,1.49.54Z"/>
    </g>
    <g>
      <path class="st0" d="M286.03,194.25c-.45,0-.83-.07-1.13-.2-.3-.13-.45-.35-.45-.65,0-.34.14-.6.42-.79.28-.19.65-.36,1.1-.51,1.09-.3,2.04-.76,2.84-1.38.81-.62,1.45-1.47,1.94-2.56.94-2.21,1.84-4.34,2.7-6.39.86-2.05,1.69-4.08,2.48-6.11.79-2.03,1.59-4.09,2.39-6.19.81-2.1,1.62-4.32,2.45-6.64.41-1.16.69-2.06.84-2.7.15-.64.28-1.11.39-1.41.56-.15,1.09-.3,1.58-.45.49-.15,1.03-.34,1.63-.56.53-.26.98-.6,1.35-1.01.37-.41.66-.73.84-.96.11-.08.23-.12.34-.14.11-.02.23.07.34.25.11.23.21.45.28.68.07.23.15.47.23.73.83,2.67,1.68,5.36,2.56,8.08.88,2.72,1.75,5.41,2.62,8.05.86,2.65,1.7,5.18,2.51,7.6.81,2.42,1.55,4.65,2.22,6.67.34,1.01.76,1.82,1.27,2.42.51.6,1.07,1.06,1.69,1.38s1.3.57,2.06.76c.49.11.86.26,1.13.45.26.19.39.45.39.79,0,.23-.12.39-.37.51-.25.11-.55.17-.93.17-.68,0-1.53-.02-2.56-.06-1.03-.04-2.09-.08-3.18-.14-1.09-.06-2.06-.08-2.93-.08-.75,0-1.59.02-2.51.06-.92.04-1.84.08-2.76.11-.92.04-1.7.06-2.34.06-.38,0-.7-.07-.98-.2-.28-.13-.42-.33-.42-.59,0-.3.15-.55.45-.76.3-.21.66-.35,1.07-.42,1.35-.23,2.33-.57,2.93-1.04.6-.47.83-1.15.68-2.05-.11-.64-.28-1.4-.51-2.28-.23-.88-.46-1.8-.7-2.76-.24-.96-.5-1.83-.76-2.62-.08-.3-.19-.52-.34-.65-.15-.13-.43-.2-.84-.2h-10.13c-.26,0-.47.08-.62.25-.15.17-.26.42-.34.76-.15.49-.33,1.04-.53,1.66-.21.62-.41,1.26-.62,1.91-.21.66-.39,1.27-.56,1.83-.17.56-.29,1.05-.37,1.46-.19,1.01,0,1.81.53,2.39.54.58,1.49,1.04,2.84,1.38,1.01.26,1.52.66,1.52,1.18,0,.22-.12.4-.37.54-.24.13-.59.2-1.04.2-.86,0-1.76-.03-2.7-.08-.94-.06-1.97-.08-3.1-.08s-2.22.06-3.29.17c-1.07.11-2.15.17-3.24.17ZM299.43,177.92h7.83c.53,0,.79-.11.79-.34,0-.11,0-.21-.03-.28-.02-.07-.05-.19-.08-.34l-3.94-13c-.15-.53-.28-.79-.39-.79-.08,0-.21.24-.39.73l-4.73,13.06c-.08.19-.11.34-.11.45,0,.19.1.32.31.39.21.08.46.11.76.11Z"/>
      <path class="st0" d="M382.92,195.15c-1.61,0-3.02-.18-4.22-.54-1.2-.36-2.23-.87-3.1-1.55-.86-.68-1.65-1.46-2.37-2.37-.83-1.13-1.63-2.22-2.42-3.29-.79-1.07-1.59-2.25-2.39-3.55-.81-1.29-1.7-2.84-2.67-4.65-.49-.86-1.11-1.5-1.86-1.91-.49-.26-.99-.45-1.49-.56-.51-.11-.93-.17-1.27-.17-.22-.04-.39.06-.51.28-.11.23-.17.51-.17.84v10.47c0,1.16.31,2.06.93,2.7.62.64,1.68,1.13,3.18,1.46.49.08.84.2,1.07.37.23.17.34.4.34.7,0,.26-.1.45-.31.56s-.52.17-.93.17c-.86,0-1.75-.03-2.65-.08-.9-.06-1.77-.1-2.62-.14-.84-.04-1.64-.06-2.39-.06-.83,0-1.68.02-2.56.06-.88.04-1.77.09-2.67.17-.9.08-1.8.11-2.7.11-.34,0-.64-.07-.9-.2s-.39-.31-.39-.54c0-.56.47-.94,1.41-1.13,1.43-.3,2.44-.71,3.04-1.24.6-.53.9-1.41.9-2.65v-24.88c0-1.09-.08-1.92-.25-2.5s-.5-1.02-.99-1.32c-.49-.3-1.22-.53-2.2-.68-.53-.07-.9-.22-1.13-.45-.23-.23-.34-.45-.34-.68,0-.26.12-.46.37-.59.24-.13.57-.2.98-.2,1.13,0,2.03.02,2.7.06.68.04,1.32.08,1.94.14s1.36.08,2.22.08,1.56-.04,2.2-.11c.64-.07,1.35-.15,2.14-.23.79-.07,1.8-.11,3.04-.11,4.32,0,7.62.75,9.91,2.25,2.29,1.5,3.43,3.79,3.43,6.87,0,1.69-.36,3.12-1.07,4.31s-1.6,2.15-2.67,2.9c-1.07.75-2.17,1.33-3.29,1.75-.15.04-.22.13-.2.28.02.15.08.28.2.39,1.13,1.73,2.22,3.37,3.29,4.93,1.07,1.56,2.2,3.03,3.38,4.42,1.18,1.39,2.47,2.72,3.86,4,1.16,1.09,2.35,1.74,3.58,1.94,1.22.21,2.49.31,3.8.31.56,0,.84.28.84.84,0,.75-.28,1.34-.84,1.77-.56.43-1.3.74-2.22.93-.92.19-1.91.28-2.96.28ZM362.88,174.94c1.54,0,2.82-.35,3.86-1.04,1.03-.69,1.82-1.62,2.36-2.79.54-1.16.82-2.46.82-3.88,0-1.69-.21-3.12-.62-4.31-.41-1.18-1.12-2.1-2.11-2.76-1-.66-2.36-.98-4.08-.98-.98,0-1.64.35-2,1.04-.36.7-.55,2.09-.59,4.19-.04.86-.06,2-.06,3.41v5.04c0,.83.22,1.38.65,1.66.43.28,1.02.42,1.77.42Z"/>
      <path class="st0" d="M413.43,194.19c-.34,0-.64-.07-.9-.2-.26-.13-.39-.31-.39-.54,0-.56.47-.94,1.41-1.13,1.43-.3,2.46-.71,3.1-1.24.64-.53.96-1.39.96-2.59v-25.56c0-1.24-.26-2.12-.79-2.65s-1.52-.94-2.98-1.24c-.94-.19-1.41-.58-1.41-1.18,0-.23.13-.4.39-.54.26-.13.56-.2.9-.2.9,0,1.78.02,2.65.06.86.04,1.7.08,2.51.11.81.04,1.62.06,2.45.06s1.59-.02,2.39-.06c.81-.04,1.64-.07,2.5-.11.86-.04,1.75-.06,2.65-.06.37,0,.68.07.9.2.23.13.34.33.34.59,0,.3-.12.54-.37.7s-.59.31-1.04.42c-1.5.38-2.52.83-3.04,1.35-.53.53-.79,1.39-.79,2.59v25.45c0,1.16.31,2.01.93,2.53.62.53,1.64.98,3.07,1.35.49.11.85.25,1.1.39.24.15.37.38.37.67,0,.26-.11.45-.34.56-.23.11-.53.17-.9.17-.9,0-1.8-.02-2.7-.06s-1.77-.08-2.62-.11c-.84-.04-1.66-.06-2.45-.06s-1.67.02-2.53.06-1.75.08-2.65.14c-.9.06-1.8.08-2.7.08Z"/>
      <path class="st0" d="M456.5,194.25c-.41,0-.74-.08-.99-.22s-.37-.34-.37-.56c0-.49.49-.84,1.46-1.07,1.35-.34,2.32-.76,2.9-1.27.58-.51.87-1.38.87-2.62v-25.5c0-1.28-.25-2.18-.76-2.7-.51-.53-1.46-.94-2.84-1.24-.53-.11-.9-.27-1.13-.48-.22-.21-.34-.42-.34-.65,0-.26.12-.46.37-.59.24-.13.57-.2.99-.2,1.09,0,2.13.02,3.12.06.99.04,1.96.08,2.9.11.94.04,1.91.06,2.93.06,1.73,0,3.56-.02,5.49-.06,1.93-.04,3.67-.06,5.21-.06,1.24-.04,2.26-.09,3.07-.17.81-.07,1.29-.11,1.44-.11.26,0,.54.06.82.17s.44.34.48.68c.15,1.24.34,2.46.56,3.66.22,1.2.34,2.25.34,3.15,0,.34-.08.59-.25.76s-.35.25-.54.25-.36-.06-.51-.2c-.15-.13-.28-.33-.39-.59-.3-.86-.58-1.61-.84-2.25-.26-.64-.56-1.13-.9-1.46-.49-.52-1.05-.94-1.69-1.24-.64-.3-1.41-.45-2.31-.45h-5.24c-.68,0-1.29.2-1.86.59-.56.39-.84.95-.84,1.66v11.04c0,.41.12.73.37.96.24.22.53.34.87.34h5.18c1.01,0,1.74-.28,2.17-.84.43-.56.8-1.33,1.1-2.31.26-.75.62-1.13,1.07-1.13.19,0,.36.1.51.31.15.21.23.48.23.82-.04.38-.08.83-.11,1.35s-.07,1.05-.08,1.58c-.02.53-.03,1-.03,1.41,0,.45,0,.96.03,1.52.02.56.04,1.12.06,1.66.02.54.05,1,.08,1.38.04.41,0,.73-.08.96-.09.23-.25.34-.48.34-.6,0-1.03-.53-1.29-1.58-.3-1.05-.66-1.84-1.07-2.37-.41-.52-.98-.79-1.69-.79h-5.29c-.49,0-.86.09-1.13.28-.26.19-.39.54-.39,1.07v10.7c0,1.24.26,2.1.79,2.59.53.49,1.33.73,2.42.73h4.62c.94,0,1.79-.09,2.56-.28s1.44-.49,2-.9c.64-.45,1.21-1.06,1.72-1.83.51-.77,1-1.62,1.49-2.56.15-.3.3-.5.45-.59.15-.09.34-.14.56-.14.19.04.33.15.42.34.09.19.14.39.14.62,0,.53-.09,1.2-.28,2.03-.19.83-.42,1.68-.7,2.56-.28.88-.54,1.7-.76,2.45-.11.26-.26.46-.45.59-.19.13-.41.2-.68.2-.9,0-2.05,0-3.46-.03-1.41-.02-2.94-.05-4.59-.08-1.65-.04-3.34-.07-5.07-.08-1.73-.02-3.38-.03-4.96-.03-.79,0-1.59.02-2.39.06-.81.04-1.62.08-2.45.14-.83.06-1.67.08-2.53.08Z"/>
      <path class="st0" d="M511,194.25c-.41,0-.73-.08-.96-.25-.23-.17-.34-.35-.34-.54,0-.3.13-.54.39-.7.26-.17.52-.29.79-.37,1.35-.34,2.34-.76,2.98-1.27.64-.51.96-1.34.96-2.51v-25.9c0-.86-.1-1.52-.31-1.97-.21-.45-.56-.8-1.07-1.04-.51-.24-1.25-.46-2.22-.65-.98-.19-1.46-.58-1.46-1.18,0-.23.13-.4.39-.54.26-.13.56-.2.9-.2.94,0,1.83.02,2.67.06.84.04,1.66.08,2.45.11.79.04,1.58.06,2.36.06.86,0,1.74-.02,2.62-.06.88-.04,1.78-.07,2.7-.11.92-.04,1.81-.06,2.67-.06.37,0,.67.07.9.2.23.13.34.33.34.59,0,.3-.12.54-.37.7s-.59.31-1.04.42c-1.46.38-2.54.78-3.24,1.21-.7.43-1.04,1.19-1.04,2.28v25.73c0,1.09.24,1.89.73,2.39.49.51,1.41.76,2.76.76h6.14c.86,0,1.65-.15,2.36-.45.71-.3,1.29-.67,1.75-1.13.68-.6,1.24-1.24,1.69-1.91.45-.67.88-1.46,1.29-2.36.26-.56.51-.99.73-1.29.23-.3.45-.45.68-.45.26,0,.45.12.56.37.11.24.17.5.17.76,0,.04-.02.15-.06.34-.04.19-.06.34-.06.45-.3,1.09-.55,2.03-.76,2.81-.21.79-.38,1.55-.51,2.28-.13.73-.25,1.53-.37,2.39-.04.26-.11.5-.22.7-.11.21-.34.31-.68.31-1.13,0-2.48-.02-4.05-.06-1.58-.04-3.25-.07-5.01-.08-1.76-.02-3.54-.05-5.32-.08-1.78-.04-3.46-.06-5.04-.06-.83,0-1.77.02-2.84.06-1.07.04-2.07.08-3.01.14-.94.06-1.61.08-2.03.08Z"/>
      <path class="st0" d="M601.92,194.31c-.41,0-.79-.08-1.13-.25-.34-.17-.51-.37-.51-.59,0-.56.54-.94,1.63-1.13,1.43-.3,2.37-.71,2.84-1.24.47-.53.7-1.43.7-2.7v-25.45c0-1.24-.25-2.12-.76-2.65s-1.49-.94-2.96-1.24c-.98-.19-1.46-.58-1.46-1.18,0-.23.13-.4.39-.54.26-.13.56-.2.9-.2.9,0,1.78,0,2.65.03.86.02,1.69.06,2.48.11.79.06,1.58.08,2.36.08s1.51-.02,2.28-.06c.77-.04,1.57-.07,2.39-.11.83-.04,1.69-.06,2.59-.06.38,0,.68.07.9.2.23.13.34.33.34.59,0,.3-.12.54-.37.7s-.61.31-1.1.42c-1.46.38-2.39.84-2.79,1.41-.39.56-.59,1.41-.59,2.53v11.15c0,.22.05.43.14.62.09.19.22.28.37.28.19,0,.4-.08.65-.25s.5-.38.76-.65l10.98-11.6c.3-.34.54-.65.7-.93.17-.28.25-.55.25-.82,0-.75-.64-1.28-1.91-1.58-.45-.11-.79-.26-1.01-.45-.23-.19-.34-.43-.34-.73,0-.23.13-.4.39-.54.26-.13.56-.2.9-.2h3.6c1.2,0,2.42,0,3.66-.03,1.24-.02,2.45-.05,3.63-.08,1.18-.04,2.24-.06,3.18-.06.38,0,.7.06.99.17.28.11.42.3.42.56,0,.3-.18.54-.54.73-.36.19-.76.32-1.21.39-1.73.26-3.3.69-4.73,1.29-1.43.6-2.74,1.37-3.94,2.31-1.2.94-2.34,1.91-3.41,2.93-1.07,1.01-2.15,2.07-3.24,3.18-1.09,1.11-2.23,2.26-3.43,3.46-.41.38-.38.86.11,1.46l13.57,14.86c.6.68,1.15,1.25,1.66,1.72.51.47,1.09.86,1.75,1.18.66.32,1.49.63,2.5.93.45.11.86.25,1.24.39.37.15.56.38.56.67,0,.26-.18.47-.54.62s-.85.22-1.49.22c-1.13,0-2.19-.04-3.18-.11-.99-.08-1.98-.13-2.96-.17-.98-.04-2.03-.06-3.15-.06s-2.07.03-2.96.08c-.88.06-1.98.08-3.29.08-.34,0-.64-.07-.9-.2s-.39-.31-.39-.54c0-.53.43-.9,1.29-1.13,1.31-.26,1.99-.73,2.03-1.41,0-.26-.08-.53-.25-.79-.17-.26-.39-.56-.65-.9l-10.08-11.49c-.22-.26-.46-.49-.7-.68-.25-.19-.44-.28-.59-.28s-.26.11-.34.34c-.08.23-.11.47-.11.73,0,1.73.02,3.41.06,5.04.04,1.63.09,3.43.17,5.38.04.71.14,1.34.31,1.89.17.54.48,1,.93,1.35.45.36,1.16.67,2.14.93.49.11.88.25,1.18.39.3.15.45.38.45.67,0,.26-.17.46-.51.59s-.71.2-1.13.2c-1.13,0-2.06-.04-2.82-.11s-1.44-.14-2.05-.2c-.62-.06-1.3-.08-2.05-.08-.79,0-1.54.04-2.25.11-.71.08-1.47.16-2.28.25-.81.09-1.79.14-2.96.14Z"/>
      <path class="st0" d="M664.36,194.25c-.45,0-.83-.07-1.13-.2-.3-.13-.45-.35-.45-.65,0-.34.14-.6.42-.79.28-.19.65-.36,1.1-.51,1.09-.3,2.04-.76,2.84-1.38.81-.62,1.45-1.47,1.94-2.56.94-2.21,1.84-4.34,2.7-6.39.86-2.05,1.69-4.08,2.48-6.11.79-2.03,1.58-4.09,2.39-6.19.81-2.1,1.62-4.32,2.45-6.64.41-1.16.69-2.06.84-2.7.15-.64.28-1.11.39-1.41.56-.15,1.09-.3,1.58-.45.49-.15,1.03-.34,1.63-.56.52-.26.98-.6,1.35-1.01s.66-.73.84-.96c.11-.08.23-.12.34-.14.11-.02.23.07.34.25.11.23.21.45.28.68s.15.47.23.73c.83,2.67,1.68,5.36,2.56,8.08.88,2.72,1.75,5.41,2.62,8.05.86,2.65,1.7,5.18,2.5,7.6.81,2.42,1.55,4.65,2.22,6.67.34,1.01.76,1.82,1.27,2.42.51.6,1.07,1.06,1.69,1.38s1.3.57,2.05.76c.49.11.86.26,1.13.45.26.19.39.45.39.79,0,.23-.12.39-.37.51s-.55.17-.93.17c-.68,0-1.53-.02-2.56-.06-1.03-.04-2.09-.08-3.18-.14-1.09-.06-2.06-.08-2.93-.08-.75,0-1.59.02-2.51.06-.92.04-1.84.08-2.76.11-.92.04-1.7.06-2.34.06-.38,0-.7-.07-.99-.2-.28-.13-.42-.33-.42-.59,0-.3.15-.55.45-.76.3-.21.66-.35,1.07-.42,1.35-.23,2.33-.57,2.93-1.04.6-.47.83-1.15.68-2.05-.11-.64-.28-1.4-.51-2.28-.23-.88-.46-1.8-.7-2.76s-.5-1.83-.76-2.62c-.08-.3-.19-.52-.34-.65-.15-.13-.43-.2-.84-.2h-10.13c-.26,0-.47.08-.62.25-.15.17-.26.42-.34.76-.15.49-.33,1.04-.54,1.66s-.41,1.26-.62,1.91c-.21.66-.39,1.27-.56,1.83-.17.56-.29,1.05-.37,1.46-.19,1.01,0,1.81.54,2.39.54.58,1.49,1.04,2.84,1.38,1.01.26,1.52.66,1.52,1.18,0,.22-.12.4-.37.54-.25.13-.59.2-1.04.2-.86,0-1.76-.03-2.7-.08-.94-.06-1.97-.08-3.1-.08s-2.22.06-3.29.17c-1.07.11-2.15.17-3.24.17ZM677.76,177.92h7.83c.53,0,.79-.11.79-.34,0-.11,0-.21-.03-.28-.02-.07-.05-.19-.08-.34l-3.94-13c-.15-.53-.28-.79-.39-.79-.08,0-.21.24-.39.73l-4.73,13.06c-.08.19-.11.34-.11.45,0,.19.1.32.31.39.21.08.46.11.76.11Z"/>
      <path class="st0" d="M728.09,194.19c-.45,0-.8-.07-1.04-.2-.25-.13-.37-.31-.37-.54,0-.3.16-.52.48-.65.32-.13.7-.25,1.15-.37.9-.26,1.67-.77,2.31-1.52.64-.75,1.03-1.73,1.18-2.93.3-2.29.59-4.79.87-7.49.28-2.7.54-5.42.79-8.16.24-2.74.44-5.31.59-7.71v-1.91c-.04-.56-.14-1.02-.31-1.38-.17-.36-.46-.68-.87-.99-.53-.37-1.07-.67-1.63-.87-.56-.21-1.2-.38-1.91-.54-.41-.08-.74-.22-.99-.42-.25-.21-.37-.46-.37-.76s.15-.51.45-.62c.3-.11.69-.17,1.18-.17s1.14.02,1.97.06c.83.04,1.72.08,2.67.14s1.9.1,2.84.14c.94.04,1.76.06,2.48.06.3,0,.56.09.79.28.23.19.38.41.45.68.23.71.45,1.41.68,2.08.23.68.47,1.39.73,2.14l8.44,20.66c.11.19.26.29.45.31.19.02.32-.07.39-.25l9.06-20.16c.26-1.09.48-2.04.65-2.87.17-.83.33-1.48.48-1.97.11-.49.36-.73.73-.73h2.31c1.43-.08,2.93-.19,4.5-.34,1.58-.15,2.8-.23,3.66-.23.3,0,.59.05.87.14.28.09.42.29.42.59s-.11.53-.34.67c-.23.15-.56.32-1.01.51-.3.08-.66.2-1.07.37-.41.17-.77.33-1.07.48-.79.34-1.38.77-1.77,1.29-.39.53-.57,1.28-.53,2.25.04,2.67.11,5.06.22,7.18s.22,4.11.31,5.97c.09,1.86.22,3.75.37,5.69.15,1.93.28,4.06.39,6.39.07,1.05.48,1.88,1.21,2.48.73.6,1.72,1.05,2.96,1.35.45.11.82.25,1.1.39.28.15.42.38.42.67,0,.26-.12.45-.37.56-.25.11-.57.17-.99.17-.86,0-1.76-.02-2.7-.06s-1.85-.08-2.73-.11-1.72-.06-2.5-.06-1.52.02-2.31.06-1.6.08-2.42.14c-.83.06-1.69.08-2.59.08-.38,0-.7-.07-.99-.2-.28-.13-.42-.31-.42-.54,0-.3.14-.54.42-.73.28-.19.65-.32,1.1-.39,1.28-.26,2.17-.66,2.67-1.18.51-.52.72-1.41.65-2.65-.04-2.44-.09-4.79-.17-7.04-.08-2.25-.15-4.48-.23-6.7-.08-2.21-.17-4.45-.28-6.7-.04-.3-.12-.44-.25-.42-.13.02-.27.18-.42.48l-11.49,25.9c-.15.41-.39.59-.73.53-.34-.06-.56-.23-.68-.53-1.73-4.35-3.54-8.66-5.43-12.92-1.9-4.26-3.76-8.59-5.6-12.98-.11-.3-.27-.41-.48-.34-.21.08-.33.28-.37.62-.19,2.1-.36,4.27-.51,6.5-.15,2.23-.25,4.46-.28,6.67-.04,2.21-.06,4.41-.06,6.59,0,1.01.33,1.88.99,2.59.66.71,1.66,1.24,3.01,1.58.45.08.83.2,1.15.37.32.17.48.4.48.7,0,.26-.15.45-.45.56-.3.11-.64.17-1.01.17-1.01,0-1.78-.02-2.31-.06s-1.01-.08-1.46-.11c-.45-.04-1.05-.06-1.8-.06-.79,0-1.53.02-2.22.06-.7.04-1.34.08-1.94.14-.6.06-1.13.08-1.58.08Z"/>
      <path class="st0" d="M801.68,194.19c-.34,0-.64-.07-.9-.2-.26-.13-.39-.31-.39-.54,0-.56.47-.94,1.41-1.13,1.43-.3,2.46-.71,3.1-1.24.64-.53.96-1.39.96-2.59v-25.56c0-1.24-.26-2.12-.79-2.65-.53-.53-1.52-.94-2.98-1.24-.94-.19-1.41-.58-1.41-1.18,0-.23.13-.4.39-.54.26-.13.56-.2.9-.2.9,0,1.78.02,2.65.06.86.04,1.7.08,2.5.11.81.04,1.62.06,2.45.06s1.58-.02,2.39-.06c.81-.04,1.64-.07,2.51-.11.86-.04,1.75-.06,2.65-.06.38,0,.68.07.9.2.22.13.34.33.34.59,0,.3-.12.54-.37.7s-.59.31-1.04.42c-1.5.38-2.52.83-3.04,1.35-.53.53-.79,1.39-.79,2.59v25.45c0,1.16.31,2.01.93,2.53.62.53,1.64.98,3.07,1.35.49.11.85.25,1.1.39.24.15.37.38.37.67,0,.26-.11.45-.34.56-.22.11-.53.17-.9.17-.9,0-1.8-.02-2.7-.06-.9-.04-1.77-.08-2.62-.11s-1.66-.06-2.45-.06-1.67.02-2.53.06c-.86.04-1.75.08-2.65.14-.9.06-1.8.08-2.7.08Z"/>
    </g>
    <path class="st0" d="M547.03,216.3h3.3c1.87,0,3.38,1.52,3.38,3.38v6.68h-6.68c-1.87,0-3.38-1.52-3.38-3.38v-3.3c0-1.87,1.52-3.38,3.38-3.38Z"/>
  </g>
  <g>
    <path class="st0" d="M243.48,265.42h-119.46c-16.94,0-30.73-13.79-30.73-30.73v-88.73c0-16.94,13.79-30.73,30.73-30.73h88.73c16.94,0,30.73,13.79,30.73,30.73v119.46ZM124.01,118.39c-15.2,0-27.57,12.37-27.57,27.57v88.73c0,15.2,12.37,27.57,27.57,27.57h116.3v-116.3c0-15.2-12.37-27.57-27.57-27.57h-88.73Z"/>
    <g>
      <path class="st0" d="M183.45,228.38v-2.64c1.12-.1,2.22-.16,3.3-.3,2.21-.29,2.55-.85,1.29-2.62-1.77-2.49-3.65-4.9-5.57-7.28-2.88-3.57-5.84-7.07-8.87-10.73-3.98,3.87-7.89,7.68-12.03,11.7v-19.48c-.36.02-.54-.02-.68.04-5.44,2.11-10.83,4.32-15.43,8-1.57,1.25-2.95,2.82-4.14,4.45-1.49,2.03-1.85,4.47-1.42,6.94.53,3,2.38,4.92,5.24,5.85,2.54.83,5.08.73,7.83-.28-.76,1.81-1.83,3.1-3.2,4.07-4.22,2.99-8.92,3.73-13.82,2.28-4.59-1.36-7.17-6.3-6.42-11.57.63-4.42,2.93-7.91,6.01-10.97,4.04-4.02,9.01-6.64,14.11-8.99,3.54-1.63,7.2-3.02,10.83-4.45.76-.3,1.04-.64,1.03-1.45-.08-8.67-.11-17.34-.19-26-.01-1.18-.14-2.38-.36-3.54-.42-2.19-1.48-3.14-3.71-3.37-1.56-.17-3.13-.22-4.79-.33v-2.73c5.72-1.13,11.5-2.26,17.45-3.43v51.4c.67-.64,1.09-1.03,1.5-1.43,4.66-4.59,9.32-9.18,13.97-13.79.54-.53,1.05-1.12,1.47-1.75.8-1.2.6-2.18-.77-2.63-1.51-.51-3.13-.69-4.71-.97-.49-.09-1-.06-1.57-.09v-2.7h23.71v2.51c-.07.06-.13.16-.19.16-4.63-.05-8.17,2.41-11.43,5.24-4.36,3.79-8.53,7.79-12.9,11.81,1.75,1.99,3.4,3.85,5.04,5.71,4.8,5.45,9.64,10.87,14.4,16.35,2.35,2.71,5.12,4.45,8.93,4.24v2.77h-23.91Z"/>
      <path class="st0" d="M144.98,172.45c-2.64,1.56-3.62,4.08-4.37,6.8-.49,1.79-.96,3.63-1.81,5.26-1.17,2.25-4.08,2.63-5.73.96-.94-.96-1.14-2.16-1.01-3.42.28-2.7,1.66-4.78,3.78-6.38,2.68-2.03,5.8-2.9,9.13-3.22Z"/>
    </g>
  </g>
</svg>