<?xml version="1.0" encoding="UTF-8"?>
<svg id="Layer_1" xmlns="http://www.w3.org/2000/svg" version="1.1" viewBox="0 0 612 612">
  <!-- Generator: Adobe Illustrator 30.2.1, SVG Export Plug-In . SVG Version: 2.1.1 Build 1)  -->
  <defs>
    <style>
      .st0 {
        fill: #4d5258;
      }
    </style>
  </defs>
  <g>
    <g>
      <path class="st0" d="M279.55,250.57h-.16c-.08.08-.08.25-.16.33-.08.16-.33.41-.49.73-4.74,5.39-25.48-1.23-26.63,13.72-.65,8.25,5.39,13.4,10.78,13.4,2.86,0,3.02-3.43,2.61-3.43-5.96,0-12.33-3.35-11.76-10.62.9-11.52,16.34-6.62,23.77-10.05-4.98,15.19-7.27,63.63-27.61,63.63-5.72,0-9.56-5.31-9.56-12.42,0-5.06,2.37-11.27,6.94-15.93.33-.41-2.29-2.12-4-.33-3.76,3.92-5.72,9.56-5.72,15.11,0,9.31,5.39,15.36,13.31,15.36,28.42,0,27.12-58.89,33.57-69.51.25-.49-3.27-1.31-4.9,0Z"/>
      <path class="st0" d="M508.32,300.8c-2.45,4.82-11.11,19.19-14.95,19.19-4.66,0-.57-15.52,6.78-36.02.41-1.14-5.15-1.8-5.72,0-2.29,7.68-11.93,27.28-17.32,27.28-4,0,.57-13.56,3.68-23.44.41-1.14-5.23-1.72-5.72-.08-1.48,4.64-3.12,9.62-3.87,13.92-2.89,5.43-10.56,18.02-14.5,18.02s-.57-15.19,4.49-33.82c6.37-8.25,14.54-22.3,14.78-27.53.08-2.04-1.14-3.84-3.35-3.76-7.92.33-12.01,12.99-15.6,26.71-.49,1.72-.98,3.51-2.45,9.23-1.96,7.76-10.13,22.95-13.97,22.95-1.55,0-2.45-2.37-2.45-5.47,0-9.64,6.37-22.71,12.25-22.71,2.29,0,3.1,1.8,3.19,2.61,0,.57,1.96-.9,1.39-2.21-.33-.9-1.72-2.04-4-2.04-9.05,0-15.56,8.46-17.57,17.31-4.39,7.51-9.32,12.91-11.75,12.91-.74,0-1.23-.98-1.23-2.04,0-5.88,4.57-14.62,5.47-21.56.49-3.68-1.14-4.98-3.1-4.98-6.45,0-12.25,8.33-16.09,14.46-.82,1.22-1.23.82-.82-.33.9-2.45,4.33-13.39,5.23-15.76.41-1.14-5.23-1.72-5.72,0-1.69,5.94-3.22,11.39-4.77,16.96-.05.05-.09.11-.13.19-2.45,4.82-11.11,19.19-14.95,19.19-4.66,0-.57-15.52,6.78-36.02.41-1.14-5.15-1.8-5.72,0-2.29,7.68-11.93,27.28-17.32,27.28-4,0,.57-13.56,3.68-23.44.41-1.14-5.23-1.72-5.72-.08-1.35,4.23-2.83,8.75-3.65,12.78-.26-.12-.54-.07-.75.29-2.29,3.92-5.88,6.13-9.64,7.51,1.47-2.86,2.45-6.04,2.94-9.15,1.96-11.76-3.43-14.46-6.62-14.46-5.23,0-9.23,6.7-14.38,20.01-.57,1.47-.82.49-.24-1.06.33-.9,5.23-16.91,5.96-18.79.41-1.14-5.31-1.72-5.72,0-1.63,6.86-3.13,12.96-4.5,18.49-3.72,6.4-11.91,18.43-14.94,18.43-.98,0-1.39-.9-1.39-2.45,0-7.02,7.92-24.1,7.68-28.59-.24-4.25-2.29-5.06-4.66-5.23-2.78-.16-6.62,1.55-11.93,10.21-.49.74-.9.57-.65-.16.9-3.1,1.63-5.8,1.88-8,.49-4.33-2.12-5.47-3.92-5.55-4.57-.25-9.88,6.86-16.09,18.46-.41.73-1.23.73-.9-.08l4.66-13.4c.41-1.14-5.23-1.72-5.72,0-3.1,11.19-3.76,13.8-8.09,29.65-.24.9,4.17,1.06,4.49,0,2.12-7.02,14.62-31.85,19.68-31.85.49,0,.9.49.82,1.8-.33,4.74-3.76,13.56-7.02,25.65-.33,1.23,4.17,1.23,4.57,0,.57-1.8,1.23-3.51,1.8-5.15,8.41-18.3,14.29-19.36,15.03-19.36.57,0,.82.49.82,1.39,0,4.66-7.51,21.24-7.51,29.32,0,4,2.86,5.64,5.64,5.64,3.71,0,10.12-8.6,14.41-15.32-2.48,9.87-4.54,17.83-6.32,25.04-.41,1.23,3.76,1.23,4.08,0,4.9-18.54,15.85-47.46,21.89-47.46,1.8,0,2.94,2.04,1.63,11.11-.65,4.41-2.12,9.07-4.08,12.66-5.39,1.14-9.72,1.8-9.72,4.9,0,1.47,1.31,2.53,3.02,2.53,5.47,0,9.47-3.02,12.25-7.19,4.04-1.18,8.15-3.15,11.07-7.05-.68,5.54.51,9.58,6.16,9.58,3.27,0,7.02-5.06,10.45-10.62.57-1.06,1.06-.82.74.41-2.94,11.76-2.04,18.95,5.06,18.95,3.6,0,9.57-8.47,13.31-14.64-.96,3.47-1.95,7.08-3.02,10.96-.24.9,4.25.9,4.57-.16,3.84-12.5,15.52-29.9,19.68-29.9.49,0,.9.25.9,1.31,0,5.47-5.31,14.78-5.31,21.73,0,2.7,1.72,4.98,4.41,4.98,3.77,0,8.35-4.34,12.71-10.91-.02.34-.04.69-.05,1.03-.16,6.04,3.35,9.15,7.02,9.15,4.66,0,9.39-8.33,11.6-12.33.41-.73.82-.49.57.41-2.94,13.4-.98,18.38,4.33,18.38,4.44,0,10.91-9.7,14.5-15.89-.04,4.25,1.55,7.15,6.33,7.15,3.27,0,7.02-5.06,10.45-10.62.57-1.06,1.06-.82.74.41-2.94,11.76-2.04,18.95,5.06,18.95,4.82,0,13.89-15.19,16.17-19.68.41-.82-.74-2.12-1.23-1.14ZM462.01,280.95c4.41-15.52,7.43-24.99,10.62-24.75,1.23.08,1.63.82,1.63,2.04,0,4.33-6.37,15.52-12.74,24.59.16-.57.33-1.23.49-1.88ZM339.82,315.91c-.74,0-1.06-.33-1.06-.98,0-1.96,2.86-2.45,6.7-3.19-1.63,2.53-3.59,4.17-5.64,4.17Z"/>
    </g>
    <g>
      <path class="st0" d="M309.44,334.69h-2.16c-.72,0-1.27.56-1.27,1.27v9.34c0,.29-.23.72-.78.72h-1.57c-.56,0-.78-.42-.78-.72v-9.34c0-.72-.56-1.27-1.27-1.27h-2.16c-.72,0-1.27.56-1.27,1.27v24.41c0,.72.56,1.27,1.27,1.27h2.16c.72,0,1.27-.56,1.27-1.27v-9.38c0-.29.23-.72.78-.72h1.57c.56,0,.78.42.78.72v9.38c0,.72.56,1.27,1.27,1.27h2.16c.72,0,1.27-.56,1.27-1.27v-24.41c0-.72-.56-1.27-1.27-1.27Z"/>
      <path class="st0" d="M343.58,335.97c-1.18-.95-2.65-1.5-4.25-1.5s-3.07.56-4.25,1.5c-1.31,1.08-2.03,2.55-2.03,4.93v14.54c0,2.39.72,3.86,2.03,4.93,1.18.95,2.65,1.5,4.25,1.5s3.07-.56,4.25-1.5c1.31-1.08,2.03-2.55,2.03-4.93v-14.54c0-2.39-.72-3.86-2.03-4.93ZM340.9,355.54c0,.72-.2,1.11-.49,1.4-.29.26-.69.42-1.08.42s-.78-.16-1.08-.42c-.29-.29-.49-.69-.49-1.4v-14.74c0-.72.2-1.11.49-1.4.29-.26.69-.42,1.08-.42s.78.16,1.08.42c.29.29.49.69.49,1.4v14.74Z"/>
      <path class="st0" d="M379.22,334.69h-2.16c-.72,0-1.27.56-1.27,1.27v19.57c0,.65-.16,1.01-.43,1.31-.29.33-.69.52-1.14.52s-.85-.2-1.14-.52c-.26-.29-.42-.65-.42-1.31v-19.57c0-.72-.56-1.27-1.27-1.27h-2.16c-.72,0-1.27.56-1.27,1.27v19.77c0,2.25.75,3.69,2.03,4.7,1.18.92,2.65,1.44,4.25,1.44s3.04-.49,4.12-1.31c1.34-1.05,2.16-2.58,2.16-4.7v-19.9c0-.72-.56-1.27-1.27-1.27Z"/>
      <path class="st0" d="M411.57,346.82l-2.12-1.37c-.82-.52-1.34-.91-1.63-1.54-.23-.49-.36-1.11-.36-2.03v-1.08c0-.65.16-1.01.43-1.31.29-.33.69-.52,1.14-.52.39,0,.78.16,1.08.42.29.29.49.69.49,1.4v1.41c0,.72.56,1.27,1.27,1.27h2.06c.72,0,1.37-.56,1.37-1.27v-1.31c0-2.39-.72-3.86-2.03-4.93-1.18-.95-2.65-1.5-4.25-1.5s-3.07.56-4.25,1.5c-1.31,1.08-2.03,2.55-2.03,4.93v1.47c0,1.76.23,2.97.69,3.89.59,1.14,1.57,1.9,3.04,2.84l2.12,1.37c.78.49,1.31.88,1.63,1.5.26.49.36,1.14.36,2.09v1.47c0,.65-.16,1.01-.42,1.31-.29.33-.72.52-1.18.52-.39,0-.78-.16-1.08-.42-.29-.29-.46-.69-.46-1.4v-1.73c0-.72-.56-1.27-1.27-1.27h-2.09c-.72,0-1.34.56-1.34,1.27v1.63c0,2.39.72,3.86,2.03,4.93,1.18.95,2.65,1.5,4.25,1.5s3.07-.56,4.25-1.5c1.31-1.08,2.06-2.55,2.06-4.93v-1.99c0-1.86-.23-3.07-.78-3.99-.59-1.01-1.57-1.73-2.97-2.65Z"/>
      <path class="st0" d="M443.06,339.3h3.01c.72,0,1.27-.56,1.27-1.27v-2.06c0-.72-.56-1.27-1.27-1.27h-7.22c-.72,0-1.27.56-1.27,1.27v24.41c0,.72.56,1.27,1.27,1.27h7.22c.72,0,1.27-.59,1.27-1.31v-2.03c0-.72-.56-1.27-1.27-1.27h-3.01c-.46,0-.78-.33-.78-.75v-5.1c0-.42.33-.75.78-.75h2.35c.72,0,1.27-.56,1.27-1.27v-2.06c0-.72-.56-1.27-1.27-1.27h-2.35c-.46,0-.78-.33-.78-.75v-5.03c0-.42.33-.75.78-.75Z"/>
    </g>
    <g>
      <path class="st0" d="M165.11,215.85c-7.3,22.45-12.94,45.66-13.67,69.33-2.21,54.34,25.31,94.97,74.03,117.68,9.49,4.5,19.4,8.13,29.54,11.05-10.35-2.09-20.51-5.25-30.31-9.32-82.71-34.99-91.59-113.01-59.59-188.74h0Z"/>
      <path class="st0" d="M163.87,464.44c2.8,10.31,5.74,21.83,8.32,32.27.76,3.3,1.89,7.63,2.45,10.99,0,0-3.64.39-3.64.39-1.76-14.34-4.63-29.43-7.14-43.65h0Z"/>
      <path class="st0" d="M135.16,323.99c-1.75,18.69-2.49,37.39-1.39,56.11.56,11.15,1.91,22.51,3.27,33.58,1.64,13.01,3.11,26.39,3.61,39.53.55,17.06-.31,34.2-2.03,51.15,0,0-7.26-.9-7.26-.9,2.02-14.79,3.48-29.65,3.76-44.55.57-20.58-1.95-41.2-3.39-61.72-.47-7.4-.78-15.22-.79-22.65.04-16.97,1.49-33.96,3.71-50.72,0,0,.51.18.51.18Z"/>
      <g>
        <g>
          <g id="bP795U">
            <path class="st0" d="M198.23,166.62c-.57.43-.9.71-1.26.95-4.38,2.93-9.11,3.14-14,1.58-2.37-.75-3.4-2.42-3.05-4.52.29-1.76,2.51-3.83,4.41-3.67,1.48.13,2.91.02,4.37.06,1.56.04,2.94.83,3.96,1.94,1.5,1.63,3.05,3.1,5.58,3.66ZM196.35,166.83c-1.22-1.07-2.41-2.15-3.63-3.19-.63-.54-1.27-1.1-1.99-1.5-1.26-.71-2.66-.67-4.08,0-.19.09-.29.1-.48,0-2.38-1.27-3.76-.61-5.02,1.06-.41.55-.86,1.54-.62,1.98.41.73,1.36.39,2.09.07,1.12-.49,2.22-.5,3.36,0,.46.2,1.01.23,1.52.29,1.06.12,2.14.13,3.19.32,1.24.22,2.44.64,3.68.88.69.13,1.42.08,1.96.11ZM196.35,167.44c-2.05-.49-4.32-.88-6.36-1.34-.64-.14-1.31-.12-1.96-.19-.75-.08-1.5-.2-2.25-.26-.85-.07-1.71-.19-2.55-.11-.93.09-1.84.38-2.82.6.17,1.07.96,1.89,2.08,2.31,1.17.44,2.4.77,3.64.98,3.59.6,7.21-.07,10.22-1.99Z"/>
          </g>
          <path class="st0" d="M218.6,160.17l-2.11-.13c-.32-.02-.57-.29-.55-.6l.02-.33c.02-.31.3-.55.62-.53l2.11.13c.32.02.57.29.55.6l-.02.33c-.02.31-.3.55-.62.53Z"/>
          <path class="st0" d="M213.26,159.16l-2.09-.27c-.32-.04-.54-.33-.5-.64l.05-.33c.04-.31.34-.53.66-.49l2.09.27c.32.04.54.33.5.64l-.05.33c-.04.31-.34.53-.66.49Z"/>
          <path class="st0" d="M239.51,99.61l-2.05-.47c-.31-.07-.51-.38-.43-.68l.08-.33c.07-.31.39-.49.7-.42l2.05.47c.31.07.51.38.43.68l-.08.33c-.07.31-.39.49-.7.42Z"/>
          <path class="st0" d="M234.38,98.39l-2.05-.47c-.31-.07-.51-.38-.43-.68l.08-.33c.07-.31.39-.49.7-.42l2.05.47c.31.07.51.38.43.68l-.08.33c-.07.31-.39.49-.7.42Z"/>
          <path class="st0" d="M144.96,216.78c3.47-16.4,16.32-21.7,31.62-16.98,3.26.89,6.36,2.45,9.64,3.18,7.78,1.88,11.55-2.59,11.47-10.09-.06-3.29-1.39-6.36-2.2-9.64l2.86-.65c.65,3.15,1.97,6.53,1.9,10.31-.07,5.65-2.68,11.89-9.06,12.38-5.44.49-10.08-2.5-15.03-4.1-14.81-5.16-27.25-.24-31.18,15.59h0Z"/>
          <path class="st0" d="M226.52,163.17c-2.96,2.74-5.96,5.45-9.06,8.05-4.71,3.82-9.4,7.89-14.99,10.41-5.67,2.5-12.06,1.94-18.01,1.32,4.01.16,8.07.31,11.97-.44,3.93-.7,7.43-2.64,10.55-5.07,6.28-4.92,11.97-10.6,17.49-16.36,0,0,2.06,2.09,2.06,2.09h0Z"/>
          <path class="st0" d="M230,166.65c.87,4.23-.27,8.59-.83,12.77-.64,4.18-.67,8.41.38,12.39,1.51,6.03,5.09,11.37,9.11,16.05,5.8,6.96,11.74,10.66,20.67,12.19,2.1.46,4.32,1.02,6.44,1.99,4.11,1.99,7.64,5.08,10.29,8.82,2.62,3.67,3.58,8.41,4.15,12.67,0,0-2.88.54-2.88.54-1.24-8.11-3.59-12.86-10.41-17.59-4.29-3.04-9.31-3.04-14.67-4.87-8.55-2.82-14.96-9.84-19.7-17.2-5.02-7.61-6.8-16.37-4.57-25.23.89-4.2,2.4-8.25,2.02-12.56h0Z"/>
        </g>
        <path class="st0" d="M239.71,133.54c1.91-1.61.96-4.55-2.13-5.56-17.51-5.72-34.77-7.66-53.33-6.68-6.36.34-6.68,7.39-.13,6.95,17.2-1.15,33.59.72,50.01,5.98,2,.64,4.31.38,5.59-.69Z"/>
        <path class="st0" d="M238.01,99.47l.65.16c.17.04.28.2.24.36-.74,3.32-7.87,34.49-20.27,58.12-.06.12-.19.18-.32.17l-1.18-.11c-.2-.02-.34-.2-.29-.38.84-3.2,7.53-27.93,20.8-58.14.06-.14.23-.22.38-.18Z"/>
        <path class="st0" d="M232.91,98.41l.57.14c.19.05.31.23.27.42-.79,3.53-7.91,34.52-20.25,58.05-.07.13-.22.21-.37.2l-1.1-.1c-.23-.02-.38-.23-.33-.44.9-3.41,7.58-28.02,20.77-58.05.07-.16.26-.25.44-.21Z"/>
        <path class="st0" d="M214.73,220.96c4.73-7.28,10.15-14.07,15.05-21.22,5.21-6.89,9.64-14.42,12.11-22.71,4.23-13.53,2.02-29.59-7.97-40.06-3.89-4.19-8.4-7.8-13.39-10.6-2.49-1.41-5.08-2.68-7.66-4.02-2.58-1.34-5.14-2.74-7.58-4.37-2.46-1.7-5.27-3.33-6.45-6.22-2.09-4.76-.48-10.22,5.09-11.22,11.61-2.74,17.06,7.9,12.27,17.55-2.8,4.8-3.8,10.73-2.25,16.1.64,2.63,1.84,5.2,3.81,7.08,2.56,2.44,6.05,3.87,8.66,6.38,1.1.91,2.52,1.87,3.39,3.09,1.42,2.04,1.52,4.58.68,6.86-.48,1.71-2.96,2.02-3.77.39-.23-.5-.27-1.01-.27-1.54,0-.47.1-.92.19-1.28.13-.64.26-.79-.04-1.27.01-.05-.33-.32-.62-.6-3.45-3.15-.58-7.55,2.35-9.83,2.19-1.15,4.66-1.02,6.83-.03,1.09.62,1.66,1.94,1.88,2.94.36,1.83.43,3.71-.75,5.36-.38.47-.79.98-1.14,1.46-1.62,2.12-3,4.51-2.51,7.2,0,0,.13,1.06.13,1.06.36,1.74-.8,3.06-2.42,3.53-2.52.89-5.56-.91-7.27-2.46,0,0,1.57-1.65,1.57-1.65,1.44,1.22,3.24,2.57,5.03,2.04.45-.17,1.08-.36.98-.94l-.03-.27-.13-1.09c-.63-3.65,1.47-6.94,3.64-9.59.16-.21.47-.56.6-.77.7-1.29.57-3.99-.58-4.98-.93-.46-2.07-.56-3.1-.48-1.03.1-1.57.28-2.24,1-1.26,1.38-3.17,3.5-1.94,5.37.35.59,1.07,1,1.45,1.59.59.69.6,2.13.32,2.88-.14.55-.18.99-.08,1.44-.04-.05-.08-.06-.03-.05.05,0,.03-.02.02.01.05-.15.19-.6.24-.79.68-2.16-.11-4.36-1.94-5.7,0,0-1.69-1.37-1.69-1.37-2.63-2.54-6.07-3.93-8.72-6.53-2.21-2.15-3.57-5.04-4.28-8-1.62-5.81-.56-12.18,2.47-17.34,1.19-2.44,1.91-5.2,1.52-7.89-.5-3.98-3.51-7.58-7.75-7.61-3.04-.13-7.26.28-8.43,3.57-.91,2.46-.27,5.39,1.3,7.46,1.31,1.6,3.19,2.7,4.86,3.9,4.77,3.24,10.08,5.55,15.1,8.42,6.33,3.63,12.02,8.5,16.45,14.32,4.34,5.91,6.66,13.22,7.25,20.49.92,11.74-3.26,23.3-9.46,33.1-6.38,9.69-13.78,18.59-20.72,27.87h0Z"/>
      </g>
      <path class="st0" d="M134.34,334.89c-.34,36.37-7.02,74.27-24.13,106.34-1.18,2.15-2.37,4.22-3.78,6.33l-.6-2.7c21.75,11.67,47.07,10.77,70.85,14.19,42.28,4.81,78.59,22.72,110.28,51.8,0,0-2.88.91-2.88.91,4.33-16.2,7.38-32.7,9.13-49.37,4.03-40.51,1.21-86.66-27.04-117.79-5.51-5.99-11.86-11.1-18.74-15.31,0,0,1.79-3.16,1.79-3.16,10.75,6.54,20.22,15.35,27.45,25.88,30.26,44.5,23.74,110.73,10.84,160.67,0,0-.76,2.83-.76,2.83-18.79-17.29-39.95-32.05-63.54-41.27-15.09-5.98-30.96-9.51-46.99-11.57-16.17-2.2-32.52-2.78-48.59-6.19-8.74-1.83-17.36-4.88-25.26-9.36,0,0,1.2-1.73,1.2-1.73,15.31-24.04,23.26-52.54,27.12-80.87,1.23-9.55,2.38-19.75,2.59-29.39l1.06-.78v.53Z"/>
    </g>
  </g>
  <path class="st0" d="M246.99,351.77c-30.2-5.21-51.8-21.35-62.42-50.58-10.03-27.07-10.99-57.54-11.92-85.88,0,0,2.17.15,2.17.15-1.77,9.06-3.37,18.14-4.46,27.28-8.48,64.87,8.06,119.54,68.49,151.63,4.08,2.17,8.23,4.2,12.43,6.14-17.29-6.72-33.69-16.1-47.38-28.75-36.48-33.06-43.35-82.82-36.44-129.39,1.35-9.2,3.06-18.34,5.21-27.36l2.17.15c2.3,21.11,2.37,42.49,6.32,63.38,6.97,39.13,27.2,62.73,65.83,73.23h0Z"/>
  <path class="st0" d="M160.87,216.59c-4.8,10.59-9.66,21.46-13.9,32.3-4.24,10.82-8.12,22-10.54,33.36-1.85,8.56-2.37,17.25-2.2,25.99.01,14.44,2.39,29.08,8.36,42.25,7.04,15.87,19.03,29.24,33.49,38.76,4.83,3.2,9.92,6,15.16,8.51,15.88,7.52,32.02,14.89,46.85,24.45,4.79,3.32,9.96,6.61,13.2,11.57-3.56-4.68-8.79-7.69-13.73-10.72-15.2-8.84-31.38-15.77-47.41-22.96-21.63-9.62-40.88-26.31-50.31-48.39-6.06-13.67-8.39-28.64-8.27-43.47-.26-14.82,2.66-29.55,7.7-43.44,5.92-16.5,13.52-32.8,21.62-48.21h0Z"/>
</svg>