<?xml version="1.0" encoding="UTF-8"?>
<svg id="Layer_1" xmlns="http://www.w3.org/2000/svg" version="1.1" viewBox="0 0 612 612">
  <!-- Generator: Adobe Illustrator 30.2.1, SVG Export Plug-In . SVG Version: 2.1.1 Build 1)  -->
  <defs>
    <style>
      .st0 {
        fill: none;
      }

      .st1 {
        fill: #70757c;
      }

      .st2, .st3 {
        fill: #4d5258;
      }

      .st3 {
        opacity: .48;
      }
    </style>
  </defs>
  <path class="st2" d="M226.31,386.12c0-3.25,1.72-7.75,5.33-9.26.15-.06.11-.28-.05-.28-10.96,0-121.69-.02-121.69-.02-4.12,0-7.46,3.11-7.46,6.94s3.34,6.94,7.46,6.94h118.04c.16,0,.21-.21.06-.28-1.24-.59-1.69-2.07-1.69-4.04Z"/>
  <g>
    <g>
      <path class="st2" d="M491.36,290.45s-.03.02-.05.05c0-.01-.01-.01-.01-.01.02-.03.04-.04.06-.04Z"/>
      <path class="st1" d="M509.57,283.83c0,34.4-27.89,62.28-62.28,62.28-12.22,0-23.63-3.52-33.25-9.61,42.76-13.21,67.94-36.71,79.04-47.13.08-.07.15-.13.21-.2-7.42-2.67-13.83,4.39-20.8,5.8-.17.04-.35.03-.52-.02-3.19-.94-35.12-10.29-40.65-10.31-3.05,0-5.16.72-6.48,1.4-.8.42-.72,1.59.12,1.92l5.01,1.94,34.04,13.14-7.36-.98c-.29-.04-.57.04-.79.22-1.49,1.22-7.54,6.01-11.91,8.08t-.02.02c-.73.57-1.45,1.15-2.15,1.72.39-.57.57-1.2.57-1.83,0-1.43-.95-2.8-2.5-3.16-2.25-.52-4.53-.88-6.84-.83-.98.02-1.98.13-2.96.32-1.88.37-2.72,2.06-2.49,3.62l18.98,4.67c.71.18,1.03,1,.62,1.61l-1.16,1.73c-.39.59-.1,1.4.58,1.6l.9.27c-10.85,6.86-24.87,12.56-34.13,15.95-1.31-.84-2.58-1.74-3.82-2.7-14.9-11.37-24.52-29.32-24.52-49.52,0-34.39,27.89-62.27,62.28-62.27s62.28,27.88,62.28,62.27Z"/>
      <path class="st2" d="M367.66,280.59s-.03-.08-.05-.13l.02-.14c.01.08.02.17.02.27Z"/>
      <path class="st2" d="M120.29,299.13h52.15c1.53,0,2.76-1.28,2.71-2.81-.69-19.64-11.74-33.19-32.37-33.19-23.09,0-40.35,16.95-40.35,42.91,0,24.29,15.9,40.34,37.35,40.34,13.76,0,25.37-6.43,33.87-18.86.34-.5.18-1.2-.34-1.5-.17-.1-.35-.15-.53-.15-.33,0-.64.16-.85.44-6.92,9.36-17.24,13.62-26,13.62-16.2,0-28.35-13.19-28.35-38.09,0-.75.3-1.43.79-1.92.49-.49,1.17-.79,1.92-.79ZM118.06,293.67c2.24-16.67,11.22-28.28,23.52-28.28s20.05,11.26,20.01,28.62c0,1.5-1.21,2.72-2.71,2.72h-38.13c-1.63,0-2.91-1.44-2.69-3.06Z"/>
      <path class="st2" d="M202.32,224.5c0-.7-.68-1.2-1.34-.99l-8.97,2.79c-2.35.77-3.94,2.97-3.94,5.44v107.12c0,3.16,2.57,5.73,5.73,5.73h2.79c3.16,0,5.73-2.57,5.73-5.73v-114.35Z"/>
      <path class="st2" d="M220.32,271.48v66.5c0,3.65,2.96,6.6,6.6,6.6h.9c3.65,0,6.6-2.96,6.6-6.6v-73.32c0-.69-.66-1.18-1.32-1l-8.82,2.49c-2.35.71-3.96,2.87-3.96,5.33Z"/>
      <path class="st2" d="M297.35,338.34c-.3-.45-.9-.59-1.38-.33-4.61,2.48-8.8,3.28-12.05,3.28-12.15,0-12.15-11.4-12.15-15.75v-55.66c0-.9.73-1.63,1.63-1.63h21.12c.58,0,1.12-.31,1.42-.81l.02-.03c.64-1.09-.14-2.46-1.41-2.46h-21.15c-.9,0-1.63-.73-1.63-1.63v-39.02c0-.7-.68-1.2-1.35-1l-9.9,3.03c-1.8.53-3.03,2.18-3.03,4.06v33c0,.86-.66,1.57-1.52,1.63l-9.02.62c-.55.04-.98.5-.98,1.05v.51c0,.58.47,1.05,1.05,1.05h8.86c.9,0,1.63.73,1.63,1.63v55.96c0,6.45,1.05,20.55,19.5,20.55,8,0,14.1-2.59,20.11-6.46.49-.32.63-.98.3-1.47l-.07-.11Z"/>
      <g>
        <path class="st2" d="M460,330.94c6-4.53,9.01-13.13,12.33-20.3.46-.99-.7-1.94-1.58-1.29l-7.9,5.86c-.18.14-.32.33-.38.55l-4.11,14.03c-.28.97.84,1.76,1.64,1.15Z"/>
        <path class="st2" d="M491.36,290.45s-.03.02-.05.05c0-.01-.01-.01-.01-.01.02-.03.04-.04.06-.04Z"/>
        <path class="st3" d="M491.36,290.45s-.03.02-.05.05c0-.01-.01-.01-.01-.01.02-.03.04-.04.06-.04Z"/>
        <path class="st2" d="M429.97,289.9c.05,1.16.7,2.29,2.06,2.81l18.64,7.23c2.61,1.02,2.81,4.68.29,5.91-2.45,1.2-4.8,2.82-7.01,4.51,4.37-2.07,10.42-6.86,11.91-8.08.22-.18.5-.26.79-.22l7.36.98-34.04-13.14ZM446.58,319.83c-.68-.2-.97-1.01-.58-1.6l1.16-1.73c.41-.61.09-1.43-.62-1.61l-18.98-4.67c.16,1.16.91,2.24,2.27,2.65l7.02,2.12c2.65.8,3.15,4.37.8,5.84-8.71,5.45-18.24,9.51-28.12,12.52-6.57,2.03-13.29,3.57-20.03,4.78-15.6,2.78-31.72,3.78-47.28.69-8.32-1.65-16.88-4.78-22.13-11.45-5.42-6.87-6.3-16.05-6.48-24.92-.04-1.81,1.42-3.3,3.24-3.3l51.13-.03c1.83,0,3.28-1.52,3.24-3.34-.26-12.48-7.94-24.65-19.28-29.96-22.5-10.55-47.84,7.35-52.6,29.78-2.27,10.73-1.2,22.49,4.7,31.73,5.98,9.39,16.36,15.34,27.18,17.94,10.82,2.61,22.14,2.19,33.21,1.11,13.13-1.28,26.27-3.57,39.1-6.95.02,0,.03,0,.05-.01.03,0,.07-.02.1-.03h.01s.07-.03.12-.04c1.02-.33,4.6-1.48,9.54-3.3,9.26-3.39,23.28-9.09,34.13-15.95l-.9-.27ZM314.02,293.07c2.38-16.35,11.27-27.68,23.44-27.68s19.88,11.03,20.01,28.09c.01,1.79-1.46,3.25-3.25,3.25h-36.98c-1.96,0-3.5-1.72-3.22-3.66Z"/>
        <path class="st0" d="M403.69,339.4c.23-.05.46-.11.69-.18-.19.05-.38.1-.57.14-.05,0-.09.02-.12.04ZM491.3,290.49s.01,0,.01.01c.02-.03.05-.04.05-.05-.02,0-.04.01-.06.04ZM444.85,306.45c-3.55-.73-11.79-2.14-16.14-.57-1.71.61-2.73,1.55-3.31,2.32-.45.59-.12,1.46.61,1.64l1.55.38c-.23-1.56.61-3.25,2.49-3.62.98-.19,1.98-.3,2.96-.32,2.31-.05,4.59.31,6.84.83,1.55.36,2.5,1.73,2.5,3.16,0,.63-.18,1.26-.57,1.83.7-.57,1.42-1.15,2.15-1.72-.19.09-.38.17-.56.25l2.07-2.47c.52-.61.2-1.55-.59-1.71ZM409.16,337.87s.06,0,.08-.02c-.02.01-.05.01-.08.02-1.58.47-3.18.91-4.78,1.34l4.78-1.34M414.04,336.5l-4.8,1.35"/>
      </g>
    </g>
    <path class="st2" d="M234.43,240.34c0,3.91-3.17,7.07-7.08,7.06-3.89,0-7.04-3.17-7.04-7.06s3.14-7.05,7.04-7.06,7.08,3.15,7.08,7.06Z"/>
  </g>
  <g>
    <path class="st2" d="M251.22,369.9l-1.46.57-1.38,6.5c-.68-.6-1.53-.9-2.56-.9-4.49,0-7.46,5.63-7.46,9.36,0,2.41,1.19,3.85,3.2,3.85,1.83,0,3.53-1.2,4.93-3.43l-.67,3.16h1.97l3.95-18.59.02-.52h-.54ZM242.01,387.82c-1.13,0-1.53-1.38-1.53-2.56,0-3.08,2.34-7.97,5.11-7.97,1.26,0,1.95.94,2.32,1.79-1.15,4.75-3.84,8.74-5.9,8.74Z"/>
    <path class="st2" d="M263.62,378.52c0-1.49-1.29-2.46-3.28-2.46-4.37,0-7.3,4.45-7.3,8.61,0,2.8,1.46,4.6,3.72,4.6,1.83,0,3.63-1.02,5.21-2.95l.32-.39-1.03-.6-.23.28c-1.34,1.6-2.82,2.16-3.75,2.16-1.29,0-2.16-1.33-2.16-3.32,0-.21.01-.43.04-.66,5.61-1.28,8.46-3.06,8.46-5.27ZM260.14,377.24c.96,0,1.39.66,1.39,1.3,0,1.53-2.18,2.94-6.17,3.99.65-2.66,2.53-5.29,4.78-5.29Z"/>
    <path class="st2" d="M270.77,376.07c-2.3,0-3.9,1.43-3.9,3.47,0,1.83,1.27,2.68,2.4,3.43l.9.6c.96.65,1.72,1.16,1.72,2.25,0,1.31-1.08,2.27-2.56,2.27-1.21,0-2.3-.62-2.99-1.71l-.42-.65-.84,1.73.24.22c1.1,1.02,2.6,1.6,4.1,1.6,2.47,0,4.26-1.61,4.26-3.84,0-1.94-1.27-2.79-2.38-3.54l-1.04-.69c-.81-.54-1.58-1.06-1.58-2.05s.7-1.91,2.05-1.91c1.2,0,2.31.8,2.89,1.49l.44.52.76-1.63-.25-.21c-.95-.82-2.44-1.34-3.8-1.34Z"/>
    <path class="st2" d="M282.73,373.33l.02-.53h-.8l-1.9,3.55-1.72.12-.22,1.23h1.69l-1.71,8.08c-.29,1.39-.2,2.31.27,2.89.33.4.82.61,1.46.61,1.18,0,2.73-.95,4.13-2.53l.28-.32-.87-.79-.29.29c-1.7,1.7-2.49,1.83-2.69,1.83s-.27-.06-.32-.12c-.12-.14-.27-.57,0-1.86l1.71-8.08h3.44l1.12-1.36h-4.26l.65-3.01Z"/>
    <rect class="st2" x="290.09" y="372.04" width="2.35" height="2.35" transform="translate(-167.15 254.98) rotate(-37.57)"/>
    <polygon class="st2" points="289.54 376.73 286.92 389.01 288.89 389.01 291.53 376.68 291.56 376.16 291.02 376.16 289.54 376.73"/>
    <path class="st2" d="M302.66,376.07c-1.88,0-3.55,1.23-4.96,3.67l.65-3.05.02-.52h-.54l-1.48.57-2.61,12.28h1.97l.07-.34c1.66-7.7,4.43-11.15,6.45-11.15.37,0,.64.12.84.35.4.49.48,1.55.2,2.82l-1.78,8.32h1.97l1.72-7.98c.39-1.83.24-3.24-.44-4.08-.47-.59-1.17-.88-2.08-.88Z"/>
    <path class="st2" d="M320.54,376.69l.03-.53h-.75l-.91,1.18c-.74-.85-1.72-1.27-2.96-1.27-4.48,0-7.46,5.63-7.46,9.36,0,2.41,1.2,3.85,3.2,3.85,1.83,0,3.53-1.19,4.93-3.41l-.17.76c-.2.88-.14,1.55.2,1.98.18.23.52.49,1.15.49.47,0,.96-.14,1.55-.45l.16-.08.25-.96-.7.1c-.44.07-.71,0-.74-.06-.1-.11.01-.65.11-1.1l2.11-9.86ZM312.15,387.82c-1.13,0-1.53-1.38-1.53-2.56,0-3.08,2.34-7.97,5.11-7.97,1.26,0,1.95.94,2.31,1.79-1.15,4.75-3.83,8.74-5.89,8.74Z"/>
    <path class="st2" d="M328.83,373.33l.02-.53h-.8l-1.9,3.55-1.72.12-.22,1.23h1.69l-1.71,8.08c-.29,1.39-.2,2.31.27,2.89.33.4.82.61,1.46.61,1.18,0,2.73-.95,4.13-2.53l.28-.32-.87-.79-.29.29c-1.7,1.7-2.49,1.83-2.69,1.83s-.27-.06-.32-.12c-.12-.14-.27-.57,0-1.86l1.71-8.08h3.44l1.12-1.36h-4.26l.65-3.01Z"/>
    <rect class="st2" x="336.2" y="372.04" width="2.35" height="2.35" transform="translate(-157.66 283.47) rotate(-37.61)"/>
    <polygon class="st2" points="335.64 376.73 333.03 389.01 335 389.01 337.64 376.68 337.66 376.16 337.12 376.16 335.64 376.73"/>
    <path class="st2" d="M347.24,376.06c-3.67,0-6.77,3.65-6.77,7.96,0,3.24,1.73,5.25,4.51,5.25,3.67,0,6.77-3.64,6.77-7.95,0-3.24-1.73-5.26-4.51-5.26ZM345.03,388.09c-1.79,0-2.43-2.04-2.43-3.96,0-3.54,2.23-6.89,4.59-6.89,1.79,0,2.43,2.05,2.43,3.96,0,3.54-2.23,6.89-4.59,6.89Z"/>
    <path class="st2" d="M363.34,376.07c-1.88,0-3.55,1.23-4.96,3.67l.65-3.05.02-.52h-.54l-1.48.57-2.61,12.28h1.97l.07-.34c1.66-7.7,4.43-11.15,6.45-11.15.37,0,.64.12.84.35.4.49.48,1.55.21,2.82l-1.78,8.32h1.97l1.72-7.98c.39-1.83.24-3.24-.44-4.08-.47-.59-1.17-.88-2.08-.88Z"/>
    <path class="st2" d="M374.11,376.07c-2.3,0-3.9,1.43-3.9,3.47,0,1.83,1.27,2.68,2.4,3.43l.9.6c.96.65,1.73,1.16,1.73,2.26,0,1.31-1.08,2.27-2.56,2.27-1.21,0-2.3-.62-2.99-1.71l-.42-.65-.84,1.73.24.22c1.1,1.02,2.6,1.6,4.1,1.6,2.47,0,4.26-1.61,4.26-3.84,0-1.94-1.27-2.79-2.38-3.54l-1.04-.69c-.81-.54-1.58-1.06-1.58-2.05s.7-1.91,2.04-1.91c1.2,0,2.31.8,2.89,1.49l.44.52.76-1.63-.25-.21c-.95-.82-2.44-1.34-3.8-1.34Z"/>
    <path class="st2" d="M402.01,378.29l-1.67.56.17.42c.19.5.44,1.28.24,2.33-.24,1.3-.65,2.43-1.23,3.36l-4.17-5.1c1.55-.46,2.73-1.09,3.51-1.89.78-.81,1.18-1.78,1.18-2.92,0-2.04-1.62-3.58-3.77-3.58-2.56,0-4.65,2.13-4.65,4.75,0,1.05.31,2.13.93,3.2-2.56,1.14-4.13,3.17-4.13,5.39,0,2.63,2.2,4.46,5.35,4.46,2.02,0,3.76-.61,5.18-1.83l1.71,2.1.22.16h.57l.35-1.95-1.49-1.83c.86-1.24,1.47-2.8,1.79-4.64l.43-2.48v-.51h-.52ZM396.13,372.65c1.23,0,2.02.91,2.02,2.31,0,1.79-1.06,3.03-3.26,3.81l-.31.1c-.61-.87-1.14-1.9-1.14-3.03,0-1.34.93-3.19,2.69-3.19ZM394.06,388.02c-2.23,0-3.62-1.28-3.62-3.35,0-1.69,1.07-3.33,2.76-4.26.18.24.35.46.5.64l4.49,5.5c-1.11.95-2.56,1.47-4.13,1.47Z"/>
    <polygon class="st2" points="419.28 374.89 420.02 375.49 425.36 370.75 422.29 370.75 419.28 374.89"/>
    <path class="st2" d="M423.5,378.52c0-1.49-1.28-2.46-3.27-2.46-4.37,0-7.3,4.45-7.3,8.61,0,2.8,1.46,4.6,3.72,4.6,1.83,0,3.63-1.02,5.2-2.95l.32-.39-1.02-.6-.24.28c-1.33,1.6-2.81,2.16-3.74,2.16-1.29,0-2.16-1.33-2.16-3.32,0-.21.01-.43.03-.66,5.62-1.28,8.46-3.06,8.46-5.27ZM420.03,377.24c1.03,0,1.39.7,1.39,1.3,0,1.53-2.18,2.94-6.17,3.99.64-2.66,2.53-5.29,4.78-5.29Z"/>
    <path class="st2" d="M435.12,376.63c-.42,1.2-1.54,3.31-3.34,6.3l-1.7,2.84-1.69-9.42h-1.98l2.29,12.9h.77l3.87-6.42c1.47-2.44,2.45-4.05,3.59-5.81l.44-.67h-2.15l-.1.29Z"/>
    <path class="st2" d="M449.87,376.69l.02-.53h-.75l-.91,1.18c-.74-.85-1.71-1.27-2.95-1.27-4.49,0-7.46,5.63-7.46,9.36,0,2.41,1.19,3.85,3.2,3.85,1.83,0,3.53-1.19,4.92-3.41l-.16.76c-.21.88-.15,1.55.2,1.98.17.23.52.49,1.14.49.47,0,.97-.14,1.56-.45l.15-.08.26-.96-.7.1c-.44.07-.72,0-.75-.06-.1-.11.02-.66.11-1.1l2.12-9.86ZM441.47,387.82c-1.13,0-1.53-1.38-1.53-2.56,0-3.08,2.34-7.97,5.11-7.97,1.26,0,1.95.94,2.32,1.79-1.15,4.75-3.84,8.74-5.9,8.74Z"/>
    <path class="st2" d="M457.62,376.07c-2.3,0-3.9,1.43-3.9,3.47,0,1.83,1.27,2.68,2.4,3.43l.9.6c.96.65,1.72,1.16,1.72,2.25,0,1.31-1.08,2.27-2.56,2.27-1.21,0-2.3-.62-2.99-1.71l-.42-.65-.84,1.73.24.22c1.1,1.02,2.6,1.6,4.1,1.6,2.47,0,4.26-1.61,4.26-3.84,0-1.94-1.27-2.79-2.38-3.54l-1.04-.69c-.81-.54-1.58-1.06-1.58-2.05s.7-1.91,2.05-1.91c1.2,0,2.31.8,2.89,1.49l.44.52.76-1.63-.25-.21c-.95-.82-2.44-1.34-3.8-1.34Z"/>
    <rect class="st2" x="466.99" y="372.04" width="2.35" height="2.35" transform="translate(-130.47 363.29) rotate(-37.61)"/>
    <polygon class="st2" points="466.43 376.73 463.82 389.01 465.78 389.01 468.43 376.68 468.45 376.16 467.91 376.16 466.43 376.73"/>
    <path class="st2" d="M478.02,376.06c-3.66,0-6.76,3.65-6.76,7.96,0,3.24,1.73,5.25,4.51,5.25,3.67,0,6.77-3.64,6.77-7.95,0-3.24-1.73-5.26-4.52-5.26ZM475.82,388.09c-1.79,0-2.43-2.04-2.43-3.96,0-3.54,2.23-6.89,4.59-6.89,1.79,0,2.43,2.05,2.43,3.96,0,3.54-2.23,6.89-4.59,6.89Z"/>
    <path class="st2" d="M494.13,376.07c-1.88,0-3.55,1.23-4.96,3.67l.65-3.05.02-.52h-.54l-1.48.57-2.61,12.28h1.97l.07-.34c1.66-7.7,4.43-11.15,6.45-11.15.37,0,.64.12.84.35.4.49.48,1.55.2,2.82l-1.78,8.32h1.97l1.72-7.98c.39-1.83.24-3.24-.44-4.08-.47-.59-1.17-.88-2.08-.88Z"/>
    <path class="st2" d="M504.85,377.25c1.2,0,2.31.8,2.89,1.49l.44.52.76-1.63-.25-.21c-.95-.82-2.44-1.34-3.8-1.34-2.3,0-3.9,1.43-3.9,3.47,0,1.83,1.28,2.68,2.49,3.49l.81.54c.96.65,1.73,1.16,1.73,2.25,0,1.31-1.08,2.27-2.56,2.27-1.2,0-2.29-.62-2.99-1.71l-.42-.65-.84,1.73.24.22c1.11,1.02,2.6,1.6,4.1,1.6,2.47,0,4.26-1.61,4.26-3.84,0-1.94-1.27-2.79-2.38-3.54l-1.04-.69c-.81-.54-1.58-1.06-1.58-2.05s.7-1.91,2.04-1.91Z"/>
  </g>
</svg>