<?xml version="1.0" encoding="UTF-8"?>
<svg id="Layer_1" xmlns="http://www.w3.org/2000/svg" version="1.1" viewBox="0 0 612 612">
  <!-- Generator: Adobe Illustrator 30.2.1, SVG Export Plug-In . SVG Version: 2.1.1 Build 1)  -->
  <defs>
    <style>
      .st0 {
        fill: #70757c;
      }

      .st1 {
        fill: #4d5258;
      }
    </style>
  </defs>
  <path class="st1" d="M241.72,301.98c.59-.63,1.23-1.22,1.92-1.76-.68.54-1.32,1.13-1.92,1.76Z"/>
  <path class="st1" d="M271.56,355.92c-.95,0-1.79.46-2.3,1.18h-.02v-3.12h-.76v8h.76v-1.04h.02c.53.77,1.38,1.18,2.3,1.18,1.79,0,3.17-1.35,3.17-3.11s-1.44-3.09-3.17-3.09ZM271.56,361.44c-1.33,0-2.37-1.1-2.37-2.41s1.06-2.43,2.36-2.43c1.4,0,2.43,1.04,2.43,2.44s-1.02,2.4-2.42,2.4Z"/>
  <path class="st1" d="M281.68,359.07c0-1.63-1.32-3.15-3.1-3.15-1.65,0-3.06,1.39-3.06,3.11s1.4,3.09,3.08,3.09c1.26,0,2.45-.8,2.9-2.08h-.8c-.32.87-1.2,1.4-2.12,1.4-1.14,0-2.22-.97-2.28-2.14h5.37c0-.08,0-.15,0-.23ZM276.3,358.62c.2-1.22,1.18-2.02,2.28-2.02,1.17,0,2.11.83,2.33,2.02h-4.61Z"/>
  <path class="st1" d="M285.76,356.6c.85,0,1.64.43,2.08,1.25h.83c-.49-1.21-1.64-1.93-2.94-1.93-1.75,0-3.17,1.43-3.17,3.05,0,1.85,1.41,3.15,3.17,3.15,1.37,0,2.33-.68,2.94-1.88h-.83c-.42.79-1.19,1.2-2.08,1.2-1.37,0-2.44-1.07-2.44-2.43s1.08-2.41,2.44-2.41Z"/>
  <path class="st1" d="M295.05,356.07v1.03h-.02c-.47-.74-1.31-1.18-2.3-1.18-1.72,0-3.17,1.31-3.17,3.09s1.4,3.11,3.17,3.11c.96,0,1.82-.45,2.3-1.18h.02v1.04h.76v-5.91h-.76ZM292.73,361.44c-1.39,0-2.42-1.04-2.42-2.4s1.05-2.44,2.41-2.44,2.38,1.11,2.38,2.43-1.05,2.41-2.37,2.41Z"/>
  <path class="st1" d="M301.56,359.31c0,1.41-.84,2.13-1.86,2.13-1.23,0-1.8-.73-1.8-2.07v-3.29h-.76v3.38c0,2,1.3,2.67,2.56,2.67.85,0,1.54-.38,1.88-1.06h.02v.92h.71v-5.91h-.76v3.24Z"/>
  <path class="st1" d="M305.25,358.45c-.72-.24-1.03-.54-1.03-.97,0-.51.4-.89.9-.89s.84.36.89.93h.76c0-.94-.72-1.61-1.61-1.61-.97,0-1.68.69-1.68,1.64,0,1.02.66,1.31,1.7,1.68.68.25,1.05.56,1.05,1.13,0,.68-.42,1.06-1.1,1.06-.64,0-1.05-.42-1.06-1.21h-.76v.04c0,1.12.8,1.85,1.81,1.85,1.13,0,1.86-.69,1.86-1.77,0-.84-.28-1.41-1.72-1.89Z"/>
  <path class="st1" d="M313.8,359.07c0-1.63-1.33-3.15-3.1-3.15-1.65,0-3.07,1.39-3.07,3.11s1.41,3.09,3.08,3.09c1.27,0,2.45-.8,2.91-2.08h-.8c-.33.87-1.2,1.4-2.12,1.4-1.14,0-2.22-.97-2.29-2.14h5.38c0-.08,0-.15,0-.23ZM308.41,358.62c.21-1.22,1.19-2.02,2.29-2.02,1.17,0,2.11.83,2.32,2.02h-4.61Z"/>
  <path class="st1" d="M321,355.92c-.94,0-1.75.41-2.3,1.18h-.02v-1.03h-.76v7.98h.76v-3.11h.02c.53.77,1.38,1.18,2.3,1.18,1.81,0,3.17-1.38,3.17-3.11s-1.38-3.09-3.17-3.09ZM321,361.44c-1.34,0-2.37-1.1-2.37-2.41s1.08-2.43,2.36-2.43c1.43,0,2.43,1.08,2.43,2.44s-1.02,2.4-2.42,2.4Z"/>
  <path class="st1" d="M331.17,359.07c0-1.63-1.33-3.15-3.1-3.15-1.66,0-3.07,1.39-3.07,3.11s1.4,3.09,3.08,3.09c1.26,0,2.45-.8,2.9-2.08h-.8c-.32.87-1.2,1.4-2.11,1.4-1.15,0-2.23-.97-2.29-2.14h5.37c0-.08.02-.15.02-.23ZM325.78,358.62c.2-1.22,1.18-2.02,2.29-2.02s2.1.83,2.32,2.02h-4.61Z"/>
  <path class="st1" d="M335.13,355.92c-1.67,0-3.07,1.4-3.07,3.14,0,1.64,1.4,3.06,3.07,3.06s3.1-1.39,3.1-3.1-1.38-3.1-3.1-3.1ZM335.15,361.44c-1.29,0-2.34-1.1-2.34-2.39s1.04-2.45,2.32-2.45,2.35,1.1,2.35,2.38c0,1.35-1.01,2.46-2.33,2.46Z"/>
  <path class="st1" d="M342.44,355.92c-.94,0-1.75.41-2.3,1.18h-.02v-1.03h-.76v7.98h.76v-3.11h.02c.53.77,1.38,1.18,2.3,1.18,1.82,0,3.18-1.38,3.18-3.11s-1.39-3.09-3.18-3.09ZM342.44,361.44c-1.34,0-2.36-1.1-2.36-2.41s1.08-2.43,2.35-2.43c1.44,0,2.43,1.08,2.43,2.44s-1.02,2.4-2.42,2.4Z"/>
  <rect class="st1" x="346.73" y="353.98" width=".76" height="7.99"/>
  <path class="st1" d="M354.77,359.07c0-1.63-1.33-3.15-3.1-3.15-1.65,0-3.07,1.39-3.07,3.11s1.4,3.09,3.08,3.09c1.26,0,2.45-.8,2.9-2.08h-.8c-.32.87-1.19,1.4-2.11,1.4-1.15,0-2.23-.97-2.29-2.14h5.38c0-.08.01-.15.01-.23ZM349.38,358.62c.2-1.22,1.19-2.02,2.29-2.02,1.16,0,2.1.83,2.32,2.02h-4.61Z"/>
  <path class="st1" d="M365.25,355.92c-.86,0-1.52.41-1.99,1.13-.42-.73-1.13-1.13-1.99-1.13-.65,0-1.25.27-1.61.83v-.68h-.76v5.91h.76v-3.46c0-1.16.56-1.92,1.61-1.92s1.61.77,1.61,1.92v3.46h.76v-3.44c0-1.16.57-1.93,1.61-1.93s1.61.79,1.61,1.91v3.47h.76v-3.54c0-1.39-.84-2.52-2.37-2.52Z"/>
  <path class="st1" d="M374.27,356.07v1.03h-.02c-.48-.74-1.32-1.18-2.3-1.18-1.73,0-3.18,1.31-3.18,3.09s1.41,3.11,3.18,3.11c.96,0,1.81-.45,2.3-1.18h.02v1.04h.75v-5.91h-.75ZM371.95,361.44c-1.4,0-2.42-1.04-2.42-2.4s1.05-2.44,2.41-2.44,2.37,1.11,2.37,2.43-1.05,2.41-2.36,2.41Z"/>
  <polygon class="st1" points="377.84 353.98 377.08 353.98 377.08 356.07 375.84 356.07 375.84 356.75 377.08 356.75 377.08 361.97 377.84 361.97 377.84 356.75 379.25 356.75 379.25 356.07 377.84 356.07 377.84 353.98"/>
  <polygon class="st1" points="381.5 353.98 380.74 353.98 380.74 356.07 379.5 356.07 379.5 356.75 380.74 356.75 380.74 361.97 381.5 361.97 381.5 356.75 382.91 356.75 382.91 356.07 381.5 356.07 381.5 353.98"/>
  <path class="st1" d="M389.58,359.07c0-1.63-1.33-3.15-3.1-3.15-1.65,0-3.06,1.39-3.06,3.11s1.4,3.09,3.07,3.09c1.27,0,2.45-.8,2.91-2.08h-.8c-.32.87-1.2,1.4-2.12,1.4-1.14,0-2.22-.97-2.29-2.14h5.38c0-.08.01-.15.01-.23ZM384.19,358.62c.21-1.22,1.19-2.02,2.29-2.02,1.17,0,2.11.83,2.32,2.02h-4.61Z"/>
  <path class="st1" d="M391.5,356.92h-.02v-.85h-.76v5.91h.76v-3.49c0-.95.58-1.66,1.67-1.77h.01v-.8c-.95.05-1.4.39-1.66,1Z"/>
  <path class="st1" d="M403.31,355.92c-.86,0-1.52.41-1.99,1.13-.42-.73-1.13-1.13-1.99-1.13-.65,0-1.25.27-1.61.83v-.68h-.76v5.91h.76v-3.46c0-1.16.56-1.92,1.61-1.92s1.61.77,1.61,1.92v3.46h.76v-3.44c0-1.16.57-1.93,1.61-1.93s1.61.79,1.61,1.91v3.47h.76v-3.54c0-1.39-.84-2.52-2.37-2.52Z"/>
  <path class="st1" d="M409.91,355.92c-1.67,0-3.07,1.4-3.07,3.14,0,1.64,1.4,3.06,3.07,3.06s3.1-1.39,3.1-3.1-1.38-3.1-3.1-3.1ZM409.92,361.44c-1.28,0-2.33-1.1-2.33-2.39s1.04-2.45,2.32-2.45,2.35,1.1,2.35,2.38c0,1.35-1.01,2.46-2.34,2.46Z"/>
  <path class="st1" d="M415.66,358.45c-.72-.24-1.03-.54-1.03-.97,0-.51.4-.89.9-.89s.84.36.89.93h.76c0-.94-.72-1.61-1.61-1.61-.97,0-1.68.69-1.68,1.64,0,1.02.66,1.31,1.7,1.68.68.25,1.05.56,1.05,1.13,0,.68-.42,1.06-1.1,1.06-.64,0-1.05-.42-1.06-1.21h-.76v.04c0,1.12.8,1.85,1.81,1.85,1.13,0,1.86-.69,1.86-1.77,0-.84-.28-1.41-1.72-1.89Z"/>
  <polygon class="st1" points="419.79 353.98 419.03 353.98 419.03 356.07 417.79 356.07 417.79 356.75 419.03 356.75 419.03 361.97 419.79 361.97 419.79 356.75 421.2 356.75 421.2 356.07 419.79 356.07 419.79 353.98"/>
  <path class="st1" d="M387.86,332.31h-1.6c-5.36,0-9.71-4.39-9.71-9.81v-24.34h12.44v-11.44c0-1.38-1.11-2.5-2.48-2.5h-8.38c-.88,0-1.58-.72-1.58-1.6v-8.56c0-.54-.27-1.05-.72-1.34l-10.18-6.66c-1.26-.82-2.91.09-2.91,1.6v16.56h-5.73v11.44c0,1.38,1.11,2.5,2.48,2.5h3.25v24.34c0,13.12,10.53,23.76,23.53,23.76h3.76v-11.76c0-1.21-.97-2.19-2.17-2.19Z"/>
  <path class="st1" d="M132.72,331.26h-1.6c-5.36,0-9.71-4.32-9.71-9.65v-23.96h12.44v-11.26c0-1.36-1.11-2.46-2.48-2.46h-8.38c-.88,0-1.58-.71-1.58-1.57v-8.42c0-.53-.27-1.03-.72-1.32l-10.18-6.55c-1.26-.81-2.91.09-2.91,1.57v16.3h-5.73v11.26c0,1.36,1.11,2.46,2.48,2.46h3.25v23.96c0,12.91,10.53,23.38,23.53,23.38h3.76v-11.58c0-1.19-.97-2.15-2.17-2.15Z"/>
  <path class="st1" d="M184.38,289.44c-3.46-3.19-9.62-6.81-19.39-6.02-7.31.6-13.76,3.74-18.38,6.73-1.19.77-1.48,2.38-.66,3.53l6.41,8.91c.09.13.27.17.4.07,3.25-2.29,8.13-5.04,13.37-5.47,3.77-.31,6.84.52,8.89,2.41.58.53,1.07,1.14,1.46,1.81.93,1.61-.31,3.62-2.17,3.63-14.04.04-31.59,4.44-34.07,20.86-1.5,9.96,3.97,17.97,13.63,19.92,1.45.3,2.94.44,4.45.44,5.22,0,10.73-1.73,15.78-5.11,1.47-.98,3.43,0,3.43,1.76,0,1.2.97,2.18,2.17,2.18h11.34c.17,0,.3-.14.3-.3v-39.64c0-5.91-2.54-11.64-6.96-15.71ZM156.6,332.28c-2.34-.47-3.1-1.68-2.7-4.32,1.17-7.79,13.53-8.99,21.05-8.99h.34c-5.01,10.61-13.54,14.35-18.69,13.31Z"/>
  <path class="st1" d="M211.27,266.13l-8.89,5.69c-.71.45-1.13,1.23-1.13,2.07v68.71c0,1.36,1.1,2.46,2.46,2.46h11.35v-76.86c0-1.94-2.15-3.12-3.79-2.07Z"/>
  <path class="st1" d="M285.8,307.41c-1.13-5.09-3.49-9.72-6.76-13.58-5.83-6.9-14.55-11.3-24.28-11.3-18.72,0-33.69,16.25-31.57,35.39,1.63,14.74,13.7,26.63,28.47,28.04,10.96,1.04,20.94-3.52,27.38-11.16l-10.72-6.19c-.89-.5-2.01-.5-2.83.11-2.99,2.25-6.71,3.57-10.73,3.57-7.46,0-13.87-4.57-16.59-11.06h44.49c1.88,0,3.48-1.42,3.69-3.29.14-1.19.21-2.4.21-3.63,0-2.37-.26-4.67-.76-6.9ZM238.17,307.41c.68-1.62,1.59-3.12,2.69-4.46.28-.34.56-.66.86-.97.6-.63,1.24-1.22,1.92-1.76.34-.27.69-.53,1.05-.77,2.87-1.96,6.34-3.1,10.07-3.1,4.59,0,8.79,1.73,11.97,4.59,1.99,1.76,3.59,3.97,4.62,6.47h-33.18Z"/>
  <path class="st1" d="M352.16,345.09v-32.06c0-14.88-10.86-27.95-25.64-29.64-8.46-.97-16.28,1.75-22.14,6.73l-6.46-4.14c-1.64-1.05-3.8.13-3.8,2.08v56.88h0v.14h13.81v-32.88c0-9.04,7.93-16.26,17.2-15.07,7.66.98,13.2,7.88,13.2,15.6v29.82c0,1.39,1.13,2.52,2.52,2.52h11.29Z"/>
  <path class="st0" d="M492.97,262.4c-38.42-36.44-100.26-2.5-91.67,49.32,1.72,10.42,8.3,24.14,16.57,30.92,8.94,7.33,14.16-.88,21.96-4.16,10.79-4.54,24.37-4.03,34.61,1.75,2.25,1.27,4.61,3.58,6.94,4.46,7.54,2.84,12.51-2.53,16.75-7.89,17.78-22.47,15.6-54.71-5.16-74.4ZM481.62,310.56c-5.55,19.81-31.67,25.88-45.87,11.57-15.43-15.54-7.06-43.83,15.11-47.04,20.79-3.01,36.38,15.36,30.76,35.47Z"/>
  <path class="st1" d="M467.95,348.26h-25.28c-6.44,0-11.72,5.27-11.72,11.72v2.38c0,1.36,1.11,2.47,2.47,2.47h43.78c1.36,0,2.47-1.11,2.47-2.47v-2.38c0-6.44-5.27-11.72-11.72-11.72Z"/>
</svg>