<?xml version="1.0" encoding="UTF-8"?>
<svg id="Layer_1" xmlns="http://www.w3.org/2000/svg" version="1.1" viewBox="0 0 612 612">
  <!-- Generator: Adobe Illustrator 30.2.1, SVG Export Plug-In . SVG Version: 2.1.1 Build 1)  -->
  <defs>
    <style>
      .st0 {
        fill: #70757c;
      }

      .st1 {
        fill: #4d5258;
      }
    </style>
  </defs>
  <polygon class="st1" points="144.57 325.52 138.38 335.06 112.7 374.65 112.7 295.48 112.7 276.4 112.7 255.22 102.31 255.22 102.31 260.4 102.31 409.74 112.7 393.73 144.57 344.6 186.83 409.74 199.21 409.74 150.76 335.06 236.93 202.26 224.55 202.26 144.57 325.52"/>
  <polygon class="st1" points="263.55 255.22 263.55 409.74 398.17 202.26 385.79 202.26 273.93 374.65 273.93 255.22 263.55 255.22"/>
  <rect class="st1" x="231.34" y="255.22" width="10.38" height="154.52"/>
  <path class="st0" d="M432.43,255.22c-42.6,0-77.26,34.66-77.26,77.26s34.66,77.26,77.26,77.26,77.26-34.66,77.26-77.26-34.66-77.26-77.26-77.26ZM480.09,380.13c-12.2,12.21-29.06,19.78-47.66,19.78s-35.46-7.57-47.66-19.78c-12.21-12.21-19.77-29.07-19.77-47.65,0-37.18,30.25-67.43,67.43-67.43s67.43,30.25,67.43,67.43c0,18.58-7.56,35.44-19.77,47.65Z"/>
</svg>