<?xml version="1.0" encoding="UTF-8"?>
<svg id="Layer_1" xmlns="http://www.w3.org/2000/svg" version="1.1" viewBox="0 0 612 612">
  <!-- Generator: Adobe Illustrator 30.2.1, SVG Export Plug-In . SVG Version: 2.1.1 Build 1)  -->
  <defs>
    <style>
      .st0 {
        fill: #70757c;
      }

      .st1 {
        fill: #4d5258;
      }
    </style>
  </defs>
  <g>
    <path class="st0" d="M135.82,448.69v-56.65c0-3.74-3.11-6.79-6.92-6.79h-1.8v25.53c-2.75-3.21-6.65-4.99-11.13-4.99-9.09,0-14.1,5.9-14.1,16.61v24.97c0,10.78,5.01,16.72,14.1,16.72,5.66,0,9.32-1.62,11.73-5.31.64,1.94,1.74,3.38,3.27,4.28,1.36.8,2.89,1.07,4.34,1.07,2.96,0,5.6-1.14,5.76-1.21l2.44-1.08-2.53-.86c-4.95-1.69-5.18-5.57-5.16-12.28ZM127.1,426.4v17.08c0,7.71-3.63,12.69-9.25,12.69-4.88,0-7.26-3.02-7.26-9.23v-23.89c0-8.37,4.14-9.33,7.26-9.33,5.62,0,9.25,4.98,9.25,12.68Z"/>
    <path class="st0" d="M274.5,452.25c-.03-.93-.05-1.91-.07-2.93.14-1.18.2-2.32.2-3.48v-21.2c0-1.51-.11-3-.32-4.34-.42-6.14-2.81-10.4-7.1-12.67-2.38-1.26-5.34-1.9-8.79-1.9-4.1,0-7.57.97-10.24,2.84-5.06,2.9-7.62,8.58-7.61,16.89v1.04h2.16c2.22,0,4.25-1.03,5.57-2.84.64-.88,1.06-1.83,1.25-2.85.48-2.6,1.45-4.35,2.97-5.36,1.24-.83,2.92-1.23,5.13-1.23,4.66,0,7.2,2.09,7.99,6.56,0,.09.01.17.02.25,0,.09.02.19.02.29v1.39c0,3.25-.72,4.08-10.56,8.36-1.87.82-3.49,1.64-4.96,2.5-6.25,3.67-9.11,7.87-9.54,14.06-.02.27-.02.54-.03.81s0,.55-.03.83c-.36,4.18.63,7.58,2.94,10.09,1.99,2.16,6.02,4.74,13.91,4.74h.24c4.32,0,7.89-1.01,10.64-3.01.23.23.46.43.68.61.16.13.31.27.45.4,3.95,3.81,8.59,1.09,10.48-.88l1.14-1.18-1.55-.53c-3.71-1.27-4.68-3.83-5-7.3ZM265.91,433.59v12.79c0,6.74-2.62,9.88-8.25,9.88-1.96,0-3.6-.39-4.88-1.17-1.98-1.2-3.15-3.44-3.49-6.65.02-3.16,1.22-5.6,3.76-7.68,1.28-1.05,2.9-2.02,4.93-2.95,2.02-.94,3.63-1.7,4.96-2.39,1.16-.6,2.16-1.22,2.97-1.83Z"/>
    <path class="st0" d="M161.96,438.77h0c1.86-.82,3.48-1.64,4.96-2.51,6.25-3.67,9.11-7.87,9.54-14.06.04-.56.06-1.14.06-1.73,0-7.73-4.13-12.93-11.06-13.92-1.85-.54-3.88-.82-6.03-.82-4.76,0-8.62,1.23-11.47,3.65-2.94,2.51-4.73,6.24-5.3,11.08-.14,1.21-.21,2.37-.21,3.55v21.2c0,1.51.11,3,.32,4.34.42,6.14,2.81,10.4,7.1,12.67,2.38,1.26,5.34,1.9,8.79,1.9,4.1,0,7.57-.97,10.24-2.84,5.06-2.9,7.62-8.58,7.61-16.89v-1.04h-2.16c-2.22,0-4.25,1.03-5.57,2.84-.64.88-1.06,1.83-1.25,2.85-.48,2.6-1.45,4.35-2.97,5.36-1.24.82-2.92,1.23-5.13,1.23-4.66,0-7.2-2.09-7.99-6.56,0-.09-.01-.17-.02-.26,0-.09-.02-.19-.02-.29v-1.39c0-3.25.72-4.08,10.55-8.36ZM159.11,432.05c-1.74.81-3.54,1.65-4.96,2.39-1.16.6-2.16,1.22-2.97,1.83v-12.79c0-6.74,2.62-9.88,8.25-9.88,1.96,0,3.6.39,4.88,1.17,1.98,1.2,3.15,3.44,3.49,6.65-.02,3.16-1.22,5.6-3.76,7.68-1.29,1.05-2.9,2.02-4.93,2.95Z"/>
    <path class="st0" d="M217.46,443.36h-2.15c-2.22,0-4.25,1.03-5.57,2.84-.64.88-1.06,1.83-1.25,2.85-.48,2.6-1.45,4.35-2.97,5.36-1.24.82-2.92,1.23-5.13,1.23-4.66,0-7.2-2.09-7.99-6.56,0-.09-.01-.18-.02-.26,0-.09-.02-.19-.02-.29v-1.39c0-3.25.72-4.08,10.55-8.36h0c1.86-.82,3.48-1.64,4.96-2.51,6.25-3.67,9.11-7.87,9.54-14.06.04-.56.06-1.14.06-1.73,0-7.73-4.13-12.93-11.06-13.92-1.85-.54-3.88-.82-6.03-.82-4.76,0-8.62,1.23-11.47,3.65-2.94,2.51-4.73,6.24-5.3,11.08-.14,1.21-.21,2.37-.21,3.54v21.2c0,1.51.11,3,.32,4.34.42,6.14,2.81,10.4,7.1,12.67,2.38,1.26,5.34,1.9,8.79,1.9,4.1,0,7.57-.97,10.24-2.84,5.06-2.9,7.62-8.58,7.61-16.89v-1.04ZM200.06,432.05c-2.01.93-3.62,1.7-4.96,2.39-1.16.6-2.16,1.22-2.97,1.84v-12.79c0-6.74,2.62-9.88,8.25-9.88,1.96,0,3.6.39,4.88,1.17,1.98,1.2,3.15,3.44,3.49,6.65-.02,3.16-1.22,5.6-3.76,7.68-1.29,1.05-2.9,2.02-4.93,2.95Z"/>
    <path class="st1" d="M376.88,438.77h0c1.86-.82,3.48-1.64,4.96-2.51,6.25-3.67,9.11-7.87,9.55-14.06.04-.56.06-1.14.06-1.73,0-7.73-4.13-12.93-11.06-13.92-1.85-.54-3.88-.82-6.03-.82-4.76,0-8.62,1.23-11.47,3.66-2.94,2.51-4.73,6.24-5.3,11.08-.14,1.21-.21,2.37-.21,3.54v21.2c0,1.51.11,3,.32,4.34.42,6.14,2.81,10.4,7.1,12.67,2.38,1.26,5.34,1.9,8.79,1.9,4.1,0,7.57-.97,10.24-2.84,5.06-2.9,7.62-8.58,7.61-16.89v-1.04h-2.16c-2.22,0-4.25,1.03-5.57,2.84-.64.87-1.06,1.83-1.25,2.85-.48,2.6-1.45,4.35-2.97,5.36-1.24.82-2.92,1.23-5.13,1.23-4.66,0-7.2-2.09-7.99-6.56,0-.09-.01-.17-.02-.26,0-.09-.02-.19-.02-.29v-1.39c0-3.25.72-4.08,10.55-8.36ZM374.03,432.05c-1.74.81-3.54,1.65-4.96,2.39-1.16.6-2.16,1.22-2.97,1.84v-12.79c0-6.74,2.62-9.88,8.25-9.88,1.96,0,3.6.39,4.88,1.17,1.98,1.2,3.15,3.44,3.49,6.65-.02,3.16-1.22,5.6-3.76,7.68-1.28,1.05-2.9,2.02-4.93,2.95Z"/>
    <path class="st1" d="M349.5,448.21v-56.24c0-3.72-3.09-6.75-6.89-6.75h-1.8v70.03c.34,3.05,1.24,5.36,2.67,6.86,1.47,1.53,3.26,2.04,4.98,2.04,3.21,0,6.17-1.75,6.36-1.86l1.92-1.16-2.12-.72c-4.92-1.68-5.15-5.53-5.13-12.19Z"/>
    <path class="st1" d="M425.33,407.16h0c-1.89-.91-4.12-1.37-6.65-1.37-4.2,0-7.86,1.56-10.56,4.46v-4.52h-1.81c-1.84,0-3.58.7-4.89,1.98-1.31,1.28-2.04,2.99-2.04,4.81l.02,51.6h1.44c3.82,0,6.92-3.1,6.92-6.91v-30.42c0-1.41.12-2.77.35-4.06,1.01-5.66,4.21-8.91,8.79-8.91,2.97,0,6.93,1.01,6.93,9.77v33.63c0,2.65,1.5,5.02,3.91,6.19.22.11.45.2.68.28.8.29,1.57.43,2.34.43h1.8v-41.41c0-5.55-1.2-9.81-3.56-12.64-1.05-1.26-2.28-2.24-3.67-2.91Z"/>
    <path class="st1" d="M463.83,405.79h-23.13l-1.04.1v1.04c0,3.74,3.1,6.78,6.92,6.78h14.22l-22.13,43.11-.12.23v.25c0,3.74,3.1,6.78,6.91,6.78h25.27v-1.15c0-3.74-3.11-6.78-6.92-6.78h-15.32l22.13-43.11.12-.23v-.25c0-3.74-3.1-6.78-6.91-6.78Z"/>
    <path class="st1" d="M493.16,405.79c-10.79,0-16.98,6.72-16.98,18.44v21.4c0,11.72,6.19,18.45,16.98,18.45s16.98-6.72,16.98-18.45v-21.4c0-11.72-6.19-18.44-16.98-18.44ZM501.41,446.28c0,6.64-2.7,9.87-8.25,9.87s-8.25-3.23-8.25-9.87v-22.59c0-6.72,2.7-9.98,8.25-9.98s8.25,3.27,8.25,9.98v22.59Z"/>
    <path class="st0" d="M224.69,413.66v56.65c.02,6.71-.21,10.59-5.16,12.28l-2.12.72,1.91,1.16c.17.1,3.15,1.87,6.4,1.87,1.07,0,2.17-.19,3.21-.71,2.51-1.24,4.02-4.02,4.47-8.24v-70.52s-1.79,0-1.79,0c-3.82,0-6.93,3.05-6.93,6.79Z"/>
    <path class="st0" d="M306.75,410.84l-8.3,34.74-8.77-33.61c-.04-.15-.09-.29-.15-.44l-.21-.8c-.93-3.63-4.69-5.85-8.39-4.94l-1.76.43,14.82,58.05-1.42,5.97c-.93,3.93-1.73,7.33-3.88,9.23-.32.28-.68.54-1.09.76-.85.47-1.81.75-2.94.87l-2.22.23,1.6,1.55c.16.16,3.6,3.45,7.54,3.45.5,0,1-.05,1.51-.17,2.75-.64,4.87-3.01,6.3-7.03l17.44-72.96-1.76-.4c-3.71-.85-7.44,1.43-8.31,5.07Z"/>
    <path class="st0" d="M229.4,391.89c-2.49,0-4.51,1.99-4.51,4.43s2.02,4.43,4.51,4.43,4.51-1.99,4.51-4.43-2.02-4.43-4.51-4.43Z"/>
  </g>
  <g>
    <circle class="st1" cx="368.89" cy="297.55" r="20.24"/>
    <g>
      <path class="st1" d="M336.77,326.21c-3.69-4.14-6.6-8.99-8.48-14.33-1.57-4.47-2.43-9.28-2.43-14.29v-126.55c.04-.78.06-1.57.06-2.37s-.02-1.58-.06-2.37c-.23-4.17-1.05-8.17-2.38-11.95-1.89-5.34-4.8-10.2-8.49-14.33-1.08-1.22-2.23-2.37-3.45-3.45-4.14-3.69-8.99-6.6-14.33-8.49-4.47-1.57-9.3-2.44-14.31-2.44v171.91c0,5.01.87,9.83,2.45,14.31,1.89,5.34,4.8,10.19,8.49,14.33,1.06,1.19,2.2,2.31,3.38,3.38,2.33,2.09,4.88,3.92,7.62,5.45,2.13,1.21,4.37,2.23,6.7,3.05,4,1.42,8.27,2.26,12.72,2.43.53.02,1.66.03,1.66.03.55,0,1.12-.01,1.66-.03,4.41-.17,8.64-1,12.6-2.4,2.5-.88,4.91-1.98,7.17-3.29-2.58-1.48-4.97-3.22-7.17-5.19-1.21-1.08-2.35-2.23-3.42-3.43Z"/>
      <path class="st1" d="M279.4,340.53c-3.68-4.13-6.57-8.99-8.44-14.31-1.33-3.81-2.15-7.85-2.37-12.05-.03-.73,0-145.48,0-145.48-5.03,0-9.84.85-14.31,2.44-4.86,1.71-9.32,4.29-13.21,7.53-.38.3-.75.63-1.12.95-1.2,1.07-2.34,2.21-3.41,3.41-3.7,4.13-6.62,8.99-8.51,14.33-1.36,3.84-2.19,7.91-2.41,12.16-.03.71-.03,103.88,0,104.61.22,4.23,1.04,8.3,2.4,12.11,1.88,5.33,4.78,10.18,8.46,14.31,1.09,1.22,2.25,2.38,3.47,3.47,4.14,3.68,8.99,6.59,14.33,8.47,3.82,1.34,7.87,2.17,12.1,2.39.73.03,1.47.05,2.21.05s1.48-.02,2.21-.05c4.23-.22,8.3-1.04,12.11-2.39,2.48-.88,4.86-1.97,7.1-3.27-2.54-1.47-4.92-3.2-7.1-5.14-1.23-1.11-2.41-2.28-3.51-3.52Z"/>
    </g>
  </g>
</svg>