<?xml version="1.0" encoding="UTF-8"?>
<svg id="Layer_1" xmlns="http://www.w3.org/2000/svg" version="1.1" viewBox="0 0 612 612">
  <!-- Generator: Adobe Illustrator 30.2.1, SVG Export Plug-In . SVG Version: 2.1.1 Build 1)  -->
  <defs>
    <style>
      .st0 {
        fill: #70757c;
      }

      .st1 {
        fill: #4d5258;
      }
    </style>
  </defs>
  <g>
    <g>
      <path class="st1" d="M447.12,336.67c-.96-.96-2.28-1.5-3.64-1.5h-19.39v-89.86c0-2.84-2.31-5.15-5.15-5.15-1.36,0-2.64.53-3.64,1.5-.96.96-1.51,2.28-1.51,3.65v16.41c-10.36-14.02-27.22-22.24-45.22-21.24-12.85.72-24.98,6.19-34.16,15.38-9.18,9.19-14.61,21.34-15.3,34.2-.78,14.56,4.31,28.41,14.34,38.99,10.04,10.59,23.57,16.42,38.11,16.42,17.01,0,32.49-8.05,42.22-21.28v16.14c0,2.84,2.31,5.15,5.15,5.15l24.55-.02c2.84,0,5.15-2.31,5.15-5.15,0-1.38-.54-2.67-1.5-3.64h0ZM411.38,306.95l-.21.58v.03c-.03.08-.06.16-.09.24-.03.09-.07.17-.09.26l-.32.79c-.11.27-.22.55-.32.78-.07.15-7.21,15.34-21.19,21.68l-.91.4c-.27.12-.56.24-.85.35-.32.13-.63.26-.96.38-.26.1-.53.2-.78.28l-.88.3c-.38.12-.75.24-1.13.36-.24.07-.48.15-.76.22-1.37.38-2.75.69-4.17.94-.24.04-.48.09-.77.13-.3.05-.6.09-.91.13l-.1.02c-.22.03-.45.06-.68.09h-.1c-.28.04-.56.07-.91.09-.24.03-.49.04-.73.06l-.5.03c-.35.03-.7.04-1.13.05-.45.02-.9.03-1.34.03-7.72,0-15.29-2.12-21.88-6.13-.58-.35-1.15-.73-1.71-1.09-.85-.58-1.69-1.19-2.48-1.8-.53-.42-1.05-.85-1.58-1.32-.24-.21-.48-.42-.73-.65-.5-.45-.99-.92-1.5-1.44-.18-.17-.35-.35-.52-.53l-.15-.15c-.72-.76-1.4-1.53-2.02-2.26-.32-.38-.62-.77-.94-1.18s-.63-.84-.93-1.26c-5.1-7.18-7.8-15.62-7.8-24.43,0-.45,0-.91.03-1.43,0-.33.03-.67.05-1.01l.02-.34h0l.03-.27c0-.16.02-.32.03-.49l.02-.18c.02-.23.03-.46.07-.69l.02-.16c.03-.26.05-.51.09-.85.03-.32.09-.65.14-1.01.05-.35.11-.69.18-1.09.06-.33.12-.67.2-1,.21-1,.44-1.96.71-2.9.03-.15.08-.28.14-.49.06-.2.12-.39.18-.59l.03-.11c.06-.19.12-.38.19-.56l.07-.2c.07-.23.15-.45.23-.67l.21-.58v-.02c.03-.06.04-.12.07-.17.05-.13.1-.27.15-.41l.08-.2c.05-.14.1-.27.16-.4l.04-.11c.1-.27.21-.54.33-.79l.79-1.74c4.14-8.45,11.07-15.39,19.56-19.54.27-.14.55-.26.85-.4.23-.11.46-.21.67-.31l.28-.12c.26-.11.52-.22.84-.35.26-.1.5-.21.81-.32.28-.11.56-.21.91-.33.17-.07.35-.13.53-.19l.1-.03c.28-.09.57-.19.88-.28,2.07-.65,4.18-1.13,6.34-1.44.28-.04.56-.09.79-.11.26-.03.51-.06.85-.09.22-.03.44-.04.67-.07l.19-.02c.26-.03.52-.04.78-.06h.06c.07,0,.13-.02.2-.02h.17c.38-.03.75-.04,1.15-.06,5.08-.21,10.11.58,14.87,2.2.56.19,1.11.38,1.68.62,2.31.9,4.55,2,6.68,3.29.52.32,1.08.67,1.71,1.1.79.54,1.61,1.13,2.47,1.79.53.42,1.05.85,1.55,1.28l.08.07c.22.2.45.39.69.62.5.45.99.92,1.47,1.4s.95.97,1.42,1.5c.21.23.43.48.67.75.44.51.88,1.03,1.27,1.52.67.87,1.26,1.68,1.81,2.49.43.62.78,1.18,1.1,1.71,4.01,6.59,6.12,14.15,6.12,21.88,0,.44,0,.9-.03,1.35v.03c-.02.37-.03.75-.05,1.13v.12c0,.08-.02.15-.03.24v.06c-.03.26-.04.52-.07.78l-.02.19c-.02.23-.04.46-.08.73-.03.26-.06.53-.09.74-.03.28-.08.56-.13.87-.26,1.74-.62,3.46-1.1,5.16-.08.28-.16.56-.26.9-.06.21-.13.41-.19.61l-.15.42c-.07.23-.15.47-.24.7h0Z"/>
      <path class="st1" d="M201.81,269.62v-.02c-.27-.52-.53-1.03-.8-1.53-9.2-17.07-26.93-27.67-46.26-27.67-13.37,0-26.13,5.06-35.9,14.23-.89.84-1.78,1.73-2.63,2.65-9.02,9.75-13.99,22.4-13.99,35.65,0,4.85.67,9.68,2.01,14.35.37,1.3.73,2.45,1.13,3.53,7.53,20.72,27.37,34.64,49.39,34.64,16.96,0,32.97-8.3,42.82-22.17,1.61-2.26,1.17-5.36-1-7.07-.91-.71-2.03-1.1-3.17-1.1-1.67,0-3.24.81-4.2,2.17-7.93,11.19-20.81,17.87-34.46,17.87-16.74,0-31.68-9.73-38.51-24.92l82.87-33.57c1.32-.53,2.38-1.61,2.89-2.94s.44-2.83-.19-4.11h0ZM126.29,261.76c7.81-7.13,17.92-11.06,28.46-11.06,14.17,0,27.11,6.93,35,18.65l-76.57,31.02c-.44-2.44-.66-4.94-.66-7.43,0-10.72,4.04-20.95,11.39-28.8l2.38-2.38h0Z"/>
    </g>
    <path class="st1" d="M300.89,322.49c-2.84,0-5.15,2.31-5.15,5.15v7.51h-69.46l77.46-84.29c1.33-1.45,2.08-3.34,2.08-5.32,0-2.84-2.31-5.15-5.15-5.15h-79.84v-.53c0-2.84-2.31-5.15-5.15-5.15s-5.15,2.31-5.15,5.15v5.69c0,1.38.54,2.67,1.51,3.64.97.97,2.26,1.5,3.64,1.5h74.19l-77.44,84.29c-1.33,1.45-2.08,3.34-2.08,5.32,0,2.84,2.31,5.15,5.15,5.15h85.41c2.84,0,5.15-2.31,5.15-5.15v-12.66c0-2.84-2.31-5.15-5.15-5.15h0Z"/>
  </g>
  <path class="st0" d="M486.69,357.03c-2.23,0-4.28,1.25-5.31,3.23-18.96,36.82-57.36,62.05-101.54,62.05s-82.58-25.24-101.54-62.05c-1.03-1.98-3.07-3.23-5.31-3.23h0c-4.47,0-7.38,4.73-5.33,8.71,20.95,40.66,63.36,68.53,112.17,68.53s91.21-27.87,112.17-68.53c2.05-3.97-.86-8.71-5.33-8.71h0Z"/>
  <g>
    <path class="st0" d="M294.29,210.05l9.9,11.12-1.45,1.29-9.9-11.12,1.45-1.29Z"/>
    <path class="st0" d="M316.2,211.8l-1.56,1.15-13.34-4.87,7.06,9.53-1.56,1.16-8.88-11.98,1.56-1.15,13.33,4.85-7.05-9.51,1.56-1.16,8.88,11.98h0Z"/>
    <path class="st0" d="M319.65,192.52l.79,1.37-3.52,2.02,6.63,11.53-1.68.97-6.63-11.53-3.54,2.03-.79-1.37,8.74-5.02Z"/>
    <path class="st0" d="M325.68,191.39l2.04,4.54,4.95-2.23.66,1.46-4.95,2.23,2.1,4.67,5.53-2.49.66,1.46-7.31,3.29-6.13-13.59,7.31-3.29.66,1.46-5.53,2.49h0Z"/>
    <path class="st0" d="M347.02,197.42l-5.27-4.67-2.23.73,1.91,5.78-1.85.61-4.65-14.14,4.56-1.5c1.07-.35,2.03-.46,2.89-.34s1.57.44,2.14.94c.57.5.98,1.15,1.25,1.95.32.97.32,1.92,0,2.85-.32.93-1,1.7-2.04,2.32l5.5,4.76-2.21.73h0ZM339.03,191.99l2.72-.9c1-.33,1.67-.82,2.01-1.48.34-.66.38-1.4.1-2.23-.27-.84-.73-1.41-1.38-1.7-.64-.3-1.47-.28-2.49.05l-2.72.9,1.76,5.36Z"/>
    <path class="st0" d="M350.63,181.09l3.49,14.47-1.89.45-3.49-14.47,1.89-.45Z"/>
    <path class="st0" d="M360.33,193.41c-1.22-.49-2.24-1.26-3.05-2.32s-1.32-2.31-1.53-3.74-.05-2.78.44-4.02c.5-1.24,1.26-2.26,2.3-3.06,1.04-.8,2.24-1.29,3.61-1.49,1.38-.19,2.68-.04,3.9.44,1.22.49,2.23,1.26,3.04,2.31s1.32,2.31,1.51,3.76.06,2.79-.43,4.02-1.26,2.25-2.29,3.05-2.25,1.3-3.63,1.49c-1.37.19-2.66.04-3.88-.44h0ZM366.65,191.07c.76-.6,1.31-1.37,1.66-2.32s.44-2.02.28-3.19c-.16-1.19-.55-2.19-1.14-3-.6-.81-1.33-1.41-2.22-1.77-.89-.37-1.85-.48-2.9-.33s-1.94.51-2.69,1.11c-.75.59-1.3,1.37-1.65,2.32s-.44,2.02-.27,3.2c.16,1.17.54,2.17,1.14,2.99.6.82,1.34,1.42,2.23,1.78.89.37,1.85.48,2.88.33,1.03-.15,1.92-.51,2.68-1.11h0Z"/>
    <path class="st0" d="M382.08,192.59l-3.59-6.06-2.35.02.04,6.08-1.95.02-.11-14.88,4.8-.03c1.13,0,2.08.18,2.85.56.78.38,1.37.9,1.75,1.55.39.65.59,1.4.59,2.24,0,1.03-.28,1.93-.86,2.72s-1.47,1.32-2.65,1.58l3.78,6.21-2.33.02h.02ZM376.13,184.99l2.86-.03c1.05,0,1.85-.27,2.37-.79s.78-1.22.78-2.08-.27-1.56-.79-2.04-1.32-.72-2.38-.71l-2.86.03.04,5.64h0Z"/>
    <path class="st0" d="M389.46,192.61c-.73-.43-1.29-.97-1.67-1.64s-.53-1.4-.45-2.2l2.06.22c0,.7.22,1.32.67,1.85.45.53,1.16.85,2.12.95.92.09,1.67-.06,2.25-.46.58-.4.91-.97.98-1.69.06-.56-.05-1.04-.32-1.43s-.63-.7-1.09-.93c-.44-.23-1.06-.5-1.83-.79-.95-.36-1.71-.7-2.26-1.02-.56-.32-1.03-.77-1.38-1.36s-.5-1.34-.39-2.26c.09-.8.37-1.5.85-2.08.48-.58,1.1-1,1.89-1.26.78-.26,1.65-.34,2.61-.24,1.38.15,2.49.62,3.3,1.4s1.21,1.76,1.2,2.92l-2.13-.22c0-.57-.26-1.1-.73-1.59s-1.15-.78-2.02-.87c-.8-.09-1.49.05-2.04.42-.56.37-.87.92-.95,1.67-.06.54.05.99.32,1.37s.62.67,1.04.9c.43.22,1.03.5,1.81.8.95.38,1.71.72,2.27,1.04s1.03.79,1.4,1.38.5,1.35.4,2.29c-.08.72-.34,1.38-.79,1.98-.45.6-1.07,1.05-1.86,1.37-.79.32-1.7.42-2.72.32-.97-.1-1.84-.37-2.57-.79l.03-.03Z"/>
    <path class="st0" d="M413.74,197.17c-1.11.18-2.34.07-3.71-.35-1.39-.42-2.34-1.15-2.85-2.2-.51-1.05-.54-2.33-.09-3.84.23-.77.55-1.41.95-1.91s1-.96,1.79-1.38c-.66-1.21-.84-2.32-.53-3.33.31-1.02.96-1.77,1.94-2.26s2.13-.54,3.42-.15c1.37.41,2.34,1.03,2.9,1.87l-1.29,1.29c-.56-.86-1.15-1.38-1.75-1.56-1.77-.54-2.9,0-3.38,1.6-.26.86-.09,1.72.5,2.55l3.72,1.12.56-1.83,2.12-.15-.79,2.59,2.49.75-.49,1.6-2.49-.75-1,3.3c-.28.91-.34,1.58-.2,1.99.15.41.52.7,1.13.89.36.11.82.11,1.38.02l-.26,1.85c-.76,0-1.59-.15-2.49-.43-.62-.19-1.14-.61-1.58-1.25v-.02ZM413.65,194.28l1.22-4.03-4.02-1.21c-.88.62-1.45,1.38-1.72,2.27-.62,2.08.08,3.42,2.1,4.03.91.27,1.63.32,2.19.13.02-.32.1-.72.24-1.18h0Z"/>
    <path class="st0" d="M431.33,191.99c1.11-.74,2.32-1.14,3.62-1.22,1.31-.08,2.57.2,3.81.82,1.45.73,2.54,1.72,3.26,2.96.73,1.25,1.02,2.63.86,4.17l-2.08-1.05c.03-.99-.19-1.87-.66-2.65-.48-.79-1.2-1.42-2.16-1.91-.93-.47-1.87-.67-2.83-.62-.96.06-1.85.38-2.67.97-.82.58-1.5,1.41-2.04,2.48-.53,1.06-.79,2.08-.77,3.09s.29,1.91.8,2.72c.52.8,1.25,1.44,2.17,1.91.97.49,1.91.69,2.81.62s1.75-.42,2.52-1.03l2.08,1.05c-1.14,1.03-2.42,1.61-3.85,1.75-1.43.15-2.87-.15-4.32-.88-1.23-.62-2.2-1.48-2.93-2.56-.72-1.09-1.11-2.3-1.18-3.62s.23-2.63.88-3.93c.66-1.3,1.54-2.32,2.64-3.06h.03Z"/>
    <path class="st0" d="M443.51,210.71c-.56-1.19-.78-2.44-.65-3.78.13-1.33.61-2.59,1.44-3.78s1.85-2.07,3.07-2.63c1.21-.56,2.47-.79,3.77-.67,1.31.13,2.52.59,3.65,1.38,1.14.8,1.99,1.79,2.55,2.98.56,1.19.78,2.44.65,3.76-.13,1.32-.62,2.58-1.46,3.78-.85,1.2-1.86,2.08-3.07,2.65-1.2.56-2.45.79-3.76.66s-2.53-.59-3.67-1.39c-1.13-.79-1.97-1.79-2.53-2.97h0ZM449.73,213.32c.96.09,1.9-.1,2.8-.56.91-.46,1.7-1.17,2.38-2.14.69-.98,1.09-1.97,1.21-2.97.12-1-.02-1.94-.41-2.81s-1.03-1.61-1.89-2.21c-.86-.61-1.77-.95-2.73-1.03s-1.88.11-2.79.56-1.7,1.17-2.38,2.14c-.68.97-1.09,1.96-1.2,2.96-.13,1.01,0,1.95.42,2.83.4.87,1.03,1.61,1.88,2.21s1.75.94,2.72,1.03l-.02-.02Z"/>
    <path class="st0" d="M462.76,227.61l-1.42-1.33,2.4-13.99-8.11,8.65-1.42-1.33,10.19-10.88,1.42,1.33-2.38,13.98,8.09-8.64,1.42,1.33-10.19,10.88h0Z"/>
    <path class="st0" d="M466.67,231.49c-.23-.82-.25-1.6-.06-2.33s.59-1.37,1.2-1.91l1.33,1.59c-.49.5-.75,1.1-.79,1.79-.04.69.25,1.41.87,2.15.6.71,1.24,1.12,1.94,1.23s1.32-.07,1.88-.53c.44-.37.69-.79.76-1.25.07-.47.03-.94-.13-1.42-.16-.48-.41-1.09-.76-1.85-.44-.92-.74-1.68-.92-2.31-.18-.62-.2-1.26-.05-1.94s.58-1.31,1.29-1.91c.62-.52,1.31-.83,2.05-.91.74-.09,1.49.05,2.23.4.74.36,1.43.91,2.04,1.64.9,1.07,1.36,2.17,1.4,3.3.03,1.13-.35,2.11-1.16,2.94l-1.37-1.64c.39-.42.58-.97.58-1.66s-.29-1.36-.85-2.02c-.52-.62-1.11-.99-1.76-1.12s-1.26.06-1.85.54c-.42.35-.66.75-.72,1.2-.07.45-.03.91.13,1.37.15.46.4,1.07.74,1.84.43.92.73,1.7.91,2.33.18.63.2,1.28.05,1.96-.15.68-.58,1.32-1.3,1.92-.56.47-1.2.76-1.95.87-.73.12-1.5.02-2.29-.31s-1.51-.88-2.17-1.67c-.63-.75-1.06-1.54-1.29-2.36v.03Z"/>
    <path class="st0" d="M490.51,239.33l-1.32.88-2.26-3.37-11.05,7.42-1.09-1.61,11.05-7.42-2.27-3.38,1.32-.88,5.62,8.37h0Z"/>
    <path class="st0" d="M483.08,256.74l3.74-5.97-1.09-2.08-5.39,2.83-.91-1.72,13.17-6.93,2.24,4.25c.52,1,.79,1.92.82,2.79.02.86-.17,1.62-.57,2.26-.4.65-.97,1.16-1.72,1.55-.91.48-1.85.63-2.81.48-.97-.16-1.85-.7-2.61-1.63l-3.78,6.21-1.09-2.06ZM487.12,247.97l1.33,2.54c.49.93,1.09,1.51,1.79,1.73.71.22,1.44.14,2.21-.27.79-.41,1.26-.96,1.45-1.64.19-.68.03-1.5-.46-2.44l-1.33-2.54-4.99,2.62h0Z"/>
    <path class="st0" d="M499.98,257.95l-8.8,3.36c-1.24.47-2.04,1.13-2.41,1.96s-.35,1.79.07,2.87c.41,1.07,1.03,1.79,1.85,2.16s1.86.33,3.1-.15l8.8-3.36.69,1.82-8.78,3.35c-1.15.44-2.22.58-3.19.42-.97-.16-1.79-.56-2.49-1.21-.68-.64-1.22-1.46-1.6-2.44s-.52-1.95-.44-2.89.44-1.79,1.05-2.55,1.5-1.36,2.67-1.8l8.78-3.35.69,1.82h0Z"/>
    <path class="st0" d="M501.55,272.73c1.28.38,2.37,1.03,3.26,1.99s1.5,2.1,1.81,3.45c.37,1.58.31,3.05-.18,4.41s-1.37,2.47-2.64,3.34l-.53-2.26c.78-.61,1.32-1.34,1.61-2.2.29-.86.32-1.83.08-2.88-.24-1.02-.68-1.86-1.34-2.56-.66-.69-1.48-1.17-2.45-1.43-.97-.26-2.04-.25-3.2.03-1.15.26-2.1.73-2.86,1.39-.76.66-1.28,1.44-1.56,2.36s-.31,1.88-.07,2.89c.25,1.05.69,1.91,1.33,2.55.64.65,1.44,1.07,2.41,1.26l.53,2.26c-1.51-.21-2.79-.83-3.82-1.83-1.03-1-1.73-2.29-2.1-3.88-.32-1.34-.28-2.64.09-3.9.38-1.25,1.05-2.32,2.02-3.23.97-.9,2.17-1.51,3.58-1.85,1.42-.33,2.76-.31,4.04.07h0Z"/>
    <path class="st0" d="M509.61,298.82l-1.57.17-.43-4.03-13.23,1.41-.21-1.93,13.23-1.41-.44-4.06,1.57-.17,1.07,10.02Z"/>
    <path class="st0" d="M509.77,304.56l-14.88.44-.06-1.94,14.88-.44.06,1.94Z"/>
    <path class="st0" d="M495.72,311.51c.73-1.09,1.68-1.93,2.89-2.51,1.2-.58,2.53-.82,3.98-.73,1.45.1,2.73.52,3.84,1.26,1.11.74,1.96,1.7,2.52,2.88s.8,2.46.71,3.84c-.09,1.39-.5,2.63-1.23,3.73s-1.68,1.92-2.88,2.5c-1.2.57-2.53.81-3.99.71-1.46-.1-2.75-.51-3.85-1.25-1.1-.73-1.95-1.69-2.51-2.87-.57-1.18-.8-2.47-.71-3.86.09-1.38.5-2.61,1.22-3.71v.02ZM496.71,318.18c.43.86,1.07,1.56,1.93,2.1s1.88.85,3.06.92c1.2.09,2.25-.09,3.17-.5s1.65-1.02,2.19-1.81.85-1.71.91-2.76-.1-2.01-.53-2.86-1.07-1.55-1.92-2.09-1.88-.85-3.08-.92c-1.18-.08-2.23.09-3.16.5-.92.42-1.66,1.03-2.2,1.82s-.85,1.72-.91,2.75.1,1.99.53,2.85h.02Z"/>
    <path class="st0" d="M491.26,336.73l.4-1.91,13.21-5.22-11.6-2.44.4-1.91,14.59,3.06-.4,1.91-13.18,5.22,11.58,2.43-.4,1.91-14.59-3.06h0Z"/>
  </g>
</svg>