<?xml version="1.0" encoding="UTF-8"?>
<svg id="Layer_1" xmlns="http://www.w3.org/2000/svg" version="1.1" viewBox="0 0 612 612">
  <!-- Generator: Adobe Illustrator 30.2.1, SVG Export Plug-In . SVG Version: 2.1.1 Build 1)  -->
  <defs>
    <style>
      .st0 {
        fill: #70757c;
      }

      .st1 {
        fill: #4d5258;
      }
    </style>
  </defs>
  <g>
    <path class="st1" d="M204.32,363.15v-27.63c0-14.97-9.85-24.82-24.81-24.82-11.51,0-20.21,5.37-24.43,14.71-3.45-9.21-11.9-14.71-23.02-14.71-10.23,0-18.16,4.35-22.77,12.02v-10.49h-7.42v65.24h7.42v-39.65c0-12.02,8.31-19.95,20.59-19.95s19.57,7.8,19.57,19.7v39.91h7.42v-39.65c0-12.02,8.19-19.95,20.47-19.95s19.57,7.8,19.57,19.7v27.12c0,8.06,4.86,12.79,13.18,12.79h2.43v-7.16h-1.02c-4.35,0-7.16-2.81-7.16-7.16Z"/>
    <path class="st1" d="M279.01,363.15v-50.91h-7.42v14.97c-5.5-10.1-15.61-16.5-28.14-16.5-18.93,0-33.13,14.71-33.13,34.15s14.2,34.15,33.13,34.15c12.54,0,22.64-6.4,28.14-16.5v2.17c0,8.06,4.86,12.79,13.18,12.79h2.43v-7.16h-1.02c-4.35,0-7.16-2.81-7.16-7.16ZM244.73,371.85c-15.22,0-26.73-11.64-26.73-26.99s11.51-26.99,26.73-26.99,26.86,11.64,26.86,26.99-11.51,26.99-26.86,26.99Z"/>
    <rect class="st1" x="290.14" y="312.24" width="7.42" height="65.24"/>
    <path class="st1" d="M293.85,287.17c-2.94,0-5.37,2.3-5.37,5.37s2.43,5.37,5.37,5.37,5.5-2.3,5.5-5.37-2.43-5.37-5.5-5.37Z"/>
    <path class="st1" d="M401.42,310.71c-19.7,0-34.54,14.71-34.54,34.15s14.84,34.15,34.54,34.15,34.41-14.71,34.41-34.15-14.84-34.15-34.41-34.15ZM401.42,371.85c-15.35,0-26.86-11.64-26.86-26.99s11.51-26.99,26.86-26.99,26.73,11.64,26.73,26.99-11.38,26.99-26.73,26.99Z"/>
    <path class="st1" d="M508.98,370.31c-4.35,0-7.03-2.81-7.03-7.16v-25.2c0-16.5-11-27.24-27.37-27.24-11.38,0-20.34,4.99-25.33,13.56v-12.02h-7.42v65.24h7.42v-37.09c0-13.56,9.34-22.51,23.15-22.51s22.13,8.83,22.13,22.26v24.56c0,8.06,4.73,12.79,13.05,12.79h2.56v-7.16h-1.15Z"/>
  </g>
  <g>
    <path class="st0" d="M308.43,337.83h7.6c3.88-5.6,8.79-10.35,14.02-13.85,5.99-4.01,12.4-6.36,18.16-6.36,6.78,0,11,3.33,11,8.44,0,4.48-3.22,8.49-9.34,11.77-4.84,2.6-11.5,4.74-19.82,6.32v6.61l14.07,16.1c5.12,7.42,12.79,10.62,19.32,10.62h3.45v-7.16h-2.56c-4.09,0-9.21-2.81-13.05-7.16l-13.18-14.2c10.49-2.66,18.28-6.45,23.09-11.12,3.75-3.64,5.69-7.82,5.69-12.41,0-8.83-7.04-14.71-17.52-14.71-6.36,0-13.06,2.19-19.31,6.02-5.19,3.18-10.08,7.49-14.2,12.66v-27.17h.02v-15.07h-7.44v50.69Z"/>
    <path class="st0" d="M494.69,269.96l-178.83-35.5-7.42-1.47v46.67h7.42v-37.63l178.83,35.5v33.56c2.81,1.55,5.29,3.62,7.3,6.1h.12v-45.75l-7.42-1.47Z"/>
  </g>
</svg>