<?xml version="1.0" encoding="UTF-8"?>
<svg id="Layer_1" xmlns="http://www.w3.org/2000/svg" version="1.1" viewBox="0 0 612 612">
  <!-- Generator: Adobe Illustrator 30.2.1, SVG Export Plug-In . SVG Version: 2.1.1 Build 1)  -->
  <defs>
    <style>
      .st0 {
        fill: #70757c;
      }

      .st1 {
        fill: #4d5258;
      }
    </style>
  </defs>
  <path class="st0" d="M343.21,223.97s-.07-.07-.1-.11l-16.07,7.69c-3.01-2.46-6.34-4.56-9.91-6.22l-2.53-18.58c-4.82-1.36-9.87-2.16-15.08-2.35l-9.9,17.15c-2.79.46-5.49,1.16-8.09,2.08l-12.62-12.62c-5.04,2.51-9.7,5.68-13.88,9.38l5.35,18.37c-2.24,2.82-4.16,5.89-5.71,9.18l-17.63-.59c-1.85,5.38-2.99,11.09-3.33,17.01l16.9,10.02c.43,3.2,1.19,6.31,2.23,9.27l-12.9,12.1c2.5,5.16,5.68,9.93,9.42,14.2l18.89-4.85c1.53,1.2,3.13,2.31,4.8,3.32l1.74,19.18c4.68,1.76,9.61,2.99,14.74,3.61l-.77-16.88-1.05-23.07c-9.14-3.76-15.58-12.75-15.58-23.25,0-13.88,11.25-25.13,25.13-25.13,1.75,0,3.46.18,5.11.52,6.46,1.33,12.01,5.15,15.62,10.4l19.43-10.39,14.63-7.83c-2.5-4.21-5.47-8.11-8.84-11.63Z"/>
  <polygon class="st0" points="363.06 239.72 314.39 267.02 304.2 272.74 304.2 272.81 304.2 284.42 304.2 284.49 304.2 339.18 304.2 350.86 314.39 345.14 314.39 333.46 314.39 301.98 314.39 278.78 314.39 278.7 363.06 251.4 363.06 251.48 363.06 306.16 349.58 313.72 349.58 282.24 349.58 281.74 322.2 297.1 321.79 297.33 321.79 297.83 321.79 309.26 321.79 340.99 322.2 340.76 331.98 335.27 331.98 323.59 331.98 303.55 331.98 303.3 332.39 303.07 339.39 299.14 339.39 299.39 339.39 319.44 339.39 319.51 339.39 330.95 339.39 331.12 373.25 313.14 373.25 311.95 373.25 245.76 373.25 245.69 373.25 234.08 373.25 234.01 363.06 239.72"/>
  <path class="st1" d="M393.99,230.17c-1.54-5.01-4.27-9.51-7.86-13.14-1.9-1.92-4.04-3.6-6.38-5l-.04-.03-.87-.5c-.06-.03-.11-.07-.17-.1l-59.02-33.71-1.14-.42c-1.91-.93-3.93-1.68-6.03-2.22-2.55-.65-5.23-1-7.99-1s-5.44.35-8,1.01c-2.35.6-4.59,1.48-6.7,2.57l-.13.05-.45.25c-.25.14-.5.27-.74.41l-57,31.85c-1.06.52-2.09,1.1-3.09,1.73l-.11.06-.06.05c-2.02,1.29-3.89,2.8-5.57,4.5-3.67,3.71-6.43,8.32-7.95,13.45-.58,1.98-.99,4.04-1.18,6.15v73.58c.16,1.73.45,3.43.87,5.07,1.44,5.58,4.34,10.57,8.26,14.54.8.81,1.65,1.58,2.53,2.31l8.73,5.08,54.27,31.37.09.04c2.64,1.52,5.52,2.7,8.57,3.42,2.39.57,4.88.88,7.45.88s5.16-.32,7.59-.91c2.41-.58,4.7-1.45,6.86-2.54l.13-.05.33-.18c.43-.23.85-.46,1.27-.71l56.91-31.77,3.05-1.74c2.08-1.34,3.99-2.9,5.7-4.67,3.64-3.75,6.37-8.38,7.84-13.54.68-2.37,1.09-4.85,1.2-7.41l.09-.56v-71.65c-.2-2.25-.63-4.43-1.27-6.51ZM222.63,261.66v-22.07c0-12.77,8.99-19.04,11.52-20.55l19.56-10.98,20.05-11.26,20.02-11.24c3.3-1.56,11.17-4.18,21.02-.14l20.45,11.56,20.27,11.46,18.09,10.23c3.25,1.98,12.51,8.68,12.51,20.94h0s0,22.56,0,22.56v45.54c-.17,3.55-1.55,13.29-11.2,19.43l-20.06,11.4-19.93,11.33-19.59,11.14c-9.79,5.1-19.89.74-22.23-.41l-19.71-11.47-19.55-11.37-16.77-9.76c-1.46-.58-2.83-1.31-4.13-2.16-7.55-5.16-9.73-12.37-10.32-16.71v-2.38"/>
  <g>
    <path class="st1" d="M116.47,421.86l-5.38,5.61v10.14h-9.22v-40.09h9.22v18.73l17.75-18.73h10.31l-16.61,17.87,17.58,22.22h-10.82l-12.83-15.75Z"/>
    <path class="st1" d="M158.83,421.86l-5.38,5.61v10.14h-9.22v-40.09h9.22v18.73l17.75-18.73h10.31l-16.61,17.87,17.58,22.22h-10.82l-12.83-15.75Z"/>
    <path class="st1" d="M211.22,429.02h-18.61l-3.55,8.59h-9.51l17.87-40.09h9.16l17.93,40.09h-9.74l-3.55-8.59ZM208.3,421.97l-6.36-15.35-6.36,15.35h12.71Z"/>
    <path class="st0" d="M226.9,417.56c0-11.74,8.93-20.39,21.02-20.39,5.84,0,11.11,1.95,14.66,5.84l-2.69,2.69c-3.26-3.32-7.27-4.75-11.85-4.75-9.68,0-16.95,7.1-16.95,16.61s7.27,16.61,16.95,16.61c4.58,0,8.59-1.43,11.85-4.81l2.69,2.69c-3.55,3.89-8.82,5.9-14.72,5.9-12.03,0-20.96-8.65-20.96-20.39Z"/>
    <path class="st0" d="M267.21,417.56c0-11.68,8.93-20.39,21.07-20.39s21.02,8.65,21.02,20.39-8.99,20.39-21.02,20.39-21.07-8.7-21.07-20.39ZM305.06,417.56c0-9.56-7.16-16.61-16.78-16.61s-16.89,7.05-16.89,16.61,7.22,16.61,16.89,16.61,16.78-7.04,16.78-16.61Z"/>
    <path class="st0" d="M352.29,397.52v40.09h-3.49l-25.77-32.53v32.53h-4.24v-40.09h3.49l25.83,32.53v-32.53h4.18Z"/>
    <path class="st0" d="M361.79,417.56c0-11.74,8.93-20.39,21.02-20.39,5.84,0,11.11,1.95,14.66,5.84l-2.69,2.69c-3.26-3.32-7.27-4.75-11.85-4.75-9.68,0-16.95,7.1-16.95,16.61s7.27,16.61,16.95,16.61c4.58,0,8.59-1.43,11.85-4.81l2.69,2.69c-3.55,3.89-8.82,5.9-14.72,5.9-12.03,0-20.96-8.65-20.96-20.39Z"/>
    <path class="st0" d="M434.85,433.94v3.67h-28.35v-40.09h27.49v3.67h-23.25v14.26h20.73v3.61h-20.73v14.89h24.11Z"/>
    <path class="st0" d="M476.19,411.26c0,8.53-6.18,13.69-16.38,13.69h-10.77v12.66h-4.24v-40.09h15c10.19,0,16.38,5.15,16.38,13.74ZM471.95,411.26c0-6.41-4.24-10.08-12.26-10.08h-10.65v20.04h10.65c8.02,0,12.26-3.67,12.26-9.97Z"/>
    <path class="st0" d="M491.81,401.18h-14.09v-3.67h32.41v3.67h-14.09v36.42h-4.24v-36.42Z"/>
  </g>
</svg>