<?xml version="1.0" encoding="UTF-8"?>
<svg id="Layer_1" xmlns="http://www.w3.org/2000/svg" version="1.1" viewBox="0 0 612 612">
  <!-- Generator: Adobe Illustrator 30.2.1, SVG Export Plug-In . SVG Version: 2.1.1 Build 1)  -->
  <defs>
    <style>
      .st0 {
        fill: #2b1e18;
      }

      .st1 {
        fill: #70757c;
      }

      .st2 {
        fill: #a3a2a2;
      }

      .st3 {
        fill: #5e924b;
      }

      .st4 {
        fill: #e1e1e1;
      }

      .st5 {
        fill: #4d5258;
      }
    </style>
  </defs>
  <g>
    <path class="st5" d="M505.5,279.12c-.42,3.5-.51,7.01-.22,10.52-.94,8.25-.14,16.53-.44,24.79-.08,2.14.44,4.32-.43,6.41-.34,5.02-.54,10.03-.21,15.06.17,6.69,1.4,13.33.84,20.05-1.88,22.41-.06,44.93-2.17,67.34-.64,6.84-1.03,7.07-7.9,7.4-14.91.71-29.83.41-44.75,1.06-9.72.43-19.56.66-29.33-.14-2.36-.09-4.73-.27-7.09-.24-35.98.4-71.96.93-107.94,1.23-33.43.28-66.85.33-100.28.48-6.76.03-13.52.1-20.27.11-1.81,0-3.63-.15-5.44-.23-1.04.46-2.14.41-3.24.39-20.64-.35-41.27.9-61.92.59-9.02-.14-10.02-1.48-7.44-10.84,2.76.95,1.69,4.32,3.67,5.72,1.54,1.28,3.41,1.18,5.23,1.2,23.37.14,46.7-.88,70.03-2,3.65-.17,7.3-.18,10.96-.18,33.06,0,66.13-.03,99.19.02,4.41,0,8.73-.61,13.09-1.05,2.75-.28,3.9-1.52,3.55-4.28-.37-2.9-.16-5.84-.48-8.75-.44-4.06-2.52-5.82-6.68-5.02-8.08,1.56-16.03,3.63-23.96,5.82-5.81,1.61-11.66,3.06-17.52,4.49-1.06.26-2.13.56-3.23.61-1.76.07-4.15.54-4.56-1.64-.35-1.82,1.94-2.43,3.42-2.94,11.24-3.83,22.37-7.98,33.87-11,3.53-.93,7.06-1.93,10.64-2.62,3.59-.69,5.62-2.39,5.08-6.28-.02-2.37.25-4.76-.63-7.05-1.34-3.6-1.29-7.49-2.28-11.53-13.23,3.79-25.77,9.18-38.8,13.08-3.95,1.18-7.78,3.28-12.16,2.08-.58-.3-.84-.77-.79-1.41,1.19-2.43,3.68-2.82,5.85-3.68,12.91-5.14,25.89-10.13,38.89-15.06,2.86-1.08,5.34-2.09,4.69-6.14-.67-4.21-3.32-4.66-6.7-4.67-13.95-.02-27.64,2.62-41.46,3.88-3.61.33-7.16,1.66-10.85.65-1.1-.74-1.77-1.68-1.37-3.08,3.64-4.24,8.92-3.89,13.64-4.31,12.68-1.13,25.3-2.87,38.01-3.59,3.22-.18,5.01-1.06,3.34-4.64-.46-1-.73-2.06-.42-3.18,1.33-2.01,3.09-1.39,4.85-.81,1.04.48,1.93,1.17,2.63,2.07,1.25,2.12,1.78,4.57,3.05,6.68.66,1.1,1.75,1.18,2.87,1.23,1.24.04,2.46.15,3.67.42,1.77.6,3.6.58,5.44.56,1.35.02,2.69.14,4.01.45,1.52.49,3.08.7,4.68.71,1.05.05,2.09.19,3.11.44,1.46.49,2.97.67,4.5.7,1.03.04,2.04.18,3.03.43.99.27,1.98.54,2.99.77.79.18,1.52.47,2.17.97,1.49,1.77,1.06,2.92-1.12,3.51-.8.12-1.58.06-2.37-.11-1.22-.34-2.46-.61-3.74-.72-.76-.08-1.51-.22-2.26-.41-1.73-.59-3.53-.52-5.33-.57-1.07-.03-2.11-.18-3.15-.42-1.78-.63-3.63-.63-5.49-.62-1.32-.02-2.63-.14-3.91-.44-1.18-.29-2.34-.67-3.57-.69-1.07-.02-2.16-.18-3.17.34-.97,1.09-.11,2.08.15,3.11.7,5.3,4.15,6.91,9.02,7.77,25.2,4.43,50.31,9.35,75.33,14.7,1.94.42,3.98.75,5.34,2.8-1.98,2.8-4.79,1.99-7.39,1.56-20.55-3.42-41.14-6.66-61.65-10.34-3.96-.71-7.95-1.19-11.91-1.87-1.64-.28-4.17-1.32-4.29,1.54-.12,2.68-1.14,6.04,2.41,7.69.83.39,1.79.41,2.7.36,27.08-1.26,53.41,4.65,79.97,8.37,18.3,2.56,36.7,4.11,55.15,1.61,14.65-1.99,26.74-9.36,37.9-18.58,3.14-2.6,3.68-6.17,4.02-9.84.29-3.09-.07-6.22.55-9.29,1.2-8.81,1.26-17.62.02-26.42-.22-.53-.34-1.08-.4-1.65,0-.56.12-1.1.32-1.62.09-.25.2-.5.29-.76.25-.77.42-1.57.5-2.38-.74-14.39,1.59-28.73.55-43.43-9.73,11.33-22.24,19.02-33.82,27.81-14.83,11.26-31.4,19.52-48.98,25.38-9.96,3.32-20.6,2.26-30.97,1.12-9.82-1.08-19.53-2.95-29.06-5.59-2.79-.77-5.78-1.42-6.92-4.71.59-2.91,2.6-3.23,5.04-2.78,11.58,5,23.96,5.98,36.27,6.65,8.11.44,16.37,1.06,24.45-.92,4.79-1.17,9.39-2.85,13.72-5.26,9.23-4.8,18.76-9.01,27.41-14.93,4.22-2.89,5.96-6.33,5.98-11.4.18-53.17.09-106.34.11-159.51,0-2.18.32-4.47-2.05-5.82-2.89-.82-5.84-.53-8.75-.53-91.47,0-182.94-.02-274.41,0-1.28,0-2.56.05-3.84-.05-12.43-.56-24.86-.04-37.29-.26-4.11-.07-5.41,2-5.39,5.79.07,11.34.09,22.68-.03,34.02-.03,2.39.78,6.48-2.03,6.49-2.95,0-1.94-4.07-2.1-6.46-.42-6,.67-12.07-.79-18.02-.41-8.45-1.46-16.91.24-25.34,1.08-.82,2.33-.92,3.63-.92,4.39-.02,8.78-.1,13.17-.13,29.63-.17,59.27-.05,88.9-.57,59.08-1.04,118.17-.78,177.25-1.3,1.99-.02,4.03.33,5.97-.42,3.05-3.03,6.92-1.75,10.41-1.72,5.59.04,11.27-.31,16.71,1.55,5.49.44,10.98.46,16.46.01,2.21-1.1,4.41-1.17,6.6.05.93.46,2.21.52,2.2,2.01,0,.73.02,1.46.02,2.19.43,37.96.83,75.91,1.31,113.87.09,6.74.53,13.48.81,20.22,1.87,1.93,1.58,4.39,1.6,6.74.06,7.68.06,15.36,0,23.04-.03,3.73,1.13,4.85,4.38,2.4,1.63-1.23,3.41-2.12,5.48-2.34.35.05.57-.1.66-.45.42-.21.77-.5,1.05-.87l.02-.02c.41-.32.76-.71,1.17-1.03l-.03.02c.35-.42.7-.84,1.22-1.06l-.07.06c.28-.53.64-.95,1.26-1.07l-.08.07c.14-.64.53-1.04,1.18-1.17l-.09.09c.18-.73.67-1.09,1.39-1.18.37.02.59-.15.66-.51.43-.14.72-.42.87-.84l.14-.14c.45-.19.77-.51.97-.96l.13-.13c.45-.2.78-.51.97-.96l.13-.13c.45-.2.77-.52.96-.97l.14-.14c.43-.15.7-.44.83-.87.73-.46,1.36-1,1.57-1.89.15-.6.57-1.01,1.02-1.4,1.24-.9,1.74-2.27,2.29-3.61.7-1.71,1.7-3.2,3.16-4.35.43-.21.81-.47,1.17-.79l-.05.04c.45-.38.75-.27.92.27-.18.3-.13.54.16.74.86,2.55.73,5.11.06,7.68Z"/>
    <path class="st5" d="M109.17,431.71c-1.11-.66-1.1-1.76-1.2-2.87-.14-1.58.47-3.26-.79-5.13-.08,1.28-.18,2.17-.19,3.06-.05,6.24-.19,6.05,5.95,6.04,19.93-.03,39.86-.05,59.78-.05,2.37,0,4.75.13,7.12.2-1.07.18-2.13.47-3.21.51-21.73.86-43.46,1.5-65.21,1.1-5.35-.1-5.52.14-5.46-5.43.33-31.43.64-62.86.96-94.29.01-1.1.01-2.19.08-3.29.17-2.62.27-2.76,2.73-3.26,5.03-1.02,10.12-1.43,15.26-1.27,1.09.03,2.19.12,3.28.11.81,0,1.37-.42,1.47-1.28.06-.54.11-1.09.1-1.64-.1-12.43-.19-24.85-.33-37.28-.01-1.26-.31-2.51-.48-3.77-2.25-1.93-1.97-4.61-1.98-7.12-.05-37.58-1.36-75.15-1.11-112.73.02-2.85-.5-5.92,1.88-8.27,1.28,1.13,1.01,2.66,1.01,4.09.03,5.3.04,10.6.05,15.9,0,1.26,0,2.51,0,3.79,1.4.03.93-.86,1.03-1.34.11-.53.03-1.09.03-1.64-.03-12.79-.07-25.59-.07-38.38,0-5.44.04-5.48,5.47-5.5,11.51-.04,23.03-.05,34.54-.04,1.46,0,2.91.18,4.37.28-1.56,3.15-4.58,2.58-7.19,2.63-9.13.16-18.26,0-27.39.09-6.21.06-6.76.51-6.78,6.42-.07,22.09-.81,44.22.24,66.27.79,16.62-.06,33.24.95,49.8,1.29,21.17.73,42.33.98,63.5.02,1.65.14,3.28.49,4.87.53,1.2,1.28,2.19,2.66,2.51.45.11.9.26,1.34.42.84.3,1.7.58,2.58.76.64.11,1.28.27,1.89.47.8.28,1.59.57,2.4.8.41.1.8.24,1.2.39.78.3,1.58.57,2.39.79.42.1.82.23,1.22.37.81.26,1.64.45,2.48.61.42.07.83.19,1.24.34.59.22,1.16.5,1.73.77.38.15.75.33,1.12.5.56.22,1.13.43,1.7.61.39.11.76.25,1.13.41.54.24,1.07.51,1.61.76.37.14.73.31,1.09.48.75.31,1.53.52,2.32.71.43.09.84.2,1.26.31.9.21,1.81.26,2.73.27,1.79,0,3.56-.05,5.35-.06,2.36-.07,4.73.25,7.05-.45.73-.21,1.49-.33,2.24-.41,1.18-.12,2.36-.22,3.5-.58.64-.19,1.3-.32,1.97-.42.83-.14,1.66-.3,2.46-.57.38-.15.77-.26,1.17-.36.77-.21,1.53-.44,2.28-.73.37-.15.74-.27,1.12-.37.75-.21,1.49-.44,2.22-.73.36-.15.73-.26,1.11-.37.75-.21,1.48-.45,2.2-.74.36-.15.74-.27,1.12-.37.76-.21,1.51-.46,2.24-.76.37-.15.75-.28,1.13-.38.57-.18,1.14-.36,1.69-.57.36-.18.74-.32,1.11-.48.56-.27,1.12-.53,1.69-.78.39-.17.8-.31,1.21-.43.62-.22,1.23-.43,1.84-.65.41-.17.83-.3,1.25-.42.62-.2,1.24-.4,1.85-.61.39-.16.8-.28,1.21-.39.8-.22,1.58-.46,2.35-.77.38-.16.76-.28,1.15-.39.57-.18,1.15-.36,1.71-.57.37-.17.74-.32,1.11-.48.56-.27,1.11-.53,1.68-.77.38-.17.78-.3,1.18-.42.59-.2,1.18-.4,1.76-.61.38-.16.77-.27,1.17-.38.77-.21,1.53-.44,2.27-.74.37-.15.75-.27,1.13-.37.77-.21,1.53-.47,2.28-.78.38-.16.77-.28,1.16-.4.55-.18,1.1-.35,1.63-.54.28-.13.59-.25.87-.37.24-.11.4-.31.43-.59-.15-.25-.32-.44-.58-.57-.29-.13-.56-.27-.85-.41-.32-.13-.62-.28-.92-.44-.49-.23-.97-.46-1.46-.69-.36-.14-.7-.29-1.05-.45-.56-.19-1.12-.36-1.69-.52-.4-.1-.78-.23-1.16-.38-.58-.2-1.17-.41-1.76-.59-.4-.11-.79-.25-1.17-.42-.56-.24-1.12-.52-1.67-.78-.38-.14-.75-.31-1.13-.47-.58-.2-1.16-.4-1.75-.57-.41-.1-.8-.24-1.19-.39-.79-.3-1.59-.56-2.4-.79-.42-.11-.83-.28-1.23-.46-1.19-.6-2.35-1.26-3.17-2.36-.57-.94-.82-2.01-1.24-3.02-.19-.39-.37-.79-.55-1.18-.33-.59-.68-1.16-1.03-1.74-.49-.86-.8-1.75-.44-2.75.63-1.01,1.54-1.2,2.62-.92,3.25,2.71,5.07,7.1,9.69,8.18,1.18.52,2.21.51,2.82-.87.43-1.98,0-4.05.62-5.97.64-1.96,1.59-3.49,3.82-1.44.39.76.49,1.57.43,2.41-.37,2.52-1.36,5.09.55,7.44,8.78,7.15,18.67,9.91,29.85,7.62,2.13-.44,4.3-.63,6.42-1.04,1.63-.35,1.9-2.28,3.3-2.9,1.51-.18,2.75.44,3.88,1.34,2.11,1.88,4.73,1.66,7.22,1.62,8.52-.14,16.94,1.38,25.44,1.46,1.87.41,3.71,1.06,5.68.7.58.03,1.09.23,1.53.61.42.82.38,1.63,0,2.45-.46.75-1.1,1.3-1.9,1.68-5.24,1.14-10.53.98-15.75.14-6.71-1.08-13.5,0-20.19-1.14-1.55-.27-2.92.32-3.5,1.96-.67,1.85.17,3.19,1.65,4.21,3.16,2.17,6.56,3.96,9.79,6.01,5.07,3.22,10.37,6.12,14.81,10.27.87,1.24,1.68,2.5.67,4.05-1.51-.67-3.04-1.27-4.75-1.03-2.89.3-4.73-1.77-6.73-3.22-11.36-8.23-23.87-14.13-37-18.92-3.24-1.18-6.33-1.35-9.65-.5-12.25,3.12-24.08,7.52-35.88,11.99-4.96,1.88-10.01,3.5-15.06,5.12-13.87,4.45-27.43,5.06-41.08-1.46-7.05-3.37-14.76-5.37-22.46-7.1-4.73-1.07-9.4-.97-14.14-.04-3.4.66-5.09,2.38-5.05,5.96.06,6.58.04,13.17,0,19.75-.01,3,1.26,4.81,4.21,5.51,24,5.67,47.72,13.07,72.55,14.08,17.39.71,33.49-4.78,48.65-13.1,2.12-1.16,4.12-3.38,6.96-1.57.37.75.74,1.49,1.11,2.24.03,2.31-1.88,2.96-3.4,3.85-20.33,11.91-41.82,17.05-65.61,13.7-18.57-2.62-36.44-7.75-54.57-11.99q-9.18-2.14-10.45,6.96c-1.97,14.21-1.83,14.55,12.06,16.18,11.1,1.31,22.03,3.43,32.83,6.24,18.31,4.76,37.06,7.4,55.81,7.88,16.39.42,32.67-3.33,48.54-7.88,13.03-3.74,26.22-6.67,39.69-8.2,3.69-.42,7.19-1.22,10.02-3.83,1.67,2.11.7,4.54.79,6.84-1.35,1.34-3.02,2.11-4.87,2.28-26.14,2.38-50.85,11.83-76.75,15.51-17.27,2.45-34.23.61-51.26-1.68-17.78-2.39-34.81-8.4-52.62-10.64-3.27-.41-6.54-.64-9.82-.83-3.59-.21-4.9,1.41-4.88,4.85.04,6.76.05,13.52-.01,20.28-.02,2.53.27,5.17-1.59,7.31Z"/>
    <path class="st2" d="M312.38,317.8c-10.23-.49-20.46-.98-30.69-1.46-.73-.03-1.46-.02-2.19-.07-2.19-.14-2.19-.15-2.33-3.19-.6-3.75,2.05-5.59,4.46-7.54,8-6.46,17.13-11.1,26.18-15.83,6.47-3.38,12.96-6.7,19.08-10.7,6.87-4.48,12.48-10.02,15.77-17.7,1.22-2.85,2.96-5.47,3.96-8.41,3.39-9.95,7.46-19.64,11.54-29.7-1.39.49-1.84,1.34-2.51,1.91-7.23,8.89-17.23,13.8-27.11,18.88-9.88,5.08-20.07,9.54-29.56,15.37-13.05,8-22.74,18.49-26.48,33.86-.83,3.43.82,7.44-2.32,10.31-5.8-4.25-7.89-10.95-9.82-17.15-10.88-34.87-6.86-67.26,17.13-96.1,3.61-4.34,7.94-8.05,10.98-12.86,9.47-7.52,19.64-13.96,31.01-18.1,27.15-9.88,54.29-9.57,81.24.97,10.99,6.36,22.53,11.63,31.73,21.05,14.13,14.47,24.19,30.91,28.93,50.58.23.82.36,1.65.43,2.5.07,2.29.06,4.59.87,6.79.45,2.41.32,4.84.37,7.27-.01,2.77-.01,5.54,0,8.31-.04,2.1.05,4.21-.37,6.29-2.67,13.37-5.81,26.5-12.38,38.74-5.35,9.97-12.6,18.09-20.63,25.74-6.04,4.09-12.89,5.96-20.01,6.53-8.54.68-17.11.42-25.63-.82-5.95-.86-11.91-1.61-17.84-2.6-3.04-.51-6.02-1.44-9.02-2.17-1.35-.33-2.26-1.11-2.62-2.49-.54-2.3,1.26-3.3,2.61-4.37,10.57-8.44,19.62-18.46,29.04-28.08,7.03-7.17,16.13-10.4,24.77-14.56,4.42-2.13,9.15-3.6,14.66-6.64-4.18,1.06-6.95,2.42-9.98,2.61-1.3.08-2.57.32-3.82.72-.8.22-1.6.35-2.43.41-12.37.58-24.87.78-36.92,3.5-16.3,3.69-30.56,11.49-41.52,24.69-3.93,4.73-8.14,9.33-13.35,12.81-.37.19-.74.37-1.11.56-1.37.62-2.75.5-4.14.11Z"/>
    <path class="st1" d="M340.76,360.55c-1.08-.07-2.16-.14-3.24-.22-1.32-1.1-3.09,0-4.44-.92-1.06-.07-2.13-.14-3.19-.21-1.35-1.03-3.11,0-4.49-.89-1.42-.08-2.85-.15-4.27-.23-1.74-1.09-3.85.12-5.61-.88-1.44-.06-2.87-.13-4.31-.19-.94-.91-2.47-.04-3.37-1.09-.43-2.53-2.26-4.65-2.17-7.34,3.98-3.42,9.27-3.62,13.84-5.6,7.63-3.3,15.08-6.95,22.53-10.58.42-.22.86-.4,1.29-.58.39-.2.8-.36,1.2-.52.55-.24,1.12-.47,1.66-.74.31-.21.64-.41.94-.63.28-.26.57-.5.85-.75.14-.13.29-.25.43-.38.3-.25.63-.45.98-.6.41-.09.74.04.99.37,2.29,1.52,4.75,2.61,7.44,3.27,9.03,2.22,18.16,4.01,27.37,5.25,4.87.66,9.82,1.18,14.72,1.06,9.31-.24,18.52-1.36,27.07-5.6,11.94-5.92,24.18-11.3,35.08-19.1,4.15-2.97,8-6.39,12.24-9.21,9.03-6.02,17.06-13.14,24.45-21.04.73-.78,1.37-1.72,2.51-2.01,1.19,3.91.99,10.25.07,24.19-.53,8.01-.28,16.08-.38,24.12-.26.46-.65.83-.94,1.27l-.05.05c-.41.29-.76.64-1.05,1.05v.03c-4.79,8.03-12.24,13.41-19.25,19.2-16.62,13.72-36.33,19.64-57.19,23-13.97,2.25-27.1-2.29-40.59-3.89-7.23-.86-14.37-2.34-21.65-2.98-5.47-.48-10.8-1.8-15.1-5.63-.69-.07-1.39-.14-2.08-.21-.66-.56-1.59-.4-2.29-.85Z"/>
    <path class="st1" d="M244.16,362.63c-1.74.02-3.08,1.03-4.5,1.83-1.43.81-2.85,1.63-4.26,2.48-8.56,5.17-18.15,7.44-27.67,9.97-6.6,1.75-13.24,2.49-20.02,2.1-3.82-.22-7.58-.92-11.39-1.27-5.77-.52-11.47-1.89-17.22-2.71-9.04-1.3-17.69-4.19-26.54-6.28-5.49-1.3-10.97-2.62-16.46-3.93-.89-.21-1.78-.39-2.65-.65-3.16-.95-3.24-.96-3.24-4.08.01-8.22.07-16.45.19-24.67.05-3.39.69-4.19,4.06-4.65,2.7-.37,5.36-.98,8.12-1.14,6.01-.35,11.57,1.44,17.1,3.2,8.34,2.66,16.59,5.6,24.81,8.61,4.27,1.57,8.62,1.8,12.95,1.16,7.39-1.09,14.71-2.58,21.77-5.14,10.81-3.91,21.62-7.81,32.49-11.52,5.17-1.76,10.49-3.06,15.73-4.61,1.81-.53,3.58-.63,5.36.07,6.45,2.52,12.93,4.97,19.23,7.88,8,3.68,15.33,8.43,22.5,13.46,1.48,1.04,2.85,2.25,4.27,3.38.85,1.59,1.71,3.18,2.55,4.78.51.97.97,1.95.93,3.09-.03.81-.37,1.51-1.14,1.62-1.43.21-2.89.27-4.33.29-6.55.08-13.01,1-19.47,1.9-.72.1-1.44.21-2.16.24-7.62.26-15.16,1.36-22.73,2.19-2.94.32-5.7,1.01-8.3,2.39Z"/>
    <path class="st2" d="M310.19,387.8c-.03.55-.1,1.1-.09,1.64.03,1.46-.47,2.46-2.07,2.69-2.35.33-4.68.8-7.04,1.06-13.83,1.52-27.37,4.41-40.71,8.37-9.46,2.81-19.13,4.71-28.93,5.97-4.89.63-9.76,1.33-14.66,1.91-1.63.19-3.3.27-4.93.13-5.09-.43-10.18-.89-15.24-1.54-3.8-.49-7.63-.85-11.42-1.24-10.94-1.1-21.63-3.34-32.23-6.05-10.98-2.82-22.13-4.57-33.35-6-2.71-.34-5.48-.22-8.22-.36-1.27-.07-1.99-.78-2.02-2.1,0-.37-.02-.73-.03-1.1-.37-8.04.67-16.02.91-23.81,1.21-1.17,2.32-.6,3.3-.39,10.9,2.29,21.71,4.96,32.42,8,8.98,2.55,18.15,4.09,27.41,5.16,5.25.61,10.51,1.25,15.76,1.82,5.69.62,11.32.12,16.85-1.3,6.19-1.59,12.37-3.24,18.53-4.95,1.75-.49,3.49-1.14,5.08-2.01,5.28-2.88,10.5-5.88,15.74-8.84,5.53-1.29,11.15-1.85,16.79-2.36,3.82-.34,7.63-.81,11.42-1.36,9.06-1.29,18.16-1.97,27.32-1.92.18,0,.37-.01.55,0,3.24.07,3.63.43,4.19,3.74.3,1.8.68,3.59.96,5.39.3,1.91-.05,2.48-2.03,3.24-10.25,3.9-20.51,7.77-30.75,11.68-5.29,2.02-10.57,4.06-15.82,6.15-.99.39-2.09.72-2.71,1.74l-.05-.07c3.33.04,6.42-1.05,9.53-2.02,8.31-2.58,16.6-5.24,24.74-8.35,5.25-2,10.57-3.84,16.06-5.1,1.91-.44,2.67.04,3.03,1.98.62,3.38,1.15,6.79,1.71,10.18Z"/>
    <path class="st2" d="M341.84,363.51c.68.09,1.36.17,2.04.26,16.29,3.92,33.03,5.21,49.41,8.54,33.49,6.81,62.64-2.56,88.91-23.25,4.32-3.4,8.3-7.14,12.18-11.02,1.29-1.29,2.82-2.83,4.74-2.17,2.33.81,1.32,3.16,1.29,4.82-.11,6.56.55,13.13-.36,19.67-.49,5.09,0,10.24-.93,15.32-.28,1.52-.71,2.73-1.91,3.76-10.68,9.16-22.33,16.55-36.23,19.74-3.72.85-7.54,1.45-11.35,1.7-10.6.7-21.17.25-31.76-.64-16.41-1.37-32.6-4.13-48.78-6.93-6.68-1.16-13.37-1.77-20.1-2.4-10.4-.96-20.79-1.35-31.22-1.12-.37,0-.73,0-1.1-.02-1.25-.05-2.13-.61-2.21-1.92-.22-3.46-.11-6.94-.8-10.37-.19-.93.73-1.61,1.8-1.42,8.63,1.48,17.26,2.99,25.89,4.46,9.89,1.68,19.78,3.34,29.68,5.01,8.09,1.37,16.17,2.76,24.26,4.1,1.53.26,3.1.55,5.32-.14-6.14-1.36-11.62-2.65-17.13-3.77-14.13-2.86-28.26-5.69-42.41-8.45-8.6-1.68-17.21-3.3-25.85-4.74-2.58-.43-3.92-1.44-4.21-4.09-.22-1.98-.83-3.93-1.27-5.89-.31-1.12-.58-2.24.29-3.26,1.38.04,2.76.08,4.14.12,1.07.7,2.4.17,3.49.76,1.42.1,2.84.2,4.27.3,1.75,1.08,3.85-.1,5.62.87,1.06.07,2.12.14,3.18.21,1.73,1.13,3.86-.12,5.61.92.71.05,1.42.1,2.13.15.95.91,2.35.18,3.35.9Z"/>
    <path class="st1" d="M354.54,409.53c-4.36-2.02-8.42-2.16-12.29-2.86-7.71-1.4-15.49-2.41-23.25-3.46-1.77-.24-2.58-1.14-2.97-2.68-.18-.7-.27-1.43-.34-2.16-.5-4.64-.22-4.93,4.48-5.04,9.7-.22,19.33.61,28.94,1.81.72.09,1.45.23,2.18.24,9.73.17,19.15,2.31,28.67,4.05,8.95,1.63,17.95,3.18,27.06,3.96,8.54.73,17.05,1.86,25.63,2.09,6.94.18,13.87.26,20.75-1.08,12.81-2.49,25.27-5.82,35.97-13.82,2.05-1.53,4.19-2.93,6.32-4.35.73-.49,1.52-1.29,2.44-.89,1.3.57.72,1.9.75,2.89.07,2.56,0,5.12-.02,7.68-.06,8.41-.12,16.82-.19,25.23,0,1.09-.03,2.19-.11,3.28-.08,1.02-.7,1.68-1.7,1.83-.9.13-1.82.12-2.73.13-2.38.02-4.75,0-7.13.03-23.93.38-47.88.33-71.79,1.27-28.32,1.11-56.64.43-84.96.94-2.74.05-5.47.23-8.2.37-2.02.11-2.76-.37-3.04-2.24-.43-2.89-.82-5.78-1.17-8.68s-.62-5.8-.91-8.71c-.2-1.97.57-2.9,2.44-2.52,3.25.66,6.55.58,9.81.92,4.71.5,9.39,1.33,14.11,1.71,3.43.28,6.91.05,11.25.05Z"/>
    <path class="st1" d="M109.17,431.71c-.02-10.42-.04-20.84-.05-31.27,0-.36.03-.73.08-1.09.21-1.55,1.08-2.37,2.52-2.28,3.83.25,7.7.26,11.47.88,11.69,1.92,23.33,4.04,34.79,7.19,5.95,1.64,12.12,2.52,18.23,3.49,7.38,1.17,14.77,2.46,22.21,2.97,9.09.63,18.22,1.15,27.34-.43,8.8-1.52,17.63-2.84,26.39-4.6,5.56-1.12,10.93-2.9,16.37-4.41,7.39-2.04,14.86-3.62,22.48-4.59,5.96-.76,11.88-1.9,17.81-2.85.71-.11,1.45-.07,2.18-.1-.24,2.31,1.64,4.52.3,6.87-2.11.52-4.21,1.07-6.33,1.54-14.46,3.19-28.38,8.14-42.37,12.87-1.71.58-3.41,1.22-5.32,1.9,1.63,1.13,3.03.43,4.41.08,11.3-2.88,22.58-5.81,33.89-8.66,3.53-.89,7.1-1.64,10.68-2.34,1.42-.28,2.9-.3,4.35-.32,1.46-.01,2.42.82,2.7,2.23.39,1.96.73,3.94.94,5.93.35,3.44.17,6.92.86,10.36.55,2.74-.2,3.3-3.28,3.52-16.59,1.17-33.22.75-49.83.93-23.75.25-47.5-.09-71.24.37-13.68.27-27.39.31-41.05,1.05-13.51.74-27.02.48-40.52.73Z"/>
    <path class="st5" d="M343.97,332.88c-10.43,5.68-21.16,10.68-32.45,14.43-1.92.64-3.82,1.2-5.85,1.28-.7-.47-1.41-.94-2.11-1.42-.48-1.15-.97-2.29-1.46-3.44-.36-.76-.49-1.53-.06-2.32,18.88-14.09,35.79-30.75,55.93-43.22,11.35-7.03,22.81-13.88,35.17-19.05.69-.26,1.39-.47,2.09-.7.67-.24,1.35-.42,2.03-.62.66-.24,1.33-.48,1.98-.74.44-.2.9-.36,1.36-.51,3.01-1.12,6.3-.83,9.34-1.81.65-.07,1.29-.15,1.94-.22,1.12-.61,2.5-.01,3.59-.79,3.5-1,7-1.99,10.5-3,.81-.23,1.43-.04,1.77.74.38.89-.28,1.44-.88,1.73-4.09,2-8.12,4.18-12.35,5.83-5.79,2.26-11.36,4.91-16.87,7.76-3.94,2.04-7.45,4.54-10.55,7.68-4.86,4.94-9.79,9.81-14.62,14.78-4.58,4.71-9.18,9.38-14.45,13.34-1.31.99-2.6,2-3.49,3.42-1.81.13-3.21.96-4.16,2.51-.23,0-.45.02-.67.05-.52.25-.93.62-1.31,1.04l.05-.04c-.4.36-.75.76-1.19,1.07l.03-.03c-.54.74-1.63.51-2.17,1.24l.08-.07c-.42.34-.81.72-1.23,1.05Z"/>
    <path class="st5" d="M500.05,360.36c0-6.21.02-12.43.03-18.64,0-1.28.01-2.56-.05-3.84-.05-1.08-1.09-1.63-1.88-.99-1.14.92-2.25,1.87-3.29,2.9-9.3,9.16-19.76,16.76-30.95,23.44-3.96,2.36-8.23,3.95-12.51,5.51-8.07,2.95-16.36,5.32-24.85,6.51-5.71.81-11.48,1.44-17.41.84-12.92-1.31-25.57-4-38.3-6.3-1.81-.33-3.59-.75-5.41-.66-4.85.23-9.45-.89-13.92-2.51-2.55-.92-5.33-1.27-7.63-2.86q1.86-.43,1.26-2.16c1.56-.16,2.77.79,4.13,1.3,4.45,1.66,8.94,2.95,13.79,3.06,3.62.08,7.24.7,10.83,1.3,9.69,1.62,19.32,3.56,29.04,4.98,4.65.68,9.35,1.8,14.13,1.1,4.14-.61,8.26-1.3,12.39-2.01,8.65-1.49,17.01-4.03,25.23-7.03,7.8-2.84,14.56-7.49,21.25-12.26,6.71-4.79,12.65-10.45,18.48-16.24,1.41-1.4,2.58-3.11,4.52-3.9,1.06,1.21,2.21,2.24,2.18,4.17-.13,7.28-.07,14.56-.09,21.84,0,.94-.26,1.79-.95,2.46Z"/>
    <path class="st5" d="M327.56,361.33c-1.93.07-3.9.43-5.62-.87,1.92.02,3.94-.69,5.62.87Z"/>
    <path class="st5" d="M336.35,362.46c-1.93.07-3.9.4-5.61-.92,1.91.04,3.95-.69,5.61.92Z"/>
    <path class="st5" d="M315.51,357.2c1.92-.04,3.92-.54,5.61.88-1.91-.04-3.94.7-5.61-.88Z"/>
    <path class="st5" d="M325.39,358.32c1.58-.12,3.19-.42,4.49.89-1.56.02-3.21.52-4.49-.89Z"/>
    <path class="st5" d="M333.08,359.41c1.57-.1,3.18-.43,4.44.92-1.54-.02-3.19.48-4.44-.92Z"/>
    <path class="st5" d="M307.84,355.93c1.18.19,2.47.05,3.37,1.09-1.27.09-2.58.3-3.37-1.09Z"/>
    <path class="st5" d="M341.84,363.51c-1.24.16-2.42.09-3.35-.9,1.22-.09,2.46-.24,3.35.9Z"/>
    <path class="st5" d="M317.67,360.17c-1.27.24-2.48.19-3.48-.76,1.25-.16,2.51-.33,3.48.76Z"/>
    <path class="st5" d="M310.05,359.29c-.09,1.09-.19,2.17-.28,3.26-1.16-1.81-1.16-1.83.28-3.26Z"/>
    <path class="st5" d="M340.76,360.55c.93-.15,1.72.07,2.29.85-.91.1-1.72-.06-2.29-.85Z"/>
    <path class="st0" d="M498.92,331.86c.13-.57.48-.92,1.05-1.05-.35.35-.7.7-1.05,1.05Z"/>
    <path class="st0" d="M500.02,330.76c.31-.42.62-.85.94-1.27-.31.42-.62.85-.94,1.27Z"/>
    <path class="st5" d="M354.99,224.13c1.34-1.75,3-3.09,5.12-4.37.67,2.48-.6,4.15-1.31,5.91-2.67,6.61-5.6,13.12-8.04,19.81-1.82,4.99-3.87,9.86-5.86,14.77-3.58,8.82-9.48,15.47-17.66,20.28-5.99,3.52-11.96,7.06-18.14,10.25-4.38,2.26-8.76,4.55-13.1,6.9-4.51,2.44-8.75,5.28-12.79,8.46-2.48,1.95-4.55,4.16-6.02,6.95-1.18.18-2.14-.46-3.18-.84-.21-.13-.42-.26-.63-.39-.19-.72-.39-1.44-.23-2.2.16-.74.39-1.47.64-2.19,4.18-10.94,11.5-19.36,20.86-26.2,7.09-5.18,14.1-10.44,22.12-14.16,8.49-3.93,13.81-11.18,19.17-18.38,1.96-2.64,3.55-5.54,5.7-8.04.46-.6.91-1.2,1.33-1.83.26-.44.55-.85.85-1.26,3.32-4.83,7.67-8.8,11.18-13.47Z"/>
    <path class="st5" d="M252.85,243.87c-1.12,4.57-2.26,9.13-3.35,13.7-1.11,4.61-2.65,9.05-4.8,13.29-4.6,9.08-8.24,18.56-11.42,28.21-.68-.66-1.63-1.38-1.99-.01-.4,1.54-.24,3.22-.33,4.84-.07,1.24.19,2.57-.87,3.57-1.36-1.1-1.25-2.77-1.64-4.25.17-4.95-.89-9.79-1.71-14.61-.66-3.92-.47-7.6.61-11.32,6.37-21.91,10.63-44.29,15.06-66.64.92-4.66,2.01-9.24,3.57-13.71.66-1.56,1.72-3.1.24-4.78,1.55-3.99,2.69-8.16,5.32-11.85-.21,5.71-.58,11.42-.57,17.13,0,6.03.37,12.05.57,18.08.19,5.85.68,11.67,1.56,17.46-.02,2.96-.03,5.93-.05,8.9.55.73.44,1.39-.19,2.01Z"/>
    <path class="st5" d="M193.54,214.49c2.47,5.89,5.85,11.28,8.97,16.83,5.63,10.01,10.48,20.41,12.54,31.81.94,5.18,1.27,10.47,1.76,15.72.27,2.91,0,5.82-.47,8.7-.61,3.8-.71,7.59.24,11.36-.94.01-1.71.34-2.18,1.19-2.22.22-3.25-1.42-4.25-2.89-3.38-4.99-6.3-10.18-7.52-16.21-3.77-18.52-8.54-36.84-11.11-55.61-.25-1.81-.44-3.61-.49-5.42-.01-1.14-.17-2.27-.49-3.37-.1-.56-.14-1.12-.16-1.69.47-1.16-.02-3.08,2.24-2.82h-.02c.54.71.43,1.68.94,2.4Z"/>
    <path class="st1" d="M302.57,341.45c-.16.76-.31,1.52-.47,2.28-8.27-5.6-16.73-10.89-25.35-15.93-2.75-1.61-2.74-1.62-2.06-4.65.94-4.22,1.84-5.04,5.83-4.15,2.71.61,5.4.78,8.12.69,7.65-.24,15.19,1.54,22.84,1.19,1.63-.07,3.27-.01,4.91-.01.15.21.3.41.45.62-2.3,8.41-7.99,14.39-14.27,19.96Z"/>
    <path class="st2" d="M192.34,219.06c-.14,3.86.97,7.57,1.53,11.33,1.02,6.82,2.62,13.54,3.67,20.35,1.16,7.58,3.74,14.8,5.19,22.29.21,1.07.58,2.12.69,3.19.94,9.22,5.14,16.92,10.98,23.87.42.69.83,1.38,1.25,2.08.37.37.63.8.78,1.29.1.3.21.6.33.9-1.15,2.88-2.85.71-3.63.04-7.33-6.3-14.79-12.76-17.56-22.43-2.98-10.41-8.23-20.62-7.17-31.64,1.04-10.9.02-21.82,1.43-32.64.11-.83-.5-2.46,1.5-1.83-.04.22-.01.43.1.63.68.72.58,1.72.91,2.56Z"/>
    <path class="st5" d="M229.76,303.07c.11,1.47.22,2.94.33,4.4-.95,1.4-2.05,1.57-3.32.4.77-.34,1.89-.4,1.26-1.77-1.78-3.83-2.54-7.99-3.73-12.01-2.31-7.81-2.69-15.86-2.63-23.87.05-6.37.23-12.78,1.23-19.12,1.62-10.21,5.01-19.8,9.86-28.88,3.03-5.66,5.46-11.53,6.98-17.76h0c.69-.57.46-1.52.92-2.18,2.05-3.27,3.12-7.08,5.55-10.14.23.26.41.62.7.78,1.72.94,1.74.92.58,2.88-.99,1.12-1.67,2.5-1.99,3.87-3.7,15.57-12.02,29.35-17.08,44.39-1.61,4.77-1.84,9.73-2.17,14.58-1,14.94-.76,29.86,3.5,44.43Z"/>
    <path class="st5" d="M409.96,274.77c-3.24,1.55-6.72,2.35-10.17,3.24-9.39,1.95-19.1,1.23-28.47,3.59-19.69,4.97-34.07,17.51-46.91,32.35-1.88,2.18-3.25,4.88-6.16,6.02-.25-.13-.5-.26-.74-.38.04-.82.08-1.64.11-2.46.22-.49.34-1.06.68-1.45,6.51-7.4,12.98-14.88,20.54-21.21,10.69-8.95,23.15-14.43,36.8-17.12,3.38-.66,6.88-.81,10.33-1.01,8-.45,15.93-1.83,23.97-1.58Z"/>
    <path class="st5" d="M191.33,215.87c-.94.54-.96,1.45-.96,2.37.03,4.39.08,8.77.07,13.16-.02,5.1,0,10.17-.85,15.28-.74,4.45-.57,9.05.83,13.55,1.89,6.08,3.48,12.27,5.09,18.44,1.46,5.6,3.93,10.53,8.21,14.58,3.05,2.88,5.73,6.14,8.65,9.16.88.91,1.96,1.62,3.01,2.34.49.34,1.03.13,1.39-.39,1.24.79,1.06,2.05,1.04,3.24-2.92-.08-4.79-2.36-7.23-3.44-2.09-2.15-4.18-4.29-6.27-6.43-.16-.41-.44-.72-.82-.92l-.07-.09c-.29-.42-.61-.8-.98-1.14h0c-.38-.38-.79-.72-1.05-1.21l.06.07c-.54-.32-.93-.77-1.1-1.39-.03-.37-.21-.64-.54-.82-.08-.42-.33-.7-.73-.84l-.1-.15c-.27-.43-.57-.83-.91-1.19l.02.03c-.5-.41-.92-.87-1.01-1.55.06-.3-.04-.51-.31-.65-.33-.48-.73-.92-.79-1.54.09-.29,0-.5-.26-.65-.54-.68-.38-1.65-.93-2.33.09-.37,0-.69-.24-.98-.43-.74-.36-1.66-.83-2.39-.13-.67-.26-1.34-.39-2.01-.19-.53-.64-.95-.64-1.56-.11-.57-.21-1.14-.32-1.72-.71-1.01.02-2.4-.9-3.35.1-.38.03-.73-.2-1.04-.44-.77-.42-1.69-.81-2.48-.12-.64-.24-1.28-.36-1.92-.35-.74-.28-1.63-.79-2.32.09-.36.02-.68-.22-.96-.46-.79-.46-1.72-.81-2.54-.13-.62-.26-1.25-.39-1.87-.32-.81-.38-1.7-.72-2.5.27-1.25.29-2.49-.02-3.74,1.13-2.56-.19-5.39.85-7.96.08-1.36.17-2.71.25-4.07,1.25-7.02-.31-14.15.84-21.18.32-1.1.41-2.21.13-3.33-.66-.7-.52-1.32.19-1.89,1.26-1.46.21-3.58,1.46-5.11,1.66.72,1.7,2.17,1.74,3.63-1.42.92-1.05,2.46-1.29,3.79Z"/>
    <path class="st5" d="M232.96,301.15c-.07,2.38-.14,4.75-.2,7.13-1.03-2.41-1.14-4.79.2-7.13Z"/>
    <path class="st5" d="M272.7,316.14c.07-1.33.15-2.66.22-3.99.24-.07.48-.14.71-.21,0,0,.36.3.36.3-.29,1.35.45,3.04-1.3,3.9Z"/>
    <path class="st5" d="M312.38,317.8c1.37-.45,2.76-.33,4.14-.11-1.36,1.1-2.74.98-4.14.11Z"/>
    <path class="st5" d="M316.39,320.88c.37-.43.75-.86,1.12-1.29,0,0,.3.26.3.26.14.79-.22,1.13-.99,1.1l-.43-.08Z"/>
    <path class="st5" d="M216.43,303.48c-.55-.26-.79-.7-.78-1.29.52.28.85.66.78,1.29Z"/>
    <path class="st5" d="M354.99,224.13c.12,1.17-.38,2.12-1.19,2.88-2.78,2.6-4.88,5.71-6.9,8.9-.66,1.04-1.69,1.83-2.55,2.74-6.19,1.36-11.3,4.97-16.72,7.94-9.28,5.07-18.72,9.86-27.86,15.18-13.05,7.6-22.03,18.32-25.86,33.11-.51,1.96-.75,3.92-.94,5.93-.16,1.69.38,3.8-1.99,4.58-.19-.66-.39-1.33-.58-1.99-.7-6.56,1.41-12.5,3.61-18.57,2.45-6.75,6.5-12.05,11.64-16.89,5.77-5.43,12.12-9.95,19.12-13.57,10.69-5.54,21.37-11.11,32.17-16.42,5.15-2.53,9.83-5.49,13.6-9.87,1.28-1.49,2.51-3.16,4.46-3.94Z"/>
    <path class="st5" d="M415.49,273.76c-1,1.18-2.26,1.12-3.59.79,1.06-.88,2.27-1.07,3.59-.79Z"/>
    <path class="st4" d="M240.67,202.29c.08.89-.23,1.61-.92,2.17-.07-.88.12-1.66.92-2.17Z"/>
    <path class="st5" d="M345.13,331.89c.46-.88,1.28-1.12,2.17-1.24-.49.82-1.29,1.09-2.17,1.24Z"/>
    <path class="st1" d="M343.97,332.88c.41-.35.82-.7,1.23-1.05-.41.35-.82.7-1.23,1.05Z"/>
    <path class="st1" d="M347.27,330.69c.4-.36.79-.71,1.19-1.07-.4.36-.79.71-1.19,1.07Z"/>
    <path class="st1" d="M348.41,329.66c.43-.35.87-.69,1.31-1.04-.43.35-.87.69-1.31,1.04Z"/>
    <path class="st5" d="M255.13,391.1c-.42.26-.81.59-1.26.76-.23.08-.57-.13-.86-.2.22-.13.42-.33.65-.37.5-.08,1.02-.09,1.53-.12,0,0-.05-.07-.05-.07Z"/>
    <path class="st2" d="M316.82,320.95c.33-.37.66-.73.99-1.1,6.07-8.25,13.18-15.6,20.77-22.37,8.63-7.69,18.54-13.31,29.81-16.5,6.71-1.9,13.46-2.93,20.39-2.96,2.72-.01,5.45.11,8.11-.84.98-.35,2.19-.37,2.89.82-.2.04-.39.07-.59.07-.55.22-.97.67-1.54.86-.62.1-1.23.2-1.85.3-.5.18-.87.59-1.34.83-8.17,3.23-15.74,7.64-23.41,11.88-14.76,8.16-28.31,18.05-41.3,28.71-6.9,5.67-13.61,11.59-20.65,17.09-1.98,1.54-3.81,3.45-6.54,3.7,1.02-1.5,1.86-3.17,3.1-4.46,4.58-4.76,7.95-10.34,11.15-16.05Z"/>
    <path class="st5" d="M394.47,280.06c.45-.28.89-.55,1.34-.83-.45.28-.89.55-1.34.83Z"/>
    <path class="st5" d="M397.66,278.93c.51-.29,1.02-.57,1.53-.86-.51.29-1.02.57-1.53.86Z"/>
    <path class="st5" d="M193.54,214.49c-.87-.58-1.14-1.4-.94-2.4.8.61,1,1.46.94,2.4Z"/>
    <path class="st2" d="M270.96,305.38c1.03-1.69.59-3.56.58-5.35-.01-2.04.34-3.97,1.06-5.86,1.36-3.57,2.62-7.17,4.04-10.71,1.57-3.92,3.93-7.26,6.82-10.41,6.14-6.69,13.5-11.63,21.34-15.92,11.01-6.03,22.14-11.85,33.23-17.74,1.28-.68,2.61-1.28,3.98-1.76.97-.34,1.73.25,2.32,1.02-.16.31-.29.63-.37.96-.3.33-.59.67-.89,1-3.81,5.32-7.53,10.73-11.47,15.95-3.66,4.85-8.12,8.86-13.69,11.47-10.48,4.92-19.65,11.78-28.45,19.18-6.85,5.76-11.42,13.12-14.73,21.34-.21.55-.6.99-.91,1.48-.07.64-.13,1.27-.2,1.91-.22.14-.46.21-.71.21-1.39-2.04-1.43-4.47-1.95-6.77Z"/>
    <path class="st3" d="M273.83,310.03c.3-.49.6-.98.91-1.48-.3.49-.6.98-.91,1.48Z"/>
    <path class="st3" d="M343.07,240.61c.3-.33.6-.67.89-1-.3.33-.6.67-.89,1Z"/>
    <path class="st2" d="M229.76,303.07c-1.05-.6-1.45-1.68-1.7-2.7-2.19-8.84-4.46-17.68-3.78-26.94.17-2.36.17-4.75.02-7.12-.38-6.06,1.3-11.95,1.3-17.98,0-.71.25-1.44.51-2.12,2.73-7.15,4.66-14.62,8.38-21.37,2.83-5.15,4.91-10.56,6.56-16.19,1.02-3.49,2.16-6.97,3.91-10.2.61-1.13,1.1-2.33,2.54-2.64-2.4,7.85-3.49,15.97-5.07,23.99-1.97,10-4.45,19.89-6.63,29.85-1.01,4.62-1.85,9.28-2.75,13.92-.73,3.75-1.59,7.46-3.16,10.99-1.97,4.43-2.37,9.01-1.61,13.88.75,4.83,1.86,9.67,1.49,14.63Z"/>
    <path class="st5" d="M192.34,219.06c-.66-.73-1.02-1.56-.91-2.56.97.61,1.08,1.53.91,2.56Z"/>
  </g>
  <g>
    <path class="st5" d="M114.09,480.28c2.37,1.46,5.82,2.67,9.46,2.67,5.4,0,8.55-2.85,8.55-6.98,0-3.82-2.18-6-7.7-8.13-6.67-2.37-10.8-5.82-10.8-11.58,0-6.37,5.28-11.1,13.22-11.1,4.18,0,7.22.97,9.04,2l-1.46,4.31c-1.33-.73-4.06-1.94-7.76-1.94-5.58,0-7.7,3.34-7.7,6.13,0,3.82,2.49,5.7,8.13,7.88,6.91,2.67,10.43,6,10.43,12.01,0,6.31-4.67,11.77-14.31,11.77-3.94,0-8.25-1.15-10.43-2.61l1.33-4.43Z"/>
    <path class="st5" d="M178.01,467.55h-15.89v14.74h17.71v4.43h-22.99v-40.88h22.08v4.43h-16.8v12.92h15.89v4.37Z"/>
    <path class="st5" d="M233.27,468.76c-.3-5.7-.67-12.55-.61-17.65h-.18c-1.39,4.79-3.09,9.89-5.16,15.53l-7.22,19.83h-4l-6.61-19.47c-1.94-5.76-3.58-11.04-4.73-15.89h-.12c-.12,5.09-.42,11.95-.79,18.07l-1.09,17.53h-5.03l2.85-40.88h6.73l6.97,19.77c1.7,5.03,3.09,9.52,4.12,13.77h.18c1.03-4.12,2.49-8.61,4.31-13.77l7.28-19.77h6.73l2.55,40.88h-5.16l-1.03-17.95Z"/>
    <path class="st5" d="M265.72,473.85l-4.25,12.86h-5.46l13.89-40.88h6.37l13.95,40.88h-5.64l-4.37-12.86h-14.5ZM279.12,469.73l-4-11.77c-.91-2.67-1.52-5.09-2.12-7.46h-.12c-.61,2.43-1.27,4.91-2.06,7.4l-4,11.83h12.31Z"/>
    <path class="st5" d="M314.12,486.71l-13.34-40.88h5.7l6.37,20.14c1.76,5.52,3.28,10.49,4.37,15.28h.12c1.15-4.73,2.85-9.89,4.67-15.22l6.91-20.2h5.64l-14.62,40.88h-5.82Z"/>
    <path class="st5" d="M372.29,467.55h-15.89v14.74h17.71v4.43h-22.99v-40.88h22.08v4.43h-16.8v12.92h15.89v4.37Z"/>
    <path class="st5" d="M393.09,486.71v-40.88h5.76l13.1,20.68c3.03,4.79,5.4,9.1,7.34,13.28l.12-.06c-.49-5.46-.61-10.43-.61-16.8v-17.1h4.97v40.88h-5.34l-12.98-20.74c-2.85-4.55-5.58-9.22-7.64-13.65l-.18.06c.3,5.16.42,10.07.42,16.86v17.47h-4.97Z"/>
    <path class="st5" d="M450.41,445.83v40.88h-5.28v-40.88h5.28Z"/>
    <path class="st5" d="M471.76,446.38c2.67-.55,6.49-.85,10.13-.85,5.64,0,9.28,1.03,11.83,3.34,2.06,1.82,3.21,4.61,3.21,7.76,0,5.4-3.4,8.98-7.7,10.43v.18c3.15,1.09,5.03,4,6,8.25,1.33,5.7,2.3,9.64,3.15,11.22h-5.46c-.67-1.15-1.58-4.67-2.73-9.77-1.21-5.64-3.4-7.76-8.19-7.95h-4.97v17.71h-5.28v-40.33ZM477.03,465h5.4c5.64,0,9.22-3.09,9.22-7.76,0-5.28-3.82-7.58-9.4-7.64-2.55,0-4.37.24-5.22.49v14.92Z"/>
  </g>
</svg>