<?xml version="1.0" encoding="UTF-8"?>
<svg id="Layer_1" xmlns="http://www.w3.org/2000/svg" version="1.1" viewBox="0 0 612 612">
  <!-- Generator: Adobe Illustrator 30.2.1, SVG Export Plug-In . SVG Version: 2.1.1 Build 1)  -->
  <defs>
    <style>
      .st0 {
        fill: #7a5ca3;
      }

      .st1 {
        fill: #669bbc;
      }

      .st2 {
        fill: #d4aece;
      }
    </style>
  </defs>
  <g>
    <g>
      <polygon class="st1" points="150.07 258.29 102.51 423.34 159.12 423.34 163.83 402.86 136.24 402.86 150.07 258.29"/>
      <polygon class="st0" points="197.08 258.38 197.09 258.29 197.07 258.29 197.07 258.33 197.08 258.38"/>
      <polygon class="st0" points="176.57 380.58 172.88 363.52 150.07 258.29 136.24 402.86 163.83 402.86 192.87 402.86 193.52 380.58 176.57 380.58"/>
      <polygon class="st0" points="197.07 258.33 197.07 258.29 197.06 258.29 197.07 258.33"/>
      <path class="st2" d="M197.08,258.38l-.02-.05v-.04h-.04c-6.94,3.85-14.91,6.05-23.41,6.05s-16.47-2.21-23.41-6.05h-.15l22.81,105.24,3.69,17.05h59.04l-38.53-122.2Z"/>
    </g>
    <circle class="st2" cx="173.62" cy="215.94" r="27.28"/>
  </g>
  <g>
    <g>
      <path class="st0" d="M266.54,355.29v6.59h-2.12v-6.47c0-1.9-1.16-3.13-2.75-3.13s-3.48.95-3.48,3.42v6.18h-2.12v-17.6h2.12v7.93c.68-1.39,2.53-2.02,3.77-2.02,2.82,0,4.6,1.91,4.58,5.1Z"/>
      <path class="st0" d="M278.28,350.48h2.12v11.4h-2.12v-1.79c-.68,1.44-2.51,2.08-3.77,2.08-2.85,0-4.6-1.91-4.58-5.1v-6.59h2.12v6.55c0,1.93,1.14,3.15,2.73,3.15s3.48-.95,3.5-3.42v-6.28Z"/>
      <path class="st0" d="M301.97,355.29v6.59h-2.12v-6.47c0-1.9-1.05-3.17-2.71-3.17-2.02-.02-3.07,1.39-3.07,3.93v5.71h-2.12v-6.47c0-1.93-1.05-3.17-2.56-3.17-1.61,0-3.21,1.05-3.21,3.46v6.18h-2.12v-11.4h2.12v1.76c.56-1.24,2.05-2.05,3.65-2.05s3.09.88,3.75,2.44c1.05-2.05,2.83-2.44,3.97-2.44,2.85,0,4.41,1.91,4.41,5.1h0Z"/>
      <path class="st0" d="M314.47,350.48h2.12v11.4h-2.12v-2.02c-.76,1.36-2.34,2.32-4.16,2.32-2.97,0-5.57-2.51-5.57-6.01s2.46-5.99,5.67-5.99c1.7,0,3.31.74,4.07,2.08v-1.79h0ZM314.47,356.17c0-2.35-1.97-3.98-3.87-3.98-2.07,0-3.72,1.83-3.72,3.98s1.66,4,3.75,4,3.85-1.69,3.85-4h0Z"/>
      <path class="st0" d="M330.76,355.29v6.59h-2.12v-6.47c0-1.9-1.16-3.13-2.75-3.13s-3.48.95-3.48,3.42v6.18h-2.12v-11.4h2.12v1.73c.68-1.39,2.53-2.02,3.77-2.02,2.82,0,4.6,1.91,4.58,5.1Z"/>
      <path class="st0" d="M263.38,370.96l-.34,2c-.61-.29-1.22-.39-1.66-.39-2.26,0-3.17,2.47-3.17,5.47v4.18h-2.15v-11.4h2.15v2.59c.58-2,1.68-2.88,3.19-2.88.8,0,1.63.22,1.97.44Z"/>
      <path class="st0" d="M275.8,377.43h-9.25c.31,2.02,1.78,3.07,3.72,3.07,1.39,0,2.65-.64,3.31-1.79l1.82.74c-.97,1.98-3.02,3.05-5.21,3.05-3.23,0-5.84-2.41-5.84-6.03s2.61-5.95,5.84-5.95,5.65,2.35,5.65,5.95c0,.31-.02.64-.05.95h0ZM273.73,375.6c-.27-1.95-1.66-3.07-3.53-3.07s-3.29,1.03-3.63,3.07h7.16Z"/>
      <path class="st0" d="M277.85,378.87h1.97c.02.97.87,1.79,2.26,1.79s2.29-.71,2.29-1.63c0-.86-.66-1.3-1.56-1.49l-1.56-.37c-1.9-.51-3-1.44-3-3.27s1.61-3.37,3.89-3.37c1.92,0,3.92,1.03,3.92,3.32h-2.05c-.02-.88-.93-1.46-1.82-1.46-1.1,0-1.82.71-1.82,1.59,0,.78.73,1.2,1.46,1.36l1.68.41c2.36.59,2.97,2,2.97,3.3,0,2.12-2.05,3.46-4.41,3.46-2.05,0-4.14-1.3-4.24-3.64h.02Z"/>
      <path class="st0" d="M288.56,376.51c0-3.61,2.71-5.99,5.94-5.99s5.96,2.37,5.96,5.99-2.73,6.01-5.96,6.01-5.94-2.39-5.94-6.01ZM298.35,376.51c0-2.35-1.76-3.98-3.85-3.98s-3.8,1.63-3.8,3.98,1.73,4,3.8,4,3.85-1.63,3.85-4Z"/>
      <path class="st0" d="M311.61,370.82h2.12v11.4h-2.12v-1.79c-.68,1.44-2.51,2.08-3.77,2.08-2.85,0-4.6-1.91-4.58-5.1v-6.59h2.12v6.55c0,1.93,1.14,3.15,2.73,3.15s3.48-.95,3.5-3.42v-6.28Z"/>
      <path class="st0" d="M324.72,370.96l-.34,2c-.61-.29-1.22-.39-1.66-.39-2.26,0-3.17,2.47-3.17,5.47v4.18h-2.15v-11.4h2.15v2.59c.58-2,1.68-2.88,3.19-2.88.8,0,1.63.22,1.97.44Z"/>
      <path class="st0" d="M325.65,376.51c0-3.61,2.85-5.99,6.11-5.99,1.78,0,3.33.71,4.34,1.81l-1.34,1.39c-.71-.74-1.73-1.2-2.92-1.2-2.24,0-4.04,1.63-4.04,3.98s1.8,4,4.04,4c1.2,0,2.21-.47,2.92-1.2l1.34,1.39c-1,1.13-2.56,1.81-4.34,1.81-3.26,0-6.11-2.39-6.11-6.01Z"/>
      <path class="st0" d="M349.17,377.43h-9.25c.31,2.02,1.78,3.07,3.72,3.07,1.39,0,2.65-.64,3.31-1.79l1.82.74c-.97,1.98-3.02,3.05-5.21,3.05-3.23,0-5.84-2.41-5.84-6.03s2.61-5.95,5.84-5.95,5.65,2.35,5.65,5.95c0,.31-.02.64-.05.95h0ZM347.1,375.6c-.27-1.95-1.66-3.07-3.53-3.07s-3.29,1.03-3.63,3.07h7.16Z"/>
      <path class="st0" d="M351.21,378.87h1.97c.02.97.87,1.79,2.26,1.79s2.29-.71,2.29-1.63c0-.86-.66-1.3-1.56-1.49l-1.56-.37c-1.9-.51-3-1.44-3-3.27s1.61-3.37,3.89-3.37c1.92,0,3.92,1.03,3.92,3.32h-2.05c-.02-.88-.93-1.46-1.82-1.46-1.1,0-1.82.71-1.82,1.59,0,.78.73,1.2,1.46,1.36l1.68.41c2.36.59,2.97,2,2.97,3.3,0,2.12-2.05,3.46-4.41,3.46-2.05,0-4.14-1.3-4.24-3.64h.02Z"/>
      <path class="st2" d="M255.18,399.21h1.97c.02.97.87,1.79,2.26,1.79s2.29-.71,2.29-1.63c0-.86-.66-1.3-1.56-1.49l-1.56-.37c-1.9-.51-3-1.44-3-3.27s1.61-3.37,3.89-3.37c1.92,0,3.92,1.03,3.92,3.32h-2.05c-.02-.88-.93-1.46-1.82-1.46-1.1,0-1.82.71-1.82,1.59,0,.78.73,1.2,1.46,1.36l1.68.41c2.36.59,2.97,2,2.97,3.3,0,2.12-2.05,3.46-4.41,3.46-2.05,0-4.14-1.3-4.24-3.64h.02Z"/>
      <path class="st2" d="M265.89,396.85c0-3.61,2.71-5.99,5.94-5.99s5.96,2.37,5.96,5.99-2.73,6.01-5.96,6.01-5.94-2.39-5.94-6.01ZM275.68,396.85c0-2.35-1.76-3.98-3.85-3.98s-3.8,1.63-3.8,3.98,1.73,4,3.8,4,3.85-1.63,3.85-4Z"/>
      <path class="st2" d="M280.74,402.56v-17.6h2.12v17.6h-2.12Z"/>
      <path class="st2" d="M294.74,391.16h2.12v11.4h-2.12v-1.79c-.68,1.44-2.51,2.08-3.77,2.08-2.85,0-4.6-1.91-4.58-5.1v-6.59h2.12v6.55c0,1.93,1.14,3.15,2.73,3.15s3.48-.95,3.5-3.42v-6.28Z"/>
      <path class="st2" d="M306,391.16v1.83h-2.46v9.57h-2.12v-9.57h-2.05v-1.83h2.05v-4.3h2.12v4.3h2.46Z"/>
      <path class="st2" d="M307.92,386.96c0-.8.68-1.42,1.49-1.42s1.51.61,1.51,1.42-.68,1.42-1.51,1.42-1.49-.61-1.49-1.42ZM308.36,402.56v-11.4h2.12v11.4h-2.12Z"/>
      <path class="st2" d="M313.37,396.85c0-3.61,2.71-5.99,5.94-5.99s5.96,2.37,5.96,5.99-2.73,6.01-5.96,6.01-5.94-2.39-5.94-6.01ZM323.16,396.85c0-2.35-1.76-3.98-3.85-3.98s-3.8,1.63-3.8,3.98,1.73,4,3.8,4,3.85-1.63,3.85-4Z"/>
      <path class="st2" d="M338.69,395.96v6.59h-2.12v-6.47c0-1.9-1.16-3.13-2.75-3.13s-3.48.95-3.48,3.42v6.18h-2.12v-11.4h2.12v1.73c.68-1.39,2.53-2.02,3.77-2.02,2.82,0,4.6,1.91,4.58,5.1Z"/>
      <path class="st2" d="M341.33,399.21h1.97c.02.97.87,1.79,2.26,1.79s2.29-.71,2.29-1.63c0-.86-.66-1.3-1.56-1.49l-1.56-.37c-1.9-.51-3-1.44-3-3.27s1.61-3.37,3.89-3.37c1.92,0,3.92,1.03,3.92,3.32h-2.05c-.02-.88-.93-1.46-1.82-1.46-1.1,0-1.82.71-1.82,1.59,0,.78.73,1.2,1.46,1.36l1.68.41c2.36.59,2.97,2,2.97,3.3,0,2.12-2.05,3.46-4.41,3.46-2.05,0-4.14-1.3-4.24-3.64h.02Z"/>
    </g>
    <g>
      <path class="st1" d="M256.53,317.08v-61.73h15.69l.32,7.14c3.15-4.31,9.84-8.42,18.9-8.42s17.1,3.92,20.71,10.93c4.37-6.56,12.22-10.93,21.41-10.93,14.15,0,24.24,9.2,24.24,24.24v38.77h-16.52v-34.53c0-8.55-5.27-13.18-12.35-13.18s-13.57,4.44-13.57,12.79v34.91h-16.52v-34.53c0-8.55-5.33-13.18-12.28-13.18s-13.5,4.63-13.5,13.18v34.53h-16.52Z"/>
      <path class="st1" d="M399.7,254.07c9.9,0,16.26,3.6,20.38,8.74l.32-7.46h15.82l-.13,55.23c-.06,20.45-13.83,33.56-35.68,33.56-11.31,0-22.63-4.95-29.77-13.37l10.61-10.42c5.85,5.66,12.16,8.94,19.16,8.94,11.7,0,19.35-6.75,19.35-17.04v-2.12c-3.73,4.95-11,8.23-20.06,8.23-17.49,0-29.9-13.57-29.9-32.21s12.41-32.08,29.9-32.08h0ZM386.38,286.09c0,9.77,6.88,17.49,16.72,17.49s16.78-7.72,16.78-17.49-7.07-17.23-16.78-17.23-16.72,7.27-16.72,17.23Z"/>
      <path class="st1" d="M464.48,226.56v51.82l22.5-23.02h21.93l-27,26.3,27.58,35.36h-20.38l-18.26-24.69-6.37,6.36v18.32h-16.33v-90.47h16.33Z"/>
    </g>
  </g>
</svg>