<?xml version="1.0" encoding="UTF-8"?>
<svg id="Layer_1" xmlns="http://www.w3.org/2000/svg" version="1.1" viewBox="0 0 612 612">
  <!-- Generator: Adobe Illustrator 30.2.1, SVG Export Plug-In . SVG Version: 2.1.1 Build 1)  -->
  <defs>
    <style>
      .st0 {
        fill: #215231;
      }
    </style>
  </defs>
  <path class="st0" d="M450.86,263.74c-.43-6.44-5.5-11.93-12.21-12.61-6.49-.67-12.8,3.3-14.64,9.96-36.69-1.86-70.19-21.86-89.46-53.06,8.43-6.89,17.38-12.23,27.15-16.43l8.83,4.38c15.11,8.49,28.01,20.19,37.87,34.52-4.68,5.27-4.65,12.89-.34,18.02,4.37,5.19,11.9,6.4,17.75,2.78,5.63-3.47,7.98-10.66,5.37-16.91-2.55-6.1-9.05-9.44-15.67-8.08-13.37-19.64-32.01-34.66-53.66-43.65-12.27,4.78-23.41,11.44-33.48,19.77-20.36-20.76-47.27-33.31-75.91-35.62-35.54,10.58-64.17,36.91-77.73,71.2-6.93-.04-12.55,5.03-13.58,11.45-1.09,6.78,2.86,13.1,9.12,15.2,6.51,2.19,13.45-.71,16.52-6.59,3.17-6.07,1.43-13.49-4.21-17.58,11.44-28.18,33.5-50.61,62.23-62.31-27.32,47.02-9.7,106.68,37.42,131.86,47.28,25.27,106.57,6.48,130.34-42.03,3.91.98,7.79,1,11.75,1.39,2.48,6.64,9.22,10.21,16.05,8.65,6.4-1.46,10.95-7.42,10.49-14.31ZM416.9,233.18c3.81-.99,7.44,1.45,8.24,5.02.79,3.51-1.36,7.12-4.87,8.01-3.6.92-7.3-1.14-8.25-4.87-.85-3.34,1.01-7.15,4.88-8.16ZM175.23,258.43c-3.66.34-6.84-2.41-7.25-5.99-.43-3.67,2.18-7.12,6.16-7.46,3.96-.35,6.97,2.73,7.26,6.2.31,3.78-2.53,6.92-6.17,7.25ZM399.83,274.23c-27.59-.96-54.21-8.58-77.98-22.51-23.93.72-47.03,8.49-66.6,22.58-20.22-29.83-19.64-69.45,1.65-98.75,31.62,3.95,59.81,21.5,78.07,47.64,17.57,22.02,41.56,37.55,69.34,43.52-1.34,2.58-2.75,4.94-4.48,7.52ZM438.44,271.35c-3.54.65-7-1.56-7.81-5.18-.77-3.46,1.4-7.31,5.31-8.06,3.87-.74,7.16,1.85,7.86,5.24.77,3.75-1.66,7.32-5.36,8Z"/>
  <polygon class="st0" points="386.93 422.76 372.19 422.82 346.01 390.48 345.92 422.8 327.41 422.81 327.41 356.12 341.92 356.13 368.27 389.46 368.38 356.12 386.93 356.13 386.93 422.76"/>
  <path class="st0" d="M235.07,387.71c-1.08-16.7-13.65-30.27-30.29-31.92-21.2-2.1-39.33,15.39-37.36,36.67,1.26,13.69,10.62,25.62,23.94,29.58,10.88,3.24,22.36.94,31.22-6.21,8.16-6.6,13.2-17,12.49-28.12ZM214.42,398.58c-2.34,5.29-7.11,8.26-12.67,8.45-6,.2-11.21-2.88-13.74-8.36-2.72-5.9-2.67-12.8.16-18.65,2.3-4.76,6.74-7.61,11.89-7.92,6.43-.39,12.11,2.81,14.63,8.84,2.32,5.57,2.24,11.97-.27,17.64Z"/>
  <path class="st0" d="M509.98,405.08c-.95,12.46-11.82,18.18-23.28,18.57-10.82.38-21.53-2.47-31.22-7.72l7.99-16.28c5.57,3.36,11.23,5.92,17.47,7.09,2.54.33,4.77.38,7.24,0,.8-.5,1.6-1.09,1.85-1.68,1.1-2.62-2.57-4.44-4.81-5.13l-9.28-2.88c-3.54-1.1-6.9-2.64-9.98-4.52-5.14-3.14-7.41-8.21-7.53-14.07-.18-8.81,4.21-16.48,12.29-20.25,5.64-2.63,11.8-3.28,18.08-2.35,6.97,1.11,13.36,3.61,19.72,6.91l-7.92,15.22c-4.52-2.51-9.04-4.55-14.04-5.78-2.19-.33-4.19-.41-6.31-.12-1.14.47-2.27,1.12-2.49,1.98-.83,3.28,2.49,4.56,5.4,5.49l11.15,3.56c2.95.94,5.63,2.33,8.19,3.99,6.47,4.18,8.04,10.62,7.49,17.97Z"/>
  <path class="st0" d="M432.37,356.11l-16.94.03-23.17,66.65,18.89.02,3.92-13h17.57l4.03,13.01,18.8-.03-23.1-66.68ZM417.81,397.52l6.1-20.19,5.8,20.16-11.9.03Z"/>
  <path class="st0" d="M124.61,399.22c3.33,6.27,9.97,8.92,16.6,7.37,4.3-1.01,7.79-3.59,9.43-7.79l15.05,9c-5.42,12.8-23.79,17.83-36.54,14.68-10.6-2.62-18.87-10.41-23.04-20.39-4.49-10.75-3.31-22.87,3.54-32.48,6.34-8.9,16.95-14.29,28.38-13.96,5,.15,9.66.78,14.21,2.9,5.41,2.51,9.96,6.33,12.82,11.78l-14.14,10.05c-2.47-6-7.47-8.05-13.26-8.27-5.22-.2-10.02,2.18-12.69,6.84-3.53,6.18-3.77,13.86-.35,20.29Z"/>
  <path class="st0" d="M424.6,189.13c-1.78-5.97-7.73-10.24-14.41-9.61-25.38-45.02-81.23-61.71-127.32-37.81-5.43-4.31-12.94-4.18-18,.41-4.91,4.45-5.99,11.96-2.2,17.72,3.59,5.45,10.78,7.69,17.04,4.91,5.89-2.61,9.11-9.07,7.76-15.51,41.36-21.43,92.23-6.35,115.25,33.49-5.65,4.57-6.3,12.52-2.58,18.08,3.69,5.51,10.92,7.65,17.22,4.73,5.94-2.77,9.26-9.6,7.24-16.41ZM275.89,158.78c-3.5.96-7.12-1.05-8.2-4.4-1.15-3.59.74-7.58,4.64-8.6,3.82-1.01,7.36,1.29,8.27,4.74.96,3.61-1.16,7.28-4.71,8.26ZM412.61,199.83c-3.5.59-6.99-1.75-7.7-5.28-.72-3.55,1.51-7.33,5.4-8.02,3.93-.7,7.29,2,7.86,5.51.6,3.67-1.87,7.16-5.56,7.79Z"/>
  <polygon class="st0" points="291.39 406.74 291.43 422.81 242.79 422.81 242.8 356.12 261.2 356.12 261.19 406.74 291.39 406.74"/>
  <polygon class="st0" points="316.05 422.73 297.67 422.81 297.68 356.13 316.05 356.11 316.05 422.73"/>
  <polygon class="st0" points="277.6 480.66 269.34 480.77 254.64 462.57 254.59 480.75 244.13 480.74 244.13 443.2 252.34 443.17 267.02 461.7 267.14 443.18 277.6 443.18 277.6 480.66"/>
  <polygon class="st0" points="237.87 480.69 227.46 480.78 227.42 466.1 215.13 466.1 215.11 480.75 204.69 480.75 204.69 443.17 215.1 443.17 215.14 456.97 227.42 456.97 227.44 443.19 237.87 443.16 237.87 480.69"/>
  <path class="st0" d="M413.31,468.11l.02-7.49h15.53s0,20.11,0,20.11l-8.53.05-.24-2.9c-6.34,5.1-16.28,3.56-21.8-1.96-3.44-3.44-5.09-7.87-5.43-12.7-.54-7.63,3.12-14.58,9.94-18.13,5.71-2.97,12.47-2.98,18.25-.21,2.71,1.56,4.95,3.34,6.45,6.26l-7.75,5.95c-1.61-2.85-4.26-4.69-7.52-4.9-2.96-.19-5.65,1.23-7.17,3.79-1.97,3.31-2.17,7.33-.6,10.86,1.24,2.79,3.8,4.63,6.91,4.81s6.05-.99,8.12-3.45l-6.17-.1Z"/>
  <path class="st0" d="M384.16,447.63c-5.54-4.98-13.32-6.12-20.33-3.08-6.06,2.62-10.72,8.58-11.29,15.71-.81,10.23,6.42,19.57,16.85,20.66,8.63.9,16.21-3.75,19.56-11.1,3.47-7.6,1.5-16.54-4.79-22.19ZM378.43,467.95c-1.49,2.57-4.1,3.75-6.7,3.8-2.75.05-5.44-1.17-6.97-3.68-2.41-3.96-2.29-9.13.44-12.87,1.75-2.4,4.48-3.14,7.22-2.93,2.72.22,5.24,1.83,6.5,4.54,1.61,3.5,1.5,7.68-.49,11.14Z"/>
  <path class="st0" d="M313.86,447.96c-5.48-5.18-13.31-6.49-20.44-3.53-6.19,2.57-10.94,8.6-11.52,15.82-.83,10.25,6.41,19.59,16.87,20.67,8.53.89,16.01-3.68,19.43-10.89,3.54-7.48,1.74-16.33-4.34-22.07ZM308.12,467.34c-1.54,3.18-4.67,4.64-7.94,4.39-3.16-.24-5.91-2.34-7.04-5.6-1.24-3.6-.94-7.64,1.28-10.76,1.76-2.48,4.55-3.35,7.38-3.1,2.84.25,5.39,1.99,6.6,4.84,1.35,3.21,1.31,6.95-.28,10.23Z"/>
  <polygon class="st0" points="161.34 465.84 147.84 465.84 147.86 471.5 164.19 471.52 164.2 480.76 137.37 480.77 137.36 443.18 163.62 443.17 163.63 452.27 147.86 452.31 147.86 457.32 161.31 457.34 161.34 465.84"/>
  <polygon class="st0" points="474.56 465.8 460.91 465.86 460.92 471.5 477.31 471.52 477.33 480.76 450.44 480.77 450.43 443.18 476.8 443.17 476.84 452.27 460.92 452.31 460.92 457.32 474.5 457.33 474.56 465.8"/>
  <path class="st0" d="M503.01,479.93c-7.43,2.75-16.91.63-23.66-3.15l4.48-9.17c3.12,1.8,5.96,3.03,9.23,3.94l4.24.24c.73-.43,1.4-.88,1.48-1.48.65-4.39-17.72-2.16-17.81-14.64-.04-5.13,2.62-9.49,7.35-11.5,6.9-2.94,14.26-.66,20.88,2.75l-4.47,8.6c-2.85-1.52-5.29-2.53-8.19-3.32-1.32-.18-3.01-.17-4.12.44-.36.2-.68,1.12-.59,1.48,1.14,4.26,18.51,2.07,18.29,15.31-.08,4.7-2.44,8.77-7.12,10.51Z"/>
  <path class="st0" d="M178.1,467.32c1.9,3.63,5.76,5.13,9.51,4.13,2.35-.62,4.1-2.01,5.11-4.33l8.52,5.13c-3.41,7.51-13.98,10.06-20.99,8.13-9.09-2.5-14.91-11.42-13.95-20.76,1.12-10.79,10.86-17.84,21.45-16.62,5.43.63,10.33,3.09,13.12,8.18l-8.01,5.71c-1.2-2.93-3.64-4.3-6.55-4.61-3.31-.35-6.39.89-8.04,3.86-1.9,3.43-2.07,7.55-.18,11.17Z"/>
  <polygon class="st0" points="123.03 480.7 112.57 480.75 112.57 452.33 101.88 452.27 101.86 443.17 133.73 443.17 133.72 452.28 123.03 452.31 123.03 480.7"/>
  <polygon class="st0" points="351.53 471.52 351.53 480.76 324.26 480.76 324.27 443.17 334.7 443.19 334.7 471.5 351.53 471.52"/>
  <polygon class="st0" points="444.17 480.69 433.74 480.77 433.73 443.2 444.17 443.16 444.17 480.69"/>
</svg>