<?xml version="1.0" encoding="UTF-8"?>
<svg id="Layer_1" xmlns="http://www.w3.org/2000/svg" version="1.1" viewBox="0 0 612 612">
  <!-- Generator: Adobe Illustrator 30.2.1, SVG Export Plug-In . SVG Version: 2.1.1 Build 1)  -->
  <defs>
    <style>
      .st0 {
        fill: #be242a;
      }

      .st1 {
        fill: #626261;
      }
    </style>
  </defs>
  <g>
    <g>
      <path class="st1" d="M234.52,396.22c3.1,0,4.32,1.4,4.32,4.46,0,1.94-.6,3.21-1.75,3.89,1.35.49,1.95,1.59,1.95,3.56,0,3.01-1.42,4.17-4.28,4.17h-3.21v-16.07h2.97,0ZM237.09,400.68c0-2.18-.51-2.91-2.57-2.91h-1.26v6.19h1.34c1.98,0,2.49-1.08,2.49-3.26h0ZM237.33,408.12c0-2.02-.64-2.7-2.59-2.7h-1.48v5.32h1.5c1.91,0,2.57-.64,2.57-2.63h-.01Z"/>
      <path class="st1" d="M245.19,396.22h3.94l2.11,16.07h-1.75l-.51-3.97h-3.68l-.51,3.97h-1.75l2.14-16.07h.01ZM248.81,406.79l-1.11-8.98h-1.08l-1.11,8.98h3.31Z"/>
      <path class="st1" d="M258.62,396.22c3.13,0,4.74,1.34,4.74,5.3,0,2.78-.96,4.48-2.67,5.2l2.71,5.57h-1.9l-2.45-5.2c-.19.03-.37.03-.56.03h-.91v5.18h-1.72v-16.07h2.75ZM261.61,401.52c0-2.87-.75-3.68-2.99-3.68h-1v7.68h.91c2.22,0,3.1-1.19,3.1-4.01h-.01Z"/>
    </g>
    <path class="st1" d="M319.78,421.76l-8.28-8.39c-.84-.85-2.15-.96-3.13-.34-2.6-2.57-5.2-5.13-7.8-7.69-.09-.08-.18-.18-.24-.26,1.95-1.94,3.87-3.83,5.88-5.8.11.14.2.3.33.43,1.04,1.1,2.3,1.6,3.85,1.44,1.12-.12,2.09-.47,2.89-1.3,1.86-1.87,3.74-3.71,5.62-5.55,1.08-1.07,1.08-2.19,0-3.25-1.79-1.77-3.58-3.54-5.38-5.3-1.07-1.06-2.21-1.06-3.29.01-1.82,1.79-3.62,3.6-5.46,5.38-.8.77-1.3,1.64-1.45,2.75-.2,1.44.09,2.7,1.12,3.77.23.23.49.43.69.62-1.99,1.95-3.92,3.86-5.87,5.77.01,0,0,0-.03,0-1.64-1.61-3.26-3.21-4.89-4.84-.08-.08-.11-.26-.07-.37.24-.83.04-1.52-.56-2.13-.72-.72-1.45-1.42-2.17-2.14-.09-.09-.18-.26-.2-.39-.08-.58-.31-1.07-.75-1.48-2-1.96-4-3.94-6-5.91-.07-.07-.16-.14-.24-.2-.04.03-.08.05-.12.08.28.47.5,1,.85,1.44,1.08,1.33,2.25,2.61,3.33,3.94.47.57.87,1.22,1.23,1.87.26.47.19.99-.22,1.41-.38.39-.89.49-1.46.27-.26-.11-.53-.22-.73-.38-.77-.6-1.53-1.21-2.3-1.82-1.14-.89-2.26-1.8-3.41-2.68-.27-.2-.62-.31-.93-.46,0,.14.03.19.07.23,2.06,2.03,4.13,4.08,6.19,6.11.38.38.85.54,1.38.64.15.03.33.11.43.22.73.7,1.44,1.42,2.17,2.13.57.56,1.26.79,2.05.54.26-.08.41-.03.58.15,1.53,1.53,3.08,3.03,4.61,4.55.08.08.15.18.22.24-.03.05-.04.08-.05.09-2.29,2.26-4.58,4.51-6.85,6.77-.15.15-.26.15-.45.07-.07-.03-.15-.05-.22-.08-.95-.45-2.11-.27-2.87.5l-3.94,4.05c-.89.89-1.77,1.77-2.3,2.29h-.01c-.08.08-.18.19-.27.28h-.01c-.87.88-1.95,1.61-2.36,2.9v1.02c.03.09.07.18.09.27.08.27.2.51.37.75.15.22.33.42.56.58l.15.14c.99.93,2.56.89,3.51-.07l7.37-7.57c.33-.28.64-.58.92-.91.72-.8.85-1.76.42-2.75-.12-.27-.05-.41.14-.6,2.19-2.15,4.39-4.32,6.58-6.49.09-.09.19-.18.24-.22,2.7,2.67,5.36,5.3,8.05,7.94-.69.95-.61,2.28.24,3.13l8.28,8.39c.95.96,2.53.99,3.51.04l.39-.38c.98-.93,1-2.49.04-3.47h-.01ZM306.02,393.77c.07-.12.18-.23.27-.33,1.64-1.61,3.28-3.24,4.92-4.85.08-.07.15-.15.23-.22.28-.2.62-.2.87.01.23.24.23.64-.01.88l-5.28,5.2c-.24.24-.65.24-.89,0-.19-.19-.24-.47-.09-.73v.03ZM308.12,395.45c1.73-1.72,3.47-3.43,5.2-5.13.05-.05.11-.09.18-.14.24-.12.54-.08.75.12.26.24.26.65,0,.91l-5.28,5.2c-.26.24-.66.24-.92,0-.09-.09-.16-.22-.18-.35-.01-.2.07-.42.26-.61h0ZM315.99,392.08c.15.08.24.23.37.38.04.11.04.24,0,.35-.07.12-.12.23-.19.31l-5.27,5.19c-.26.24-.66.24-.92,0s-.26-.65,0-.91l5.28-5.2c.19-.18.45-.23.68-.15h.03l.03.03Z"/>
    <g>
      <path class="st1" d="M344.13,404.85v3.26c0,3.14-1.07,4.46-3.68,4.46s-3.78-1.35-3.78-4.54v-7.52c0-3.06,1.15-4.58,3.73-4.58s3.6,1.52,3.6,4.28l-.04,2.33h-1.63v-2.18c0-1.9-.31-2.83-1.94-2.83s-1.98.95-1.98,2.99v7.52c0,2.11.47,2.98,2.03,2.98s2.07-.79,2.07-2.9v-1.8h-1.87v-1.46h3.48Z"/>
      <path class="st1" d="M352.08,396.22c3.13,0,4.74,1.34,4.74,5.3,0,2.78-.96,4.48-2.67,5.2l2.71,5.57h-1.9l-2.45-5.2c-.19.03-.37.03-.56.03h-.91v5.18h-1.72v-16.07h2.75ZM355.09,401.54c0-2.87-.75-3.68-2.99-3.68h-1v7.68h.91c2.22,0,3.1-1.19,3.1-4.01h-.01Z"/>
      <path class="st1" d="M363.62,396.22v16.07h-1.75v-16.07h1.75Z"/>
      <path class="st1" d="M370.89,396.22v14.47h3.64v1.6h-5.38v-16.07h1.75-.01ZM377.97,396.22v14.47h3.68v1.6h-5.43v-16.07h1.75Z"/>
    </g>
  </g>
  <g>
    <path class="st1" d="M314.57,278.23c3.98.04,7.97.09,11.58.16-.38,1.54-.96,3.01-1.07,4.51-.49,6.84.28,13.74-.09,20.59-.09,1.75.41,2.44,2.34,2.66,2.53.27,5.09.98,7.51,1.87.95.35,7.25,4.65,10.13,4.62.31-1.56.64-3.17.93-4.65-.2-2.56-.57-5.13-.6-7.69-.07-5.35.15-10.69,0-16.04-.04-1.72-.84-3.44-1.31-5.28,3.13.12,6.77.27,10.2.43-.18,12.27-.38,24.45-.5,36.62-.04,4.24.2,8.51.2,12.75,0,1.02-.43,2-.77,3.41.14.38.72,1.33.75,2.25.09,4.25-.09,8.51.07,12.76.08,2.09.7,4.19,1.11,6.37-3.18-.15-6.92-.33-10.44-.46.47-3.96,1.27-7.72,1.31-11.52.05-4.85-.5-9.74-.75-14.62-.05-.96-.49-4.97-1.19-5.53-4.94-3.87-10.63-5.91-16.68-6.99-2.36-.42-2.32,1.03-2.32,2.7.01,9.9,0,19.81-.07,29.71,0,.88-1.15,7.04-.11,7.67-1.4,3.74-2.48,7.6-4.24,11.11-2.32,4.59-6.03,7.71-11.42,8.59-3.77.61-5.47-.27-6.95-4.06.23-.19.46-.5.76-.61,9.2-3.51,12.53-10.97,12.94-19.83.51-11.08.26-22.22.33-33.33,0-.33-.07-.66-.14-1.29-6.11,1.71-9.74,5.49-11.01,11.46-3.54-.49-4.81-1.88-4.51-5.24.18-1.96.47-4,1.18-5.83.7-1.79,8.35-7.44,10.96-8.36,3.98-1.41,4.17-1.63,4.02-6.07-.05-1.5-.38-2.99-.41-4.5,0-.68-.15-3.97-.04-4.93.28-2.66-.68-11.43-1.69-13.41h-.01Z"/>
    <path class="st1" d="M150.01,298.62c-3.35,3.18-6.76,6.43-10.4,9.94.66-4.32-.27-5.49-3.89-6.65-2.94-.93-5.85-.19-8.6,1.35-1.87,1.04-3.83,2.71-4.97,4.52-3.43,5.53-2.25,11.68,2.82,14.89,3.89,2.47,8.28,4.24,12.08,6.87,3.85,2.66,7.79,5.46,10.69,9.1,4.29,5.38,4.73,12.18,3.2,19.91-2.1,10.58-8.87,16.07-17.91,19.87-7.98,3.36-15.58,3.68-22.39.26-5.04-2.53-7.78-6.98-8.28-13.05-.47-5.69.23-11.35,4.17-16.81,3.4-4.71,9.75-5.89,11.75-2.05.28.54.03,2.06-.42,2.38-4.74,3.47-6.45,7.98-5.85,12.92.69,5.68,3.66,9.29,9.48,10.02,8.9,1.12,17.68-4.71,20.23-13.76,1.95-6.98.18-12.73-4.42-16.68-3.89-3.33-8.77-5.49-13.06-8.32-3.62-2.38-7.91-4.51-10.4-7.65-8.71-10.96.42-27.77,13.07-32.09,7.26-2.03,13.83-1.8,18.91,3.33.91.91,2.56,1.06,4.19,1.67h.01Z"/>
    <path class="st1" d="M369.03,305.72c-1.22-1.83.54-2.07,1.56-2.41,1.75-.58,3.62-.89,5.43-1.27,2.22-.46,4.34-.37,6.01,1.84,2-1.76,3.71-.79,5.58.6,1.12.83,2.66,1.12,3.81,1.94,5.96,4.21,8.16,10.17,8.98,16.42.64,4.76.18,9.47-1.91,13.72-2.53,5.16-6.54,8.78-12.65,10.24-2.25.54-4.46,1.06-5.54-1.98-.09-.27-.69-.41-1.35-.76.16,1.04.28,1.82.45,2.78-5.65.07-10.23-2.25-14.02-6.1-3.37-3.43-5.3-7.48-5.85-12.03-.18-1.46.54-4.09-.42-4.04-.3-4.28-.03-8.74,2.66-12.67.2-.3.64-.56,1.02-.62,2.53-.43,2.93-1.37,1.22-3.35,1.48-1.14,7.6,10.04,9.89,12.54.46-.04.96-.23,1.23-.07.77.46,1.46,1.07,2.18,1.61-1.23,1.06-2.48,2.13-3.81,3.26-.92-1.17-1.37-1.73-1.8-2.29-1.31,2.76-2.59-.41-4.5,0,.42,2.53.64,5.16,1.31,7.72,1.06,4,6.27,8.53,9.77,8.83,6.2.51,10.86-2.09,12.53-7.1,1.53-4.59,1.54-9.28-.03-14.14-.26-.79-.14-1.65-.15-1.82-4.29-6.03-9.62-8.6-16.35-6.35-.28-.64-.5-1.14-.72-1.63-.47.8-.33,1.6-.61,2.19-.37.79-1.08,1.44-1.52-.15-.09.03-.18.05-.26.04-.07-.01-.18-.11-.16-.15.05-1.03.14-2.05.22-3.43-.79.49-2.07-.61-2.21-1.37v-.04ZM364.07,334.45c-1-.61-1.72-1.06-2.24-1.37.39-1.27.41-2.72,1.1-3.18.91-.61,2.34-.45,4.1-.69-1.03,1.82-1.94,3.44-2.95,5.24h-.01ZM387.33,340.38c.64.96,1.34,1.76,1.23,1.9-.49.61-1.15,1.12-1.86,1.46-.19.08-1.15-.84-1.12-.89.41-.72.93-1.37,1.75-2.45h0Z"/>
    <path class="st1" d="M270.47,309.51c-.46-.88-.42-1.91-.28-2.89s.11-1.95,0-2.93c-.2-1.8-.66-3.56-1.07-5.68.72.19,8.36.07,11.84-.43-2.15,2.11-2.71,3.96-2.28,6.49.5,2.97-.05,6.12-.11,9.2,0,.43.19.87.46,2.06,1.84-2.49,3.2-4.54,4.78-6.38,1.26-1.49,2.76-2.79,4.23-4.09.87-.77,1.82-5.93,1.07-7.22,2.7-.04,5.3-.08,8.02-.11,0,.54,2.09,1.17,3.12,1.02.12.27.26.54.38.81-3.26,4.2-11.2,14.59-10.73,15.93,1.38,3.9,2.78,7.8,4.38,11.61,2.22,5.3,4.59,10.55,6.99,15.78.46,1,1.37,1.8,2.18,2.84-4.12,0-8.21.04-12.54.11,2.79-2.38.56-4.62-.11-6.68-1.5-4.66-3.47-9.16-5.27-13.7-.27-.69-2.05-2.91-3.24-3.24-.79,1.73-1.46,3.06-2.02,4.44-.58,1.44-1.42,2.9-1.5,4.36-.19,3.35-.07,6.72.11,10.07.09,1.71.6,3.39.92,5.12-3.4.09-7.3.22-10.68.34.35-1.86.98-3.77,1-5.66.08-4.47.14-8.94.11-13.4-.01-2.06.04-4.16-.15-6.19-.22-2.18.83-10.82.42-11.61h-.03Z"/>
    <path class="st1" d="M219.55,338.59c-.49,3.41-1.02,7.1-1.56,10.96-9.78.85-19.43,1.86-28.69,2.94.34-1.68.95-3.41.98-5.08.15-8.52.12-17.02.14-25.52,0-.07,0-.14.04-.19s.12-.08.19-.09c.61-.12,1.25-.14,1.84-.04-1.34-.2-2.02-1.9-2.14-3.09-.19-1.8.37-3.68.09-5.47-.43-2.87,1.33-6.43-2.17-8.55,10.2-1.21,19.97-2.21,29.74-3.06,0,.18.03.37.04.54-.58.14-1.17.28-2.51.61,4.15,2.3,3.13,6.38,3.86,9.94-1.37-3.01-3.94-2.86-6.73-2.52-4.43.54-8.86.88-13.71,1.41v9.37c4.15-1.35,8.32.69,11.95-3.14v10.15c-2.99.28-6.01.73-9.02.85-2.11.08-3.13.57-3.01,2.95.18,3.33-.01,6.73.16,10.07.03.58,1.08,1.48,1.69,1.44,4.69-.31,9.4-.54,14.08-1.29,1.63-.26,3.14-2.05,4.77-3.17h-.03Z"/>
    <path class="st1" d="M483.15,321.88c-3.79,4.4,3.41,4.63,6.25,7.48v-7.11c.81.15,1.6.3,2.38.46-.08-1,.31-1.91,1.68-2.33-.49-1.61-2.49-.99-2.49-.99,2.6-3.45,5.2,2.3,7.8,1.49.37,1.18.41,2.28.22,3.22,1.33.26,2.66.5,3.97.73,2.75.47,5.3,1.07,6.65,4.47-.72-3.77.27-7.56-3.82-11.05,1.33.07-25.08.12-24.86,3.1.65.05,1.4.23,2.21.54h.01Z"/>
    <path class="st1" d="M505.08,357.25c-4.62-.61-9.28-1.75-13.94-2.8-.61-.14-1.65-1.33-1.68-1.94-.18-3.39.01-6.72-.16-10.11-.12-2.41.88-2.61,2.98-2.07,2.98.76,5.97,1.19,8.93,1.77v-10.15c-3.59,2.78-7.72-.49-11.83-.34v-.38c-.72.79-1.82,1.68-1.03,3.4-2.61.39-5.23-.39-7.45-1.87v.47c-.03,7.51,0,15.02-.12,22.5-.03,1.67-.64,3.22-.96,4.8,9.21,1.61,18.76,3.43,28.42,5.42.54-3.7,1.06-7.23,1.54-10.5-1.6.65-3.1,1.99-4.71,1.79h.01Z"/>
    <path class="st1" d="M231.12,337.09c-.18-.11-.28-.3-.41-.46-.3-.41-.68-.76-1.1-1.03-.45-.27-.95-.46-1.3-.84-.88-.93-.19-2.33.12-3.44.45-1.56.87-3.1,1.27-4.66.81-3.08,1.57-6.15,2.38-9.23,1.11-4.21,2.3-8.4,3.29-12.63.35-1.5.18-3.09.26-4.88,4.86-.34,10.26-.68,14.89-.93.61,3.26,1.03,6.37,1.79,9.37.98,3.87,2.22,7.65,3.21,11.53.43,1.71.61,3.52,1.17,5.18.56,1.68,3.66,13.03,4.28,15.28.3,1.1.66,2.19,1.17,3.21.18.35,1.54,3.06,1.98,2.93-4.12,1.25-7.26-1.12-10.59-2.59-.62-.27-.91-1.65-.99-2.57-.18-2.05-1.3-2.67-3.18-2.49-2.1.2-4.2.43-6.3.6-1.9.15-3.82.43-5.53-.42-.68-.34-1.27-.84-1.96-1.14-1.21-.53-2.61-.43-3.93-.64-.15-.03-.3-.05-.49-.15h-.03ZM249.65,330.99c-2.11-7.94-4.05-15.2-6.04-22.62-.37.37-.77.58-.84.87-1.84,6.94-3.68,13.89-5.39,20.85-.11.43.87,1.52,1.37,1.5,3.43-.08,6.88-.37,10.92-.6h-.01Z"/>
    <path class="st1" d="M465.73,352.81c-.08,1.52-.16,3.05-.27,4.96-.5.03-1.46.07-2.44.11-.16-1.33-.28-2.34-.42-3.36-.2,0-.39-.03-.6-.04v3.67c-4.92-.58-9.84-.81-14.06-4.24-1.96-1.6-3.83-2.61-6.2-2.59-.09-.26-.19-.51-.28-.76.95-.58,1.91-1.17,2.53-1.54.83-2.18,1.61-4.24,2.4-6.3,2.53,5.55,8.09,5.31,11.57,8.02,1.15-.33,2.42-.8,3.78-1.02,2.59-.42,4.13-1.98,4.12-4.55-.01-2.48-1.26-4.73-3.9-5.97-.91-.43-1.71-1.22-2.63-1.61-1.82-.8-2.49-1.92-1.61-3.7-2.32-.35-4.61-.15-6.49-1.08-4.28-2.14-7.78-5.41-8.53-10.35-.84-5.51.69-9.78,5.62-12.18,4.02-1.95,8.47-2.14,12.88-.88,4.38,1.26,8.59,3.67,13.52,5.92-2.32,1.83-2.26,5.31-5.83,4.9-.79-.09-1.65-.18-2.34-.57-3.77-2.15-7.55-3.87-11.45-2.38-1.29.49-2.37,1.37-3.48,2.03.18,1.37.89,3.06.42,4.05-1.38,2.87.87,3.1,2.57,3.82.16.07.6-.24.61-.24,1.48,2.61,4.44,2.13,6.26,3.83.49.46.2,1.79.27,2.75.22-.12.73-.24,1.02-.57,1.25-1.42,2.11-.64,2.97.85.77,1.35,1.25,3.47,3.4,2.07.15-.09.66.23.95.45,5.28,4.06,6.53,9.82,3.14,14.45-.04,0-.07-.01-.09-.01-1.12-.5-2.26-.99-3.89-1.71-.14.95-.31,2.13-.49,3.29-.81-.34-1.64-.66-2.44-1.02-.19.5-.39,1-.6,1.52v-.03Z"/>
    <path class="st1" d="M149.11,321.02c.54-3.83,1.06-7.56,1.64-11.68,3.63-.57,7.22-1.11,10.81-1.63,6.64-.95,13.28-1.79,19.91-2.68,1.68-.23,2.34.22,2.48,1.92.23,2.94.75,5.83,1.22,9.36-3.9-5.42-9.18-.99-13.98-1.92,0,6.04-.01,11.42,0,16.8.03,6.11,0,12.23.18,18.32.05,1.71.79,3.31,1.22,5.03-3.41.46-7.33,1-10.82,1.5.34-1.84.99-3.78,1-5.64.09-11.35.05-22.69.05-34.41-3.56.51-7,.81-10.38,1.67-1.1.28-2.05,1.98-3.36,3.33l.03.03Z"/>
    <path class="st1" d="M435.08,343.63c.38.68,1.22,1.75,1.04,1.98-1.31,1.77-2.78,3.43-4.34,5-.19.19-1.33-.26-1.75-.69-.62-.64-1-1.53-1.87-2.94-.3,1.64-.45,2.44-.61,3.32.76.37,1.41.69,2.05,1-.08.12-.12.3-.23.35-2.84,1.12-5.68.43-8.82-.18-3.01-.58-5.76-.99-8.33-2.93-3.71-2.79-6-6.49-6.19-10.8-.26-5.8.24-11.54.22-17.33-.03-4.82-.24-9.69-.61-14.54-.08-1.17-1.06-2.34-1.64-3.59,3.68.37,7.65.77,12.04,1.26-3.82,2.89-1.88,7.21-2.06,10.85-.33,6.57-.03,13.22-.11,19.82-.09,7.57,4.46,11.34,11.7,9.7.89-.2,1.82-.31,2.72-.46.04.04.05.05.09.09.73,1.59,1.86,1.84,3.26,1.42.76-.23,1.6-.26,2.4-.38.34-.33.69-.66,1.03-.99h-.01Z"/>
    <path class="st1" d="M435.08,343.63c-.34.33-.69.66-1.03.99.3-2.09-.81-3.36-2.72-4.15.03.03.05.03.08.05-3.75-4.06-1.18-8.39-2-12.57-.07-.31.28-.84.6-.98,2.53-1.11.66-1.95-.5-2.87.19-.95,1.77-2.41,2.4-2.11.14-.19.27-.38.41-.56-.65-.45-1.3-.92-1.96-1.35-.22-.14-.47-.2-.53-.23-1.54-5.04,1.18-9.97-2.1-15.09,1.27.22,2.55.43,3.98.69.07.91.12,1.65.18,2.41.11.04.22.08.31.12.15-.81.28-1.63.43-2.44,2.32.3,4.58.58,7.45.98-3.51,1.76-2.33,5.01-2.45,7.65-.22,4.66.15,9.42-.14,14.05-.2,3.45-.09,6.9,0,10.38.03.81-.95,1.52-1.53,2.37,1.71,1.84,1.68,1.96-.89,2.67h.03Z"/>
    <path class="st1" d="M492.16,318.78c-1.17-.41-1.83-.65-2.49-.88.19.24.39.49.58.75-1.06,1.08-2.11,2.18-3.36,3.48.14.28.46.96.83,1.69-6.06-.27-6.6-.5-6.91-3.14-.47-4,.09-5.18,2.59-5.08-.23-.76-.45-1.5-.69-2.34,2.05.73,2.21,2.02.49,4.29.62.45,1.22.87,2.07,1.48.09-1.1.01-1.84.23-2.44.58-1.6,1.23-3.03,3.63-2.33,2.17.64,4.39.88,6.57,1.34.23.05.46.31,1.15.83-1.19.37-2.1.65-3.01.92-.03.19-.07.37-.09.56.91.28,1.83.57,2.6.81.28,1.08.61,2.3,1,3.77-.81-.33-1.67-.68-2.94-1.19.62.87.99,1.37,1.35,1.88l-.19.58c-1.71-.64-3.41-1.26-5.45-2,.69-1.02,1.23-1.8,2.02-2.97h.01Z"/>
    <path class="st1" d="M487.94,350.46c.35.96.7,1.92,1.23,3.35-1.19-.56-1.96-.92-2.18-1.02-1.22,1.11-2.19,2-3.17,2.9.77.76,1.63,1.59,2.41,2.36-1.75-.19-3.25-.35-5.45-.57.22-4.42.45-9.33.69-14.27.11-2.32.98-2.56,2.71-.64.22.24.61.34.8.43.12-1.06.22-2.02.33-2.98.23.08.46.15.69.23.08.58.18,1.17.26,1.75.85,0,1.72-.01,2.8-.03-.69,2.7,1.22,6.3-1.17,8.67-1.6-3.2-3.29-1.61-4.94-1.02,1.64-.61,3.39,3.21,5,.83h-.01Z"/>
    <path class="st1" d="M231.01,337.23c.47.19.93.38,1.4.6.83.37,1.68.76,2.44,1.23.64.41.28.95,0,1.63-.49,1.19-1.22,2.34-1.46,3.62-.3,1.59.46,2.84,1.59,3.79-4.28.3-8.09.6-11.65.89,1.37-4.42,2.68-8.67,4.04-13.06,1.22.39,2.44.81,3.63,1.29h.03Z"/>
    <path class="st1" d="M500.31,360.2v4.12c-3.66-.72-7-1.35-9.88-1.9.12-.51.27-1.19.37-1.6,2.86-.2,5.91-.41,9.52-.62h-.01Z"/>
    <path class="st1" d="M501.63,360.05v-2.98c2.76.43,5.81,1.72,7.57-1.14-.46,2.9-.91,5.8-1.42,9.05-.96-.54-1.94-1.1-2.75-1.54,1.08-1.04,2.06-1.96,3.02-2.89-.19-.16-.38-.33-.57-.49h-5.85Z"/>
    <path class="st1" d="M431.34,340.46c.46.77-1.31,3.25-2.94,3.1,0,0,.51-2.79.87-4.36.99.6,2.07,1.26,2.07,1.26h0Z"/>
    <path class="st1" d="M483.28,327.03c-.42,1.29-.84,2.57-1.26,3.86-.33-.12-.64-.26-.96-.38v-6.07c.26-.08.53-.16.79-.26.47.98.95,1.94,1.44,2.91v-.07Z"/>
    <path class="st1" d="M494.3,357.78c-2.06-.66-3.96-1.27-6.03-1.94,2.47-1.65,5.3-.83,6.03,1.94Z"/>
    <path class="st1" d="M465.73,352.81c.2-.5.41-1.02.6-1.52.45.05.91.11,1.35.16v4.81c-.16-.04-.33-.08-.47-.12-.49-1.11-.99-2.22-1.48-3.33Z"/>
    <path class="st1" d="M480.37,331.92c2.13.38,3.55.64,4.97.89.08.12.15.26.23.38-.6.15-1.18.31-1.77.43-.28.07-.64,0-.85.12-.51.31-.96.72-1.44,1.08-.34-.85-.66-1.69-1.15-2.93h.01Z"/>
    <path class="st1" d="M471.18,355.43c-.56-2.25.5-3.59,1.95-4.71.03,0,.05,0,.09.01,1.96-.3,1.14,1.08.84,1.49-.84,1.17-1.91,2.15-2.89,3.22h0Z"/>
    <path class="st1" d="M500.23,358.88c-.96-.84-1.67-1.46-2.38-2.09-.05.07-.12.15-.18.22l.89,1.02c-.23.18-.54.56-.66.49-.92-.56-1.82-1.21-3.24-2.19,4.31-.37,5.66.31,5.55,2.56h.01Z"/>
    <path class="st1" d="M483.28,327.03v.07c1.65.11,3.31.23,5.04.35v-1.26c.27.14.57.26.57.27-.14.58-.2,1.64-.46,1.64-1.71.01-3.51,1.38-5.15-1.07h0Z"/>
  </g>
  <g>
    <g>
      <path class="st0" d="M243.01,226.42c2.44,2.34,5.47,3.98,8.26,5.92,1.49-2.59,3.36-5,4.39-7.78,4.21-11.38,8.18-22.87,12.23-34.32.47-1.34.89-2.7,1.4-4.2-17.76-.16-33.12,18.46-28.87,34.55.54,2.07,1.21,4.48,2.6,5.83h-.01Z"/>
      <path class="st0" d="M376.33,208.39c-.38,7.4-3.33,12.22-8.95,15.28-34.04,18.55-69.93,24.79-107.61,17.49-10.96-2.13-20.93-7.13-27.18-19.78-1.65,13.98,3.06,23.65,13.91,29.44,13.72,7.33,28.61,8.39,43.57,7.61,24.32-1.26,47.96-6.2,70.39-16.6,2.64-1.22,5.24-2.59,7.74-4.1,12.41-7.55,14.28-13.9,8.14-29.36h-.01Z"/>
    </g>
    <path class="st0" d="M232.59,221.38c-1.65,13.97,3.06,23.65,13.91,29.44,13.72,7.33,28.61,8.39,43.57,7.61,24.32-1.26,47.96-6.2,70.39-16.6,2.64-1.22,5.24-2.59,7.74-4.1,12.41-7.55,14.28-13.9,8.14-29.36-.38,7.4-3.33,12.22-8.95,15.28-34.04,18.55-69.93,24.79-107.61,17.49-10.96-2.13-20.93-7.13-27.18-19.78h-.01Z"/>
    <path class="st0" d="M269.28,186.05c-17.76-.16-33.12,18.46-28.87,34.55.54,2.06,1.21,4.48,2.6,5.83,2.44,2.34,5.47,3.98,8.26,5.92,1.49-2.59,3.36-5,4.39-7.78,4.21-11.38,8.18-22.87,12.23-34.32.47-1.34.89-2.7,1.4-4.2h-.01Z"/>
    <path class="st0" d="M362.31,211.94s.04-.01.05-.03c.27-.15.51-.28.76-.42.14-.08.28-.16.42-.24.34-.2.65-.42.95-.66,1.14-.92,2.95-2.34,2.82-3.25-.22-1.41-1.69-2.79-2.93-3.78-.72-.57-2-.54-3.01-.46-19.26,1.5-37.27-4.01-55.07-10.89-1.4-.54-3.24.18-4.77,1.04-.15.05-.28.11-.43.14-.04,0-.09.01-.14.03-.09.01-.19.04-.27.05h-.39c-.05,0-.11,0-.18-.01-.07,0-.15,0-.22-.03-.05,0-.11-.03-.18-.04-.07-.01-.14-.03-.2-.05-.05-.01-.11-.04-.16-.05-.07-.03-.14-.04-.2-.07-.05-.03-.11-.05-.16-.08-.07-.03-.12-.05-.19-.09-.05-.03-.11-.07-.16-.09-.07-.04-.12-.07-.19-.11-.05-.04-.11-.08-.16-.11-.05-.04-.12-.08-.18-.12s-.11-.08-.16-.12-.12-.09-.18-.14-.11-.09-.16-.14c-.05-.05-.12-.09-.18-.15s-.11-.09-.18-.15c-.05-.05-.11-.09-.16-.15s-.12-.11-.18-.16-.12-.11-.18-.16c-.08-.08-.18-.16-.26-.24-.07-.05-.12-.12-.19-.18-.07-.05-.12-.12-.19-.18-.05-.05-.11-.11-.16-.15-.05-.05-.12-.11-.19-.16-.05-.05-.11-.09-.18-.15-.07-.05-.12-.11-.19-.16-.05-.05-.11-.09-.18-.14-.07-.05-.14-.11-.19-.16-.05-.04-.12-.09-.18-.14-.07-.05-.14-.09-.19-.15-.05-.04-.12-.08-.18-.12-.07-.04-.14-.09-.2-.14s-.12-.08-.19-.11c-.07-.04-.14-.08-.2-.11-.07-.04-.14-.07-.19-.09-.07-.03-.15-.07-.22-.09-.07-.03-.14-.05-.2-.08s-.15-.05-.22-.08c-.07-.03-.14-.04-.22-.07-.08-.01-.15-.04-.23-.05-.07-.01-.15-.03-.22-.04-.08,0-.16-.03-.24-.03s-.15,0-.23-.01h-.5c-.08,0-.18.01-.27.03-.08,0-.16.03-.24.04-.09.01-.19.04-.28.07-.08.03-.18.04-.26.07-.09.03-.19.07-.3.09-.09.03-.18.07-.27.09-.09.04-.2.09-.31.14-.09.04-.19.08-.28.14-.11.05-.22.12-.33.18-.09.05-.2.11-.3.18-.03.01-.05.03-.08.04-.31.19-.69.2-.99,0-.16-.11-.35-.24-.57-.39-.04-.03-.08-.05-.14-.09-.19-.14-.41-.27-.62-.42-.04-.03-.07-.04-.11-.07-.24-.16-.49-.33-.76-.5-.05-.04-.11-.07-.16-.11-.27-.18-.56-.35-.83-.53-3.98-2.49-8.17-2.8-11.15,1.19-8.89,11.89-12.71,25.9-13.8,40.8-.09,1.26,1.37,3.68,2.32,3.82,5.73.77,12.06,4.63,16.61-3.01.95-1.59,3.12-2.34,5.27-2.72-.22.38-.43.76-.66,1.14-.16.28-.33.56-.5.85-.14.24-.28.49-.43.75-.22.38-.45.77-.69,1.18-.35.6-.73,1.25-1.14,1.95-.09.18-.2.34-.3.51h0c-.24.43-.51.87-.79,1.34h6.41c1.04,0,2.07-.03,3.12-.04.84-.01,1.68-.03,2.52-.05,1.06-.03,2.1-.07,3.16-.12.81-.03,1.63-.05,2.42-.09,1.08-.05,2.17-.12,3.25-.2.76-.05,1.52-.09,2.28-.15,1.17-.08,2.33-.2,3.5-.31.66-.05,1.33-.11,1.99-.18,1.52-.15,3.01-.34,4.51-.53.3-.04.61-.07.91-.11,1.8-.24,3.59-.5,5.36-.8.53-.08,1.06-.19,1.59-.28,1.25-.22,2.49-.43,3.73-.68.68-.14,1.35-.3,2.05-.43,1.07-.23,2.15-.45,3.22-.7.73-.18,1.46-.37,2.18-.56,1-.26,2.02-.5,3.02-.79.76-.2,1.5-.45,2.26-.66.96-.28,1.94-.57,2.9-.87.77-.24,1.53-.51,2.29-.77.93-.33,1.88-.64,2.82-.98.77-.28,1.54-.58,2.3-.88.92-.35,1.84-.7,2.75-1.08.77-.33,1.53-.65,2.3-.99.91-.39,1.8-.79,2.7-1.21.77-.35,1.53-.73,2.3-1.11.88-.43,1.77-.88,2.66-1.33.76-.39,1.52-.81,2.29-1.23.51-.28,1.03-.54,1.54-.83v-.03c.69-.39,1.4-.76,2.09-1.17-.11-.72-.22-1.45-.33-2.17-.75-.14-1.49-.27-2.4-.43h-.09c-.83-.16-1-1.29-.26-1.69l-.08.04ZM350.97,212.71c-2.3,1.46-4.21,2.78-5.91,3.85-1.03.65-2.25.93-3.47.88-1.67-.07-2.97-.05-3.62-.38-1.14-.56-2.22-1.25-3.29-1.95-.93-.62-1.12-1.92-.39-2.76.47-.56.85-1.35,1.3-2.02.43-.65.93-1.17,1.64-1.18,2.29-.05,13.55.79,13.55.79,1.15.51.56,2.56.19,2.79h0Z"/>
  </g>
</svg>