<?xml version="1.0" encoding="UTF-8"?>
<svg id="Layer_1" xmlns="http://www.w3.org/2000/svg" version="1.1" viewBox="0 0 612 612">
  <!-- Generator: Adobe Illustrator 30.2.1, SVG Export Plug-In . SVG Version: 2.1.1 Build 1)  -->
  <defs>
    <style>
      .st0 {
        fill: #fff;
      }

      .st1 {
        opacity: .48;
      }

      .st1, .st2 {
        fill: #232a3d;
      }

      .st3 {
        fill: #f2c931;
      }

      .st4 {
        fill: #1a2639;
      }
    </style>
  </defs>
  <path class="st4" d="M226.31,386.12c0-3.25,1.72-7.75,5.33-9.26.15-.06.11-.28-.05-.28-10.96,0-121.69-.02-121.69-.02-4.12,0-7.46,3.11-7.46,6.94s3.34,6.94,7.46,6.94h118.04c.16,0,.21-.21.06-.28-1.24-.59-1.69-2.07-1.69-4.04Z"/>
  <g>
    <g>
      <circle class="st3" cx="447.29" cy="283.84" r="62.28"/>
      <path class="st4" d="M367.66,280.59s-.03-.08-.05-.13l.02-.14c.01.08.02.17.02.27Z"/>
      <path class="st4" d="M145.93,339.93c-16.2,0-28.35-13.19-28.35-38.09h0c0-1.5,1.21-2.71,2.71-2.71h52.15c1.53,0,2.77-1.28,2.71-2.81-.69-19.63-11.74-33.18-32.37-33.18-23.09,0-40.35,16.95-40.35,42.9,0,24.3,15.9,40.35,37.35,40.35,13.75,0,25.36-6.43,33.86-18.86.34-.5.18-1.2-.34-1.51h0c-.47-.27-1.06-.14-1.38.29-6.91,9.36-17.23,13.62-26,13.62ZM141.58,265.39c12.13,0,20.05,11.26,20.02,28.62,0,1.5-1.22,2.72-2.72,2.72h-38.12c-1.64,0-2.91-1.44-2.69-3.07,2.24-16.67,11.22-28.28,23.52-28.28Z"/>
      <path class="st4" d="M202.32,224.5c0-.7-.68-1.2-1.34-.99l-8.97,2.79c-2.35.77-3.94,2.97-3.94,5.44v107.12c0,3.16,2.57,5.73,5.73,5.73h2.79c3.16,0,5.73-2.57,5.73-5.73v-114.35Z"/>
      <path class="st4" d="M220.32,271.48v66.5c0,3.65,2.96,6.6,6.6,6.6h.9c3.65,0,6.6-2.96,6.6-6.6v-73.32c0-.69-.66-1.18-1.32-1l-8.82,2.49c-2.35.71-3.96,2.87-3.96,5.33Z"/>
      <path class="st4" d="M297.35,338.34c-.3-.45-.9-.59-1.38-.33-4.61,2.48-8.8,3.28-12.05,3.28-12.15,0-12.15-11.4-12.15-15.75v-55.66c0-.9.73-1.63,1.63-1.63h21.12c.58,0,1.12-.31,1.42-.81l.02-.03c.64-1.09-.14-2.46-1.41-2.46h-21.15c-.9,0-1.63-.73-1.63-1.63v-39.02c0-.7-.68-1.2-1.35-1l-9.9,3.03c-1.8.53-3.03,2.18-3.03,4.06v33c0,.86-.66,1.57-1.52,1.63l-9.02.62c-.55.04-.98.5-.98,1.05v.51c0,.58.47,1.05,1.05,1.05h8.86c.9,0,1.63.73,1.63,1.63v55.96c0,6.45,1.05,20.55,19.5,20.55,8,0,14.1-2.59,20.11-6.46.49-.32.63-.98.3-1.47l-.07-.11Z"/>
      <g>
        <path class="st2" d="M460,330.94c6-4.53,9.01-13.13,12.33-20.3.46-.99-.7-1.94-1.58-1.29l-7.9,5.86c-.18.14-.32.33-.38.55l-4.11,14.03c-.28.97.84,1.76,1.64,1.15Z"/>
        <path class="st2" d="M491.36,290.46s-.03.01-.06.03c0,0,.01,0,.01.01.02-.02.05-.03.05-.05Z"/>
        <path class="st1" d="M491.36,290.46s-.03.01-.06.03c0,0,.01,0,.01.01.02-.02.05-.03.05-.05Z"/>
        <path class="st4" d="M470.21,295.2c-6.97.26-14.22-2.3-20.95-4.73-5.06-1.83-10.5-3.57-15.83-4.02-3.7-.31-4.85,4.92-1.39,6.26l18.64,7.23c2.61,1.01,2.81,4.67.29,5.91-3.27,1.6-6.37,3.96-9.18,6.25h0c1.28-1.88.28-4.47-1.93-4.99s-4.53-.88-6.84-.83c-.99.02-1.99.13-2.97.32-3.26.65-3.41,5.3-.22,6.27l7.02,2.12c2.65.8,3.16,4.37.81,5.84-14.49,9.07-31.26,14.29-48.15,17.3-15.61,2.78-31.73,3.78-47.28.69-8.32-1.65-16.88-4.78-22.14-11.45-5.42-6.87-6.3-16.05-6.48-24.92-.04-1.81,1.43-3.3,3.24-3.3l51.13-.04c1.83,0,3.28-1.51,3.24-3.34-.26-12.47-7.95-24.65-19.29-29.96-22.5-10.54-47.84,7.35-52.59,29.79-2.27,10.73-1.2,22.48,4.69,31.73,5.98,9.39,16.37,15.34,27.19,17.94,10.82,2.61,22.13,2.19,33.21,1.1,42.92-4.2,86.04-19.11,117.89-47.84,2.76-2.49-.13-6.89-3.51-5.37-.46.21-.92.4-1.38.58-2.35.91-4.76,1.35-7.22,1.44ZM337.46,265.39c12,0,19.88,11.03,20.01,28.09.01,1.79-1.46,3.26-3.25,3.26h-36.98c-1.96,0-3.5-1.73-3.22-3.66,2.37-16.35,11.27-27.68,23.43-27.68Z"/>
        <path class="st0" d="M472.49,294.98c-.18.04-.35.03-.52-.02-3.19-.94-35.12-10.29-40.65-10.3-3.06,0-5.17.71-6.48,1.4-.8.42-.73,1.59.12,1.92l39.05,15.08-7.36-.98c-.29-.04-.57.04-.8.22-1.56,1.26-8.08,6.45-12.49,8.35l2.08-2.47c.51-.61.19-1.55-.59-1.71-3.56-.73-11.79-2.14-16.15-.57-1.71.62-2.72,1.55-3.31,2.32-.45.6-.12,1.46.61,1.64l20.53,5.06c.71.17,1.03,1,.62,1.61l-1.16,1.73c-.39.59-.11,1.39.58,1.6l.9.27c-17.75,11.22-43.96,19.34-43.96,19.34,49.2-12.33,77.59-38.82,89.56-50.07.08-.07.15-.13.22-.2-7.43-2.67-13.84,4.39-20.8,5.8Z"/>
      </g>
    </g>
    <path class="st4" d="M234.43,240.34c0,3.91-3.17,7.07-7.08,7.06-3.89,0-7.04-3.17-7.04-7.06s3.14-7.05,7.04-7.06,7.08,3.15,7.08,7.06Z"/>
  </g>
  <g>
    <path class="st4" d="M249.76,370.47l-1.38,6.5c-.69-.6-1.53-.9-2.57-.9-4.49,0-7.46,5.63-7.46,9.35,0,2.42,1.2,3.86,3.2,3.86,1.83,0,3.53-1.2,4.93-3.43l-.67,3.16h1.97l3.95-18.59.02-.52h-.54l-1.46.57ZM242.01,387.82c-1.13,0-1.53-1.38-1.53-2.56,0-3.07,2.34-7.97,5.11-7.97,1.26,0,1.95.94,2.32,1.79-1.15,4.75-3.84,8.74-5.9,8.74Z"/>
    <path class="st4" d="M260.34,376.07c-4.37,0-7.3,4.45-7.3,8.61,0,2.8,1.46,4.6,3.72,4.6,1.83,0,3.62-1.02,5.2-2.95l.32-.39-1.03-.6-.24.28c-1.34,1.6-2.81,2.16-3.74,2.16-1.29,0-2.16-1.34-2.16-3.33,0-.21.01-.43.03-.66,5.61-1.28,8.46-3.05,8.46-5.27,0-1.49-1.28-2.46-3.27-2.46ZM255.36,382.53c.64-2.65,2.53-5.28,4.78-5.28.96,0,1.39.65,1.39,1.3,0,1.53-2.18,2.93-6.17,3.98Z"/>
    <path class="st4" d="M270.77,376.07c-2.3,0-3.9,1.43-3.9,3.47,0,1.83,1.27,2.68,2.4,3.43l.9.6c.96.65,1.72,1.16,1.72,2.25,0,1.31-1.08,2.27-2.56,2.27-1.21,0-2.3-.62-2.99-1.71l-.42-.65-.84,1.73.24.22c1.1,1.02,2.6,1.6,4.1,1.6,2.47,0,4.26-1.61,4.26-3.84,0-1.94-1.27-2.79-2.38-3.54l-1.04-.69c-.81-.54-1.58-1.06-1.58-2.05s.7-1.91,2.05-1.91c1.2,0,2.31.8,2.89,1.49l.44.52.76-1.63-.25-.21c-.95-.82-2.44-1.34-3.8-1.34Z"/>
    <path class="st4" d="M282.73,373.33l.02-.53h-.8l-1.9,3.55-1.72.12-.22,1.23h1.69l-1.71,8.08c-.29,1.39-.2,2.31.27,2.89.33.4.82.61,1.46.61,1.18,0,2.73-.95,4.13-2.53l.28-.32-.87-.79-.29.29c-1.7,1.7-2.49,1.83-2.69,1.83s-.27-.06-.32-.12c-.12-.14-.27-.57,0-1.86l1.71-8.08h3.44l1.12-1.36h-4.26l.65-3.01Z"/>
    <rect class="st4" x="290.09" y="372.04" width="2.35" height="2.35" transform="translate(-167.15 254.98) rotate(-37.57)"/>
    <polygon class="st4" points="289.54 376.73 286.92 389.01 288.89 389.01 291.53 376.68 291.56 376.16 291.02 376.16 289.54 376.73"/>
    <path class="st4" d="M302.66,376.07c-1.88,0-3.55,1.23-4.96,3.67l.65-3.05.02-.52h-.54l-1.48.57-2.61,12.28h1.97l.07-.34c1.66-7.7,4.43-11.15,6.45-11.15.37,0,.64.12.84.35.4.49.48,1.55.2,2.82l-1.78,8.32h1.97l1.72-7.98c.39-1.83.24-3.24-.44-4.08-.47-.59-1.17-.88-2.08-.88Z"/>
    <path class="st4" d="M318.91,377.34c-.74-.85-1.71-1.27-2.95-1.27-4.49,0-7.46,5.63-7.46,9.35,0,2.42,1.2,3.86,3.2,3.86,1.83,0,3.53-1.2,4.92-3.42l-.16.77c-.21.88-.14,1.55.2,1.98.18.22.52.49,1.15.49.47,0,.96-.14,1.55-.46l.15-.08.25-.96-.7.1c-.44.06-.71-.01-.75-.06-.09-.12.02-.66.11-1.1l2.12-9.87.02-.52h-.75l-.91,1.18ZM312.15,387.82c-1.13,0-1.53-1.38-1.53-2.56,0-3.07,2.34-7.97,5.11-7.97,1.26,0,1.95.94,2.32,1.79-1.15,4.75-3.84,8.74-5.9,8.74Z"/>
    <path class="st4" d="M328.83,373.33l.02-.53h-.8l-1.9,3.55-1.72.12-.22,1.23h1.69l-1.71,8.08c-.29,1.39-.2,2.31.27,2.89.33.4.82.61,1.46.61,1.18,0,2.73-.95,4.13-2.53l.28-.32-.87-.79-.29.29c-1.7,1.7-2.49,1.83-2.69,1.83s-.27-.06-.32-.12c-.12-.14-.27-.57,0-1.86l1.71-8.08h3.44l1.12-1.36h-4.26l.65-3.01Z"/>
    <rect class="st4" x="336.2" y="372.04" width="2.35" height="2.35" transform="translate(-157.66 283.47) rotate(-37.61)"/>
    <polygon class="st4" points="335.64 376.73 333.03 389.01 335 389.01 337.64 376.68 337.66 376.16 337.12 376.16 335.64 376.73"/>
    <path class="st4" d="M347.24,376.07c-3.67,0-6.76,3.64-6.76,7.96,0,3.24,1.73,5.26,4.51,5.26,3.67,0,6.76-3.64,6.76-7.96,0-3.24-1.73-5.25-4.51-5.25ZM345.03,388.1c-1.79,0-2.43-2.04-2.43-3.96,0-3.54,2.23-6.89,4.59-6.89,1.79,0,2.43,2.05,2.43,3.96,0,3.54-2.23,6.89-4.59,6.89Z"/>
    <path class="st4" d="M363.34,376.07c-1.88,0-3.55,1.23-4.96,3.67l.65-3.05.02-.52h-.54l-1.48.57-2.61,12.28h1.97l.07-.34c1.66-7.7,4.43-11.15,6.45-11.15.37,0,.64.12.84.35.4.49.48,1.55.21,2.82l-1.78,8.32h1.97l1.72-7.98c.39-1.83.24-3.24-.44-4.08-.47-.59-1.17-.88-2.08-.88Z"/>
    <path class="st4" d="M374.11,376.07c-2.3,0-3.9,1.43-3.9,3.47,0,1.83,1.27,2.68,2.4,3.43l.9.6c.96.65,1.73,1.16,1.73,2.26,0,1.31-1.08,2.27-2.56,2.27-1.21,0-2.3-.62-2.99-1.71l-.42-.65-.84,1.73.24.22c1.1,1.02,2.6,1.6,4.1,1.6,2.47,0,4.26-1.61,4.26-3.84,0-1.94-1.27-2.79-2.38-3.54l-1.04-.69c-.81-.54-1.58-1.06-1.58-2.05s.7-1.91,2.04-1.91c1.2,0,2.31.8,2.89,1.49l.44.52.76-1.63-.25-.21c-.95-.82-2.44-1.34-3.8-1.34Z"/>
    <path class="st4" d="M402.01,378.3l-1.68.56.17.42c.2.5.44,1.28.25,2.33-.24,1.31-.66,2.43-1.23,3.36l-4.17-5.1h0c3.11-.91,4.68-2.53,4.68-4.81,0-2.05-1.62-3.59-3.77-3.59-2.56,0-4.65,2.14-4.65,4.76,0,1.05.31,2.12.92,3.19-2.56,1.14-4.12,3.17-4.12,5.39,0,2.63,2.2,4.47,5.35,4.47,2.02,0,3.76-.62,5.18-1.83l1.71,2.1.22.16h.57l.35-1.95-1.49-1.83c.87-1.24,1.47-2.8,1.79-4.64l.43-2.48v-.51h-.52ZM396.13,372.65c1.23,0,2.02.91,2.02,2.31,0,1.79-1.07,3.03-3.27,3.8l-.3.11c-.62-.87-1.15-1.91-1.15-3.03,0-1.34.94-3.19,2.7-3.19ZM394.06,388.03c-2.23,0-3.62-1.28-3.62-3.35,0-1.69,1.07-3.33,2.76-4.26.18.24.35.46.5.64l4.49,5.5c-1.11.96-2.57,1.48-4.13,1.48Z"/>
    <polygon class="st4" points="419.28 374.89 420.02 375.49 425.36 370.75 422.29 370.75 419.28 374.89"/>
    <path class="st4" d="M420.23,376.07c-4.37,0-7.31,4.45-7.31,8.61,0,2.8,1.46,4.6,3.72,4.6,1.83,0,3.62-1.02,5.2-2.95l.32-.39-1.02-.6-.24.28c-1.34,1.6-2.81,2.16-3.74,2.16-1.29,0-2.16-1.34-2.16-3.33,0-.21.01-.43.03-.66,5.61-1.28,8.46-3.05,8.46-5.27,0-1.49-1.28-2.46-3.27-2.46ZM415.25,382.53c.64-2.65,2.53-5.28,4.78-5.28,1.03,0,1.39.7,1.39,1.3,0,1.52-2.18,2.93-6.17,3.98Z"/>
    <path class="st4" d="M435.12,376.63c-.42,1.2-1.54,3.31-3.34,6.3l-1.7,2.84-1.69-9.42h-1.98l2.29,12.9h.77l3.87-6.42c1.47-2.44,2.45-4.05,3.59-5.81l.44-.67h-2.15l-.1.29Z"/>
    <path class="st4" d="M448.23,377.34c-.74-.85-1.71-1.27-2.95-1.27-4.49,0-7.46,5.63-7.46,9.35,0,2.42,1.2,3.86,3.2,3.86,1.83,0,3.53-1.2,4.92-3.42l-.16.76c-.21.88-.14,1.54.2,1.98.18.23.52.49,1.15.49.47,0,.96-.14,1.55-.46l.15-.08.25-.96-.7.1c-.44.06-.71-.01-.75-.06-.09-.12.02-.66.11-1.1l2.12-9.87.02-.52h-.75l-.91,1.18ZM441.47,387.82c-1.13,0-1.53-1.38-1.53-2.56,0-3.07,2.34-7.97,5.11-7.97,1.26,0,1.95.94,2.32,1.79-1.15,4.75-3.84,8.74-5.9,8.74Z"/>
    <path class="st4" d="M457.62,376.07c-2.3,0-3.9,1.43-3.9,3.47,0,1.83,1.27,2.68,2.4,3.43l.9.6c.96.65,1.72,1.16,1.72,2.25,0,1.31-1.08,2.27-2.56,2.27-1.21,0-2.3-.62-2.99-1.71l-.42-.65-.84,1.73.24.22c1.1,1.02,2.6,1.6,4.1,1.6,2.47,0,4.26-1.61,4.26-3.84,0-1.94-1.27-2.79-2.38-3.54l-1.04-.69c-.81-.54-1.58-1.06-1.58-2.05s.7-1.91,2.05-1.91c1.2,0,2.31.8,2.89,1.49l.44.52.76-1.63-.25-.21c-.95-.82-2.44-1.34-3.8-1.34Z"/>
    <rect class="st4" x="466.99" y="372.04" width="2.35" height="2.35" transform="translate(-130.47 363.29) rotate(-37.61)"/>
    <polygon class="st4" points="466.43 376.73 463.82 389.01 465.78 389.01 468.43 376.68 468.45 376.16 467.91 376.16 466.43 376.73"/>
    <path class="st4" d="M478.02,376.07c-3.67,0-6.76,3.64-6.76,7.96,0,3.24,1.73,5.26,4.51,5.26,3.67,0,6.76-3.64,6.76-7.96,0-3.24-1.73-5.25-4.51-5.25ZM475.82,388.1c-1.79,0-2.43-2.04-2.43-3.96,0-3.54,2.23-6.89,4.59-6.89,1.79,0,2.43,2.05,2.43,3.96,0,3.54-2.23,6.89-4.59,6.89Z"/>
    <path class="st4" d="M494.13,376.07c-1.88,0-3.55,1.23-4.96,3.67l.65-3.05.02-.52h-.54l-1.48.57-2.61,12.28h1.97l.07-.34c1.66-7.7,4.43-11.15,6.45-11.15.37,0,.64.12.84.35.4.49.48,1.55.2,2.82l-1.78,8.32h1.97l1.72-7.98c.39-1.83.24-3.24-.44-4.08-.47-.59-1.17-.88-2.08-.88Z"/>
    <path class="st4" d="M504.85,377.25c1.2,0,2.31.8,2.89,1.49l.44.52.76-1.63-.25-.21c-.95-.82-2.44-1.34-3.8-1.34-2.3,0-3.9,1.43-3.9,3.47,0,1.83,1.28,2.68,2.49,3.49l.81.54c.96.65,1.73,1.16,1.73,2.25,0,1.31-1.08,2.27-2.56,2.27-1.2,0-2.29-.62-2.99-1.71l-.42-.65-.84,1.73.24.22c1.11,1.02,2.6,1.6,4.1,1.6,2.47,0,4.26-1.61,4.26-3.84,0-1.94-1.27-2.79-2.38-3.54l-1.04-.69c-.81-.54-1.58-1.06-1.58-2.05s.7-1.91,2.04-1.91Z"/>
  </g>
</svg>